<svg xmlns="http://www.w3.org/2000/svg" width="107.204" height="94.196" viewBox="0 0 107.204 94.196">
  <g id="Je8Ai6" opacity="0.499">
    <g id="Grupo_203" data-name="Grupo 203" transform="translate(0 0)">
      <path id="Trazado_582" data-name="Trazado 582" d="M897.561,516.124a3.5,3.5,0,0,1-1.854,1.845,2.13,2.13,0,0,1-3.035-.519c-2.076-2.388-3.969-4.93-6.085-7.288-.885-.986-.861-2.021-.106-2.622,1.751-1.393,2.945-1.473,3.938-.27.962,1.166,1.912,2.342,2.9,3.483.522.6.55,1.041-.211,1.426-.4.2-.757.488-1.164.666-.913.4-.969.9-.319,1.621.667.738,1.263,1.539,1.922,2.284.753.851,1.332.832,2.287-.014.7-.617.172-1.1-.177-1.6-.183-.261-.619-.488-.232-.849.422-.394.759-.048,1.031.262.385.44.738.909,1.1,1.365Zm-8.913-8.731a1.971,1.971,0,0,0-1.539.855c-.325.526.083.812.3,1.182a12.108,12.108,0,0,0,1.808,2.063c1.153,1.228,1.16,1.195,2.555.29.448-.291.552-.546.221-.987a31.483,31.483,0,0,0-2.619-3.057A.87.87,0,0,0,888.649,507.393Z" transform="translate(-790.357 -433.959)" fill="#101820"/>
      <path id="Trazado_583" data-name="Trazado 583" d="M764.509,542.124a45.129,45.129,0,0,1-.779-6.235c-.37-3.254-.619-6.522-.917-9.784q-.056-.618-.084-1.239c-.014-.3.078-.53.438-.581a17.865,17.865,0,0,1,3.2-.213c.261.01.535.055.561.326.034.356-.314.439-.572.462a3.736,3.736,0,0,1-1.337-.016c-.9-.261-1.179.217-1.124.926.157,2.053.394,4.1.589,6.151.057.6.514.574.909.584.339.009.679-.1,1.021-.119a.552.552,0,0,1,.643.53c.02.39-.272.451-.622.507-1.836.293-1.818.3-1.583,2.2.182,1.463.381,2.928.449,4.4.037.8.4.932,1.042.854.408-.05.813-.13,1.221-.186.478-.065.989-.027,1.023.557.031.519-.514.479-.863.519-.686.079-1.378.093-2.068.145-.191.014-.428-.053-.521.214Z" transform="translate(-692.789 -447.928)" fill="#101820"/>
      <path id="Trazado_584" data-name="Trazado 584" d="M725.821,543.132a1.355,1.355,0,0,1-.411-.952c.262-4.051.392-8.112.946-12.141.092-.668.035-1.349.072-2.024a9.919,9.919,0,0,1,.256-2.089c.071-.261.118-.633.447-.585a.623.623,0,0,1,.448.732c-.145.688.005,1.387-.124,2.057-.319,1.657-.193,3.34-.363,5.008-.309,3.041-.456,6.1-.625,9.152-.022.4-.364.528-.438.841Z" transform="translate(-663.231 -448.936)" fill="#101820"/>
      <path id="Trazado_585" data-name="Trazado 585" d="M426.694,295.119a14.1,14.1,0,0,1-.2-3.27,69.351,69.351,0,0,1,.343-9.615c.781-6.711,2.148-13.258,5.381-19.3a32.043,32.043,0,0,1,18.352-15.848,34.207,34.207,0,0,1,9.238-1.878c.924-.051,1.849-.175,2.781-.173.577,0,.85.247.913.86a123.286,123.286,0,0,1,.819,14.439c-.095,6.221.169,12.438.216,18.658.016,2.064-.389,2.56-2.47,2.445-2.37-.131-4.731-.451-7.094-.7-7.147-.759-13.822.309-19.542,5.052a48.393,48.393,0,0,0-8,8.627q-.215.291-.45.566C426.949,295.03,426.872,295.041,426.694,295.119Z" transform="translate(-426.467 -226.938)" fill="#2d3136"/>
      <path id="Trazado_586" data-name="Trazado 586" d="M493.078,412.772a59.912,59.912,0,0,0-6.409-.778,138.068,138.068,0,0,0-14.276-.373c-5.59.214-11.161.683-16.531,2.443-4.17,1.367-7.845,3.441-10.345,7.206a27.164,27.164,0,0,0-1.846,3.522,14.992,14.992,0,0,1,2.006-8.578,26.753,26.753,0,0,1,2.462-3.145c4.4-4.216,9.8-6.455,15.6-7.9a61.966,61.966,0,0,1,11.542-1.614,126.838,126.838,0,0,1,17.591.419c4.36.363,8.72.806,13.088.917a96.489,96.489,0,0,0,16.333-.541c4.8-.7,9.505-1.675,13.751-4.151a14.628,14.628,0,0,0,6.049-6.319,32.639,32.639,0,0,0,1.341-3.713,8.872,8.872,0,0,1,.457,1.25,7.471,7.471,0,0,1,.091,1.339c.015.828.009,1.655.011,2.483l-.51,2.016a.214.214,0,0,0-.111.291.2.2,0,0,1-.05.126,1.078,1.078,0,0,0-.423.567,22.119,22.119,0,0,1-9.371,9.464,41.355,41.355,0,0,1-12.664,4.309,73.847,73.847,0,0,1-9.943,1.12,107.049,107.049,0,0,1-14.565-.373A8.414,8.414,0,0,0,493.078,412.772Z" transform="translate(-440.069 -341.881)" fill="#2d3136"/>
      <path id="Trazado_587" data-name="Trazado 587" d="M633.589,195.751c0-6.152-.021-12.3.023-18.457.007-.916-.266-1.262-1.153-1.2-3.522.231-7.048.082-10.573.1-.594,0-.768.2-.765.783.029,5.426-.111,10.857.084,16.277.232,6.461.011,12.919.147,19.376.015.715-.221.848-.9.808a19.97,19.97,0,0,1-3.26-.5,1.716,1.716,0,0,1-1.484-1.792c-.358-7.289-.257-14.583-.126-21.869.073-4.1-.028-8.207.247-12.3.044-.663-.257-.865-.763-.76-1.7.352-2.569-.436-2.932-2a1.873,1.873,0,0,0-.125-.281c-.729-1.737-.728-1.748,1.207-1.747.585,0,1.169.082,1.755.119.683.043.994-.222.972-.965a30.069,30.069,0,0,1,.39-5.848,7.825,7.825,0,0,1,5.96-6.734,16.635,16.635,0,0,1,11.115.415,7.938,7.938,0,0,1,5.118,6.922c.412,4.049.361,8.126.468,12.193.211,8.082.224,16.165.167,24.248-.029,4.138-.261,8.275-.4,12.412-.026.78-.326,1.22-1.2,1.168a16.311,16.311,0,0,1-3.6-.756c-.569-.166-.383-.672-.383-1.051q-.015-9.281-.007-18.561Zm-6.133-23.561v.127c1.729,0,3.459-.039,5.186.017.813.026,1.013-.285.982-1.032-.055-1.312-.094-2.63-.022-3.94a5.158,5.158,0,0,0-4.74-5.255,13.242,13.242,0,0,0-3.072.115c-2.58.407-4.534,2.031-4.646,4.82-.058,1.45.014,2.9-.024,4.355-.015.572.152.806.739.8C623.724,172.177,625.59,172.189,627.456,172.189Z" transform="translate(-573.066 -158.005)" fill="#101820"/>
      <path id="Trazado_588" data-name="Trazado 588" d="M754.261,186.768c0-8.816.017-17.632-.023-26.448-.005-1.066.318-1.334,1.355-1.321,3.234.043,6.474-.044,9.581,1.077a9.326,9.326,0,0,1,5.456,4.279,6.638,6.638,0,0,1-1.47,8.317c-1.322,1.2-1.27,1.233.442,1.723a26.06,26.06,0,0,1,13.049,7.947,16.58,16.58,0,0,1,4.05,13.53c-.853,6.375-4.777,10.614-9.935,13.886a28.964,28.964,0,0,1-12.376,4.253c-2.957.34-5.917.346-8.881.421-1.119.028-1.274-.343-1.271-1.318.032-8.781.019-17.563.019-26.344Zm5.2,6.818h-.011c0,5.255.014,10.51-.017,15.765,0,.729.193.952.923.919a30.8,30.8,0,0,0,7.309-1.052c4.766-1.4,8.9-3.787,11.768-7.941a14.509,14.509,0,0,0-3.983-19.856,25.14,25.14,0,0,0-14.844-4.605c-.889,0-1.177.164-1.169,1.108C759.485,183.144,759.46,188.365,759.46,193.585Zm0-25.784h.031c0,1.416.034,2.833-.015,4.248-.022.636.21.723.778.714a8.3,8.3,0,0,0,3.537-.929,4.548,4.548,0,0,0,1.73-6.415,6.743,6.743,0,0,0-5.214-2.679c-.634-.056-.868.181-.855.814C759.482,164.969,759.462,166.385,759.462,167.8Z" transform="translate(-686.065 -158.792)" fill="#101820"/>
      <path id="Trazado_589" data-name="Trazado 589" d="M530.5,374.341c0-.828,0-1.656-.011-2.483a7.466,7.466,0,0,0-.091-1.339,8.878,8.878,0,0,0-.457-1.25,32.629,32.629,0,0,1-1.341,3.713,14.628,14.628,0,0,1-6.049,6.319c-4.246,2.475-8.947,3.455-13.751,4.151a96.492,96.492,0,0,1-16.333.541c-4.368-.111-8.728-.553-13.088-.917a126.838,126.838,0,0,0-17.591-.419,61.972,61.972,0,0,0-11.542,1.614c-5.791,1.442-11.2,3.681-15.6,7.9a26.753,26.753,0,0,0-2.462,3.145c-.426-.367-.536.155-.675.306a15.534,15.534,0,0,0-2.9,4.554,27.014,27.014,0,0,0-1.569,5.529.413.413,0,0,1-.285-.381c-.651-7.691.733-14.725,6.718-20.191a29.117,29.117,0,0,1,13.938-6.871,56.168,56.168,0,0,1,14.69-1,114.452,114.452,0,0,1,13.308,1.76c5.559.956,11.081,2.124,16.691,2.808a86.253,86.253,0,0,0,15.352.735c5.192-.3,10.282-1.236,14.822-4.089a15.859,15.859,0,0,0,7.135-10.174c.349-1.456.576-2.941.879-4.519A19.489,19.489,0,0,1,530.5,374.341Z" transform="translate(-426.582 -320.98)" fill="#101820"/>
      <path id="Trazado_590" data-name="Trazado 590" d="M681.33,441.357a8.414,8.414,0,0,1,3.273-.01,107.039,107.039,0,0,0,14.565.373,73.842,73.842,0,0,0,9.943-1.12,41.356,41.356,0,0,0,12.664-4.309,22.119,22.119,0,0,0,9.37-9.464,1.078,1.078,0,0,1,.423-.567,17.307,17.307,0,0,1-3.257,6.467c-3.631,5.143-8.832,7.875-14.754,9.514a53.744,53.744,0,0,1-17.406,1.411A81.364,81.364,0,0,1,681.33,441.357Z" transform="translate(-628.321 -370.466)" fill="#101820"/>
      <path id="Trazado_591" data-name="Trazado 591" d="M622.711,521.5c-.3.005-.548.283-.7.78-.447,1.427-.948,2.836-1.427,4.253a5.748,5.748,0,0,1-.3.867c-.206.388-.444.913-.987.675-.5-.219-.243-.742-.126-1.1,1.676-5.046,3.378-10.082,5.057-15.126a.857.857,0,0,1,1.16-.67c.761.191,1.523.376,2.281.578a1.6,1.6,0,0,1,1.216,2.215c-.571,1.836-1.18,3.66-1.8,5.48a2.92,2.92,0,0,1-1.291,1.424.732.732,0,0,0-.317,1.1,2.775,2.775,0,0,1-.257,2.607,16.063,16.063,0,0,0-.886,2.982c-.065.264-.167.519-.23.783-.126.522-.459.806-.959.6-.561-.233-.1-.637-.026-.945.384-1.655,1.406-3.124,1.438-4.88A1.7,1.7,0,0,0,622.711,521.5Zm1.167-1.023a2.426,2.426,0,0,0,2.351-1.764c.534-1.479,1.014-2.978,1.545-4.458.409-1.141.2-1.62-1.273-2.133-.855-.3-1.3.352-1.536,1.067-.661,2.031-1.293,4.072-1.924,6.113C622.695,520.418,622.75,520.483,623.878,520.476Z" transform="translate(-578.953 -437.687)" fill="#101820"/>
      <path id="Trazado_592" data-name="Trazado 592" d="M694.143,557.989a12.6,12.6,0,0,1-2.5-.433,1.786,1.786,0,0,1-1.149-2.06c.286-2,.722-3.985.894-6.01a2.737,2.737,0,0,1,2.547-2.045c.345-.016.691.007,1.035-.011.462-.024.841-.26.858-.722a.867.867,0,0,0-.8-.93c-.51-.078-1.025-.128-1.528-.235-.312-.066-.784-.094-.674-.574.077-.336.425-.352.768-.282.57.116,1.153.162,1.727.261,1.42.246,1.85,1.306,1.385,2.647a12.631,12.631,0,0,0-.423,3.21c-.153,2.146-.839,4.213-.876,6.38C695.4,557.858,694.872,558.184,694.143,557.989ZM691.7,555.6c-.186.941.351,1.259,1.138,1.358a1.486,1.486,0,0,0,1.8-1.551c.021-.375.049-.751.1-1.123.234-1.7.479-3.392.716-5.089a.7.7,0,0,0-.272-.727c-.634-.461-2.48.14-2.6.913C692.252,551.45,692.146,553.552,691.7,555.6Z" transform="translate(-635.557 -464.235)" fill="#101820"/>
      <path id="Trazado_593" data-name="Trazado 593" d="M657.527,551.775c-.14.9.556,1.016,1.1,1.1.564.082,1.288.318,1.578-.528a7.362,7.362,0,0,0,.212-.8c.09-.407.336-.619.737-.489s.4.423.326.828c-.179.985-.549,1.851-1.614,1.988a3.994,3.994,0,0,1-3.113-.778c-.583-.483-.462-1.268-.3-1.946q1-4.249,2.033-8.487a2.234,2.234,0,0,1,2.822-1.784c.339.06.676.132,1.011.21a1.522,1.522,0,0,1,1.287,1.972c-.32,1.46-.687,2.91-1.053,4.359a.828.828,0,0,1-1.05.722c-.674-.13-1.359-.2-2.026-.36-.6-.14-.961-.092-1.1.633C658.148,549.547,657.814,550.657,657.527,551.775Zm3.416-10.085a1.033,1.033,0,0,0-1.152.789c-.393,1.055-.467,2.182-.778,3.246-.2.686.009,1.093.6,1.079.68-.017,1.65.961,2.04-.4.3-1.052.566-2.118.768-3.193C662.607,542.2,662.116,541.706,660.943,541.691Z" transform="translate(-608.513 -461.202)" fill="#101820"/>
      <path id="Trazado_594" data-name="Trazado 594" d="M843.758,533.418c-.1-1.3.694-1.848,1.524-2.361.442-.273,1.039-.495.726-1.146-.3-.619-.885-.681-1.515-.452-.514.186-1.038.346-1.564.5a.449.449,0,0,1-.578-.309c-.075-.272.132-.417.393-.5a18.027,18.027,0,0,1,2.232-.741,1.667,1.667,0,0,1,1.794.913c1.086,1.977,2.134,3.975,3.182,5.973.647,1.234,1.243,2.494,1.906,3.719.341.629.285,1-.446,1.232-1.186.384-2.291,1.131-3.643.549a1.773,1.773,0,0,1-.975-.846c-.951-1.86-1.9-3.723-2.888-5.562A2.553,2.553,0,0,1,843.758,533.418Zm6.83,5.615a3.926,3.926,0,0,0-.29-1.09c-1.166-1.768-2.032-3.7-3.022-5.558-.344-.647-.707-.992-1.441-.595-.957.518-1.31,1.253-.934,1.965.775,1.466,1.556,2.928,2.318,4.4a8.106,8.106,0,0,0,.829,1.53,1.056,1.056,0,0,0,1.443.3C849.981,539.743,850.527,539.594,850.588,539.033Z" transform="translate(-755.839 -451.34)" fill="#101820"/>
      <path id="Trazado_595" data-name="Trazado 595" d="M796.018,542.12a2.342,2.342,0,0,1,2.305,2.241.587.587,0,0,1-.364.573.463.463,0,0,1-.6-.27,2.8,2.8,0,0,1-.257-.776.853.853,0,0,0-1.075-.814c-.695.108-1.548.013-1.817.891a3.553,3.553,0,0,0,1.384,3.12,3.151,3.151,0,0,0,1.064.37c1.973.148,2.9,1.293,3.188,3.149.131.841.395,1.66.561,2.5a1.52,1.52,0,0,1-1.386,1.853c-.814.069-1.556.64-2.468.138a2.44,2.44,0,0,1-1.354-1.806c-.081-.424-.081-.768.4-.9.5-.135.674.22.8.595.49,1.511.8,1.679,2.232,1.163a.945.945,0,0,0,.712-1.268c-.248-.889-.469-1.785-.7-2.678a2.277,2.277,0,0,0-2.171-1.859c-2.492-.192-3.474-2.619-3.347-4.5a1.449,1.449,0,0,1,1.088-1.347C794.821,542.267,795.505,542.391,796.018,542.12Z" transform="translate(-716.848 -462.228)" fill="#101820"/>
      <path id="Trazado_596" data-name="Trazado 596" d="M822.632,527.043c-.027.049-.057.187-.128.214-1.12.421-.6,1.094-.332,1.794,1.165,3.026,2.29,6.068,3.44,9.1a1.7,1.7,0,0,1,.183.993c-.052.227-.264.3-.483.316-.449.04-.6-.3-.723-.614-.718-1.887-1.415-3.782-2.128-5.671-.543-1.44-1.124-2.866-1.64-4.315-.2-.566-.481-.883-1.115-.816-.219.023-.5.082-.575-.267-.058-.287.073-.436.333-.55.59-.258.551-.68.3-1.185a7.67,7.67,0,0,1-.41-1.162.542.542,0,0,1,.265-.707c.356-.173.611.037.77.314a4.042,4.042,0,0,1,.331.857c.22.727.465,1.386,1.453,1.229A.383.383,0,0,1,822.632,527.043Z" transform="translate(-737.45 -447.965)" fill="#101820"/>
      <path id="Trazado_597" data-name="Trazado 597" d="M871.657,521.92c.043.268-.157.375-.34.452a.608.608,0,0,1-.793-.288c-.867-1.275-1.745-2.542-2.6-3.822-1.163-1.732-2.327-3.464-3.459-5.216-.365-.565-.745-.956-1.484-.778-.221.053-.507.073-.626-.215s.1-.455.305-.574c.47-.273.311-.608.108-.937-.268-.436-.576-.848-.83-1.291a.544.544,0,0,1,.114-.741c.319-.284.52-.017.7.146a3.112,3.112,0,0,1,.573.72c.4.672.8,1.281,1.745,1.053.176-.042.432-.067.518.2a.42.42,0,0,1-.172.541c-.637.358-.383.715-.075,1.167,2,2.943,3.976,5.9,5.964,8.857A1.429,1.429,0,0,1,871.657,521.92Z" transform="translate(-771.284 -435.508)" fill="#101820"/>
      <path id="Trazado_598" data-name="Trazado 598" d="M923.038,424.544a.214.214,0,0,1,.111-.291A.205.205,0,0,1,923.038,424.544Z" transform="translate(-819.741 -368.876)" fill="#101820"/>
    </g>
  </g>
</svg>
