<svg xmlns="http://www.w3.org/2000/svg" width="142.133" height="53.572" viewBox="0 0 142.133 53.572">
  <g id="Capa_2" data-name="Capa 2" transform="translate(59 -29)" opacity="0.499">
    <g id="Grupo_166" data-name="Grupo 166" transform="translate(-59 29)">
      <path id="Trazado_479" data-name="Trazado 479" d="M564.012,50.81a13.062,13.062,0,0,1,7.768-2.082q5.285,0,8.3,2.643t3.017,7.556V75.961h-6.408v-3.1h-.749a6.513,6.513,0,0,1-2.268,2.616,8.217,8.217,0,0,1-4.886,1.228,10.562,10.562,0,0,1-6.968-2.271,7.622,7.622,0,0,1-2.75-6.217,7.277,7.277,0,0,1,2.8-6.117,11.875,11.875,0,0,1,7.448-2.16h7.262v-1.5a4.245,4.245,0,0,0-1.228-3.179,5.067,5.067,0,0,0-3.685-1.2,5.555,5.555,0,0,0-3.736,1.15,5.207,5.207,0,0,0-1.71,3.068L560.034,56.2A10.423,10.423,0,0,1,564.012,50.81Zm2.936,19.572a5.222,5.222,0,0,0,3.23.881,6.6,6.6,0,0,0,4.62-1.63,5.468,5.468,0,0,0,1.789-4.245V64.96h-6.78a4.587,4.587,0,0,0-2.939.854,2.741,2.741,0,0,0-1.067,2.244A2.787,2.787,0,0,0,566.948,70.383Z" transform="translate(-559.033 -33.069)"/>
      <path id="Trazado_480" data-name="Trazado 480" d="M573.369,50.888a12.279,12.279,0,0,1,7.637-2.16,12.6,12.6,0,0,1,7.208,1.948,9.563,9.563,0,0,1,3.9,5.261l-6.088,1.869q-.853-3.952-5.018-3.952a5.19,5.19,0,0,0-2.939.695,2.2,2.2,0,0,0-1.013,1.923A2.171,2.171,0,0,0,578.1,58.42a9.569,9.569,0,0,0,3.229,1.094l1.387.267a34.87,34.87,0,0,1,5.662,1.549,8.336,8.336,0,0,1,3.5,2.457A6.457,6.457,0,0,1,593.181,68a7.613,7.613,0,0,1-2.993,6.408q-2.99,2.3-8.116,2.3a14.8,14.8,0,0,1-8.515-2.241,9.238,9.238,0,0,1-3.979-6.408l6.193-1.6q.909,5.123,6.3,5.123a5.8,5.8,0,0,0,3.418-.851,2.605,2.605,0,0,0,1.174-2.193,2.221,2.221,0,0,0-1.121-1.95,10.934,10.934,0,0,0-3.685-1.2l-1.387-.269a18.766,18.766,0,0,1-7.343-2.748,6.28,6.28,0,0,1-2.589-5.474A7.142,7.142,0,0,1,573.369,50.888Z" transform="translate(-541.238 -33.069)"/>
      <path id="Trazado_481" data-name="Trazado 481" d="M600.625,49h7.262L593.363,86.173H586.1l3.736-8.97-11-28.2H586.1l6.993,19.12h.536Z" transform="translate(-525.559 -32.6)"/>
      <path id="Trazado_482" data-name="Trazado 482" d="M597.391,53.227h.533q2.081-4.38,8.17-4.38a10.25,10.25,0,0,1,5.393,1.414,9.576,9.576,0,0,1,3.634,3.925,12.55,12.55,0,0,1,1.279,5.767V75.76h-6.726V60.274a6.23,6.23,0,0,0-1.444-4.485,5.592,5.592,0,0,0-4.218-1.5,5.9,5.9,0,0,0-4.806,2.055,8.734,8.734,0,0,0-1.708,5.74V75.76H590.77V49.273h6.621Z" transform="translate(-505.347 -32.868)"/>
      <path id="Trazado_483" data-name="Trazado 483" d="M603.607,55.508a12.968,12.968,0,0,1,4.967-4.991,13.9,13.9,0,0,1,6.993-1.789,13.227,13.227,0,0,1,8.73,2.8,12.39,12.39,0,0,1,4.3,7.448l-6.513,1.39A6.891,6.891,0,0,0,620.16,56.2a6.054,6.054,0,0,0-4.485-1.6,6.672,6.672,0,0,0-5.153,2.19,8.462,8.462,0,0,0-2,5.929,8.451,8.451,0,0,0,2,5.926,6.663,6.663,0,0,0,5.153,2.19,6.284,6.284,0,0,0,4.512-1.549,7.5,7.5,0,0,0,2.109-4.272l6.516,1.549a13.673,13.673,0,0,1-4.539,7.37,13.247,13.247,0,0,1-8.706,2.775,13.9,13.9,0,0,1-6.993-1.789,12.95,12.95,0,0,1-4.967-4.991,15.223,15.223,0,0,1,0-14.419Z" transform="translate(-486.679 -33.069)"/>
      <rect id="Rectángulo_273" data-name="Rectángulo 273" width="26.647" height="5.586"/>
    </g>
  </g>
</svg>
