<svg xmlns="http://www.w3.org/2000/svg" width="165.8" height="56.275" viewBox="0 0 165.8 56.275">
  <g id="Grupo_202" data-name="Grupo 202" opacity="0.499">
    <g id="Grupo_200" data-name="Grupo 200" transform="translate(0 0)">
      <path id="Trazado_553" data-name="Trazado 553" d="M165.29,378.931l.162,33.164,30.9,5,.11-11.93-11.3,5.27-14.292-30.651.287-.134-5.86-.72Zm31.2,22.951-9.9,4.616L174.8,381.219l1.9-.885,19.964,2.456Z" transform="translate(-165.06 -360.822)" fill="#070504" fill-rule="evenodd"/>
      <path id="Trazado_554" data-name="Trazado 554" d="M217.326,352.124l-25.732-4.016-26.7,12.55,13.616,2.77,22.839-10.649,2.725,5.844,13.248-6.5Zm-33.929,12.3,16.522-7.7,1.5,3.211L189.661,365.7Z" transform="translate(-164.898 -348.108)" fill="#070504" fill-rule="evenodd"/>
      <path id="Trazado_555" data-name="Trazado 555" d="M249.2,358.265l-1.2,35.007L228.4,405.706l-.684-11.9,13.27-6.187-9.534-20.447,17.745-8.909Zm-21.664,32.358,9.514-4.436L228.8,368.5l-2.47,1.24Z" transform="translate(-190.238 -352.298)" fill="#070504" fill-rule="evenodd"/>
    </g>
    <path id="Trazado_556" data-name="Trazado 556" d="M374.944,377.4h4.1l-7.576-18.878h-4.254L359.641,377.4h4.1l1.334-3.574h8.533l1.334,3.574Zm-64.869,0c3.42-4.968,6.294-13.178,7.529-18.878h-3.568a61.567,61.567,0,0,1-5.345,14.473,61.518,61.518,0,0,1-5.345-14.473h-3.568c1.235,5.7,4.109,13.91,7.529,18.878Zm-16.489.251a8.439,8.439,0,0,0,4.379-1.233v-4.229a5.787,5.787,0,0,1-4.379,1.863c-3.549,0-5.613-2.694-5.613-6.092s2.064-6.066,5.613-6.066a5.824,5.824,0,0,1,4.379,1.837V359.5a8.209,8.209,0,0,0-4.379-1.233c-5.487,0-9.213,4.329-9.213,9.691s3.725,9.691,9.213,9.691Zm36.352-9.993a4.229,4.229,0,0,0,2.115-3.927c0-3.272-2.467-5.21-5.588-5.21h-7.048V377.4h8.508c3.1,0,5.537-1.888,5.537-5.135a4.537,4.537,0,0,0-3.524-4.606Zm-1.661-3.55a2.316,2.316,0,0,1-2.266,2.316h-2.819v-4.606h2.819a2.294,2.294,0,0,1,2.266,2.29Zm-.907,9.968h-4.178v-4.581h4.178a2.29,2.29,0,1,1,0,4.581Zm8.759,3.323h3.8V358.517h-3.8V377.4Zm22.6-18.878h-4.858L347,365.892v-7.375h-3.8V377.4H347v-9.44l11.276,10.7v-5.084l-7.375-6.822,7.828-8.231Zm7.5,12.182,3.121-8.332,3.1,8.332Z" transform="translate(-214.18 -352.298)" fill="#070504" fill-rule="evenodd"/>
    <path id="Trazado_557" data-name="Trazado 557" d="M442.385,422.484a1.937,1.937,0,0,0-1.512.71l-.038-.616h-.756v4.667h.821v-2.819a1.234,1.234,0,0,1,1.26-1.213,1.168,1.168,0,0,1,1.213,1.176v2.856h.831v-2.949A1.758,1.758,0,0,0,442.385,422.484Z" transform="translate(-278.405 -378.787)" fill-rule="evenodd"/>
    <path id="Trazado_558" data-name="Trazado 558" d="M426.223,427.338a2.432,2.432,0,1,0-2.277-2.427,2.293,2.293,0,0,0,2.277,2.427Zm0-.737a1.712,1.712,0,0,1,0-3.388,1.712,1.712,0,0,1,0,3.388Z" transform="translate(-271.75 -378.787)" fill-rule="evenodd"/>
    <path id="Trazado_559" data-name="Trazado 559" d="M427.266,420.119h.672l1.017-1.446h-.849Z" transform="translate(-273.12 -377.214)" fill-rule="evenodd"/>
    <rect id="Rectángulo_278" data-name="Rectángulo 278" width="0.821" height="4.666" transform="translate(146.272 43.791)"/>
    <path id="Trazado_560" data-name="Trazado 560" d="M414.192,420.406a.54.54,0,0,0,.541-.532.546.546,0,1,0-1.092,0A.542.542,0,0,0,414.192,420.406Z" transform="translate(-267.5 -377.483)" fill-rule="evenodd"/>
    <path id="Trazado_561" data-name="Trazado 561" d="M401.6,427.338a1.981,1.981,0,0,0,1.2-.383v-.821a1.506,1.506,0,0,1-1.12.5,1.73,1.73,0,1,1,1.12-2.949v-.83a1.987,1.987,0,0,0-1.2-.374,2.438,2.438,0,0,0,0,4.854Z" transform="translate(-261.624 -378.787)" fill-rule="evenodd"/>
    <path id="Trazado_562" data-name="Trazado 562" d="M386.372,422.484a2.129,2.129,0,0,0-1.857.84l.569.5a1.418,1.418,0,0,1,1.25-.644c.635,0,1.157.308,1.157,1.017v.55l-.849-.14c-1.633-.27-2.268.465-2.268,1.3a1.378,1.378,0,0,0,1.428,1.429,2.706,2.706,0,0,0,1.727-.756l.047.663h.728v-2.986a1.724,1.724,0,0,0-1.932-1.774Zm-1.157,3.386c0-.457.336-.858,1.512-.644l.765.13v.532a2.329,2.329,0,0,1-1.5.711A.709.709,0,0,1,385.215,425.87Z" transform="translate(-255.428 -378.787)" fill-rule="evenodd"/>
    <path id="Trazado_563" data-name="Trazado 563" d="M372.969,427.338a1.981,1.981,0,0,0,1.2-.383v-.821a1.506,1.506,0,0,1-1.12.5,1.73,1.73,0,1,1,1.12-2.949v-.83a1.987,1.987,0,0,0-1.2-.374,2.438,2.438,0,0,0,0,4.854Z" transform="translate(-249.815 -378.787)" fill-rule="evenodd"/>
    <path id="Trazado_564" data-name="Trazado 564" d="M349.564,419.941a.662.662,0,0,1,.616-.737.732.732,0,0,1,.587.3l.467-.5a1.277,1.277,0,0,0-1.064-.485,1.4,1.4,0,0,0-1.437,1.381v1.045h-.784v.644h.784v4.023h.83v-4.023h1.223v-.644h-1.223Z" transform="translate(-240.403 -377.149)" fill-rule="evenodd"/>
    <rect id="Rectángulo_279" data-name="Rectángulo 279" width="0.821" height="4.666" transform="translate(101.623 43.791)"/>
    <path id="Trazado_565" data-name="Trazado 565" d="M338.2,420.406a.54.54,0,0,0,.541-.532.546.546,0,1,0-1.092,0A.541.541,0,0,0,338.2,420.406Z" transform="translate(-236.153 -377.483)" fill-rule="evenodd"/>
    <path id="Trazado_566" data-name="Trazado 566" d="M324.695,418.672v2.968a1.936,1.936,0,0,0-1.53-.728,2.445,2.445,0,0,0,0,4.854,1.928,1.928,0,0,0,1.559-.766l.037.672h.737v-7Zm-1.4,6.356a1.712,1.712,0,0,1,0-3.388,1.491,1.491,0,0,1,1.4,1.2v1.008A1.482,1.482,0,0,1,323.3,425.028Z" transform="translate(-229.295 -377.214)" fill-rule="evenodd"/>
    <path id="Trazado_567" data-name="Trazado 567" d="M310.266,419.428v-.756h-3.873v7h3.873v-.756h-3.024v-2.361h2.632v-.765h-2.632v-2.361Z" transform="translate(-223.262 -377.214)" fill-rule="evenodd"/>
    <path id="Trazado_568" data-name="Trazado 568" d="M289.746,422.643h-.831v2.819a1.223,1.223,0,0,1-1.25,1.2,1.205,1.205,0,0,1-1.223-1.2v-2.819h-.821v2.9a1.852,1.852,0,0,0,3.294,1.167v.719c0,.943-.429,1.531-1.353,1.531a2.505,2.505,0,0,1-1.69-.607v.9a2.859,2.859,0,0,0,1.624.448,2.1,2.1,0,0,0,2.25-2.268Z" transform="translate(-214.694 -378.852)" fill-rule="evenodd"/>
    <path id="Trazado_569" data-name="Trazado 569" d="M442.411,403.68a2.128,2.128,0,0,0-1.857.84l.569.5a1.419,1.419,0,0,1,1.251-.644c.635,0,1.157.308,1.157,1.017v.55l-.849-.14c-1.633-.27-2.268.465-2.268,1.3a1.378,1.378,0,0,0,1.428,1.43,2.706,2.706,0,0,0,1.727-.756l.046.663h.728v-2.986a1.724,1.724,0,0,0-1.932-1.774Zm-1.157,3.386c0-.458.336-.858,1.512-.644l.765.13v.532a2.332,2.332,0,0,1-1.5.711A.709.709,0,0,1,441.254,407.066Z" transform="translate(-278.543 -371.03)" fill-rule="evenodd"/>
    <path id="Trazado_570" data-name="Trazado 570" d="M430.282,403.68a1.725,1.725,0,0,0-1.381.8l-.038-.71h-.756v4.667h.821v-2.613a1.37,1.37,0,0,1,1.316-1.419,1.338,1.338,0,0,1,.653.15l.4-.6A1.5,1.5,0,0,0,430.282,403.68Z" transform="translate(-273.467 -371.03)" fill-rule="evenodd"/>
    <path id="Trazado_571" data-name="Trazado 571" d="M415.427,403.839v2.819a1.224,1.224,0,0,1-1.251,1.2,1.206,1.206,0,0,1-1.223-1.2v-2.819h-.821v2.9a1.835,1.835,0,0,0,1.839,1.858,1.875,1.875,0,0,0,1.484-.719l.047.626h.756v-4.667Z" transform="translate(-266.877 -371.096)" fill-rule="evenodd"/>
    <path id="Trazado_572" data-name="Trazado 572" d="M401.843,406.561a.644.644,0,0,1-.5.214c-.383,0-.616-.233-.616-.69v-2.716h1.26v-.644h-1.269v-1.586h-.821v1.586h-.607v.644h.607v2.716a1.335,1.335,0,0,0,1.428,1.4,1.3,1.3,0,0,0,.98-.364Z" transform="translate(-261.579 -369.982)" fill-rule="evenodd"/>
    <path id="Trazado_573" data-name="Trazado 573" d="M388.31,408.534a1.981,1.981,0,0,0,1.2-.383v-.821a1.506,1.506,0,0,1-1.12.5,1.729,1.729,0,1,1,1.12-2.949v-.83a1.988,1.988,0,0,0-1.2-.374,2.438,2.438,0,0,0,0,4.853Z" transform="translate(-256.142 -371.03)" fill-rule="evenodd"/>
    <path id="Trazado_574" data-name="Trazado 574" d="M375.217,406.107a2.146,2.146,0,0,0-2.119-2.427,2.436,2.436,0,0,0,0,4.853,2.043,2.043,0,0,0,1.895-1.092l-.579-.4a1.377,1.377,0,0,1-1.288.774,1.411,1.411,0,0,1-1.446-1.437h3.527a2.7,2.7,0,0,0,.009-.27Zm-2.1-1.717a1.322,1.322,0,0,1,1.353,1.344H371.7A1.4,1.4,0,0,1,373.118,404.39Z" transform="translate(-249.861 -371.03)" fill-rule="evenodd"/>
    <path id="Trazado_575" data-name="Trazado 575" d="M361.049,406.561a.644.644,0,0,1-.5.214c-.382,0-.616-.233-.616-.69v-2.716h1.26v-.644H359.92v-1.586H359.1v1.586h-.607v.644h.607v2.716a1.335,1.335,0,0,0,1.428,1.4,1.3,1.3,0,0,0,.98-.364Z" transform="translate(-244.752 -369.982)" fill-rule="evenodd"/>
    <rect id="Rectángulo_280" data-name="Rectángulo 280" width="0.821" height="4.666" transform="translate(108.088 32.743)"/>
    <path id="Trazado_576" data-name="Trazado 576" d="M349.2,401.6a.54.54,0,0,0,.541-.532.546.546,0,1,0-1.092,0A.541.541,0,0,0,349.2,401.6Z" transform="translate(-240.692 -369.727)" fill-rule="evenodd"/>
    <path id="Trazado_577" data-name="Trazado 577" d="M335.92,403.839v2.819a1.224,1.224,0,0,1-1.251,1.2,1.205,1.205,0,0,1-1.222-1.2v-2.819h-.822v2.9a1.835,1.835,0,0,0,1.839,1.858,1.876,1.876,0,0,0,1.484-.719l.046.626h.756v-4.667Z" transform="translate(-234.082 -371.096)" fill-rule="evenodd"/>
    <path id="Trazado_578" data-name="Trazado 578" d="M319.692,403.773v.635a1.935,1.935,0,0,0-1.53-.728,2.445,2.445,0,0,0,0,4.853,1.935,1.935,0,0,0,1.53-.728v2.968h.8v-7Zm-1.4,4.023a1.712,1.712,0,0,1,0-3.388,1.492,1.492,0,0,1,1.4,1.2v1.008A1.483,1.483,0,0,1,318.292,407.8Z" transform="translate(-227.231 -371.03)" fill-rule="evenodd"/>
    <path id="Trazado_579" data-name="Trazado 579" d="M305.963,403.68a1.724,1.724,0,0,0-1.381.8l-.038-.71h-.756v4.667h.821v-2.613a1.37,1.37,0,0,1,1.316-1.419,1.34,1.34,0,0,1,.653.15l.4-.6A1.5,1.5,0,0,0,305.963,403.68Z" transform="translate(-222.187 -371.03)" fill-rule="evenodd"/>
    <path id="Trazado_580" data-name="Trazado 580" d="M290.346,406.868h.924l-2.809-7h-.952l-2.809,7h.924l.569-1.465h3.583l.57,1.465Zm-3.882-2.184,1.521-3.939,1.521,3.939Z" transform="translate(-214.314 -369.458)" fill-rule="evenodd"/>
    <rect id="Rectángulo_281" data-name="Rectángulo 281" width="0.821" height="4.666" transform="translate(115.196 43.791)"/>
    <path id="Trazado_581" data-name="Trazado 581" d="M361.3,420.406a.54.54,0,0,0,.541-.532.546.546,0,1,0-1.092,0A.542.542,0,0,0,361.3,420.406Z" transform="translate(-245.682 -377.483)" fill-rule="evenodd"/>
  </g>
</svg>
