<svg xmlns="http://www.w3.org/2000/svg" width="96.023" height="104.979" viewBox="0 0 96.023 104.979">
  <g id="Grupo_217" data-name="Grupo 217" opacity="0.499">
    <g id="Grupo_197" data-name="Grupo 197" transform="translate(0 0)">
      <path id="Trazado_527" data-name="Trazado 527" d="M318.814,318.148a48.091,48.091,0,0,1,29.119,20.33c.864,1.417,1.838,2.951,2.6,4.478a37.89,37.89,0,0,1,2.6,6.233c.435,1.417,1.3,4.042,1.3,4.367v.435a14.058,14.058,0,0,0-2.709-.65,9.636,9.636,0,0,0-3.248.1c-1.4,0-1.949-.546-3.572-.981-1.624-2.184-4.872-7.76-7.359-7.76a.726.726,0,0,0-.76.656c0,.221.435.767.435.981,0,.332-.435.546-.76.546-.214,0-.539-.325-.864-.325-1.189,0-2.163,1.748-3.358,1.748-.214,0-.325-.111-.65-.111,0-1.638-1.838-3.165-2.812-3.711a9.319,9.319,0,0,0-1.41-3.607c-.214-.442-1.3-.546-1.949-.767l-4.872,1.423c-.428-1.645-.753-2.626-2.273-2.626-2.163,0-5.2,4.809-7.9,4.809-.974,0-.76-.656-.76-1.534a11.428,11.428,0,0,1-.111-3.386c0-1.527,0-.546.974-2.84.65-1.423.871-3.061,1.41-4.478.325-1.1,1.3-2.08,1.838-3.172a4.889,4.889,0,0,0,.325-2.184c.111-1.645,1.624-3.282,1.624-4.92-.1-1.092,1.2-2.08,2.059-3.061A3.57,3.57,0,0,1,318.814,318.148Z" transform="translate(-259.38 -316.91)" fill="#2d3136" fill-rule="evenodd"/>
      <path id="Trazado_528" data-name="Trazado 528" d="M351.882,364.332c-.111.111-.111.221-.214.221-3.144,1.638-7.905,3.718-9.315,6.122-1.513-1.748-3.137-3.939-4.872-4.485-.325-.111-4.761-.871-4.761-2.073,0-.988.435-1.2,1.838-2.4a6.451,6.451,0,0,1,1.2-.988c.974-.656,2.488-.435,3.787-.435,1.189,0,2.163-1.638,3.358-1.638.214,0,.539.214.864.214.539,0,.65-.214.65-.65,0-.221-.325-.656-.325-.878,0-.657.539-.435.76-.435C347.549,356.9,350.693,363.13,351.882,364.332Z" transform="translate(-266.577 -328.889)" fill="#101820" fill-rule="evenodd"/>
      <path id="Trazado_529" data-name="Trazado 529" d="M358.982,369.116h4.436c1.3.332,2.819,0,2.819,1.638a17.278,17.278,0,0,1,.325,1.755c.325,2.184.539,6.226.539,6.551,0,.221-.214,3.607-.325,5.466l-.214.221a50.764,50.764,0,0,0-8.34-4.809,9.984,9.984,0,0,1-1.728-1.2,9.3,9.3,0,0,0-2.059-1.092c-2.384-.878-5.307-2.736-7.145-3.061v-.656a26.264,26.264,0,0,1,7.145-4.588c1.085-.546,1.3-.878,2.273-.878C356.923,368.46,358.657,369.116,358.982,369.116Z" transform="translate(-271.079 -332.471)" fill="#0a0b0b" fill-rule="evenodd"/>
      <path id="Trazado_530" data-name="Trazado 530" d="M348.035,377.95c3.137,1.638,6.71,2.951,9.957,5.031a13.736,13.736,0,0,0,3.144,1.417c.214.111,5.625,3.393,5.625,3.828,0,.325-.539,2.84-.539,3.172,0,1.417-3.358,9.612-3.358,9.723A52.086,52.086,0,0,1,352.907,415a6.9,6.9,0,0,0-2.163-2.19,7.106,7.106,0,0,1-.974-2.508v-3.172a3.167,3.167,0,0,0,.1-.981c.221-1.534,2.384-3.061,3.034-4.6a1.818,1.818,0,0,0,.111-.76v-.546a15.005,15.005,0,0,0,2.6-3.393c0-.214-.221-.325-.325-.435a8.244,8.244,0,0,0-.65-3.607c-.325-.871-1.2-2.073-1.2-2.294,0-.767,1.52-1.527,1.52-2.84,0-.546-.325-.988-.76-.988-.325,0-.214.221-.539.221-.221,0-.546-.221-.76-.221-.325,0-.76.332-1.085.332a1.336,1.336,0,0,1-.974-.435,14.264,14.264,0,0,1-1.949-3.172c-.214-.325,0-.767-.1-1.2-.111-.767-.76-2.073-.76-2.729.111-.546-.435-1.092-.435-1.534Z" transform="translate(-271.174 -335.403)" fill="#101820" fill-rule="evenodd"/>
      <path id="Trazado_531" data-name="Trazado 531" d="M354.076,391.031c.428,0,.428.546.428.767s0,.325-.1.435c-.111.325-.546.546-.76.871a2.99,2.99,0,0,0-.65,1.313c0,.332,1.189,2.294,1.624,3.607a16.2,16.2,0,0,1,.214,2.4c0,.221.325.332.325.656,0,.221-1.838,2.073-2.6,3.275-.214.221.221.656,0,.988-.753,1.527-3.137,3.386-3.137,5.134a16.9,16.9,0,0,1-.111,2.184,16.17,16.17,0,0,0,.111,2.08,4.8,4.8,0,0,0,.65,1.859c.214.325,2.384,1.417,2.384,2.515a27.447,27.447,0,0,1-2.273,2.073c-.974.656-1.845,1.527-2.819,2.294a3.679,3.679,0,0,1-.539-2.184v-2.294c.214-1.423.539-2.84.76-4.264a30.834,30.834,0,0,1,1.728-5.355c.221-.546.65-1.092.76-1.423.65-1.748,1.189-3.711,1.734-5.355.428-1.417,1.078-2.184,1.078-3.5,0-.325-.325-1.638-.428-2.508a29.7,29.7,0,0,0-.76-3.282c-.111-.325-.435-.546-.539-.871a3.7,3.7,0,0,1-.325-1.2c.325-.111.753,0,1.078-.111.221,0,.435-.221.76-.221C352.88,390.92,353.751,391.031,354.076,391.031Z" transform="translate(-270.933 -339.411)" fill="#0a0b0b" fill-rule="evenodd"/>
      <path id="Trazado_532" data-name="Trazado 532" d="M329.8,370.923c.871.332,1.734,1.534,2.495,2.4.864.981,2.273,2.294,2.6,3.386.214.332,0,.988.1,1.423s.435.767.546,1.313c.1.325-.111.981.1,1.417a17.984,17.984,0,0,0,2.273,3.828c.325.325.221.981.435,1.527.111.332.539.656.65,1.1a38.805,38.805,0,0,1,1.085,5.348,7.4,7.4,0,0,1-.221,1.423c-.214.767-.65,1.424-.864,2.294a46.007,46.007,0,0,1-2.384,6.336c-.325.442-.325,1.2-.65,1.859a10.411,10.411,0,0,0-.864,2.19,35.892,35.892,0,0,0-1.085,7.1c0,.214.325,2.951.325,3.165,0,.878-6.385,4.153-9.094,5.245a43.613,43.613,0,0,1-10.068,2.951c-1.4-1.748-1.728-3.711-2.273-5.459-.1-.442-.539-.767-.65-1.2a54.237,54.237,0,0,1-.864-5.791,21.842,21.842,0,0,0-.325-2.736c0-.435-.65-.656-.864-1.092-.221-.325-.221-.656-.435-.981,0-.111-.325-.221-.435-.332-.325-.435-.428-1.092-.753-1.527a13.535,13.535,0,0,0-.871-1.313,7.117,7.117,0,0,0-.539-1.638c-.214-.546-1.41-2.4-1.41-3.172,0-.221.325-1.527.435-2.294.111-.981,1.189-2.184,1.838-3.172.221-.325.221-.871.435-1.2.111-.214,3.572-3.711,4.222-3.711.214,0,.325.214.65.214a9.076,9.076,0,0,0,1.949-.871c.111-.111.111-.221.111-.442,0-.325-.435-2.294-.435-2.508,0-1.2.111-.442,1.3-2.08.435-.76,1.3-1.092,1.734-1.748.1-.111,0-.435.214-.546,1.734-1.748,4.008-2.184,5.632-4.7,1.4-2.073,2.812-4.264,4-6.447A2.59,2.59,0,0,1,329.8,370.923Z" transform="translate(-258.249 -333.075)" fill="#2d3136" fill-rule="evenodd"/>
      <path id="Trazado_533" data-name="Trazado 533" d="M311.268,350.555a6,6,0,0,1,1.4,3.275,37.351,37.351,0,0,0,1.085,4.374c-.325.111-.864,0-1.188.332-1.52.981-3.248,2.294-3.248,3.6a.591.591,0,0,0,.428.656c.974.442,2.17.767,3.248,1.2-.539.878-1.078,1.645-1.624,2.626-1.4,2.184-3.462,5.9-6.385,7.325a4.514,4.514,0,0,0-1.734,1.2c-.1.111-.1.553-.325.767-.65.767-1.4,1.423-1.949,2.184-.214.332-.753.442-.974.878-.1.111,0,.435,0,.656,0,.325.435,2.294.435,2.515,0,.546-1.189,1.092-1.624,1.092a3.551,3.551,0,0,0-1.085,0,10.882,10.882,0,0,0-4.222,3.607c-.214.214-.1.76-.325,1.092a5.871,5.871,0,0,1-1.728,2.294,10.328,10.328,0,0,0-.435-2.515.647.647,0,0,0-.111-.435,2.522,2.522,0,0,0-1.728-1.092,4.046,4.046,0,0,0-1.838.767c-.435.214-1.3,2.729-2.059,2.729-1.3,0-2.923-2.515-3.572-3.172a1.505,1.505,0,0,0-.974-.546c-1.624,0-1.838,1.748-1.949,2.951,0,0,0,.111-.214.111-.325,0-2.819-.435-3.144-.435h-5.411a37.694,37.694,0,0,1-4.982-1.2c-.65-.221-1.3-1.2-2.052-1.748a16.313,16.313,0,0,0-5.307-2.08v-.435c.65-1.313,1.41-2.84,2.163-4.042.221-.435.76-.656.974-.988.76-.981,1.3-2.294,2.495-3.165a6.492,6.492,0,0,1,2.163-.878c2.384-.76,1.624-.546,3.573-.546h4.547a37.829,37.829,0,0,0,9.2-2.294c1.078-.435,1.838-1.969,2.488-2.515a23.188,23.188,0,0,1,3.248-2.508,24.709,24.709,0,0,0,2.812-2.951c.111-.221.435-.111.65-.332a14.025,14.025,0,0,1,2.163-2.294c.65-.435,1.624-.767,2.384-1.313a9.77,9.77,0,0,0,1.838-1.859c.221-.214.111-.546.221-.656a5.74,5.74,0,0,1,1.728-1.527,1.562,1.562,0,0,1,.221-.435,7.552,7.552,0,0,1,1.949-1.313c.65-.435.864-1.527,1.838-1.969a16.515,16.515,0,0,1,5.086-1.417A3.407,3.407,0,0,1,311.268,350.555Z" transform="translate(-243.39 -326.804)" fill="#0a0b0b" fill-rule="evenodd"/>
      <path id="Trazado_534" data-name="Trazado 534" d="M288.581,402.468c.753.76,2.7,3.5,4.111,3.5a1.424,1.424,0,0,0,.76-.435c.428-.553.65-1.313,1.078-1.859a3.275,3.275,0,0,1,2.059-1.2,3.384,3.384,0,0,1,1.624,1.417,5.664,5.664,0,0,1,.325,1.859c0,.221.1.111.1.221a2.671,2.671,0,0,1,.111.871c0,2.08-.649,1.859-.864,4.374-.221,1.859-.435,5.791-.435,6.012,0,.325.325,3.711.325,3.932,0,.332-.111.767-.111,1.092-.1.332,0,.767-.1,1.2,0,.111.1.332.539,9.073a4.646,4.646,0,0,1,.214,1.092.486.486,0,0,1-.539.546c-2.059,0-8.334-5.024-9.308-5.68a7.753,7.753,0,0,0-.325-2.19c-.435-1.852-2.488-4.257-2.709-6a14.558,14.558,0,0,0-1.624-5.8,3.457,3.457,0,0,0-.864-1.527c-1.189-.981-1.3-1.092-1.3-1.859,0-1.2.65-1.2,2.059-2.515.214-.214.325-.656.65-.871a6.6,6.6,0,0,0,2.377-4.374c.435-.981.76-.871,1.3-.871Z" transform="translate(-250.796 -342.978)" fill="#101820" fill-rule="evenodd"/>
      <path id="Trazado_535" data-name="Trazado 535" d="M259.112,400.59c.539.325.974,1.2,1.624,1.527a31.132,31.132,0,0,0,5.521,1.423h5.411l2.923.325.214.221a11.439,11.439,0,0,1-2.488,3.061c-1.3,1.306-2.163,1.527-2.163,2.619,0,1.2,1.078,1.638,1.513,2.4a15.8,15.8,0,0,1,2.163,6.343,7.168,7.168,0,0,0,.325,1.2c.435,1.2,1.52,2.951,2.17,4.374.539.981.428,2.184.753,3.282,0,.1,7.47,5.791,9.529,5.791a.617.617,0,0,0,.65-.656c0-.332-.325-1.423-.325-1.638V427.47c-.221-1.417-.435-4.367-.435-4.7,0-.214.214-2.4.214-2.729,0-.221-.214-2.08-.214-2.4a.974.974,0,0,1,.111-.546,18.137,18.137,0,0,1,2.6,4.92c.428,1.638.1,3.607,1.078,5.459.111.221.65.442.76.878a5.924,5.924,0,0,1,.435,2.073c0,.332-.221,2.515-.325,3.718a.8.8,0,0,1-.221.656H283.9a50.634,50.634,0,0,1-18.4-5.134,42.584,42.584,0,0,1-7.684-4.809,48.625,48.625,0,0,1-5.2-4.485c-.546-.546-7.47-8.631-7.47-10.6a1.668,1.668,0,0,1,.539-1.527c.214-.332.76-.546,1.085-.981a16.827,16.827,0,0,0,1.513-2.626,14.857,14.857,0,0,1,1.41-2.515c.325-.435,1.4-.214,1.078-.981,0-.656,1.949-2.626,2.923-2.626C254.994,398.51,258.027,399.933,259.112,400.59Z" transform="translate(-239.515 -341.756)" fill="#2d3136" fill-rule="evenodd"/>
      <path id="Trazado_536" data-name="Trazado 536" d="M252.914,354.654a4.193,4.193,0,0,0,1.734.657c.214.1.753-.111,1.078,0,2.6.981,5.632,2.951,8.665,4.042.864.325,2.163.214,3.137.656,1.513.76,3.034,1.748,4.761,2.508a14.336,14.336,0,0,0,2.384.546c.539.111,4.982,1.969,4.982,3.282,0,0-.871,1.092-1.2,1.2-.1.111-.1.111-.325.111-1.4,0-2.6-1.2-4-1.645a25.951,25.951,0,0,0-3.9-.981,7.145,7.145,0,0,1-1.624-.221c-.65-.214-1.52-.65-1.734-.65-1.624,0-3.358,1.092-4.872,1.638a33.013,33.013,0,0,0-4.547,1.859,4.618,4.618,0,0,0-1.949,1.638,34.961,34.961,0,0,0-2.709,6.226c-.1.111.111.546.111.878,0,.221-.65,1.638-.974,2.515-.435.981-.864,1.962-1.41,2.951-.753,1.306-1.838,1.527-2.812,2.294a39.814,39.814,0,0,1-5.521,3.932,22.967,22.967,0,0,0-2.384,1.638c-1.078-1.748-2.812-10.158-2.812-13v-5.134c.214-1.527.325-3.172.539-4.809a30.173,30.173,0,0,1,.65-3.275,35.013,35.013,0,0,1,1.845-5.687c.428-1.092.428-2.184,1.3-2.619.753-.442,1.838-.332,2.812-.656,1.3-.332,4.008-1.423,4.333-1.423C250.426,353.12,250.1,353.341,252.914,354.654Z" transform="translate(-237 -327.731)" fill="#2d3136" fill-rule="evenodd"/>
      <path id="Trazado_537" data-name="Trazado 537" d="M277.139,319.12c-.974.981-1.52,1.092-1.52,1.969,0,1.092,1.2,1.852,1.624,2.508,1.52,2.191,1.734,5.031,2.384,7.435.435,1.638,1.838,3.275,2.488,5.134.325.767,0,1.859.546,2.626.753,1.092,2.273,1.638,3.351,2.4a24.448,24.448,0,0,0,3.248,2.073,7.323,7.323,0,0,0,3.137,1.2s.111-.111.111.221c0,.214-.864,1.313-.974,2.073-.111.435-.214,1.092-.325,1.638a3.769,3.769,0,0,1-.539,1.2,50.633,50.633,0,0,1-3.137,4.485,22.987,22.987,0,0,1-2.384,1.748,10.749,10.749,0,0,0-4.982-3.282,14.107,14.107,0,0,1-2.163-.435c-1.838-.656-3.573-1.962-5.307-2.73a9.856,9.856,0,0,0-2.923-.546c-.539,0-.974-.546-1.513-.767-2.488-1.2-4.761-2.4-7.145-3.275-.325-.111-.76.1-.974,0-1.838-.442-4.111-2.3-6.06-2.19v-.325a28.88,28.88,0,0,0,10.821-9.073,26.047,26.047,0,0,0,2.059-4.809v-2.294c-.214-.656-.974-2.073-.974-2.4,0-.981,7.58-3.718,10.5-4.588Z" transform="translate(-242.278 -317.225)" fill="#101820" fill-rule="evenodd"/>
      <path id="Trazado_538" data-name="Trazado 538" d="M277.771,369.956c.325.111.974,0,1.41.111,2.273.767,4.436,1.092,6.71,2.294a4.5,4.5,0,0,0,1.734.442c-.974.546-2.273,1.092-3.358,1.748-.753.325-1.3,1.2-1.949,1.852a2.507,2.507,0,0,1-1.3.546c-.214,0-1.3-.214-1.513-.214-.325,0-1.734.325-2.059.325-.214,0-2.488-.325-3.787-.435-1.085-.111-2.384.221-3.462-.435-1.2-.656-2.819-2.294-3.9-2.951.214-.767,1.078-.988,1.728-1.2,1.085-.546,2.495-.878,3.683-1.423,1.513-.656,2.384-1.2,3.9-1.2C276.8,369.41,276.043,369.521,277.771,369.956Z" transform="translate(-246.053 -332.764)" fill="#101820" fill-rule="evenodd"/>
      <path id="Trazado_539" data-name="Trazado 539" d="M263.556,329.355c0,7.325-10.932,15.3-17.427,16.722-.76.111-2.059.656-2.384.656h-.325v-.546c3.248-7.214,11.588-16.612,19.058-20.108A4.969,4.969,0,0,1,263.556,329.355Z" transform="translate(-238.984 -319.376)" fill="#0a0b0b" fill-rule="evenodd"/>
      <path id="Trazado_540" data-name="Trazado 540" d="M302.719,316.849c0,.332-.65,1.859-.76,2.951-.214,2.08-.435,6.344-.435,6.668,0,.221.325,3.607.325,3.932,0,.221-.325,2.847-.325,3.061,0,.332.546,5.791.546,6.122v1.969a14.483,14.483,0,0,1,.325,1.527c0,.221-.111.435-.325.435-2.273,0-9.529-5.459-9.529-5.68A19.985,19.985,0,0,0,292,335.1a20.291,20.291,0,0,0-1.949-3.711,23.489,23.489,0,0,1-1.085-4.374,9.52,9.52,0,0,0-1.949-4.588c-.864-1.092-1.3-.981-1.3-2.08,0-1.2.221-1.638,2.059-2.4,1.3-.65,3.137-.65,4.761-.871a34,34,0,0,1,7.795-.656C300.874,316.414,302.719,316.193,302.719,316.849Z" transform="translate(-252.054 -316.378)" fill="#2d3136" fill-rule="evenodd"/>
      <g id="Grupo_196" data-name="Grupo 196" transform="translate(0 97.682)">
        <path id="Trazado_541" data-name="Trazado 541" d="M237.781,464.443v-5.376h1.361a2.34,2.34,0,0,1,1.009.214,2.85,2.85,0,0,1,.815.574,2.81,2.81,0,0,1,.525.864,2.85,2.85,0,0,1,.193,1.036,2.888,2.888,0,0,1-.193,1.043,2.666,2.666,0,0,1-.525.85,2.416,2.416,0,0,1-.808.581,2.371,2.371,0,0,1-1.016.214ZM237,458.3v6.91h2.287a3.01,3.01,0,0,0,1.265-.27,3.22,3.22,0,0,0,1-.746,3.369,3.369,0,0,0,.67-1.092,3.908,3.908,0,0,0,.242-1.341,3.764,3.764,0,0,0-.249-1.347,3.694,3.694,0,0,0-.684-1.1,3.229,3.229,0,0,0-1.009-.739,2.773,2.773,0,0,0-1.237-.276Z" transform="translate(-237 -457.913)" fill="#101820" fill-rule="evenodd"/>
        <path id="Trazado_542" data-name="Trazado 542" d="M250.629,464.229a2.633,2.633,0,0,1-.808-.567,2.7,2.7,0,0,1-.539-.85,2.835,2.835,0,0,1,0-2.094,2.847,2.847,0,0,1,.539-.864,2.8,2.8,0,0,1,.808-.58,2.358,2.358,0,0,1,.981-.207,2.413,2.413,0,0,1,.988.207,2.8,2.8,0,0,1,.808.58,2.865,2.865,0,0,1,.546.864,2.834,2.834,0,0,1,0,2.094,2.717,2.717,0,0,1-.546.85,2.632,2.632,0,0,1-.808.567,2.314,2.314,0,0,1-.988.214A2.261,2.261,0,0,1,250.629,464.229Zm-.311-5.652a3.334,3.334,0,0,0-1.057.732,3.486,3.486,0,0,0-.7,1.1,3.562,3.562,0,0,0-.256,1.361,3.483,3.483,0,0,0,.96,2.425,3.373,3.373,0,0,0,1.057.746,3.114,3.114,0,0,0,1.292.27,3.193,3.193,0,0,0,1.3-.27,3.487,3.487,0,0,0,2.025-3.172,3.566,3.566,0,0,0-.263-1.361,3.488,3.488,0,0,0-.7-1.1,3.413,3.413,0,0,0-1.057-.732,3.089,3.089,0,0,0-1.3-.276A3.014,3.014,0,0,0,250.318,458.576Z" transform="translate(-240.492 -457.913)" fill="#101820" fill-rule="evenodd"/>
        <path id="Trazado_543" data-name="Trazado 543" d="M264.946,463.393,262.6,458.3l-1.334,6.91h.815l.94-4.139,1.921,4.139,1.921-4.139.947,4.139h.808L267.3,458.3l-2.349,4.844Z" transform="translate(-244.499 -457.913)" fill="#101820" fill-rule="evenodd"/>
        <rect id="Rectángulo_275" data-name="Rectángulo 275" width="0.781" height="6.91" transform="translate(25.761 0.387)" fill="#101820"/>
        <path id="Trazado_544" data-name="Trazado 544" d="M279.021,460.345l3.96,4.692h.719v-7.076h-.781v5.563l-4.678-5.784v7.3h.781v-4.692Z" transform="translate(-249.743 -457.74)" fill="#101820" fill-rule="evenodd"/>
        <rect id="Rectángulo_276" data-name="Rectángulo 276" width="0.781" height="6.91" transform="translate(35.912 0.387)" fill="#101820"/>
        <path id="Trazado_545" data-name="Trazado 545" d="M295.249,464.229a2.524,2.524,0,0,1-.8-.567,2.718,2.718,0,0,1-.546-.85,2.835,2.835,0,0,1,0-2.094,2.866,2.866,0,0,1,.546-.864,2.678,2.678,0,0,1,.8-.58,2.458,2.458,0,0,1,1.976,0,2.677,2.677,0,0,1,.8.58,2.737,2.737,0,0,1,.546.864,2.747,2.747,0,0,1,0,2.094,2.6,2.6,0,0,1-.546.85,2.524,2.524,0,0,1-.8.567,2.386,2.386,0,0,1-1.976,0Zm-.311-5.652a3.3,3.3,0,0,0-1.05.732,3.388,3.388,0,0,0-.712,1.1,3.7,3.7,0,0,0-.256,1.361,3.605,3.605,0,0,0,.256,1.334,3.473,3.473,0,0,0,1.762,1.838,3.146,3.146,0,0,0,1.3.27,3.217,3.217,0,0,0,1.3-.27,3.343,3.343,0,0,0,1.05-.746,3.472,3.472,0,0,0,.712-1.092,3.611,3.611,0,0,0,.263-1.334,3.7,3.7,0,0,0-.263-1.361,3.505,3.505,0,0,0-.712-1.1,3.3,3.3,0,0,0-1.05-.732,3.112,3.112,0,0,0-1.3-.276A3.044,3.044,0,0,0,294.938,458.576Z" transform="translate(-254.279 -457.913)" fill="#101820" fill-rule="evenodd"/>
        <path id="Trazado_546" data-name="Trazado 546" d="M305.92,459.067h1.168v6.143h.781V458.3H305.92Z" transform="translate(-258.296 -457.913)" fill="#101820" fill-rule="evenodd"/>
        <path id="Trazado_547" data-name="Trazado 547" d="M311,459.067h1.168v6.143h.781V458.3H311Z" transform="translate(-259.865 -457.913)" fill="#101820" fill-rule="evenodd"/>
        <path id="Trazado_548" data-name="Trazado 548" d="M326.391,461.506a2.1,2.1,0,0,0-.663-.138h-.587a1.006,1.006,0,0,1-.7-.352,1.1,1.1,0,0,1-.214-.359,1.291,1.291,0,0,1-.069-.442v-.166a.864.864,0,0,1,.131-.38,1.15,1.15,0,0,1,.256-.318,1.056,1.056,0,0,1,.352-.207,1.223,1.223,0,0,1,.415-.076h.435a1.08,1.08,0,0,1,.726.276,1.345,1.345,0,0,1,.415.691l.891-.677a.389.389,0,0,1-.069-.1l-.062-.1a2.06,2.06,0,0,0-.7-.629,2.032,2.032,0,0,0-.96-.228h-.629a1.93,1.93,0,0,0-.94.228,1.86,1.86,0,0,0-.7.608,1.816,1.816,0,0,0-.339.933v.124a1.766,1.766,0,0,0,.117.663,2.108,2.108,0,0,0,.352.587.8.8,0,0,0,.228.228,2.065,2.065,0,0,0,.56.332,1.809,1.809,0,0,0,.67.131h.587a1.118,1.118,0,0,1,.394.111,1.581,1.581,0,0,1,.318.249,1.526,1.526,0,0,1,.207.359,1.311,1.311,0,0,1,.076.435v.166a1.2,1.2,0,0,1-.387.7,1.112,1.112,0,0,1-.767.283H325.3a1.135,1.135,0,0,1-.415-.076.972.972,0,0,1-.346-.228,1.184,1.184,0,0,1-.256-.325.946.946,0,0,1-.131-.408l-.912.684a1.89,1.89,0,0,0,.159.263,2.06,2.06,0,0,0,.7.629,1.865,1.865,0,0,0,.947.228h.636a2.019,2.019,0,0,0,.954-.221,1.924,1.924,0,0,0,.691-.622,1.769,1.769,0,0,0,.332-.926v-.124a1.729,1.729,0,0,0-.131-.67,2.277,2.277,0,0,0-.339-.587c-.035-.035-.076-.069-.111-.111a.649.649,0,0,0-.124-.111A2.1,2.1,0,0,0,326.391,461.506Z" transform="translate(-263.647 -457.913)" fill="#101820" fill-rule="evenodd"/>
        <path id="Trazado_549" data-name="Trazado 549" d="M332.73,459.067H334.5v6.143h.781v-6.143h1.762V458.3H332.73Z" transform="translate(-266.58 -457.913)" fill="#101820" fill-rule="evenodd"/>
        <path id="Trazado_550" data-name="Trazado 550" d="M345.4,463.068a1.16,1.16,0,0,1-.124.532,1.487,1.487,0,0,1-.332.442,1.624,1.624,0,0,1-.5.29,1.71,1.71,0,0,1-.622.111,1.6,1.6,0,0,1-.6-.111,1.38,1.38,0,0,1-.491-.29,1.286,1.286,0,0,1-.332-.442,1.16,1.16,0,0,1-.124-.532V458.3H341.5v4.623a2.153,2.153,0,0,0,.18.9,2.193,2.193,0,0,0,.5.725,2.37,2.37,0,0,0,1.652.663,2.421,2.421,0,0,0,.919-.18,2.446,2.446,0,0,0,.739-.484,2.341,2.341,0,0,0,.511-.725,2.27,2.27,0,0,0,.187-.9V458.3H345.4Z" transform="translate(-269.29 -457.913)" fill="#101820" fill-rule="evenodd"/>
        <path id="Trazado_551" data-name="Trazado 551" d="M351.891,464.443v-5.376h1.354a2.371,2.371,0,0,1,1.016.214,2.725,2.725,0,0,1,.809.574,2.78,2.78,0,0,1,.719,1.9,2.884,2.884,0,0,1-.186,1.043,2.683,2.683,0,0,1-.532.85,2.322,2.322,0,0,1-.8.581,2.4,2.4,0,0,1-1.023.214Zm-.781-6.143v6.91H353.4a2.956,2.956,0,0,0,1.258-.27,3.249,3.249,0,0,0,1.009-.746,3.477,3.477,0,0,0,.663-1.092,3.751,3.751,0,0,0,.242-1.341,3.62,3.62,0,0,0-.249-1.347,3.561,3.561,0,0,0-.684-1.1,3.2,3.2,0,0,0-1-.739,2.815,2.815,0,0,0-1.237-.276Z" transform="translate(-272.259 -457.913)" fill="#101820" fill-rule="evenodd"/>
        <rect id="Rectángulo_277" data-name="Rectángulo 277" width="0.781" height="6.91" transform="translate(86.653 0.387)" fill="#101820"/>
        <path id="Trazado_552" data-name="Trazado 552" d="M368.689,464.229a2.632,2.632,0,0,1-.808-.567,2.7,2.7,0,0,1-.539-.85,2.834,2.834,0,0,1,0-2.094,2.847,2.847,0,0,1,.539-.864,2.8,2.8,0,0,1,.808-.58,2.358,2.358,0,0,1,.981-.207,2.413,2.413,0,0,1,.988.207,2.677,2.677,0,0,1,.8.58,2.884,2.884,0,0,1,.553.864,2.835,2.835,0,0,1,0,2.094,2.735,2.735,0,0,1-.553.85,2.524,2.524,0,0,1-.8.567,2.314,2.314,0,0,1-.988.214A2.261,2.261,0,0,1,368.689,464.229Zm-.311-5.652a3.334,3.334,0,0,0-1.057.732,3.371,3.371,0,0,0-.7,1.1,3.562,3.562,0,0,0-.256,1.361,3.472,3.472,0,0,0,.256,1.334,3.339,3.339,0,0,0,.7,1.092,3.373,3.373,0,0,0,1.057.746,3.114,3.114,0,0,0,1.292.27,3.194,3.194,0,0,0,1.3-.27,3.487,3.487,0,0,0,2.025-3.172,3.566,3.566,0,0,0-.263-1.361,3.487,3.487,0,0,0-.7-1.1,3.413,3.413,0,0,0-1.057-.732,3.09,3.09,0,0,0-1.3-.276A3.013,3.013,0,0,0,368.378,458.576Z" transform="translate(-276.971 -457.913)" fill="#101820" fill-rule="evenodd"/>
      </g>
    </g>
  </g>
</svg>
