<svg xmlns="http://www.w3.org/2000/svg" width="13.111" height="13.111" viewBox="0 0 13.111 13.111">
  <g id="Grupo_139" data-name="Grupo 139" transform="translate(-23.189 1439.082) rotate(-45)">
    <path id="Trazado_230" data-name="Trazado 230" d="M1088.714-939.288,1086.6-941.4l-2.112,2.112,2.112,2.112Zm-2.112-1.391,1.391,1.391L1086.6-937.9l-1.391-1.391Z" transform="translate(-52.62 -52.628)" fill="#bf153e"/>
    <path id="Trazado_231" data-name="Trazado 231" d="M1052.979-969.357l.361.36,2.833,2.833.36.36.361-.36,2.833-2.833.36-.36-.36-.361-2.833-2.833-.361-.36-.36.36-2.833,2.833Zm3.554-2.833,2.833,2.833-2.833,2.833-2.833-2.833Z" transform="translate(-22.551 -22.559)" fill="#bf153e"/>
    <path id="Trazado_232" data-name="Trazado 232" d="M1029.706-992.637l.36.36,1.777-1.777.18-.18,1.6-1.6-.36-.36h0l-.361-.361h-.239l-.241.241.481.481-.438.438-.48-.481-.361.361.481.481-.437.438-1.958-1.957h-.36v.361l1.957,1.957-.438.438-.481-.481-.36.36.481.481-.438.438-.481-.481-.24.24V-993l.36.36Z" transform="translate(0 0)" fill="#bf153e"/>
    <path id="Trazado_233" data-name="Trazado 233" d="M1142.792-996.552h-.36l-1.958,1.958-.438-.438.481-.481-.36-.36-.481.481-.438-.438.481-.481-.241-.241h-.24l-.361.361h0l-.36.361,3.554,3.554.36-.36h0l.361-.361v-.24l-.241-.241-.481.481-.438-.438.481-.481-.36-.36-.481.481-.438-.438,1.958-1.958Z" transform="translate(-104.175)" fill="#bf153e"/>
    <path id="Trazado_234" data-name="Trazado 234" d="M1142.071-887.365l-1.052,1.052-.107.107-2.4,2.4.36.36h0l.36.36h.24l.24-.24-.48-.48.438-.438.48.481.36-.361-.48-.48.438-.438,1.957,1.957h.361v-.36l-1.957-1.957.438-.438.48.48.36-.36-.48-.48.438-.438.48.48.241-.241v-.239l-.361-.361Z" transform="translate(-104.175 -104.19)" fill="#bf153e"/>
    <path id="Trazado_235" data-name="Trazado 235" d="M1033.261-884.178h0l-.438-.438h0l-.36-.36h0l-.438-.438h0l-.36-.36-.438-.438h0l-.361-.361h0l-.438-.438h0l-.36-.36h0l-.36.361h0l-.36.36v.24l.241.241.48-.48.438.438-.48.48.361.36.48-.48.438.438-1.957,1.957v.36h.361l1.957-1.957.438.438-.48.48.36.361.48-.48.438.438-.48.48.241.241h.24l.36-.36h0l.36-.36h0Z" transform="translate(0 -104.185)" fill="#bf153e"/>
    <path id="Trazado_236" data-name="Trazado 236" d="M1122.769-801.471h.721l-.36-.36Z" transform="translate(-89.148 -185.81)" fill="#bf153e"/>
    <rect id="Rectángulo_42" data-name="Rectángulo 42" width="0.51" height="0.51" transform="translate(1036.389 -987.912)" fill="#bf153e"/>
    <rect id="Rectángulo_43" data-name="Rectángulo 43" width="0.51" height="0.51" transform="translate(1037.985 -989.509)" fill="#bf153e"/>
    <path id="Trazado_237" data-name="Trazado 237" d="M1029.346-902.408l.36-.36-.36-.36h0v.721Z" transform="translate(0 -89.148)" fill="#bf153e"/>
    <path id="Trazado_238" data-name="Trazado 238" d="M1123.487-996.552h-.721l.36.36Z" transform="translate(-89.145)" fill="#bf153e"/>
    <path id="Trazado_239" data-name="Trazado 239" d="M1224.427-902.408v-.721l-.36.36Z" transform="translate(-185.81 -89.148)" fill="#bf153e"/>
    <rect id="Rectángulo_44" data-name="Rectángulo 44" width="0.51" height="0.51" transform="translate(1029.47 -994.831)" fill="#bf153e"/>
    <rect id="Rectángulo_45" data-name="Rectángulo 45" width="0.51" height="0.51" transform="translate(1031.067 -996.427)" fill="#bf153e"/>
    <rect id="Rectángulo_46" data-name="Rectángulo 46" width="0.51" height="0.51" transform="translate(1029.471 -989.512)" fill="#bf153e"/>
    <rect id="Rectángulo_47" data-name="Rectángulo 47" width="0.51" height="0.51" transform="translate(1031.067 -987.915)" fill="#bf153e"/>
    <rect id="Rectángulo_48" data-name="Rectángulo 48" width="0.51" height="0.51" transform="translate(1036.386 -996.427)" fill="#bf153e"/>
    <rect id="Rectángulo_49" data-name="Rectángulo 49" width="0.51" height="0.51" transform="translate(1037.983 -994.831)" fill="#bf153e"/>
  </g>
</svg>
