<svg xmlns="http://www.w3.org/2000/svg" width="106.043" height="66.261" viewBox="0 0 106.043 66.261">
  <g id="Grupo_215" data-name="Grupo 215" transform="translate(-156.558 -54.993)">
    <g id="Grupo_6" data-name="Grupo 6" transform="translate(156.558 54.993)">
      <path id="Trazado_58" data-name="Trazado 58" d="M169.011,209.511l.057.391.006.1a.161.161,0,0,1-.029.1.242.242,0,0,1-.13.029c-.012,0-.186,0-.522-.006s-.664,0-.984.021a11.667,11.667,0,0,0-1.7.228q-.208.046-.242.048a.57.57,0,0,1-.18-.016.308.308,0,0,1-.131-.062l-.32-.227a.421.421,0,0,1-.071-.1.255.255,0,0,1-.027-.095c-.006-.11.145-.193.455-.249a3.39,3.39,0,0,0,.831-.253,2.367,2.367,0,0,0,1.128-1.2,4.15,4.15,0,0,0,.32-1.985,2.709,2.709,0,0,0-.605-1.7,1.62,1.62,0,0,0-1.372-.566q-1.371.078-1.905,2.7-.1.488-.158.754a4.928,4.928,0,0,1-1,2.282,2.508,2.508,0,0,1-1.786.785A3.284,3.284,0,0,1,158,209.4a4.583,4.583,0,0,1-1.245-3.017q-.021-.384,0-1.025t.1-1.652l-.2-.3-.091-.372,0-.07a.165.165,0,0,1,.017-.088c.013-.024.028-.037.046-.038a.99.99,0,0,1,.123.01,10.6,10.6,0,0,0,1.692.027,7.319,7.319,0,0,0,.835-.1q.443-.078.487-.08a.578.578,0,0,1,.127.006.169.169,0,0,1,.085.035l.379.355a.063.063,0,0,1,.015.026.179.179,0,0,1,.006.044q.008.14-.364.218a2.9,2.9,0,0,0-.628.2,1.989,1.989,0,0,0-.988,1.033,4.091,4.091,0,0,0-.234,1.822,2.293,2.293,0,0,0,.473,1.388,1.259,1.259,0,0,0,1.086.459,1.308,1.308,0,0,0,1.042-.55,5.914,5.914,0,0,0,.675-2.079,7.423,7.423,0,0,1,1.129-3.1,2.59,2.59,0,0,1,1.931-.859,3.664,3.664,0,0,1,3.006,1.266,5.414,5.414,0,0,1,1.391,3.5,10.993,10.993,0,0,1-.008,1.161q-.036.681-.127,1.527Z" transform="translate(-156.558 -150.88)" fill="#101820"/>
      <path id="Trazado_59" data-name="Trazado 59" d="M172.115,169.433a4.514,4.514,0,0,1-2.311,3.116,5.846,5.846,0,0,1-4.221.514,6.525,6.525,0,0,1-2.276-.954,6.3,6.3,0,0,1-1.718-1.745,7.17,7.17,0,0,1-1.048-2.369,5.288,5.288,0,0,1-.034-2.344,4.516,4.516,0,0,1,2.316-3.1,5.82,5.82,0,0,1,4.216-.528,6.287,6.287,0,0,1,4.007,2.72,6.881,6.881,0,0,1,1.051,2.338A5.337,5.337,0,0,1,172.115,169.433Zm-6.717,1.119a6.187,6.187,0,0,0,3.654-.128,2.771,2.771,0,0,0,1.81-2.052,2.474,2.474,0,0,0-.676-2.377,5.831,5.831,0,0,0-3.016-1.456,6.054,6.054,0,0,0-3.579.135,2.727,2.727,0,0,0-1.788,2.013,2.55,2.55,0,0,0,.622,2.419A5.608,5.608,0,0,0,165.4,170.552Z" transform="translate(-159.064 -124.842)" fill="#101820"/>
      <path id="Trazado_60" data-name="Trazado 60" d="M169.172,140.12l-.222-.274a.269.269,0,0,1-.04-.14.3.3,0,0,1,.034-.15c.011-.02.048-.08.113-.178a15.881,15.881,0,0,0,1.013-1.671q.219-.419.484-1.075t.374-.865a.266.266,0,0,1,.1-.119.123.123,0,0,1,.116.006.22.22,0,0,1,.044.038.291.291,0,0,1,.044.058l.183.234a.677.677,0,0,1,.006.4.812.812,0,0,0,.055.517,2.1,2.1,0,0,0,.643.554q.526.345,1.672.945l4.571,2.394q.977.511,1.452.282a3.235,3.235,0,0,0,1.088-1.4,5.143,5.143,0,0,0,.6-1.624,1.958,1.958,0,0,0-.234-1.194,2.257,2.257,0,0,0-.437-.531q-.314-.3-.277-.535l.048-.3c0-.031.006-.054.007-.07a.1.1,0,0,1,.01-.039.1.1,0,0,1,.085-.059.3.3,0,0,1,.15.044c.015.008.069.05.162.124a18.793,18.793,0,0,0,2.382,1.652l.045.31a.331.331,0,0,1-.006.086.313.313,0,0,1-.029.094c-.006.01-.03.044-.072.1a25.05,25.05,0,0,0-1.922,3.2l-1.165,2.224q-.442.845-.827,1.749c-.052.111-.086.182-.1.213a.272.272,0,0,1-.1.117.124.124,0,0,1-.117-.012.231.231,0,0,1-.051-.036.182.182,0,0,1-.042-.052l-.184-.234a.677.677,0,0,1-.006-.4.812.812,0,0,0-.055-.517,1.841,1.841,0,0,0-.6-.524q-.5-.318-1.719-.959l-4.47-2.341a7.8,7.8,0,0,0-1.439-.645.816.816,0,0,0-.6.059,1.651,1.651,0,0,0-.42.387c-.135.17-.239.238-.315.205A.116.116,0,0,1,169.172,140.12Z" transform="translate(-164.632 -107.504)" fill="#101820"/>
      <path id="Trazado_61" data-name="Trazado 61" d="M202.31,108.472c.009.016.021.045.039.086a4.346,4.346,0,0,0,.734,1.1.822.822,0,0,0,1.04.193,1.878,1.878,0,0,1,.567-.262.143.143,0,0,1,.022.028.2.2,0,0,1,.016.034l.13.319a.247.247,0,0,1,0,.154.313.313,0,0,1-.071.131c-.012.013-.049.043-.11.089a10.58,10.58,0,0,0-1.008.923q-.382.4-.792.9t-.483.579a.265.265,0,0,1-.132.086.121.121,0,0,1-.109-.038.238.238,0,0,1-.032-.043.357.357,0,0,1-.033-.067l-.111-.289a.509.509,0,0,1,.086-.329.866.866,0,0,0,.116-.361,3.942,3.942,0,0,0-.249-1.034q-.244-.713-.69-1.687l-2.755-5.944a5.616,5.616,0,0,0-.331-.64,1.9,1.9,0,0,0-.282-.35.776.776,0,0,0-.179-.123c-.073-.037-.112-.059-.116-.063l-.07-.066-.025-.024-.079-.221q-.032-.1.209-.413a2.941,2.941,0,0,0,.4-.688,3.327,3.327,0,0,0,.227-1.019.47.47,0,0,1,.027-.18.276.276,0,0,1,.076-.054.192.192,0,0,1,.071-.023l.185-.016a.1.1,0,0,1,.075.023,1.982,1.982,0,0,1,.183.163,4.208,4.208,0,0,0,.966.642,18.467,18.467,0,0,0,1.728.757l5.2,2.011a17.917,17.917,0,0,0,2.036.683,3.222,3.222,0,0,0,1.135.107,1.533,1.533,0,0,0,.5-.189c.183-.1.3-.134.338-.093l.023.021a.071.071,0,0,1,.016.028l.137.337a.245.245,0,0,1,0,.139.3.3,0,0,1-.074.141q-.018.019-.14.12a19.915,19.915,0,0,0-1.657,1.549q-.364.378-.825.96t-.613.739a.258.258,0,0,1-.134.089.126.126,0,0,1-.106-.041.526.526,0,0,1-.054-.058.165.165,0,0,1-.023-.04l-.1-.3a.542.542,0,0,1,.062-.267.969.969,0,0,0-.177-1.128,2.305,2.305,0,0,0-.443-.316,5.422,5.422,0,0,0-.7-.329l-1.828-.786-1.3,1.356-1.351,1.406Zm-3.073-6.421q.425.845.861,1.779t.89,1.965l.782-.813,1.242-1.293Z" transform="translate(-183.257 -83.865)" fill="#101820"/>
      <path id="Trazado_62" data-name="Trazado 62" d="M232.3,82.235l.016.352a.263.263,0,0,1-.054.145.378.378,0,0,1-.125.125c-.026.014-.09.043-.193.087a18.409,18.409,0,0,0-1.908.924q-.336.187-.89.576t-.8.525a.268.268,0,0,1-.145.046.123.123,0,0,1-.091-.074.238.238,0,0,1-.022-.058.175.175,0,0,1-.007-.066l-.01-.305q0-.1.208-.336a.809.809,0,0,0,.23-.459,1.762,1.762,0,0,0-.195-.727q-.212-.488-.936-1.786L224.923,76.8a7.788,7.788,0,0,0-.85-1.328.82.82,0,0,0-.538-.281,1.652,1.652,0,0,0-.564.094q-.309.1-.376,0a.106.106,0,0,1,0-.059l-.036-.351a.271.271,0,0,1,.043-.139.3.3,0,0,1,.111-.107c.015-.009.069-.032.161-.07a19.651,19.651,0,0,0,2.015-.983q.664-.371,1.656-1.034t1.366-.872a3.537,3.537,0,0,1,2.326-.515,2.215,2.215,0,0,1,1.627,1.175,2.594,2.594,0,0,1,.2,2.135,4.228,4.228,0,0,1-1.55,2.041,3.083,3.083,0,0,1,2.961.712l.085.063,1.34.985a2.578,2.578,0,0,0,.889.481.924.924,0,0,0,.691-.09,1.449,1.449,0,0,0,.459-.451,1.626,1.626,0,0,1,.291-.358.116.116,0,0,1,.084-.011.081.081,0,0,1,.058.033.352.352,0,0,1,.028.059.182.182,0,0,1,.008.041l.073.4a.753.753,0,0,1-.138.507c-.08.144-.142.266-.187.364-.031.065-.075.159-.132.284a3.021,3.021,0,0,1-.851,1.275,1.513,1.513,0,0,1-1.188.122,5.148,5.148,0,0,1-1.612-.923l-1.906-1.461a5.024,5.024,0,0,0-1.574-.91,1.477,1.477,0,0,0-1.086.18,2.011,2.011,0,0,0-.228.157,2.052,2.052,0,0,1-.19.136l1.466,2.627a7.073,7.073,0,0,0,.843,1.3.857.857,0,0,0,.583.291,1.676,1.676,0,0,0,.611-.116c.225-.082.354-.092.388-.031a.193.193,0,0,1,.018.041A.061.061,0,0,1,232.3,82.235Zm-4.7-5.559a.525.525,0,0,0,.472.318,2.447,2.447,0,0,0,.958-.374,2.34,2.34,0,0,0,1.159-1.162,1.741,1.741,0,0,0-.224-1.452,1.659,1.659,0,0,0-1.114-.886,2.217,2.217,0,0,0-1.554.32q-.191.107-.445.279t-.581.414q.181.36.454.913t.341.675Z" transform="translate(-199.699 -65.53)" fill="#101820"/>
      <path id="Trazado_63" data-name="Trazado 63" d="M276.619,56.51a.153.153,0,0,1,.08-.071.393.393,0,0,1,.136-.042q.078-.009.351-.013a20.974,20.974,0,0,0,2.124-.124q.722-.081,1.851-.3t1.546-.261a4.3,4.3,0,0,1,3.606,1.079,6.126,6.126,0,0,1,1.7,3.923,6.263,6.263,0,0,1-1.2,4.688,5.74,5.74,0,0,1-4.1,2.251,13.31,13.31,0,0,1-1.471.068q-.855,0-1.1.026-.469.052-1.157.2t-.913.172a.264.264,0,0,1-.151-.014.124.124,0,0,1-.056-.1.241.241,0,0,1,0-.062.191.191,0,0,1,.019-.064l.091-.283q.034-.091.331-.231a.81.81,0,0,0,.4-.335,1.769,1.769,0,0,0,.1-.746q-.007-.531-.172-2.009l-.558-4.98a8.2,8.2,0,0,0-.259-1.493.982.982,0,0,0-.383-.547,1.6,1.6,0,0,0-.6-.157c-.276-.031-.418-.078-.425-.141a.128.128,0,0,1,.013-.042c.01-.021.024-.051.043-.088Zm4.5,8.384a1.85,1.85,0,0,0,.527,1.331,2.167,2.167,0,0,0,1.427.175,2.51,2.51,0,0,0,2.137-1.428,6.938,6.938,0,0,0,.335-3.681,6.217,6.217,0,0,0-1.179-3.454,2.948,2.948,0,0,0-2.668-.8,6.753,6.753,0,0,0-.678.111q-.33.073-.671.181.032.674.1,1.411t.162,1.6Z" transform="translate(-234.901 -55.433)" fill="#101820"/>
      <path id="Trazado_64" data-name="Trazado 64" d="M323.419,68.113a.934.934,0,0,1-.1.041.178.178,0,0,1-.081.009c-.012,0-.054-.015-.127-.038a25.379,25.379,0,0,0-3.658-.822l-2.666-.437q-.94-.155-1.92-.235c-.122-.015-.2-.024-.235-.03a.268.268,0,0,1-.142-.054.124.124,0,0,1-.026-.115.243.243,0,0,1,.018-.059.193.193,0,0,1,.036-.056l.165-.248c.038-.052.165-.1.381-.132a.811.811,0,0,0,.474-.215,1.835,1.835,0,0,0,.307-.738q.147-.569.37-1.933l.817-4.98a7.681,7.681,0,0,0,.157-1.556.814.814,0,0,0-.246-.55,1.651,1.651,0,0,0-.5-.277c-.2-.074-.3-.153-.294-.234a.114.114,0,0,1,.037-.065l.188-.28a.219.219,0,0,1,.122-.1A.377.377,0,0,1,316.68,55l.206.043q.989.242,2.007.409l4.79.786a3.5,3.5,0,0,0,.6.059,1.218,1.218,0,0,0,.383-.066l.287-.023a.275.275,0,0,0,.053,0,.242.242,0,0,1,.053,0q.145.033.1.5c-.017.175-.029.323-.037.446a12.889,12.889,0,0,0,.008,1.676,1.494,1.494,0,0,1,.012.2.367.367,0,0,1-.034.1.187.187,0,0,1-.046.068l-.317.258a.462.462,0,0,1-.094.056.114.114,0,0,1-.059.008q-.138-.023-.195-.409a2.846,2.846,0,0,0-.138-.594,1.8,1.8,0,0,0-.807-.943,7.657,7.657,0,0,0-2.254-.6l-1.467-.241q-.165.788-.267,1.33t-.148.818l-.039.241-.071.645c.243.063.467.118.669.163s.372.079.51.1a8.211,8.211,0,0,0,1.589.145,1.868,1.868,0,0,0,.891-.244l.334-.034a.313.313,0,0,1,.054,0,.377.377,0,0,1,.052,0,.11.11,0,0,1,.081.044.208.208,0,0,1,.006.13c0,.011-.014.054-.038.126a12.983,12.983,0,0,0-.315,1.429,4.95,4.95,0,0,0-.058.544c-.009.185-.016.285-.019.3a.7.7,0,0,1-.075.213.649.649,0,0,1-.121.171l-.288.245a.571.571,0,0,1-.066.024.153.153,0,0,1-.072.006c-.1-.017-.147-.151-.128-.4a2.639,2.639,0,0,0,.011-.4,1,1,0,0,0-.407-.789,4.211,4.211,0,0,0-1.5-.437c-.109-.018-.276-.041-.5-.068s-.5-.06-.83-.1l-.566,3.4q-.18,1.1.19,1.463a3.931,3.931,0,0,0,1.871.613,5.175,5.175,0,0,0,1.74.064,2.009,2.009,0,0,0,1.068-.6,2.583,2.583,0,0,0,.361-.575q.186-.382.424-.423l.286-.068a.2.2,0,0,1,.037-.007.388.388,0,0,1,.07.007.1.1,0,0,1,.083.062.293.293,0,0,1,.005.156,1.917,1.917,0,0,1-.067.193,17.478,17.478,0,0,0-.82,2.781Z" transform="translate(-259.77 -54.993)" fill="#101820"/>
      <path id="Trazado_65" data-name="Trazado 65" d="M349.58,63.4l.259-.239a.271.271,0,0,1,.136-.05.3.3,0,0,1,.152.024c.021.009.083.043.185.1a15.859,15.859,0,0,0,1.734.9q.431.191,1.1.412t.888.317a.256.256,0,0,1,.125.094.12.12,0,0,1,0,.115.2.2,0,0,1-.035.047.263.263,0,0,1-.055.047l-.222.2a.679.679,0,0,1-.4.032.809.809,0,0,0-.513.088,2.1,2.1,0,0,0-.511.678q-.309.547-.833,1.73l-2.09,4.718q-.446,1.008-.186,1.467a3.238,3.238,0,0,0,1.468.994,5.142,5.142,0,0,0,1.66.5,1.96,1.96,0,0,0,1.176-.311,2.235,2.235,0,0,0,.5-.472q.276-.332.516-.311l.3.028.07,0a.118.118,0,0,1,.04.008.1.1,0,0,1,.064.081.3.3,0,0,1-.034.153q-.011.024-.114.169a18.875,18.875,0,0,0-1.493,2.486l-.306.065a.35.35,0,0,1-.086,0,.305.305,0,0,1-.1-.023q-.016-.007-.1-.065a24.989,24.989,0,0,0-3.318-1.709l-2.295-1.017q-.871-.386-1.8-.711-.171-.067-.22-.088a.274.274,0,0,1-.124-.088.124.124,0,0,1,0-.117.249.249,0,0,1,.033-.053.2.2,0,0,1,.049-.045l.222-.2a.674.674,0,0,1,.4-.033.814.814,0,0,0,.513-.089,1.844,1.844,0,0,0,.483-.637q.285-.514.844-1.778l2.044-4.614a7.8,7.8,0,0,0,.549-1.478.817.817,0,0,0-.1-.6,1.639,1.639,0,0,0-.414-.394q-.267-.184-.225-.3A.1.1,0,0,1,349.58,63.4Z" transform="translate(-279.811 -60.298)" fill="#101820"/>
      <path id="Trazado_66" data-name="Trazado 66" d="M385.88,103.8c-.016.008-.046.02-.087.036a4.354,4.354,0,0,0-1.132.691.821.821,0,0,0-.232,1.032,1.9,1.9,0,0,1,.24.576.13.13,0,0,1-.028.021.2.2,0,0,1-.034.015l-.323.118a.249.249,0,0,1-.155,0,.308.308,0,0,1-.129-.077c-.012-.012-.041-.051-.085-.113a10.5,10.5,0,0,0-.884-1.043q-.382-.4-.869-.826t-.56-.5a.269.269,0,0,1-.081-.135.121.121,0,0,1,.042-.107.246.246,0,0,1,.044-.03.356.356,0,0,1,.068-.03l.293-.1a.507.507,0,0,1,.326.1.868.868,0,0,0,.356.13,3.943,3.943,0,0,0,1.043-.21q.722-.216,1.713-.624l6.046-2.525a5.6,5.6,0,0,0,.651-.307,1.9,1.9,0,0,0,.361-.268.751.751,0,0,0,.13-.174,1.131,1.131,0,0,1,.067-.113l.069-.067.025-.024.224-.07c.07-.019.205.055.4.224a2.978,2.978,0,0,0,.673.427,3.325,3.325,0,0,0,1.009.266.457.457,0,0,1,.179.034.262.262,0,0,1,.051.078.194.194,0,0,1,.02.072l.008.185a.1.1,0,0,1-.026.074,1.945,1.945,0,0,1-.17.176,4.217,4.217,0,0,0-.679.94,18.84,18.84,0,0,0-.823,1.7l-2.208,5.118a17.782,17.782,0,0,0-.76,2.008,3.229,3.229,0,0,0-.151,1.129,1.544,1.544,0,0,0,.17.51q.143.282.081.342l-.022.021a.082.082,0,0,1-.028.015l-.343.124a.251.251,0,0,1-.139-.006.3.3,0,0,1-.138-.08c-.012-.012-.05-.061-.115-.144a19.935,19.935,0,0,0-1.484-1.716q-.364-.377-.927-.861t-.715-.641a.264.264,0,0,1-.085-.138.127.127,0,0,1,.045-.1.482.482,0,0,1,.06-.052.151.151,0,0,1,.041-.021l.3-.087a.541.541,0,0,1,.265.073.97.97,0,0,0,1.134-.134,2.3,2.3,0,0,0,.332-.43,5.4,5.4,0,0,0,.356-.683l.855-1.8-1.305-1.353-1.354-1.4Zm6.534-2.825q-.861.393-1.812.793t-2,.814l.784.812,1.244,1.29Z" transform="translate(-303.605 -83.865)" fill="#101820"/>
      <path id="Trazado_67" data-name="Trazado 67" d="M417.638,125.028l.352-.027a.272.272,0,0,1,.138.046.3.3,0,0,1,.1.113c.011.02.038.085.082.194a15.815,15.815,0,0,0,.8,1.783q.22.418.61,1.008t.5.8a.266.266,0,0,1,.041.152.123.123,0,0,1-.07.092.191.191,0,0,1-.056.014.254.254,0,0,1-.072,0l-.3.018q-.1,0-.336-.223a.8.8,0,0,0-.457-.249,2.088,2.088,0,0,0-.821.215q-.582.236-1.727.84l-4.565,2.406q-.975.514-1.055,1.036a3.233,3.233,0,0,0,.535,1.69,5.14,5.14,0,0,0,.995,1.419,1.961,1.961,0,0,0,1.115.485,2.262,2.262,0,0,0,.685-.06.66.66,0,0,1,.6.075l.22.21.054.046a.106.106,0,0,1,.026.03.1.1,0,0,1,0,.1.3.3,0,0,1-.121.1q-.023.012-.194.063a18.875,18.875,0,0,0-2.713,1.024l-.281-.139a.35.35,0,0,1-.068-.053.309.309,0,0,1-.06-.077c-.006-.01-.019-.049-.042-.116a25.028,25.028,0,0,0-1.543-3.4l-1.17-2.221q-.445-.843-.971-1.673c-.062-.106-.1-.174-.118-.205a.262.262,0,0,1-.042-.146.123.123,0,0,1,.076-.089.268.268,0,0,1,.058-.021.2.2,0,0,1,.067-.005l.3-.018c.065,0,.177.073.336.223a.81.81,0,0,0,.457.249,1.844,1.844,0,0,0,.774-.2q.543-.227,1.766-.871l4.464-2.353a7.791,7.791,0,0,0,1.348-.819.818.818,0,0,0,.294-.531,1.645,1.645,0,0,0-.081-.566q-.1-.311.01-.376A.111.111,0,0,1,417.638,125.028Z" transform="translate(-320.728 -100.754)" fill="#101820"/>
      <path id="Trazado_68" data-name="Trazado 68" d="M435.892,169.456l.122.286.008.034a.127.127,0,0,1-.025.123.31.31,0,0,1-.153.073.745.745,0,0,0-.132.014,11.636,11.636,0,0,0-1.188.22,13.945,13.945,0,0,0-1.631.478l-.074.027a.732.732,0,0,1-.1,0,.168.168,0,0,1-.077-.021l-.337-.208a.209.209,0,0,1-.058-.054.166.166,0,0,1-.032-.06q-.014-.1.278-.228.211-.1.346-.172a2.542,2.542,0,0,0,1.149-1.231,2.8,2.8,0,0,0,.074-1.748,2.357,2.357,0,0,0-1.558-1.827,6.452,6.452,0,0,0-3.453.107,6.047,6.047,0,0,0-3.152,1.622,2.684,2.684,0,0,0-.67,2.568,3.459,3.459,0,0,0,.54,1.193,4.06,4.06,0,0,0,.984.979q.206.149.543.356.42.259.447.37a.149.149,0,0,1-.027.114.159.159,0,0,1-.1.078l-.1.024-.654.048q-.285.014-.933-.56l-.011-.007a12.833,12.833,0,0,1-1.823-1.8,3.957,3.957,0,0,1,.021-4.994,6.179,6.179,0,0,1,3.609-2.154,6.95,6.95,0,0,1,4.9.5,4.873,4.873,0,0,1,2.744,3.276,6.5,6.5,0,0,1,.116.714q.053.45.143,1.544Z" transform="translate(-330.866 -125.51)" fill="#101820"/>
      <path id="Trazado_69" data-name="Trazado 69" d="M430.02,195.311c-.018-.007-.047-.019-.087-.038a4.323,4.323,0,0,0-1.285-.325.821.821,0,0,0-.9.556,1.893,1.893,0,0,1-.244.575.133.133,0,0,1-.035-.005.186.186,0,0,1-.035-.014l-.311-.149a.246.246,0,0,1-.106-.112.31.31,0,0,1-.035-.145,1.22,1.22,0,0,1,.022-.139,10.609,10.609,0,0,0,.126-1.361q.016-.551-.018-1.2t-.031-.753a.271.271,0,0,1,.039-.152.125.125,0,0,1,.106-.045.263.263,0,0,1,.052.011.312.312,0,0,1,.07.028l.276.139c.057.031.11.132.157.3a.868.868,0,0,0,.156.346,3.928,3.928,0,0,0,.88.6q.659.364,1.644.787l6.034,2.552a5.7,5.7,0,0,0,.675.251,1.911,1.911,0,0,0,.444.07.776.776,0,0,0,.215-.029c.079-.021.122-.032.128-.032l.1,0h.035l.207.111c.063.037.1.185.123.445a2.979,2.979,0,0,0,.166.779,3.307,3.307,0,0,0,.516.907.486.486,0,0,1,.1.152.288.288,0,0,1-.02.091.2.2,0,0,1-.037.064l-.127.136a.1.1,0,0,1-.071.033,2.048,2.048,0,0,1-.245,0,4.205,4.205,0,0,0-1.147.173,18.655,18.655,0,0,0-1.789.6l-5.2,2a17.987,17.987,0,0,0-1.967.862,3.23,3.23,0,0,0-.912.683,1.531,1.531,0,0,0-.246.478c-.067.2-.13.3-.188.3h-.031a.07.07,0,0,1-.03-.01l-.328-.158a.249.249,0,0,1-.093-.1.3.3,0,0,1-.039-.154c0-.017.008-.079.022-.183a19.835,19.835,0,0,0,.187-2.261q.016-.524-.034-1.265t-.042-.959a.259.259,0,0,1,.039-.156.126.126,0,0,1,.107-.041.56.56,0,0,1,.078.007.146.146,0,0,1,.043.015l.276.157a.539.539,0,0,1,.133.24.971.971,0,0,0,.889.717,2.323,2.323,0,0,0,.54-.063,5.645,5.645,0,0,0,.737-.223l1.882-.646.054-1.88.056-1.949Zm6.59,2.691q-.883-.34-1.834-.739t-1.979-.857l-.032,1.128-.051,1.792Z" transform="translate(-333.159 -144.55)" fill="#101820"/>
    </g>
    <g id="Grupo_12" data-name="Grupo 12" transform="translate(157.074 118.587)">
      <g id="Grupo_7" data-name="Grupo 7" transform="translate(0)">
        <path id="Trazado_70" data-name="Trazado 70" d="M159.5,241.277h-1.365a.077.077,0,0,1-.087-.087V238.7a.077.077,0,0,1,.087-.087h.353a.077.077,0,0,1,.087.087v2.074c0,.03.017.045.05.045h.875q.083,0,.083.091v.282C159.583,241.247,159.555,241.277,159.5,241.277Z" transform="translate(-158.048 -238.61)" fill="#101820"/>
      </g>
      <g id="Grupo_8" data-name="Grupo 8" transform="translate(1.997)">
        <path id="Trazado_71" data-name="Trazado 71" d="M164.268,241.277h-.4c-.05,0-.066-.029-.05-.087l.655-2.492a.119.119,0,0,1,.124-.087h.552a.111.111,0,0,1,.124.087l.655,2.492c.017.058,0,.087-.05.087h-.4a.08.08,0,0,1-.062-.019.14.14,0,0,1-.025-.068l-.116-.456h-.809l-.116.456a.126.126,0,0,1-.027.068A.081.081,0,0,1,164.268,241.277Zm.6-2.165-.3,1.2h.614l-.3-1.2Z" transform="translate(-163.814 -238.61)" fill="#101820"/>
      </g>
      <g id="Grupo_9" data-name="Grupo 9" transform="translate(6.018)">
        <path id="Trazado_72" data-name="Trazado 72" d="M175.863,241.277h-.353a.077.077,0,0,1-.087-.087V238.7a.077.077,0,0,1,.087-.087h1.012a.683.683,0,0,1,.5.176.67.67,0,0,1,.178.5v.4a.67.67,0,0,1-.178.5.683.683,0,0,1-.5.176H176q-.05,0-.05.046v.784A.077.077,0,0,1,175.863,241.277ZM176,239.9h.44a.252.252,0,0,0,.186-.056.258.258,0,0,0,.054-.185v-.348a.264.264,0,0,0-.054-.188.252.252,0,0,0-.186-.056H176a.04.04,0,0,0-.045.046v.742A.04.04,0,0,0,176,239.9Z" transform="translate(-175.423 -238.61)" fill="#101820"/>
      </g>
      <g id="Grupo_10" data-name="Grupo 10" transform="translate(8.35)">
        <path id="Trazado_73" data-name="Trazado 73" d="M182.612,241.277h-.4c-.05,0-.066-.029-.05-.087l.655-2.492a.119.119,0,0,1,.124-.087h.552a.111.111,0,0,1,.124.087l.655,2.492c.017.058,0,.087-.05.087h-.4a.08.08,0,0,1-.062-.019.138.138,0,0,1-.025-.068l-.116-.456h-.809l-.116.456a.127.127,0,0,1-.027.068A.081.081,0,0,1,182.612,241.277Zm.6-2.165-.3,1.2h.614l-.3-1.2Z" transform="translate(-182.158 -238.61)" fill="#101820"/>
      </g>
      <g id="Grupo_11" data-name="Grupo 11" transform="translate(11.077)">
        <path id="Trazado_74" data-name="Trazado 74" d="M190.031,241.19v-.249a.319.319,0,0,1,.054-.2l1.1-1.622V239.1h-.991a.077.077,0,0,1-.087-.087V238.7a.077.077,0,0,1,.087-.087h1.472c.055,0,.083.029.083.087v.356a.373.373,0,0,1-.062.216l-1.032,1.5v.017h1.053c.055,0,.083.026.083.079v.315c0,.063-.028.1-.083.1h-1.588A.077.077,0,0,1,190.031,241.19Z" transform="translate(-190.031 -238.61)" fill="#101820"/>
      </g>
    </g>
    <g id="Grupo_20" data-name="Grupo 20" transform="translate(175.788 118.587)">
      <g id="Grupo_13" data-name="Grupo 13">
        <path id="Trazado_75" data-name="Trazado 75" d="M212.082,241.19V238.7a.077.077,0,0,1,.087-.087h1a.693.693,0,0,1,.506.174.664.664,0,0,1,.178.5v.17a.3.3,0,1,0-.062.591.45.45,0,0,1,.1.313v.249a.666.666,0,0,1-.178.5.688.688,0,0,1-.5.174h-1.037A.077.077,0,0,1,212.082,241.19Zm.572-1.5h.423a.285.285,0,0,0,.195-.056.237.237,0,0,0,.062-.185v-.161a.242.242,0,0,0-.06-.185.277.277,0,0,0-.193-.056h-.427a.04.04,0,0,0-.045.046v.551A.04.04,0,0,0,212.654,239.692Zm0,1.145h.464a.284.284,0,0,0,.2-.056.242.242,0,0,0,.06-.185v-.24a.231.231,0,0,0-.062-.183.31.31,0,0,0-.2-.054h-.456a.04.04,0,0,0-.045.046v.626A.04.04,0,0,0,212.654,240.837Z" transform="translate(-212.082 -238.61)" fill="#101820"/>
      </g>
      <g id="Grupo_14" data-name="Grupo 14" transform="translate(2.436)">
        <path id="Trazado_76" data-name="Trazado 76" d="M219.57,241.277h-.4c-.05,0-.066-.029-.05-.087l.656-2.492a.118.118,0,0,1,.124-.087h.551a.111.111,0,0,1,.124.087l.656,2.492c.016.058,0,.087-.05.087h-.4a.079.079,0,0,1-.062-.019.133.133,0,0,1-.025-.068l-.116-.456h-.809l-.116.456a.126.126,0,0,1-.027.068A.08.08,0,0,1,219.57,241.277Zm.6-2.165-.3,1.2h.614l-.3-1.2Z" transform="translate(-219.116 -238.61)" fill="#101820"/>
      </g>
      <g id="Grupo_15" data-name="Grupo 15" transform="translate(5.097)">
        <path id="Trazado_77" data-name="Trazado 77" d="M228.142,238.61h.348c.058,0,.087.027.087.083V240.6a.671.671,0,0,1-.178.5.683.683,0,0,1-.5.176h-.415a.7.7,0,0,1-.506-.174.671.671,0,0,1-.178-.5v-.39a.077.077,0,0,1,.087-.087h.353a.077.077,0,0,1,.087.087v.365a.261.261,0,0,0,.056.188.255.255,0,0,0,.185.056h.245a.253.253,0,0,0,.187-.056.266.266,0,0,0,.054-.188V238.7C228.05,238.639,228.081,238.61,228.142,238.61Z" transform="translate(-226.798 -238.61)" fill="#101820"/>
      </g>
      <g id="Grupo_16" data-name="Grupo 16" transform="translate(7.529)">
        <path id="Trazado_78" data-name="Trazado 78" d="M234.275,241.277h-.4c-.05,0-.066-.029-.05-.087l.655-2.492a.119.119,0,0,1,.124-.087h.552a.111.111,0,0,1,.124.087l.655,2.492c.017.058,0,.087-.05.087h-.4a.08.08,0,0,1-.062-.019.137.137,0,0,1-.025-.068l-.116-.456h-.809l-.116.456a.126.126,0,0,1-.027.068A.081.081,0,0,1,234.275,241.277Zm.6-2.165-.3,1.2h.614l-.3-1.2Z" transform="translate(-233.821 -238.61)" fill="#101820"/>
      </g>
      <g id="Grupo_17" data-name="Grupo 17" transform="translate(11.48)">
        <path id="Trazado_79" data-name="Trazado 79" d="M245.231,240.6v-.083a.077.077,0,0,1,.087-.087h.353a.077.077,0,0,1,.087.087v.033a.291.291,0,0,0,.062.216.34.34,0,0,0,.228.058h.195a.241.241,0,0,0,.29-.294v-.05a.207.207,0,0,0-.1-.184.512.512,0,0,0-.242-.077,2.6,2.6,0,0,1-.313-.048,2.049,2.049,0,0,1-.313-.091.491.491,0,0,1-.243-.22.815.815,0,0,1-.1-.421v-.145a.669.669,0,0,1,.182-.5.693.693,0,0,1,.506-.178h.415a.7.7,0,0,1,.51.178.67.67,0,0,1,.182.5v.079a.077.077,0,0,1-.087.087h-.353a.077.077,0,0,1-.087-.087v-.025a.3.3,0,0,0-.062-.22.339.339,0,0,0-.228-.058h-.162a.313.313,0,0,0-.23.064.377.377,0,0,0-.06.251v.079q0,.2.34.224a2.105,2.105,0,0,1,.626.141.529.529,0,0,1,.242.222.775.775,0,0,1,.1.408v.141a.671.671,0,0,1-.182.5.693.693,0,0,1-.506.178h-.452a.692.692,0,0,1-.506-.178A.668.668,0,0,1,245.231,240.6Z" transform="translate(-245.227 -238.61)" fill="#101820"/>
      </g>
      <g id="Grupo_18" data-name="Grupo 18" transform="translate(14.075)">
        <path id="Trazado_80" data-name="Trazado 80" d="M254.107,238.61h.348c.061,0,.091.027.091.083V240.6a.668.668,0,0,1-.18.5.691.691,0,0,1-.5.176h-.456a.7.7,0,0,1-.506-.174.671.671,0,0,1-.178-.5v-1.9a.077.077,0,0,1,.087-.087h.353a.077.077,0,0,1,.087.087v1.879a.26.26,0,0,0,.056.188.253.253,0,0,0,.184.056h.286a.206.206,0,0,0,.245-.245V238.7A.077.077,0,0,1,254.107,238.61Z" transform="translate(-252.722 -238.61)" fill="#101820"/>
      </g>
      <g id="Grupo_19" data-name="Grupo 19" transform="translate(16.73)">
        <path id="Trazado_81" data-name="Trazado 81" d="M260.825,241.277h-.353a.077.077,0,0,1-.087-.087V238.7a.077.077,0,0,1,.087-.087h.987a.692.692,0,0,1,.506.178.67.67,0,0,1,.183.5v.324a.6.6,0,0,1-.369.622v.017l.444.925c.025.066,0,.1-.071.1h-.336a.257.257,0,0,1-.108-.017.122.122,0,0,1-.054-.07l-.415-.9h-.278c-.033,0-.05.015-.05.045v.85A.077.077,0,0,1,260.825,241.277Zm.133-1.406h.407a.286.286,0,0,0,.195-.056.233.233,0,0,0,.062-.18v-.324a.246.246,0,0,0-.062-.187.28.28,0,0,0-.195-.058h-.407a.04.04,0,0,0-.045.046v.713A.04.04,0,0,0,260.958,239.871Z" transform="translate(-260.386 -238.61)" fill="#101820"/>
      </g>
    </g>
    <g id="Grupo_27" data-name="Grupo 27" transform="translate(199.961 117.787)">
      <g id="Grupo_21" data-name="Grupo 21" transform="translate(0 0.8)">
        <path id="Trazado_82" data-name="Trazado 82" d="M283.648,238.61h.614a.077.077,0,0,1,.087.087v2.492a.077.077,0,0,1-.087.087h-.34a.077.077,0,0,1-.087-.087v-1.966h-.017l-.423,1.389a.1.1,0,0,1-.1.083h-.348a.1.1,0,0,1-.1-.083l-.432-1.393h-.016v1.97a.106.106,0,0,1-.017.068.094.094,0,0,1-.071.019h-.34a.077.077,0,0,1-.087-.087V238.7a.077.077,0,0,1,.087-.087h.618a.078.078,0,0,1,.079.058l.439,1.464h.025l.444-1.464A.071.071,0,0,1,283.648,238.61Z" transform="translate(-281.877 -238.61)" fill="#101820"/>
      </g>
      <g id="Grupo_22" data-name="Grupo 22" transform="translate(3.322 0)">
        <path id="Trazado_83" data-name="Trazado 83" d="M292.912,239.766h-1.356a.077.077,0,0,1-.087-.087v-2.492a.077.077,0,0,1,.087-.087h1.356c.055,0,.083.029.083.087v.282c0,.058-.028.087-.083.087h-.867q-.05,0-.05.046v.539q0,.046.05.046h.709a.077.077,0,0,1,.087.087v.282a.077.077,0,0,1-.087.087h-.709q-.05,0-.05.046v.576q0,.046.05.046h.867q.083,0,.083.087v.282C292.995,239.737,292.967,239.766,292.912,239.766Zm-.6-3.467h.411c.03,0,.05.008.058.025s0,.036-.016.058l-.336.4a.141.141,0,0,1-.112.054h-.27q-.083,0-.042-.087l.183-.369A.139.139,0,0,1,292.311,236.3Z" transform="translate(-291.469 -236.299)" fill="#101820"/>
      </g>
      <g id="Grupo_23" data-name="Grupo 23" transform="translate(5.445 0.8)">
        <path id="Trazado_84" data-name="Trazado 84" d="M298.076,241.277h-.411a.061.061,0,0,1-.058-.027.064.064,0,0,1,0-.064l.642-1.273-.622-1.211a.062.062,0,0,1,0-.062.062.062,0,0,1,.058-.029h.4a.131.131,0,0,1,.136.087l.394.892h.017l.39-.892a.138.138,0,0,1,.133-.087h.406a.065.065,0,0,1,.06.031.063.063,0,0,1,0,.064l-.63,1.207.643,1.269a.068.068,0,0,1,0,.068.067.067,0,0,1-.062.027h-.415a.12.12,0,0,1-.121-.083l-.41-.9h-.017l-.415.9A.128.128,0,0,1,298.076,241.277Z" transform="translate(-297.599 -238.61)" fill="#101820"/>
      </g>
      <g id="Grupo_24" data-name="Grupo 24" transform="translate(8.191 0.8)">
        <path id="Trazado_85" data-name="Trazado 85" d="M306.052,238.7v2.492a.077.077,0,0,1-.087.087h-.353a.077.077,0,0,1-.087-.087V238.7a.077.077,0,0,1,.087-.087h.353A.077.077,0,0,1,306.052,238.7Z" transform="translate(-305.526 -238.61)" fill="#101820"/>
      </g>
      <g id="Grupo_25" data-name="Grupo 25" transform="translate(9.547 0.8)">
        <path id="Trazado_86" data-name="Trazado 86" d="M310.578,241.277h-.452a.694.694,0,0,1-.506-.174.671.671,0,0,1-.178-.5v-1.315a.67.67,0,0,1,.178-.5.693.693,0,0,1,.506-.174h.452a.691.691,0,0,1,.5.176.667.667,0,0,1,.18.5v.195a.081.081,0,0,1-.091.091h-.348c-.059,0-.087-.03-.087-.091v-.17a.207.207,0,0,0-.245-.245h-.282a.254.254,0,0,0-.185.056.259.259,0,0,0-.056.188v1.265a.26.26,0,0,0,.056.188.254.254,0,0,0,.185.056h.282a.207.207,0,0,0,.245-.245v-.17c0-.061.029-.091.087-.091h.348a.081.081,0,0,1,.091.091v.195a.667.667,0,0,1-.18.5A.689.689,0,0,1,310.578,241.277Z" transform="translate(-309.442 -238.61)" fill="#101820"/>
      </g>
      <g id="Grupo_26" data-name="Grupo 26" transform="translate(12.089 0.8)">
        <path id="Trazado_87" data-name="Trazado 87" d="M317.931,241.277h-.464a.7.7,0,0,1-.506-.174.671.671,0,0,1-.178-.5v-1.315a.67.67,0,0,1,.178-.5.693.693,0,0,1,.506-.174h.464a.693.693,0,0,1,.506.174.67.67,0,0,1,.178.5V240.6a.671.671,0,0,1-.178.5A.694.694,0,0,1,317.931,241.277Zm-.381-.456h.294a.207.207,0,0,0,.245-.245v-1.265a.207.207,0,0,0-.245-.245h-.294a.252.252,0,0,0-.187.056.266.266,0,0,0-.054.188v1.265a.266.266,0,0,0,.054.188A.252.252,0,0,0,317.549,240.82Z" transform="translate(-316.782 -238.61)" fill="#101820"/>
      </g>
    </g>
    <g id="Grupo_29" data-name="Grupo 29" transform="translate(172.657 119.692)">
      <g id="Grupo_28" data-name="Grupo 28">
        <circle id="Elipse_1" data-name="Elipse 1" cx="0.363" cy="0.363" r="0.363" fill="#101820"/>
      </g>
    </g>
    <g id="Grupo_31" data-name="Grupo 31" transform="translate(196.567 119.692)">
      <g id="Grupo_30" data-name="Grupo 30">
        <circle id="Elipse_2" data-name="Elipse 2" cx="0.363" cy="0.363" r="0.363" fill="#101820"/>
      </g>
    </g>
    <g id="Grupo_50" data-name="Grupo 50" transform="translate(220.302 118.589)">
      <g id="Grupo_32" data-name="Grupo 32" transform="translate(0 0)">
        <path id="Trazado_88" data-name="Trazado 88" d="M342.056,241.278h-1.363a.077.077,0,0,1-.087-.087V238.7a.077.077,0,0,1,.087-.087h.352a.077.077,0,0,1,.087.087v2.071q0,.046.05.046h.874c.055,0,.083.03.083.091v.282C342.139,241.249,342.112,241.278,342.056,241.278Z" transform="translate(-340.606 -238.614)" fill="#101820"/>
      </g>
      <g id="Grupo_33" data-name="Grupo 33" transform="translate(2.203 0)">
        <path id="Trazado_89" data-name="Trazado 89" d="M348.115,241.278h-.464a.694.694,0,0,1-.506-.174.669.669,0,0,1-.178-.5v-1.313a.67.67,0,0,1,.178-.5.694.694,0,0,1,.506-.174h.464a.693.693,0,0,1,.505.174.67.67,0,0,1,.178.5V240.6a.669.669,0,0,1-.178.5A.693.693,0,0,1,348.115,241.278Zm-.381-.456h.294a.207.207,0,0,0,.245-.245v-1.264a.206.206,0,0,0-.245-.244h-.294a.252.252,0,0,0-.186.056.269.269,0,0,0-.054.188v1.264a.267.267,0,0,0,.054.188A.252.252,0,0,0,347.733,240.822Z" transform="translate(-346.967 -238.614)" fill="#101820"/>
      </g>
      <g id="Grupo_34" data-name="Grupo 34" transform="translate(4.698 0)">
        <path id="Trazado_90" data-name="Trazado 90" d="M355.215,241.278h-.348c-.061,0-.091-.029-.091-.087v-2.076a.04.04,0,0,0-.045-.045h-.472a.077.077,0,0,1-.087-.087V238.7a.077.077,0,0,1,.087-.087h1.566a.077.077,0,0,1,.087.087v.282a.077.077,0,0,1-.087.087h-.472c-.033,0-.05.015-.05.045v2.076A.077.077,0,0,1,355.215,241.278Z" transform="translate(-354.171 -238.614)" fill="#101820"/>
      </g>
      <g id="Grupo_35" data-name="Grupo 35" transform="translate(7.131 0)">
        <path id="Trazado_91" data-name="Trazado 91" d="M362.637,241.278h-1.355a.077.077,0,0,1-.087-.087V238.7a.077.077,0,0,1,.087-.087h1.355c.055,0,.083.029.083.087v.282q0,.087-.083.087h-.866c-.033,0-.05.015-.05.045v.539q0,.046.05.046h.708a.077.077,0,0,1,.087.087v.282a.077.077,0,0,1-.087.087h-.708c-.033,0-.05.015-.05.045v.576q0,.046.05.046h.866c.055,0,.083.029.083.087v.282C362.72,241.249,362.692,241.278,362.637,241.278Z" transform="translate(-361.195 -238.614)" fill="#101820"/>
      </g>
      <g id="Grupo_36" data-name="Grupo 36" transform="translate(9.375 0)">
        <path id="Trazado_92" data-name="Trazado 92" d="M367.68,240.6v-.083a.077.077,0,0,1,.087-.087h.352a.077.077,0,0,1,.087.087v.034a.291.291,0,0,0,.063.215.338.338,0,0,0,.228.058h.195a.241.241,0,0,0,.29-.294v-.05a.209.209,0,0,0-.1-.185.517.517,0,0,0-.242-.077,2.7,2.7,0,0,1-.313-.047,2.063,2.063,0,0,1-.312-.091.491.491,0,0,1-.242-.22.811.811,0,0,1-.1-.42v-.145a.669.669,0,0,1,.182-.5.691.691,0,0,1,.505-.178h.414a.7.7,0,0,1,.51.178.669.669,0,0,1,.182.5v.079a.077.077,0,0,1-.087.087h-.353a.077.077,0,0,1-.087-.087v-.025a.3.3,0,0,0-.062-.22.339.339,0,0,0-.228-.058h-.162a.312.312,0,0,0-.23.064.378.378,0,0,0-.06.251v.079q0,.195.339.224a2.1,2.1,0,0,1,.626.141.531.531,0,0,1,.242.222.77.77,0,0,1,.1.408v.141a.671.671,0,0,1-.182.5.693.693,0,0,1-.505.178h-.452a.692.692,0,0,1-.506-.178A.669.669,0,0,1,367.68,240.6Z" transform="translate(-367.676 -238.614)" fill="#101820"/>
      </g>
      <g id="Grupo_37" data-name="Grupo 37" transform="translate(12.918 0)">
        <path id="Trazado_93" data-name="Trazado 93" d="M378.343,241.278h-.352a.077.077,0,0,1-.087-.087V238.7a.077.077,0,0,1,.087-.087h.986a.692.692,0,0,1,.505.178.67.67,0,0,1,.182.5v.323a.6.6,0,0,1-.368.622v.017l.443.924q.037.1-.071.1h-.336a.257.257,0,0,1-.108-.017.127.127,0,0,1-.054-.07l-.414-.9h-.277c-.033,0-.05.016-.05.046v.85A.077.077,0,0,1,378.343,241.278Zm.133-1.4h.406a.286.286,0,0,0,.195-.056.233.233,0,0,0,.062-.18v-.323a.246.246,0,0,0-.062-.186.28.28,0,0,0-.195-.058h-.406a.04.04,0,0,0-.046.045v.713A.04.04,0,0,0,378.476,239.873Z" transform="translate(-377.904 -238.614)" fill="#101820"/>
      </g>
      <g id="Grupo_38" data-name="Grupo 38" transform="translate(15.51 0)">
        <path id="Trazado_94" data-name="Trazado 94" d="M386.831,241.278h-1.355a.077.077,0,0,1-.087-.087V238.7a.077.077,0,0,1,.087-.087h1.355c.055,0,.083.029.083.087v.282c0,.058-.027.087-.083.087h-.866c-.033,0-.05.015-.05.045v.539q0,.046.05.046h.708a.077.077,0,0,1,.087.087v.282a.077.077,0,0,1-.087.087h-.708c-.033,0-.05.015-.05.045v.576q0,.046.05.046h.866c.055,0,.083.029.083.087v.282C386.914,241.249,386.886,241.278,386.831,241.278Z" transform="translate(-385.389 -238.614)" fill="#101820"/>
      </g>
      <g id="Grupo_39" data-name="Grupo 39" transform="translate(17.755 0)">
        <path id="Trazado_95" data-name="Trazado 95" d="M391.874,240.6v-.083a.077.077,0,0,1,.087-.087h.352a.077.077,0,0,1,.087.087v.034a.291.291,0,0,0,.062.215.338.338,0,0,0,.228.058h.2a.241.241,0,0,0,.29-.294v-.05a.208.208,0,0,0-.1-.185.514.514,0,0,0-.242-.077,2.68,2.68,0,0,1-.313-.047,2.05,2.05,0,0,1-.312-.091.489.489,0,0,1-.242-.22.811.811,0,0,1-.1-.42v-.145a.668.668,0,0,1,.182-.5.691.691,0,0,1,.505-.178h.414a.7.7,0,0,1,.51.178.669.669,0,0,1,.182.5v.079a.077.077,0,0,1-.087.087h-.352a.077.077,0,0,1-.087-.087v-.025a.3.3,0,0,0-.062-.22.338.338,0,0,0-.228-.058h-.161a.312.312,0,0,0-.23.064.378.378,0,0,0-.06.251v.079q0,.195.339.224a2.1,2.1,0,0,1,.626.141.533.533,0,0,1,.242.222.773.773,0,0,1,.1.408v.141a.669.669,0,0,1-.183.5.692.692,0,0,1-.505.178h-.452a.693.693,0,0,1-.506-.178A.671.671,0,0,1,391.874,240.6Z" transform="translate(-391.869 -238.614)" fill="#101820"/>
      </g>
      <g id="Grupo_40" data-name="Grupo 40" transform="translate(20.367 0)">
        <path id="Trazado_96" data-name="Trazado 96" d="M399.939,238.7v2.49a.077.077,0,0,1-.087.087H399.5a.077.077,0,0,1-.087-.087V238.7a.077.077,0,0,1,.087-.087h.352A.077.077,0,0,1,399.939,238.7Z" transform="translate(-399.413 -238.614)" fill="#101820"/>
      </g>
      <g id="Grupo_41" data-name="Grupo 41" transform="translate(21.727 0)">
        <path id="Trazado_97" data-name="Trazado 97" d="M403.339,241.191V238.7a.077.077,0,0,1,.087-.087h1.023a.69.69,0,0,1,.5.176.667.667,0,0,1,.18.5V240.6a.667.667,0,0,1-.18.5.69.69,0,0,1-.5.176h-1.023A.077.077,0,0,1,403.339,241.191Zm.572-.369h.452a.206.206,0,0,0,.244-.245v-1.264a.206.206,0,0,0-.244-.244h-.452a.04.04,0,0,0-.046.045v1.661A.04.04,0,0,0,403.911,240.822Z" transform="translate(-403.339 -238.614)" fill="#101820"/>
      </g>
      <g id="Grupo_42" data-name="Grupo 42" transform="translate(24.313 0)">
        <path id="Trazado_98" data-name="Trazado 98" d="M412.248,241.278h-1.355a.077.077,0,0,1-.087-.087V238.7a.077.077,0,0,1,.087-.087h1.355c.055,0,.083.029.083.087v.282c0,.058-.028.087-.083.087h-.866c-.034,0-.05.015-.05.045v.539c0,.03.016.046.05.046h.708a.077.077,0,0,1,.087.087v.282a.077.077,0,0,1-.087.087h-.708c-.034,0-.05.015-.05.045v.576c0,.03.016.046.05.046h.866c.055,0,.083.029.083.087v.282C412.331,241.249,412.3,241.278,412.248,241.278Z" transform="translate(-410.806 -238.614)" fill="#101820"/>
      </g>
      <g id="Grupo_43" data-name="Grupo 43" transform="translate(26.605 0)">
        <path id="Trazado_99" data-name="Trazado 99" d="M417.854,241.278h-.344a.077.077,0,0,1-.087-.087V238.7a.077.077,0,0,1,.087-.087h.311a.117.117,0,0,1,.116.058l.837,1.57h.017V238.7a.077.077,0,0,1,.087-.087h.344a.077.077,0,0,1,.087.087v2.49a.077.077,0,0,1-.087.087h-.3a.138.138,0,0,1-.132-.083l-.829-1.541h-.017v1.537A.077.077,0,0,1,417.854,241.278Z" transform="translate(-417.423 -238.614)" fill="#101820"/>
      </g>
      <g id="Grupo_44" data-name="Grupo 44" transform="translate(29.285 0)">
        <path id="Trazado_100" data-name="Trazado 100" d="M426.3,241.278h-.452a.693.693,0,0,1-.505-.174.669.669,0,0,1-.178-.5v-1.313a.67.67,0,0,1,.178-.5.693.693,0,0,1,.505-.174h.452a.689.689,0,0,1,.5.176.666.666,0,0,1,.18.5v.195a.081.081,0,0,1-.091.091h-.348c-.058,0-.087-.03-.087-.091v-.17a.206.206,0,0,0-.245-.244h-.282a.254.254,0,0,0-.184.056.26.26,0,0,0-.056.188v1.264a.259.259,0,0,0,.056.188.253.253,0,0,0,.184.056h.282a.207.207,0,0,0,.245-.245v-.17c0-.061.029-.091.087-.091h.348a.081.081,0,0,1,.091.091v.2a.666.666,0,0,1-.18.5A.689.689,0,0,1,426.3,241.278Z" transform="translate(-425.162 -238.614)" fill="#101820"/>
      </g>
      <g id="Grupo_45" data-name="Grupo 45" transform="translate(31.878 0)">
        <path id="Trazado_101" data-name="Trazado 101" d="M433.173,238.7v2.49a.077.077,0,0,1-.087.087h-.352a.077.077,0,0,1-.087-.087V238.7a.077.077,0,0,1,.087-.087h.352A.077.077,0,0,1,433.173,238.7Z" transform="translate(-432.647 -238.614)" fill="#101820"/>
      </g>
      <g id="Grupo_46" data-name="Grupo 46" transform="translate(33.134 0)">
        <path id="Trazado_102" data-name="Trazado 102" d="M436.727,241.278h-.4c-.05,0-.066-.029-.05-.087l.655-2.49a.118.118,0,0,1,.124-.087h.551a.111.111,0,0,1,.124.087l.655,2.49c.017.058,0,.087-.049.087h-.4a.082.082,0,0,1-.062-.019.146.146,0,0,1-.025-.068l-.116-.456h-.808l-.116.456a.13.13,0,0,1-.027.068A.082.082,0,0,1,436.727,241.278Zm.6-2.163-.3,1.2h.613l-.3-1.2Z" transform="translate(-436.273 -238.614)" fill="#101820"/>
      </g>
      <g id="Grupo_47" data-name="Grupo 47" transform="translate(35.973 0)">
        <path id="Trazado_103" data-name="Trazado 103" d="M445.92,241.278h-1.363a.077.077,0,0,1-.087-.087V238.7a.077.077,0,0,1,.087-.087h.352a.077.077,0,0,1,.087.087v2.071q0,.046.05.046h.874c.055,0,.083.03.083.091v.282C446,241.249,445.975,241.278,445.92,241.278Z" transform="translate(-444.47 -238.614)" fill="#101820"/>
      </g>
      <g id="Grupo_48" data-name="Grupo 48" transform="translate(38.206 0)">
        <path id="Trazado_104" data-name="Trazado 104" d="M452.362,241.278h-1.355a.077.077,0,0,1-.087-.087V238.7a.077.077,0,0,1,.087-.087h1.355c.055,0,.083.029.083.087v.282c0,.058-.027.087-.083.087H451.5c-.033,0-.05.015-.05.045v.539q0,.046.05.046h.708a.077.077,0,0,1,.087.087v.282a.077.077,0,0,1-.087.087H451.5c-.033,0-.05.015-.05.045v.576q0,.046.05.046h.866c.055,0,.083.029.083.087v.282C452.445,241.249,452.417,241.278,452.362,241.278Z" transform="translate(-450.92 -238.614)" fill="#101820"/>
      </g>
      <g id="Grupo_49" data-name="Grupo 49" transform="translate(40.451 0)">
        <path id="Trazado_105" data-name="Trazado 105" d="M457.4,240.6v-.083a.077.077,0,0,1,.087-.087h.352a.077.077,0,0,1,.087.087v.034a.291.291,0,0,0,.062.215.339.339,0,0,0,.228.058h.195a.241.241,0,0,0,.29-.294v-.05a.208.208,0,0,0-.1-.185.514.514,0,0,0-.242-.077,2.679,2.679,0,0,1-.313-.047,2.062,2.062,0,0,1-.312-.091.489.489,0,0,1-.242-.22.811.811,0,0,1-.1-.42v-.145a.669.669,0,0,1,.182-.5.691.691,0,0,1,.505-.178h.414a.7.7,0,0,1,.51.178.669.669,0,0,1,.182.5v.079a.077.077,0,0,1-.087.087h-.352a.077.077,0,0,1-.087-.087v-.025a.3.3,0,0,0-.062-.22.339.339,0,0,0-.228-.058h-.162a.312.312,0,0,0-.23.064.378.378,0,0,0-.06.251v.079q0,.195.339.224a2.1,2.1,0,0,1,.626.141.533.533,0,0,1,.242.222.773.773,0,0,1,.1.408v.141a.671.671,0,0,1-.182.5.693.693,0,0,1-.506.178h-.452a.693.693,0,0,1-.506-.178A.67.67,0,0,1,457.4,240.6Z" transform="translate(-457.4 -238.614)" fill="#101820"/>
      </g>
    </g>
    <g id="Grupo_52" data-name="Grupo 52" transform="translate(216.511 118.546)">
      <g id="Grupo_51" data-name="Grupo 51" transform="translate(0 0)">
        <path id="Trazado_106" data-name="Trazado 106" d="M330.06,241.2h-.324q-.1,0-.068-.088.135-.345.48-1.263t.48-1.268a.122.122,0,0,1,.114-.088h.324c.068,0,.09.029.068.088l-.96,2.531A.117.117,0,0,1,330.06,241.2Z" transform="translate(-329.66 -238.491)" fill="#101820"/>
      </g>
    </g>
    <g id="Grupo_79" data-name="Grupo 79" transform="translate(188.523 84.241)">
      <g id="Grupo_53" data-name="Grupo 53" transform="translate(10.735 16.42)">
        <path id="Trazado_107" data-name="Trazado 107" d="M279.846,186.851c.129.156.26.309.4.457C280.106,187.16,279.975,187.007,279.846,186.851Z" transform="translate(-279.846 -186.851)" fill="#101820"/>
      </g>
      <g id="Grupo_54" data-name="Grupo 54" transform="translate(11.792 17.533)">
        <path id="Trazado_108" data-name="Trazado 108" d="M283.564,190.631c-.108-.084-.214-.171-.319-.258s-.235-.2-.349-.308q.171.157.349.308C283.35,190.46,283.456,190.547,283.564,190.631Z" transform="translate(-282.896 -190.065)" fill="#101820"/>
      </g>
      <g id="Grupo_55" data-name="Grupo 55" transform="translate(0 0)">
        <path id="Trazado_109" data-name="Trazado 109" d="M250.63,148.608h16.553c0-.043,0-.084,0-.126,0-.191-.012-.38-.026-.568h11.954V145.3c0-.071,0-.142-.008-.212h0a2.6,2.6,0,0,0-.589-1.454h0a2.613,2.613,0,0,0-2.021-.953h-1.078V143.8a1.158,1.158,0,0,1-1.156,1.156H265a7.82,7.82,0,0,1,.789,2.362H250.238a7.8,7.8,0,0,1,1.589-3.593,7.955,7.955,0,0,1,2.7-2.191,7.915,7.915,0,0,1,6.046-.388,7.718,7.718,0,0,1,1.014.43l1.018.62a7.949,7.949,0,0,1,1.321,1.195l.018.022.007.01.055.06,0,0,.01.013.01.012c.059.068.116.138.17.207l0,0,0,0q.177.224.336.46h9.715a.385.385,0,0,0,.385-.384v-1.129h-9.638l-.035-.042-.008-.009c-.017-.019-.034-.038-.05-.058a9.231,9.231,0,0,0-1.6-1.441l-1.1-.668a9.187,9.187,0,0,0-8.259-.072,9.176,9.176,0,0,0-5.108,8.1c0,.021,0,.041,0,.062v.056h1.78Z" transform="translate(-248.85 -139.441)" fill="#101820"/>
      </g>
      <g id="Grupo_56" data-name="Grupo 56" transform="translate(28.283 20.516)">
        <path id="Trazado_110" data-name="Trazado 110" d="M341.936,205.635h2.471l-11.423-6.958h-2.471Z" transform="translate(-330.512 -198.677)" fill="#101820"/>
      </g>
      <g id="Grupo_57" data-name="Grupo 57" transform="translate(31.448 20.516)">
        <path id="Trazado_111" data-name="Trazado 111" d="M351.087,205.635h2.474l-11.438-6.958h-2.474Z" transform="translate(-339.649 -198.677)" fill="#101820"/>
      </g>
      <g id="Grupo_58" data-name="Grupo 58" transform="translate(34.605 20.516)">
        <path id="Trazado_112" data-name="Trazado 112" d="M359.629,205.295v-1.48l-5.233-3.2-2.816-1.724-.344-.21h-2.471Z" transform="translate(-348.764 -198.677)" fill="#101820"/>
      </g>
      <g id="Grupo_59" data-name="Grupo 59" transform="translate(25.141 20.516)">
        <path id="Trazado_113" data-name="Trazado 113" d="M332.863,205.635h2.471l-11.423-6.958H321.44Z" transform="translate(-321.44 -198.677)" fill="#101820"/>
      </g>
      <g id="Grupo_60" data-name="Grupo 60" transform="translate(21.915 20.516)">
        <path id="Trazado_114" data-name="Trazado 114" d="M323.55,205.635h2.471L314.6,198.677h-2.471Z" transform="translate(-312.126 -198.677)" fill="#101820"/>
      </g>
      <g id="Grupo_61" data-name="Grupo 61" transform="translate(18.759 20.494)">
        <path id="Trazado_115" data-name="Trazado 115" d="M303.014,198.614l.036.022,8.057,4.889,3.41,2.069h2.389l-11.423-6.958h-1.766Q303.362,198.636,303.014,198.614Z" transform="translate(-303.014 -198.614)" fill="#101820"/>
      </g>
      <g id="Grupo_62" data-name="Grupo 62" transform="translate(8.113 9.167)">
        <path id="Trazado_116" data-name="Trazado 116" d="M301.237,177.258h8.316l-9.571-5.828-5.249-3.2-.31-.189-3.51-2.137H272.273c0,.186.006.371.015.555.017.345.047.687.094,1.023q.055.39.135.77a11.164,11.164,0,0,0,.308,1.154c.1.3.209.6.331.89a11.292,11.292,0,0,0,.7,1.394c.012.021.024.043.037.064q.241.4.514.779c.113.157.232.308.353.459.044.055.088.11.133.164.129.156.26.309.4.457q.316.341.659.656.171.157.349.308c.1.087.211.174.319.258a11.37,11.37,0,0,0,1.392.936q.366.208.748.39t.78.335q.4.153.808.277a11.481,11.481,0,0,0,2.572.457q.349.022.7.022h17.615Zm-23.845-8.186-1.674-1.039h2.889Zm12.731-1.039-1.215,1.039-1.674-1.039Zm-2.835,1.854-1.215,1.039-1.674-1.039Zm-3.067-1.854-1.215,1.039-1.674-1.039Zm-3.762,2.893-1.674-1.039h2.89Zm2.961,2.047-1.674-1.039h2.89Zm2.98,2.047-1.674-1.039h2.89Zm2.633-2.047-1.674-1.039h2.889Zm4.156-3.086-1.215,1.039-1.674-1.039Zm-1.176,5.132-1.674-1.039h2.889Zm2.922-2.047-1.674-1.039h2.89Zm2.98,2.047-1.674-1.039h2.889Z" transform="translate(-272.273 -165.909)" fill="#101820"/>
      </g>
      <g id="Grupo_63" data-name="Grupo 63" transform="translate(6.88 3.235)">
        <path id="Trazado_117" data-name="Trazado 117" d="M273.392,150.136l-1.353-1.354h-3.324v2.284h9.274a7.759,7.759,0,0,0-.462-.771h-3.976Zm-2.7.5a.673.673,0,1,1,.673-.673A.673.673,0,0,1,270.691,150.636Z" transform="translate(-268.715 -148.782)" fill="#101820"/>
      </g>
      <g id="Grupo_64" data-name="Grupo 64" transform="translate(1.781 9.167)">
        <rect id="Rectángulo_12" data-name="Rectángulo 12" width="1.131" fill="#101820"/>
      </g>
      <g id="Grupo_65" data-name="Grupo 65" transform="translate(0 9.167)">
        <rect id="Rectángulo_13" data-name="Rectángulo 13" width="0.193" fill="#101820"/>
      </g>
      <g id="Grupo_66" data-name="Grupo 66" transform="translate(4.498 9.167)">
        <rect id="Rectángulo_14" data-name="Rectángulo 14" width="1.131" fill="#101820"/>
      </g>
      <g id="Grupo_67" data-name="Grupo 67" transform="translate(3.783 20.315)">
        <path id="Trazado_118" data-name="Trazado 118" d="M259.924,198.3a18.455,18.455,0,0,0,1.771,1.936l6.651,4.05a18.122,18.122,0,0,0,1.912.545c.28.063.563.119.849.17l-11.334-6.9C259.823,198.164,259.872,198.232,259.924,198.3Z" transform="translate(-259.772 -198.097)" fill="#101820"/>
      </g>
      <g id="Grupo_68" data-name="Grupo 68" transform="translate(2.06 17.612)">
        <path id="Trazado_119" data-name="Trazado 119" d="M255.669,191.788l13.645,8.309q.39.037.784.057h.9l-16.2-9.863Q255.2,191.061,255.669,191.788Z" transform="translate(-254.798 -190.291)" fill="#101820"/>
      </g>
      <g id="Grupo_69" data-name="Grupo 69" transform="translate(1.07 15.354)">
        <path id="Trazado_120" data-name="Trazado 120" d="M252.457,185.054l17.793,10.834q.7-.039,1.376-.129L251.94,183.773Q252.174,184.425,252.457,185.054Z" transform="translate(-251.94 -183.773)" fill="#101820"/>
      </g>
      <g id="Grupo_70" data-name="Grupo 70" transform="translate(0.48 13.339)">
        <path id="Trazado_121" data-name="Trazado 121" d="M250.544,179.11l20.865,12.7q.592-.108,1.171-.254l-22.345-13.605Q250.371,178.54,250.544,179.11Z" transform="translate(-250.235 -177.956)" fill="#101820"/>
      </g>
      <g id="Grupo_71" data-name="Grupo 71" transform="translate(0.148 11.483)">
        <path id="Trazado_122" data-name="Trazado 122" d="M249.442,173.662l23.288,14.18q.521-.156,1.028-.34L249.276,172.6Q249.344,173.134,249.442,173.662Z" transform="translate(-249.276 -172.595)" fill="#101820"/>
      </g>
      <g id="Grupo_72" data-name="Grupo 72" transform="translate(0.014 9.746)">
        <path id="Trazado_123" data-name="Trazado 123" d="M264.255,177.594q-.4-.153-.78-.335t-.748-.39a11.369,11.369,0,0,1-1.392-.936c-.108-.084-.214-.171-.319-.258s-.235-.2-.349-.308q-.342-.315-.659-.656c-.137-.148-.269-.3-.4-.457-.045-.054-.089-.109-.133-.164s-.068-.082-.1-.124l-10.488-6.386c.01.336.028.67.056,1l25.249,15.374q.465-.192.917-.408l-8.846-5.386a11.257,11.257,0,0,1-1.2-.289Q264.652,177.748,264.255,177.594Z" transform="translate(-248.889 -167.58)" fill="#101820"/>
      </g>
      <g id="Grupo_73" data-name="Grupo 73" transform="translate(0.193 9.167)">
        <path id="Trazado_124" data-name="Trazado 124" d="M251,165.909h-1.587l9.505,5.787a11.3,11.3,0,0,1-.7-1.394Z" transform="translate(-249.408 -165.909)" fill="#101820"/>
      </g>
      <g id="Grupo_74" data-name="Grupo 74" transform="translate(0.193 9.167)">
        <rect id="Rectángulo_15" data-name="Rectángulo 15" width="1.587" fill="#101820"/>
      </g>
      <g id="Grupo_75" data-name="Grupo 75" transform="translate(2.911 9.167)">
        <path id="Trazado_125" data-name="Trazado 125" d="M257.255,165.909l5.753,3.5a11.164,11.164,0,0,1-.308-1.154l-3.858-2.349Z" transform="translate(-257.255 -165.909)" fill="#101820"/>
      </g>
      <g id="Grupo_76" data-name="Grupo 76" transform="translate(3.512 8.397)">
        <rect id="Rectángulo_16" data-name="Rectángulo 16" width="1.587" transform="translate(0 1.54) rotate(-75.964)" fill="#101820"/>
      </g>
      <g id="Grupo_77" data-name="Grupo 77" transform="translate(5.629 9.167)">
        <path id="Trazado_126" data-name="Trazado 126" d="M265.1,165.909l2.592,1.578c-.047-.337-.077-.678-.094-1.023l-.911-.555Z" transform="translate(-265.102 -165.909)" fill="#101820"/>
      </g>
      <g id="Grupo_78" data-name="Grupo 78" transform="translate(5.629 9.167)">
        <rect id="Rectángulo_17" data-name="Rectángulo 17" width="1.587" fill="#101820"/>
      </g>
    </g>
  </g>
</svg>
