<svg xmlns="http://www.w3.org/2000/svg" width="176.221" height="45.082" viewBox="0 0 176.221 45.082">
  <g id="Grupo_216" data-name="Grupo 216" opacity="0.499">
    <g id="Grupo_167" data-name="Grupo 167" transform="translate(0 8.83)">
      <path id="Trazado_505" data-name="Trazado 505" d="M200.915,470.689v-9.926c0-3.784-1.864-6.69-5.264-6.69-3.455,0-5.429,2.906-5.429,6.69v9.487c0,2.523.932,3.29,3.455,3.51v1.7H180.131v-1.7c2.577-.219,3.51-.987,3.51-3.51V445.683c0-2.523-1.042-3.181-3.51-2.961v-1.7l7.677-1.426c1.59-.274,2.413.439,2.413,1.919v10.529c0,1.974.877,2.468,1.59,1.645a9.511,9.511,0,0,1,7.732-3.565c4,0,7.952,1.974,7.952,9.377v11.187c0,1.864.932,2.632,2.523,2.139v.987c-.713,1.426-2.523,1.974-4.168,1.974C203,475.789,200.915,474.2,200.915,470.689Z" transform="translate(-180.131 -439.538)" fill="#101820"/>
      <path id="Trazado_506" data-name="Trazado 506" d="M316.46,497.5c0-8.61,6.69-12.887,13.545-12.887,5.7,0,9.871,2.961,9.871,7.458,0,4.387-3.894,5.1-9.981,5.484l-4.552.274c-1.152.055-1.59.768-1.371,2.3.548,4,4.661,6.306,8.829,6.306a8.33,8.33,0,0,0,6.635-2.906l1.316,1.152c-1.042,2.029-4.935,5.484-11.077,5.484C322.821,510.164,316.46,505.832,316.46,497.5Zm11.79-1.645c4.387-.274,5.484-1.207,5.484-3.729,0-2.8-1.316-5.429-4.607-5.429-3.619,0-5.319,3.071-5.539,6.69-.11,2.029.384,2.687,1.81,2.632Z" transform="translate(-284.106 -473.912)" fill="#101820"/>
      <path id="Trazado_507" data-name="Trazado 507" d="M451.16,504.711v-9.926c0-3.784-1.865-6.69-5.265-6.69-3.455,0-5.429,2.906-5.429,6.69v9.487c0,2.523.932,3.29,3.455,3.51v1.7H430.376v-1.7c2.578-.219,3.51-.987,3.51-3.51V490.452c0-2.523-1.042-3.181-3.51-2.961v-1.7l7.677-1.426c1.59-.274,2.413.439,2.413,1.7,0,1.974.877,2.468,1.59,1.645a9.766,9.766,0,0,1,7.732-3.565c4,0,7.952,1.974,7.952,9.377v11.187c0,1.864.932,2.632,2.523,2.139v.987c-.713,1.426-2.523,1.974-4.168,1.974C453.244,509.811,451.16,508.22,451.16,504.711Z" transform="translate(-370.986 -473.559)" fill="#101820"/>
      <path id="Trazado_508" data-name="Trazado 508" d="M565.548,473.76c2.577-.219,3.51-.987,3.51-3.51V445.683c0-2.523-1.042-3.181-3.51-2.961v-1.7l7.677-1.426c1.591-.274,2.413.439,2.413,1.919V460c0,1.481,1.042,2.029,1.919,1.261l6.8-5.923c1.152-.987.713-2.687-2.193-2.906v-1.7h11.352v1.7c-2.742.219-4.058,1.371-6.087,3.126l-4.5,3.894,7.842,11.352a5.743,5.743,0,0,0,4.935,2.961v1.7h-13.49v-1.7c1.974-.274,1.864-1.481,1.042-2.687l-4.113-6.2c-.548-.823-.987-1.316-1.7-.713-1.207,1.042-1.81,1.59-1.81,3.345v2.742c0,2.523.932,3.29,3.455,3.51v1.7H565.548Z" transform="translate(-474.079 -439.538)" fill="#101820"/>
      <path id="Trazado_509" data-name="Trazado 509" d="M692.632,497.332c0-8.445,6.416-12.723,13.107-12.723,6.745,0,13.161,4.387,13.161,12.832s-6.416,12.723-13.106,12.723C699.048,510.164,692.632,505.777,692.632,497.332Zm19.193,2.413c0-7.019-2.961-13.052-7.129-13.052-2.961,0-4.99,2.523-4.99,8.336,0,7.019,2.961,13.051,7.129,13.051C709.742,508.08,711.826,505.557,711.826,499.745Z" transform="translate(-571.002 -473.912)" fill="#101820"/>
    </g>
    <g id="Grupo_168" data-name="Grupo 168" transform="translate(135.249 0)">
      <path id="Trazado_510" data-name="Trazado 510" d="M755.258,455.154a1.826,1.826,0,0,1-.948.386,2.36,2.36,0,0,1-1.119-.164l-3.171-1.221.23-.6,3.2,1.232a1.6,1.6,0,0,0,1.119.06,1.415,1.415,0,0,0,.716-1.86,1.587,1.587,0,0,0-.869-.71l-3.2-1.232.228-.591,3.171,1.221a2.484,2.484,0,0,1,.948.619,1.732,1.732,0,0,1,.45.908,2.05,2.05,0,0,1-.134,1.083A1.988,1.988,0,0,1,755.258,455.154Z" transform="translate(-750.019 -439.034)" fill="#101820"/>
      <path id="Trazado_511" data-name="Trazado 511" d="M760.881,431.562l.49-.611,5.043.575.019-.023-.83-.627-2.54-2.036.4-.5,4.209,3.374-.415.518-5.282-.6-.019.023.83.627,2.7,2.163-.4.494Z" transform="translate(-758.303 -422.167)" fill="#101820"/>
      <path id="Trazado_512" data-name="Trazado 512" d="M778.54,421.377l.492-.4,3.393,4.194-.492.4Z" transform="translate(-771.771 -416.553)" fill="#101820"/>
      <path id="Trazado_513" data-name="Trazado 513" d="M787.552,412.1l1.453-.734a2.935,2.935,0,0,1,1.446-.346,2.363,2.363,0,0,1,1.277.423,3.127,3.127,0,0,1,1.264,2.5,2.359,2.359,0,0,1-.418,1.279,2.934,2.934,0,0,1-1.137.958l-1.453.734Zm3.61,3.537a2.075,2.075,0,0,0,1.107-1.175,2.385,2.385,0,0,0-1.386-2.744,2.076,2.076,0,0,0-1.6.194l-.888.448,1.882,3.726Z" transform="translate(-778.644 -408.954)" fill="#101820"/>
      <path id="Trazado_514" data-name="Trazado 514" d="M815.382,407.745a2.717,2.717,0,0,1-1.113-.891,2.962,2.962,0,0,1-.348-2.815,2.781,2.781,0,0,1,3.658-1.485,2.735,2.735,0,0,1,1.117.895,2.948,2.948,0,0,1,.352,2.815,2.793,2.793,0,0,1-3.666,1.482Zm2.393-.816a2.056,2.056,0,0,0,.666-.872,2.446,2.446,0,0,0-.28-2.266,2.058,2.058,0,0,0-.859-.683,2.084,2.084,0,0,0-1.093-.149,2.063,2.063,0,0,0-1.019.411,2.086,2.086,0,0,0-.666.876,2.4,2.4,0,0,0,.28,2.258,2.087,2.087,0,0,0,.859.687,2.146,2.146,0,0,0,2.112-.261Z" transform="translate(-798.596 -402.33)" fill="#101820"/>
      <path id="Trazado_515" data-name="Trazado 515" d="M840.749,408.153a1.935,1.935,0,0,1-.506-1.2l.646-.128a1.57,1.57,0,0,0,.316.867,1.182,1.182,0,0,0,.74.458,1.25,1.25,0,0,0,.825-.1.827.827,0,0,0,.449-.616.8.8,0,0,0-.152-.662,2.679,2.679,0,0,0-.8-.618l-.31-.183a2.693,2.693,0,0,1-.816-.7,1.185,1.185,0,0,1-.181-.971,1.291,1.291,0,0,1,.342-.659,1.511,1.511,0,0,1,.676-.4,1.956,1.956,0,0,1,1.632.292,1.7,1.7,0,0,1,.464.519,1.583,1.583,0,0,1,.192.536l-.641.137a1.009,1.009,0,0,0-.241-.561,1.055,1.055,0,0,0-.649-.356,1.1,1.1,0,0,0-.74.1.721.721,0,0,0-.4.521.631.631,0,0,0,.146.554,2.537,2.537,0,0,0,.669.509l.325.186a2.977,2.977,0,0,1,.933.813,1.347,1.347,0,0,1,.185,1.068,1.41,1.41,0,0,1-.429.807,1.576,1.576,0,0,1-.761.383,2.2,2.2,0,0,1-.853,0A1.926,1.926,0,0,1,840.749,408.153Z" transform="translate(-818.83 -402.972)" fill="#101820"/>
      <path id="Trazado_516" data-name="Trazado 516" d="M865.91,411.778l1.548.95a1.76,1.76,0,0,1,.606.611,1.591,1.591,0,0,1,.226.806,1.6,1.6,0,0,1-.863,1.407,1.593,1.593,0,0,1-.821.163,1.757,1.757,0,0,1-.819-.264l-1.008-.619-1.151,1.875-.539-.331Zm.209,3.16a.983.983,0,0,0,.528.156,1.025,1.025,0,0,0,.5-.127.945.945,0,0,0,.5-.809,1.031,1.031,0,0,0-.112-.5.983.983,0,0,0-.378-.4l-1.021-.627-1.033,1.682Z" transform="translate(-836.254 -409.536)" fill="#101820"/>
      <path id="Trazado_517" data-name="Trazado 517" d="M880.844,431.8a2.715,2.715,0,0,1,.129-1.419,2.962,2.962,0,0,1,2.156-1.844,2.756,2.756,0,0,1,3.127,3.656,2.948,2.948,0,0,1-2.154,1.847,2.792,2.792,0,0,1-3.259-2.24Zm2,1.546a2.06,2.06,0,0,0,1.1.075,2.446,2.446,0,0,0,1.735-1.484,2.057,2.057,0,0,0,.1-1.094,2.084,2.084,0,0,0-.478-.994,2.06,2.06,0,0,0-.905-.624,2.085,2.085,0,0,0-1.1-.072,2.4,2.4,0,0,0-1.729,1.479,2.085,2.085,0,0,0-.1,1.1,2.06,2.06,0,0,0,.476.991A2.083,2.083,0,0,0,882.844,433.342Z" transform="translate(-849.764 -422.272)" fill="#101820"/>
      <path id="Trazado_518" data-name="Trazado 518" d="M897.176,450.328l.695,1.686a1.75,1.75,0,0,1,.128.844,1.6,1.6,0,0,1-.292.784,1.518,1.518,0,0,1-.675.527,1.488,1.488,0,0,1-.712.11,1.563,1.563,0,0,1-.68-.225,1.679,1.679,0,0,1-.523-.5l-.027-.005-1.461,2.248-.028.011-.287-.7,1.474-2.2-.324-.787-2.034.838-.241-.585Zm-1.723,2.641a1.119,1.119,0,0,0,.318.435,1.016,1.016,0,0,0,.48.226.936.936,0,0,0,.533-.061.946.946,0,0,0,.39-.3,1.029,1.029,0,0,0,.205-.471.988.988,0,0,0-.07-.546l-.456-1.108-1.839.758Z" transform="translate(-858.448 -438.937)" fill="#101820"/>
      <path id="Trazado_519" data-name="Trazado 519" d="M904.285,479.374l-.075-1.513.609-.03.182,3.657-.61.03-.075-1.505-4.779.238-.032-.64Z" transform="translate(-864.029 -459.913)" fill="#101820"/>
      <path id="Trazado_520" data-name="Trazado 520" d="M897.859,498.118a1.823,1.823,0,0,1,.88-.522,2.362,2.362,0,0,1,1.132,0l3.317.74-.14.625-3.346-.747a1.6,1.6,0,0,0-1.116.106,1.414,1.414,0,0,0-.434,1.945,1.584,1.584,0,0,0,.964.574l3.346.747-.138.618-3.317-.74a2.479,2.479,0,0,1-1.029-.473,1.73,1.73,0,0,1-.579-.832,2.052,2.052,0,0,1-.027-1.091A1.989,1.989,0,0,1,897.859,498.118Z" transform="translate(-862.356 -474.934)" fill="#101820"/>
      <path id="Trazado_521" data-name="Trazado 521" d="M893.713,526.46l-.4.587-3.987-1.085-.545-.15-.017.025.338.456,2.459,3.345-.4.587-3.364-4.657.371-.549Z" transform="translate(-855.105 -495.901)" fill="#101820"/>
      <path id="Trazado_522" data-name="Trazado 522" d="M883.639,539.008l-.451.444L879.4,535.61l.451-.444Z" transform="translate(-848.695 -503.641)" fill="#101820"/>
      <path id="Trazado_523" data-name="Trazado 523" d="M869.377,541.73a1.936,1.936,0,0,1,1.2.484l-.365.549a1.572,1.572,0,0,0-.838-.387,1.183,1.183,0,0,0-.847.2,1.249,1.249,0,0,0-.512.654.828.828,0,0,0,.12.752.8.8,0,0,0,.577.359,2.672,2.672,0,0,0,1-.129l.348-.091a2.7,2.7,0,0,1,1.073-.083,1.185,1.185,0,0,1,.816.557,1.29,1.29,0,0,1,.226.707,1.511,1.511,0,0,1-.192.764,1.955,1.955,0,0,1-1.358.951,1.694,1.694,0,0,1-.7-.038,1.577,1.577,0,0,1-.515-.242l.354-.551a1.011,1.011,0,0,0,.567.225,1.056,1.056,0,0,0,.71-.209,1.1,1.1,0,0,0,.454-.591.721.721,0,0,0-.088-.651.632.632,0,0,0-.5-.287,2.557,2.557,0,0,0-.833.115l-.361.1a2.969,2.969,0,0,1-1.234.088,1.348,1.348,0,0,1-.888-.622,1.409,1.409,0,0,1-.27-.873,1.575,1.575,0,0,1,.265-.809,2.2,2.2,0,0,1,.6-.608A1.929,1.929,0,0,1,869.377,541.73Z" transform="translate(-839.494 -508.646)" fill="#101820"/>
      <path id="Trazado_524" data-name="Trazado 524" d="M862.515,553.678l-.579.256L859.752,549l.579-.256Z" transform="translate(-833.71 -513.997)" fill="#101820"/>
      <path id="Trazado_525" data-name="Trazado 525" d="M840.4,553.252a2.713,2.713,0,0,1,1.161.826,2.961,2.961,0,0,1,.508,2.791,2.781,2.781,0,0,1-3.567,1.692,2.739,2.739,0,0,1-1.166-.829,2.948,2.948,0,0,1-.512-2.79,2.793,2.793,0,0,1,3.575-1.689Zm-2.343.951a2.057,2.057,0,0,0-.616.909,2.448,2.448,0,0,0,.409,2.246,2.059,2.059,0,0,0,.9.633,2.087,2.087,0,0,0,1.1.087,2.065,2.065,0,0,0,.995-.469,2.086,2.086,0,0,0,.615-.912,2.4,2.4,0,0,0-.408-2.238,2.118,2.118,0,0,0-2.991-.256Zm2.015,5.741-.689.126.355-1.037.548-.1Z" transform="translate(-816.105 -517.307)" fill="#101820"/>
      <path id="Trazado_526" data-name="Trazado 526" d="M815.706,558.491l-.773-.131-1.952-4.685-.03-.005-.144,1.03-.542,3.21-.631-.107.9-5.319.654.11,2.044,4.907.03.005.143-1.03.576-3.41.624.105Z" transform="translate(-797.012 -516.849)" fill="#101820"/>
    </g>
  </g>
</svg>
