<svg xmlns="http://www.w3.org/2000/svg" width="176.221" height="43.319" viewBox="0 0 176.221 43.319">
  <g id="Capa_2" data-name="Capa 2" opacity="0.499">
    <g id="Capa_1" data-name="Capa 1" transform="translate(0 0)">
      <path id="Trazado_500" data-name="Trazado 500" d="M7.65,0H0V43.186H23.973V35.541H7.65Z" transform="translate(0 0.11)"/>
      <path id="Trazado_501" data-name="Trazado 501" d="M221.157,10.632A16.188,16.188,0,0,0,212.54,13.1V0h-7.65V43.19h7.65v-2.5a16.286,16.286,0,1,0,8.618-30.059Zm0,24.88A8.618,8.618,0,1,1,229.77,26.9a8.618,8.618,0,0,1-8.613,8.616Z" transform="translate(-109.552 0.11)"/>
      <path id="Trazado_502" data-name="Trazado 502" d="M299.827,10.632A16.2,16.2,0,0,0,291.21,13.1V0h-7.65V43.19h7.65v-2.5a16.286,16.286,0,1,0,8.618-30.059Zm0,24.88a8.618,8.618,0,1,1,8.6-8.618A8.618,8.618,0,0,1,299.827,35.513Z" transform="translate(-151.616 0.11)"/>
      <path id="Trazado_503" data-name="Trazado 503" d="M105.97,22.879H73.44a16.286,16.286,0,0,0,0,32.535h32.53a16.286,16.286,0,1,0,0-32.535Zm0,24.885H73.44a8.618,8.618,0,0,1,0-17.217h32.53a8.618,8.618,0,1,1,0,17.217Z" transform="translate(-30.976 -12.113)"/>
      <rect id="Rectángulo_274" data-name="Rectángulo 274" width="7.65" height="32.53" transform="translate(168.559 10.766)"/>
      <path id="Trazado_504" data-name="Trazado 504" d="M366.044,7.537A3.858,3.858,0,0,0,369.9,3.731a3.834,3.834,0,1,0-7.664,0,3.848,3.848,0,0,0,3.806,3.806Z" transform="translate(-193.683 0.236)"/>
    </g>
  </g>
</svg>
