<svg xmlns="http://www.w3.org/2000/svg" width="306.181" height="191.316" viewBox="0 0 306.181 191.316">
  <g id="Grupo_80" data-name="Grupo 80" transform="translate(-156.559 -54.993)">
    <g id="Grupo_6" data-name="Grupo 6">
      <path id="Trazado_58" data-name="Trazado 58" d="M192.513,224.281l.166,1.129.016.3a.464.464,0,0,1-.084.3.7.7,0,0,1-.374.084c-.035,0-.536,0-1.507-.016s-1.916.009-2.841.061a33.694,33.694,0,0,0-4.9.659q-.6.134-.7.14a1.645,1.645,0,0,1-.521-.047.89.89,0,0,1-.377-.18l-.923-.655a1.216,1.216,0,0,1-.206-.293.736.736,0,0,1-.079-.274c-.018-.319.418-.558,1.313-.719a9.789,9.789,0,0,0,2.4-.731,6.835,6.835,0,0,0,3.257-3.46,11.981,11.981,0,0,0,.925-5.731,7.822,7.822,0,0,0-1.747-4.9,4.677,4.677,0,0,0-3.961-1.634q-3.959.225-5.5,7.8-.3,1.408-.457,2.176a14.229,14.229,0,0,1-2.888,6.589,7.241,7.241,0,0,1-5.157,2.266,9.483,9.483,0,0,1-7.655-3.194,13.233,13.233,0,0,1-3.6-8.711q-.062-1.108.01-2.96t.285-4.77l-.58-.853-.264-1.073-.011-.2a.477.477,0,0,1,.049-.255c.038-.068.082-.106.133-.109a2.873,2.873,0,0,1,.355.03,30.613,30.613,0,0,0,4.885.077,21.131,21.131,0,0,0,2.412-.289q1.279-.225,1.4-.232a1.67,1.67,0,0,1,.367.017.489.489,0,0,1,.246.1l1.1,1.024a.181.181,0,0,1,.043.074.52.52,0,0,1,.018.126q.024.4-1.051.629a8.378,8.378,0,0,0-1.814.571,5.742,5.742,0,0,0-2.852,2.982,11.811,11.811,0,0,0-.675,5.261,6.621,6.621,0,0,0,1.366,4.008,3.635,3.635,0,0,0,3.136,1.326,3.778,3.778,0,0,0,3.008-1.588q1.066-1.476,1.948-6,1.341-6.678,3.259-8.949a7.478,7.478,0,0,1,5.575-2.48,10.579,10.579,0,0,1,8.68,3.654,15.632,15.632,0,0,1,4.016,10.116,31.733,31.733,0,0,1-.024,3.352q-.1,1.967-.368,4.409Z" fill="#0e1319"/>
      <path id="Trazado_59" data-name="Trazado 59" d="M194.24,183.742a13.035,13.035,0,0,1-6.672,9,16.88,16.88,0,0,1-12.188,1.484,18.841,18.841,0,0,1-6.571-2.755,18.2,18.2,0,0,1-4.96-5.039,20.7,20.7,0,0,1-3.027-6.84,15.267,15.267,0,0,1-.1-6.768,13.04,13.04,0,0,1,6.687-8.954,16.8,16.8,0,0,1,12.172-1.525,18.154,18.154,0,0,1,11.569,7.853,19.866,19.866,0,0,1,3.034,6.751A15.41,15.41,0,0,1,194.24,183.742Zm-19.4,3.23q6.243,1.365,10.549-.37a8,8,0,0,0,5.226-5.926,7.142,7.142,0,0,0-1.952-6.862q-2.812-2.916-8.708-4.205-6.069-1.326-10.333.39a7.874,7.874,0,0,0-5.162,5.812,7.361,7.361,0,0,0,1.795,6.983Q168.949,185.683,174.845,186.972Z" fill="#0e1319"/>
      <path id="Trazado_60" data-name="Trazado 60" d="M169.666,149.165l-.64-.79a.778.778,0,0,1-.116-.4.862.862,0,0,1,.1-.433c.031-.059.14-.231.326-.513a45.864,45.864,0,0,0,2.926-4.824q.633-1.209,1.4-3.1t1.08-2.5a.768.768,0,0,1,.294-.345.356.356,0,0,1,.334.017.633.633,0,0,1,.127.109.838.838,0,0,1,.128.167l.529.676a1.956,1.956,0,0,1,.017,1.165,2.344,2.344,0,0,0,.158,1.493,6.061,6.061,0,0,0,1.856,1.6q1.518,1,4.828,2.729l13.2,6.911q2.82,1.476,4.193.813t3.142-4.041a14.849,14.849,0,0,0,1.743-4.688,5.653,5.653,0,0,0-.676-3.447,6.515,6.515,0,0,0-1.263-1.532q-.906-.856-.8-1.545l.14-.867c.009-.09.016-.157.021-.2a.291.291,0,0,1,.03-.113.3.3,0,0,1,.246-.171.854.854,0,0,1,.433.127c.044.023.2.144.467.359a54.267,54.267,0,0,0,6.879,4.771l.13.9a.955.955,0,0,1-.016.247.9.9,0,0,1-.083.27c-.017.03-.086.126-.209.289a72.331,72.331,0,0,0-5.55,9.237l-3.363,6.42q-1.277,2.439-2.387,5.049c-.15.321-.247.526-.294.616a.784.784,0,0,1-.277.339.357.357,0,0,1-.338-.035.665.665,0,0,1-.146-.1.526.526,0,0,1-.121-.149l-.53-.677a1.956,1.956,0,0,1-.017-1.163,2.345,2.345,0,0,0-.159-1.494,5.316,5.316,0,0,0-1.744-1.513q-1.43-.918-4.964-2.769l-12.907-6.76a22.515,22.515,0,0,0-4.155-1.862,2.356,2.356,0,0,0-1.742.17,4.769,4.769,0,0,0-1.214,1.118c-.389.49-.691.687-.909.593A.334.334,0,0,1,169.666,149.165Z" fill="#0e1319"/>
      <path id="Trazado_61" data-name="Trazado 61" d="M211.569,126.043c.025.046.062.129.113.247a12.546,12.546,0,0,0,2.118,3.19,2.373,2.373,0,0,0,3,.556,5.424,5.424,0,0,1,1.636-.757.416.416,0,0,1,.064.08.583.583,0,0,1,.047.1l.375.921a.714.714,0,0,1,.01.446.9.9,0,0,1-.206.379c-.036.037-.142.123-.317.258a30.551,30.551,0,0,0-2.911,2.665q-1.1,1.147-2.288,2.6t-1.394,1.671a.764.764,0,0,1-.38.249.348.348,0,0,1-.314-.11.686.686,0,0,1-.092-.123,1.026,1.026,0,0,1-.094-.194l-.32-.834a1.469,1.469,0,0,1,.249-.951,2.5,2.5,0,0,0,.336-1.042,11.38,11.38,0,0,0-.72-2.986q-.7-2.058-1.992-4.872l-7.954-17.163a16.224,16.224,0,0,0-.957-1.847,5.478,5.478,0,0,0-.815-1.01,2.24,2.24,0,0,0-.516-.356c-.21-.108-.322-.169-.334-.181l-.2-.191-.072-.07-.228-.639q-.093-.3.6-1.192a8.493,8.493,0,0,0,1.156-1.987,9.606,9.606,0,0,0,.656-2.942,1.355,1.355,0,0,1,.079-.52.8.8,0,0,1,.219-.156.553.553,0,0,1,.2-.066l.535-.047a.292.292,0,0,1,.216.067,5.723,5.723,0,0,1,.527.472,12.15,12.15,0,0,0,2.789,1.854,53.323,53.323,0,0,0,4.99,2.186L224.4,109.55a51.727,51.727,0,0,0,5.878,1.971,9.3,9.3,0,0,0,3.276.309,4.427,4.427,0,0,0,1.454-.547c.529-.3.855-.386.975-.269l.065.061a.205.205,0,0,1,.045.08l.4.974a.708.708,0,0,1,0,.4.86.86,0,0,1-.214.406q-.052.054-.4.347a57.509,57.509,0,0,0-4.785,4.472q-1.05,1.092-2.383,2.772t-1.769,2.134a.744.744,0,0,1-.388.257.365.365,0,0,1-.306-.118,1.516,1.516,0,0,1-.155-.167.479.479,0,0,1-.066-.115l-.284-.869a1.565,1.565,0,0,1,.18-.772,2.8,2.8,0,0,0-.511-3.258,6.658,6.658,0,0,0-1.278-.911,15.66,15.66,0,0,0-2.01-.951l-5.279-2.269-3.761,3.915-3.9,4.061ZM202.7,107.5q1.229,2.441,2.487,5.137t2.57,5.673l2.257-2.348,3.585-3.734Z" fill="#0e1319"/>
      <path id="Trazado_62" data-name="Trazado 62" d="M250.692,103.227l.045,1.015a.76.76,0,0,1-.157.42,1.091,1.091,0,0,1-.361.362c-.075.041-.259.124-.556.25a53.152,53.152,0,0,0-5.508,2.668q-.969.54-2.57,1.664t-2.305,1.516a.775.775,0,0,1-.419.132.355.355,0,0,1-.264-.214.688.688,0,0,1-.063-.167.506.506,0,0,1-.02-.19l-.029-.881q-.014-.282.6-.97a2.336,2.336,0,0,0,.663-1.325,5.086,5.086,0,0,0-.563-2.1q-.612-1.408-2.7-5.157l-7.1-12.726a22.489,22.489,0,0,0-2.455-3.835,2.369,2.369,0,0,0-1.552-.812,4.767,4.767,0,0,0-1.627.272q-.891.294-1.085,0a.3.3,0,0,1-.007-.169l-.1-1.013a.782.782,0,0,1,.124-.4.859.859,0,0,1,.319-.309c.044-.025.2-.091.466-.2a56.729,56.729,0,0,0,5.819-2.839q1.917-1.072,4.782-2.986t3.945-2.518a10.212,10.212,0,0,1,6.716-1.488,6.4,6.4,0,0,1,4.7,3.393,7.49,7.49,0,0,1,.587,6.163,12.208,12.208,0,0,1-4.476,5.894q3.823-1.438,8.548,2.057l.246.181,3.869,2.843a7.442,7.442,0,0,0,2.567,1.388,2.669,2.669,0,0,0,1.995-.259,4.184,4.184,0,0,0,1.326-1.3,4.691,4.691,0,0,1,.841-1.033.335.335,0,0,1,.242-.033.235.235,0,0,1,.167.094,1.019,1.019,0,0,1,.082.171.528.528,0,0,1,.022.118l.21,1.155a2.174,2.174,0,0,1-.4,1.465c-.23.417-.409.769-.54,1.052-.09.187-.216.459-.381.821q-1.441,3.117-2.458,3.682a4.368,4.368,0,0,1-3.431.352,14.865,14.865,0,0,1-4.653-2.666l-5.5-4.218a14.506,14.506,0,0,0-4.544-2.627,4.265,4.265,0,0,0-3.136.52,5.81,5.81,0,0,0-.657.453,5.929,5.929,0,0,1-.549.392l4.232,7.586a20.424,20.424,0,0,0,2.435,3.746,2.473,2.473,0,0,0,1.682.84,4.839,4.839,0,0,0,1.765-.334c.65-.236,1.023-.267,1.121-.09a.554.554,0,0,1,.051.117A.176.176,0,0,1,250.692,103.227ZM237.116,87.176a1.517,1.517,0,0,0,1.363.917,7.065,7.065,0,0,0,2.767-1.08,6.756,6.756,0,0,0,3.347-3.356,5.026,5.026,0,0,0-.647-4.192,4.791,4.791,0,0,0-3.217-2.557,6.4,6.4,0,0,0-4.486.924q-.552.309-1.286.805t-1.677,1.195q.522,1.04,1.312,2.637t.986,1.95Z" fill="#0e1319"/>
      <path id="Trazado_63" data-name="Trazado 63" d="M277.009,58.1a.441.441,0,0,1,.23-.2,1.136,1.136,0,0,1,.393-.12q.227-.025,1.013-.037a60.561,60.561,0,0,0,6.134-.358q2.084-.232,5.343-.852t4.463-.754q6.35-.712,10.412,3.115t4.9,11.328a18.083,18.083,0,0,1-3.452,13.536,16.573,16.573,0,0,1-11.836,6.5,38.43,38.43,0,0,1-4.246.2q-2.467,0-3.168.076-1.354.151-3.341.578t-2.637.5a.764.764,0,0,1-.436-.04.358.358,0,0,1-.161-.3.694.694,0,0,1,.006-.179.55.55,0,0,1,.055-.184l.264-.817q.1-.264.955-.667a2.338,2.338,0,0,0,1.149-.966,5.107,5.107,0,0,0,.292-2.155q-.021-1.534-.5-5.8l-1.612-14.379a23.681,23.681,0,0,0-.749-4.311,2.835,2.835,0,0,0-1.106-1.58,4.612,4.612,0,0,0-1.74-.452c-.8-.089-1.206-.225-1.228-.408a.369.369,0,0,1,.038-.12c.028-.062.069-.147.124-.255Zm13,24.207q.334,3.011,1.523,3.843t4.121.5a7.248,7.248,0,0,0,6.171-4.122q1.754-3.627.968-10.628-.795-7.1-3.4-9.973t-7.7-2.3a19.5,19.5,0,0,0-1.958.32q-.954.212-1.937.523.092,1.947.279,4.073t.469,4.634Z" fill="#0e1319"/>
      <path id="Trazado_64" data-name="Trazado 64" d="M340.334,92.874a2.7,2.7,0,0,1-.3.117.514.514,0,0,1-.234.026c-.034-.006-.155-.043-.367-.111a73.279,73.279,0,0,0-10.562-2.372l-7.7-1.263q-2.715-.447-5.543-.679c-.352-.042-.578-.07-.678-.087a.774.774,0,0,1-.409-.155.358.358,0,0,1-.074-.332.7.7,0,0,1,.053-.171.556.556,0,0,1,.1-.162l.476-.716c.11-.151.476-.28,1.1-.382a2.342,2.342,0,0,0,1.368-.62,5.3,5.3,0,0,0,.887-2.132q.424-1.644,1.068-5.582l2.36-14.378a22.173,22.173,0,0,0,.454-4.493,2.35,2.35,0,0,0-.711-1.588,4.766,4.766,0,0,0-1.443-.8c-.587-.215-.871-.441-.848-.676a.329.329,0,0,1,.106-.187l.543-.807a.633.633,0,0,1,.351-.275,1.089,1.089,0,0,1,.544-.039q.1.017.594.123,2.854.7,5.794,1.181l13.83,2.268a10.1,10.1,0,0,0,1.738.17,3.518,3.518,0,0,0,1.106-.19l.83-.067a.8.8,0,0,0,.153,0,.7.7,0,0,1,.154,0q.42.094.3,1.431c-.049.505-.085.933-.108,1.288a37.211,37.211,0,0,0,.024,4.84,4.294,4.294,0,0,1,.035.569,1.059,1.059,0,0,1-.1.277.539.539,0,0,1-.134.2l-.916.746a1.332,1.332,0,0,1-.27.161.329.329,0,0,1-.169.023q-.4-.066-.562-1.18a8.22,8.22,0,0,0-.4-1.715,5.2,5.2,0,0,0-2.329-2.723,22.106,22.106,0,0,0-6.507-1.746l-4.237-.695q-.477,2.275-.77,3.84t-.426,2.361l-.114.7-.2,1.861c.7.183,1.348.341,1.933.47s1.075.228,1.473.294a23.708,23.708,0,0,0,4.589.419,5.393,5.393,0,0,0,2.572-.7l.963-.1a.9.9,0,0,1,.156-.014,1.086,1.086,0,0,1,.151.012.317.317,0,0,1,.234.128.6.6,0,0,1,.016.374c-.005.033-.041.155-.11.365a37.468,37.468,0,0,0-.908,4.125,14.236,14.236,0,0,0-.168,1.572c-.027.533-.046.824-.054.874a2.023,2.023,0,0,1-.216.616,1.876,1.876,0,0,1-.35.494l-.832.708a1.654,1.654,0,0,1-.191.07.441.441,0,0,1-.208.018c-.3-.049-.424-.436-.371-1.161a7.614,7.614,0,0,0,.033-1.146,2.889,2.889,0,0,0-1.174-2.279A12.157,12.157,0,0,0,331.4,72.6c-.315-.051-.8-.117-1.44-.2s-1.442-.173-2.4-.278l-1.635,9.813q-.519,3.165.548,4.223t5.4,1.769a14.943,14.943,0,0,0,5.025.184,5.8,5.8,0,0,0,3.083-1.72,7.461,7.461,0,0,0,1.041-1.659q.537-1.1,1.223-1.22l.825-.2a.585.585,0,0,1,.106-.021,1.123,1.123,0,0,1,.2.02.3.3,0,0,1,.24.18.847.847,0,0,1,.015.45,5.508,5.508,0,0,1-.193.558,50.467,50.467,0,0,0-2.367,8.03Z" fill="#0e1319"/>
      <path id="Trazado_65" data-name="Trazado 65" d="M358,63.947l.748-.69a.783.783,0,0,1,.394-.143.864.864,0,0,1,.439.07c.061.027.239.125.534.292a45.777,45.777,0,0,0,5.006,2.6q1.245.552,3.186,1.19t2.564.915a.739.739,0,0,1,.362.272.347.347,0,0,1,.006.332.576.576,0,0,1-.1.135.759.759,0,0,1-.158.137l-.641.574a1.962,1.962,0,0,1-1.159.093,2.335,2.335,0,0,0-1.48.255,6.071,6.071,0,0,0-1.475,1.958q-.893,1.578-2.4,5L357.79,90.558q-1.289,2.91-.537,4.237t4.238,2.871a14.848,14.848,0,0,0,4.793,1.431,5.658,5.658,0,0,0,3.395-.9,6.452,6.452,0,0,0,1.445-1.363q.8-.958,1.49-.9l.875.082.2.008a.341.341,0,0,1,.115.022.3.3,0,0,1,.186.234.852.852,0,0,1-.1.441q-.031.069-.328.489a54.5,54.5,0,0,0-4.311,7.178l-.884.188a1.011,1.011,0,0,1-.248,0,.881.881,0,0,1-.275-.066q-.047-.021-.3-.189a72.167,72.167,0,0,0-9.581-4.933l-6.626-2.935q-2.514-1.115-5.194-2.052-.495-.192-.634-.253a.789.789,0,0,1-.357-.255.357.357,0,0,1,.013-.339.717.717,0,0,1,.094-.152.562.562,0,0,1,.142-.131l.64-.572a1.946,1.946,0,0,1,1.16-.094,2.349,2.349,0,0,0,1.481-.256,5.321,5.321,0,0,0,1.4-1.84q.822-1.485,2.437-5.134l5.9-13.322A22.517,22.517,0,0,0,360,67.788a2.359,2.359,0,0,0-.285-1.727,4.731,4.731,0,0,0-1.2-1.138q-.771-.532-.65-.868A.3.3,0,0,1,358,63.947Z" fill="#0e1319"/>
      <path id="Trazado_66" data-name="Trazado 66" d="M394.11,112.548c-.047.024-.132.058-.251.1a12.57,12.57,0,0,0-3.269,2,2.371,2.371,0,0,0-.671,2.979,5.479,5.479,0,0,1,.694,1.663.377.377,0,0,1-.082.062.591.591,0,0,1-.1.043l-.934.34a.72.72,0,0,1-.447-.008.89.89,0,0,1-.371-.221c-.035-.036-.117-.146-.245-.326a30.306,30.306,0,0,0-2.552-3.011q-1.1-1.146-2.51-2.385t-1.616-1.458a.776.776,0,0,1-.235-.389.35.35,0,0,1,.122-.31.711.711,0,0,1,.128-.087,1.027,1.027,0,0,1,.2-.086l.845-.288a1.464,1.464,0,0,1,.942.286,2.505,2.505,0,0,0,1.028.375,11.385,11.385,0,0,0,3.011-.606q2.085-.623,4.945-1.8l17.456-7.291a16.16,16.16,0,0,0,1.881-.886,5.474,5.474,0,0,0,1.041-.775,2.168,2.168,0,0,0,.376-.5,3.238,3.238,0,0,1,.194-.327l.2-.193.073-.069.646-.2c.2-.056.593.159,1.166.646a8.6,8.6,0,0,0,1.944,1.232,9.6,9.6,0,0,0,2.914.768,1.319,1.319,0,0,1,.516.1.757.757,0,0,1,.148.226.56.56,0,0,1,.059.207l.024.535a.283.283,0,0,1-.074.213,5.6,5.6,0,0,1-.491.509,12.179,12.179,0,0,0-1.961,2.715,54.38,54.38,0,0,0-2.376,4.9L410.1,126a51.324,51.324,0,0,0-2.2,5.8,9.324,9.324,0,0,0-.435,3.261,4.457,4.457,0,0,0,.491,1.473q.414.813.233.987l-.064.061a.236.236,0,0,1-.081.044l-.989.357a.725.725,0,0,1-.4-.017.88.88,0,0,1-.4-.231c-.035-.036-.144-.175-.331-.416a57.557,57.557,0,0,0-4.285-4.954q-1.052-1.089-2.678-2.486t-2.064-1.85a.764.764,0,0,1-.244-.4.366.366,0,0,1,.131-.3,1.39,1.39,0,0,1,.172-.149.434.434,0,0,1,.117-.06l.88-.252a1.562,1.562,0,0,1,.765.21,2.8,2.8,0,0,0,3.275-.387,6.637,6.637,0,0,0,.959-1.242,15.6,15.6,0,0,0,1.027-1.972l2.47-5.188-3.768-3.907-3.908-4.054Zm18.866-8.157q-2.487,1.134-5.231,2.289t-5.767,2.351l2.263,2.345,3.591,3.726Z" fill="#0e1319"/>
      <path id="Trazado_67" data-name="Trazado 67" d="M436.368,125.079l1.016-.078a.784.784,0,0,1,.4.133.859.859,0,0,1,.3.327c.031.059.11.246.237.559a45.654,45.654,0,0,0,2.313,5.147q.635,1.207,1.762,2.91t1.444,2.308a.767.767,0,0,1,.117.438.354.354,0,0,1-.2.265.549.549,0,0,1-.163.041.732.732,0,0,1-.209.011l-.857.053q-.282,0-.969-.645a2.324,2.324,0,0,0-1.32-.718,6.029,6.029,0,0,0-2.37.621q-1.68.683-4.986,2.426L419.7,145.823q-2.814,1.483-3.047,2.991t1.544,4.88a14.842,14.842,0,0,0,2.872,4.1,5.663,5.663,0,0,0,3.22,1.4,6.53,6.53,0,0,0,1.979-.172,1.9,1.9,0,0,1,1.727.217l.634.607.157.133a.307.307,0,0,1,.074.088.3.3,0,0,1,0,.3.852.852,0,0,1-.35.284q-.068.034-.56.182a54.5,54.5,0,0,0-7.833,2.956l-.811-.4a1.01,1.01,0,0,1-.2-.153.892.892,0,0,1-.174-.223c-.016-.029-.055-.142-.121-.336a72.263,72.263,0,0,0-4.455-9.81l-3.379-6.413q-1.285-2.435-2.8-4.83c-.179-.306-.293-.5-.34-.592a.756.756,0,0,1-.121-.421.355.355,0,0,1,.219-.258.772.772,0,0,1,.168-.061.587.587,0,0,1,.193-.015l.856-.052c.188,0,.512.211.969.645a2.339,2.339,0,0,0,1.32.718,5.324,5.324,0,0,0,2.235-.578q1.567-.656,5.1-2.515l12.889-6.793a22.492,22.492,0,0,0,3.892-2.364,2.363,2.363,0,0,0,.849-1.532,4.747,4.747,0,0,0-.233-1.633q-.274-.9.028-1.085A.322.322,0,0,1,436.368,125.079Z" fill="#0e1319"/>
      <path id="Trazado_68" data-name="Trazado 68" d="M459.8,181.878l.352.826.024.1a.367.367,0,0,1-.071.354.9.9,0,0,1-.443.21,2.155,2.155,0,0,0-.382.039,33.585,33.585,0,0,0-3.43.634,40.243,40.243,0,0,0-4.708,1.38c-.126.048-.2.073-.214.077a2.113,2.113,0,0,1-.286,0,.486.486,0,0,1-.222-.062l-.973-.6a.6.6,0,0,1-.166-.155.476.476,0,0,1-.093-.172q-.04-.277.8-.659.609-.274,1-.5a7.34,7.34,0,0,0,3.319-3.555,8.093,8.093,0,0,0,.214-5.047,6.805,6.805,0,0,0-4.5-5.276q-3.537-1.221-9.971.31-6.168,1.467-9.1,4.683a7.749,7.749,0,0,0-1.934,7.416,9.99,9.99,0,0,0,1.559,3.445,11.724,11.724,0,0,0,2.841,2.828q.6.429,1.569,1.029,1.213.748,1.291,1.068a.431.431,0,0,1-.077.329.46.46,0,0,1-.284.224l-.295.07-1.888.138q-.822.039-2.7-1.617l-.031-.019a37.053,37.053,0,0,1-5.263-5.211,11.426,11.426,0,0,1,.061-14.419q3.541-4.582,10.421-6.218a20.067,20.067,0,0,1,14.137,1.437q6.45,3.269,7.923,9.458a18.775,18.775,0,0,1,.335,2.062q.153,1.3.412,4.458Z" fill="#0e1319"/>
      <path id="Trazado_69" data-name="Trazado 69" d="M436.226,201.556c-.052-.02-.135-.055-.251-.109a12.482,12.482,0,0,0-3.711-.939,2.37,2.37,0,0,0-2.6,1.605,5.469,5.469,0,0,1-.7,1.659.38.38,0,0,1-.1-.015.537.537,0,0,1-.1-.04l-.9-.431a.71.71,0,0,1-.307-.324.892.892,0,0,1-.1-.42,3.53,3.53,0,0,1,.062-.4,30.613,30.613,0,0,0,.364-3.931q.047-1.59-.053-3.462t-.089-2.175a.78.78,0,0,1,.113-.439.361.361,0,0,1,.307-.131.755.755,0,0,1,.151.031.9.9,0,0,1,.2.081l.8.4c.164.09.317.38.454.872a2.508,2.508,0,0,0,.451,1,11.346,11.346,0,0,0,2.541,1.728q1.9,1.051,4.748,2.271l17.421,7.369a16.469,16.469,0,0,0,1.949.725,5.514,5.514,0,0,0,1.283.2,2.239,2.239,0,0,0,.621-.084c.229-.061.353-.091.369-.091l.278.008.1,0,.6.321c.181.106.3.535.354,1.286a8.6,8.6,0,0,0,.479,2.249,9.548,9.548,0,0,0,1.491,2.619,1.4,1.4,0,0,1,.291.438.829.829,0,0,1-.058.264.571.571,0,0,1-.106.186l-.367.394a.286.286,0,0,1-.2.1,5.915,5.915,0,0,1-.707.005,12.144,12.144,0,0,0-3.311.5,53.88,53.88,0,0,0-5.166,1.734L437.8,222.391a51.96,51.96,0,0,0-5.679,2.489,9.328,9.328,0,0,0-2.633,1.972,4.421,4.421,0,0,0-.709,1.381c-.193.576-.375.86-.542.856l-.089,0a.2.2,0,0,1-.087-.028l-.948-.456a.718.718,0,0,1-.268-.3.856.856,0,0,1-.114-.445c0-.05.023-.227.065-.529a57.291,57.291,0,0,0,.54-6.527q.045-1.513-.1-3.653t-.122-2.77a.747.747,0,0,1,.113-.451.364.364,0,0,1,.308-.118,1.627,1.627,0,0,1,.225.019.425.425,0,0,1,.125.042l.8.452a1.554,1.554,0,0,1,.384.693,2.8,2.8,0,0,0,2.568,2.069,6.708,6.708,0,0,0,1.56-.183,16.293,16.293,0,0,0,2.128-.645l5.434-1.866.155-5.428.161-5.628Zm19.026,7.769q-2.549-.982-5.294-2.135t-5.715-2.475l-.092,3.256L444,213.146Z" fill="#0e1319"/>
    </g>
    <g id="Grupo_12" data-name="Grupo 12">
      <g id="Grupo_7" data-name="Grupo 7">
        <path id="Trazado_70" data-name="Trazado 70" d="M162.239,246.309H158.3a.222.222,0,0,1-.251-.251v-7.2a.222.222,0,0,1,.251-.252h1.018a.222.222,0,0,1,.252.252v5.987c0,.087.048.131.144.131h2.526q.24,0,.24.264v.814C162.479,246.225,162.4,246.309,162.239,246.309Z" fill="#0e1319"/>
      </g>
      <g id="Grupo_8" data-name="Grupo 8">
        <path id="Trazado_71" data-name="Trazado 71" d="M165.125,246.309h-1.15c-.143,0-.191-.084-.143-.251l1.892-7.2a.342.342,0,0,1,.359-.252h1.593a.322.322,0,0,1,.359.252l1.892,7.2c.048.167,0,.251-.144.251h-1.15a.231.231,0,0,1-.179-.054.405.405,0,0,1-.072-.2l-.335-1.317h-2.335l-.336,1.317a.366.366,0,0,1-.077.2A.234.234,0,0,1,165.125,246.309Zm1.737-6.25L166,243.52h1.772l-.862-3.461Z" fill="#0e1319"/>
      </g>
      <g id="Grupo_9" data-name="Grupo 9">
        <path id="Trazado_72" data-name="Trazado 72" d="M176.692,246.309h-1.018a.222.222,0,0,1-.251-.251v-7.2a.222.222,0,0,1,.251-.252H178.6a1.973,1.973,0,0,1,1.449.509,1.935,1.935,0,0,1,.515,1.443v1.149a1.935,1.935,0,0,1-.515,1.443,1.973,1.973,0,0,1-1.449.509h-1.508q-.144,0-.144.132v2.263A.222.222,0,0,1,176.692,246.309Zm.383-3.975h1.27a.727.727,0,0,0,.538-.162.745.745,0,0,0,.156-.533v-1.006a.764.764,0,0,0-.156-.544.727.727,0,0,0-.538-.162h-1.27a.116.116,0,0,0-.131.132V242.2A.116.116,0,0,0,177.075,242.334Z" fill="#0e1319"/>
      </g>
      <g id="Grupo_10" data-name="Grupo 10">
        <path id="Trazado_73" data-name="Trazado 73" d="M183.47,246.309h-1.15c-.144,0-.192-.084-.144-.251l1.892-7.2a.343.343,0,0,1,.359-.252h1.593a.322.322,0,0,1,.359.252l1.892,7.2c.048.167,0,.251-.143.251h-1.15a.232.232,0,0,1-.18-.054.4.4,0,0,1-.071-.2l-.336-1.317h-2.335l-.335,1.317a.365.365,0,0,1-.078.2A.233.233,0,0,1,183.47,246.309Zm1.736-6.25-.863,3.461h1.773l-.862-3.461Z" fill="#0e1319"/>
      </g>
      <g id="Grupo_11" data-name="Grupo 11">
        <path id="Trazado_74" data-name="Trazado 74" d="M190.031,246.058v-.719a.921.921,0,0,1,.156-.587l3.173-4.682v-.047H190.5a.223.223,0,0,1-.252-.252v-.909a.222.222,0,0,1,.252-.252h4.251c.159,0,.239.083.239.252v1.029a1.078,1.078,0,0,1-.18.623l-2.981,4.335v.048h3.041c.16,0,.24.075.24.227v.91c0,.183-.08.275-.24.275h-4.586A.223.223,0,0,1,190.031,246.058Z" fill="#0e1319"/>
      </g>
    </g>
    <g id="Grupo_20" data-name="Grupo 20">
      <g id="Grupo_13" data-name="Grupo 13">
        <path id="Trazado_75" data-name="Trazado 75" d="M212.082,246.058v-7.2a.222.222,0,0,1,.251-.252h2.874a2,2,0,0,1,1.461.5,1.918,1.918,0,0,1,.515,1.437v.49a1.257,1.257,0,0,1-.946,1.318,1.247,1.247,0,0,1,.766.389,1.3,1.3,0,0,1,.288.9v.718a1.922,1.922,0,0,1-.515,1.438,1.987,1.987,0,0,1-1.449.5h-2.994A.222.222,0,0,1,212.082,246.058Zm1.652-4.323h1.222a.822.822,0,0,0,.562-.162.684.684,0,0,0,.18-.533v-.466a.7.7,0,0,0-.174-.533.8.8,0,0,0-.557-.162h-1.233a.116.116,0,0,0-.131.132V241.6A.116.116,0,0,0,213.734,241.735Zm0,3.3h1.341a.82.82,0,0,0,.569-.162.7.7,0,0,0,.174-.533v-.694a.667.667,0,0,0-.18-.527.894.894,0,0,0-.586-.156h-1.318a.116.116,0,0,0-.131.132v1.808A.116.116,0,0,0,213.734,245.04Z" fill="#0e1319"/>
      </g>
      <g id="Grupo_14" data-name="Grupo 14">
        <path id="Trazado_76" data-name="Trazado 76" d="M220.428,246.309h-1.15c-.144,0-.192-.084-.144-.251l1.893-7.2a.342.342,0,0,1,.359-.252h1.592a.321.321,0,0,1,.359.252l1.893,7.2c.047.167,0,.251-.144.251h-1.15a.228.228,0,0,1-.179-.054.386.386,0,0,1-.072-.2l-.335-1.317h-2.336l-.335,1.317a.365.365,0,0,1-.078.2A.232.232,0,0,1,220.428,246.309Zm1.736-6.25-.862,3.461h1.772l-.862-3.461Z" fill="#0e1319"/>
      </g>
      <g id="Grupo_15" data-name="Grupo 15">
        <path id="Trazado_77" data-name="Trazado 77" d="M230.678,238.61h1.006c.168,0,.251.079.251.239v5.509a1.937,1.937,0,0,1-.514,1.442,1.972,1.972,0,0,1-1.449.509h-1.2a2.006,2.006,0,0,1-1.461-.5,1.936,1.936,0,0,1-.515-1.449v-1.126a.222.222,0,0,1,.252-.251h1.018a.222.222,0,0,1,.251.251v1.054a.754.754,0,0,0,.161.544.736.736,0,0,0,.533.162h.707a.73.73,0,0,0,.539-.162.769.769,0,0,0,.155-.544v-5.424C230.414,238.693,230.5,238.61,230.678,238.61Z" fill="#0e1319"/>
      </g>
      <g id="Grupo_16" data-name="Grupo 16">
        <path id="Trazado_78" data-name="Trazado 78" d="M235.133,246.309h-1.15c-.144,0-.192-.084-.144-.251l1.892-7.2a.343.343,0,0,1,.359-.252h1.593a.322.322,0,0,1,.359.252l1.892,7.2c.048.167,0,.251-.143.251h-1.15a.232.232,0,0,1-.18-.054.4.4,0,0,1-.071-.2l-.336-1.317h-2.335l-.335,1.317a.365.365,0,0,1-.078.2A.233.233,0,0,1,235.133,246.309Zm1.736-6.25-.863,3.461h1.773l-.862-3.461Z" fill="#0e1319"/>
      </g>
      <g id="Grupo_17" data-name="Grupo 17">
        <path id="Trazado_79" data-name="Trazado 79" d="M245.239,244.345v-.239a.221.221,0,0,1,.251-.251h1.018a.222.222,0,0,1,.252.251v.1a.841.841,0,0,0,.179.623.981.981,0,0,0,.659.167h.563a.7.7,0,0,0,.838-.85V244a.6.6,0,0,0-.282-.532,1.478,1.478,0,0,0-.7-.222,7.529,7.529,0,0,1-.9-.138,5.914,5.914,0,0,1-.9-.263,1.418,1.418,0,0,1-.7-.635,2.355,2.355,0,0,1-.281-1.215v-.419a1.933,1.933,0,0,1,.526-1.449,2,2,0,0,1,1.462-.515h1.2a2.016,2.016,0,0,1,1.473.515,1.933,1.933,0,0,1,.526,1.449v.227a.222.222,0,0,1-.251.252h-1.018a.222.222,0,0,1-.251-.252v-.072a.862.862,0,0,0-.18-.635.978.978,0,0,0-.658-.167h-.468a.9.9,0,0,0-.664.186,1.089,1.089,0,0,0-.174.724v.227q0,.564.983.647a6.079,6.079,0,0,1,1.808.408,1.528,1.528,0,0,1,.7.64,2.237,2.237,0,0,1,.281,1.179v.407a1.937,1.937,0,0,1-.526,1.449,2,2,0,0,1-1.462.515h-1.305a2,2,0,0,1-1.46-.515A1.93,1.93,0,0,1,245.239,244.345Z" fill="#0e1319"/>
      </g>
      <g id="Grupo_18" data-name="Grupo 18">
        <path id="Trazado_80" data-name="Trazado 80" d="M256.722,238.61h1.006c.175,0,.263.079.263.239v5.509a1.928,1.928,0,0,1-.52,1.442,1.993,1.993,0,0,1-1.455.509H254.7a2.006,2.006,0,0,1-1.461-.5,1.936,1.936,0,0,1-.515-1.449v-5.5a.222.222,0,0,1,.252-.252h1.018a.222.222,0,0,1,.251.252v5.424a.749.749,0,0,0,.162.544.731.731,0,0,0,.532.162h.827a.6.6,0,0,0,.706-.706v-5.424A.223.223,0,0,1,256.722,238.61Z" fill="#0e1319"/>
      </g>
      <g id="Grupo_19" data-name="Grupo 19">
        <path id="Trazado_81" data-name="Trazado 81" d="M261.655,246.309h-1.018a.222.222,0,0,1-.251-.251v-7.2a.222.222,0,0,1,.251-.252h2.85a2,2,0,0,1,1.461.515,1.934,1.934,0,0,1,.527,1.449v.934a1.746,1.746,0,0,1-1.066,1.795v.049l1.282,2.67c.072.192,0,.287-.2.287h-.97a.741.741,0,0,1-.311-.048.351.351,0,0,1-.156-.2l-1.2-2.586h-.8c-.1,0-.144.044-.144.131v2.455A.222.222,0,0,1,261.655,246.309Zm.383-4.059h1.174a.825.825,0,0,0,.563-.162.672.672,0,0,0,.18-.521v-.934a.712.712,0,0,0-.18-.539.809.809,0,0,0-.563-.167h-1.174a.116.116,0,0,0-.131.132v2.06A.115.115,0,0,0,262.038,242.25Z" fill="#0e1319"/>
      </g>
    </g>
    <g id="Grupo_27" data-name="Grupo 27">
      <g id="Grupo_21" data-name="Grupo 21">
        <path id="Trazado_82" data-name="Trazado 82" d="M286.99,238.61h1.772a.222.222,0,0,1,.252.252v7.2a.222.222,0,0,1-.252.251h-.982a.222.222,0,0,1-.251-.251v-5.676h-.048l-1.222,4.011a.293.293,0,0,1-.3.24h-1.006a.294.294,0,0,1-.3-.24l-1.246-4.023h-.047v5.688a.307.307,0,0,1-.048.2.272.272,0,0,1-.2.054h-.982a.222.222,0,0,1-.251-.251v-7.2a.222.222,0,0,1,.251-.252h1.784a.226.226,0,0,1,.228.167L285.409,243h.072l1.281-4.227A.2.2,0,0,1,286.99,238.61Z" fill="#0e1319"/>
      </g>
      <g id="Grupo_22" data-name="Grupo 22">
        <path id="Trazado_83" data-name="Trazado 83" d="M295.636,246.309H291.72a.222.222,0,0,1-.251-.251v-7.2a.222.222,0,0,1,.251-.252h3.916c.159,0,.239.083.239.252v.814c0,.167-.08.251-.239.251h-2.5q-.144,0-.144.132v1.556q0,.132.144.132h2.048a.222.222,0,0,1,.251.252v.814a.222.222,0,0,1-.251.251h-2.048q-.144,0-.144.132v1.664q0,.132.144.132h2.5c.159,0,.239.084.239.252v.814C295.875,246.225,295.8,246.309,295.636,246.309ZM293.9,236.3h1.186c.088,0,.144.024.167.072s.008.1-.047.167l-.97,1.15a.408.408,0,0,1-.323.156h-.779q-.24,0-.12-.252l.527-1.066A.4.4,0,0,1,293.9,236.3Z" fill="#0e1319"/>
      </g>
      <g id="Grupo_23" data-name="Grupo 23">
        <path id="Trazado_84" data-name="Trazado 84" d="M298.977,246.309h-1.186a.176.176,0,0,1-.167-.078.184.184,0,0,1,0-.185l1.855-3.676-1.8-3.5a.181.181,0,0,1,0-.18.178.178,0,0,1,.168-.083H299a.379.379,0,0,1,.394.252l1.138,2.574h.048l1.125-2.574a.4.4,0,0,1,.384-.252h1.173a.189.189,0,0,1,.174.089.182.182,0,0,1,.006.186l-1.82,3.485,1.856,3.664a.2.2,0,0,1,.012.2.192.192,0,0,1-.18.078h-1.2a.347.347,0,0,1-.348-.239l-1.185-2.587h-.048l-1.2,2.587A.368.368,0,0,1,298.977,246.309Z" fill="#0e1319"/>
      </g>
      <g id="Grupo_24" data-name="Grupo 24">
        <path id="Trazado_85" data-name="Trazado 85" d="M307.046,238.862v7.2a.222.222,0,0,1-.251.251h-1.018a.222.222,0,0,1-.251-.251v-7.2a.222.222,0,0,1,.251-.252H306.8A.222.222,0,0,1,307.046,238.862Z" fill="#0e1319"/>
      </g>
      <g id="Grupo_25" data-name="Grupo 25">
        <path id="Trazado_86" data-name="Trazado 86" d="M312.723,246.309h-1.3a2,2,0,0,1-1.461-.5,1.936,1.936,0,0,1-.515-1.449v-3.8a1.935,1.935,0,0,1,.515-1.449,2,2,0,0,1,1.461-.5h1.3a1.994,1.994,0,0,1,1.455.509,1.926,1.926,0,0,1,.521,1.443v.563a.233.233,0,0,1-.264.263H313.43c-.169,0-.252-.088-.252-.263v-.492a.6.6,0,0,0-.707-.706h-.814a.732.732,0,0,0-.533.162.75.75,0,0,0-.161.544v3.653a.75.75,0,0,0,.161.544.732.732,0,0,0,.533.162h.814a.6.6,0,0,0,.707-.706v-.491c0-.176.083-.264.252-.264h1.005a.233.233,0,0,1,.264.264v.563a1.925,1.925,0,0,1-.521,1.442A1.99,1.99,0,0,1,312.723,246.309Z" fill="#0e1319"/>
      </g>
      <g id="Grupo_26" data-name="Grupo 26">
        <path id="Trazado_87" data-name="Trazado 87" d="M320.1,246.309h-1.341a2.006,2.006,0,0,1-1.461-.5,1.936,1.936,0,0,1-.515-1.449v-3.8a1.935,1.935,0,0,1,.515-1.449,2,2,0,0,1,1.461-.5H320.1a2,2,0,0,1,1.461.5,1.935,1.935,0,0,1,.515,1.449v3.8a1.936,1.936,0,0,1-.515,1.449A2,2,0,0,1,320.1,246.309Zm-1.1-1.317h.85a.6.6,0,0,0,.706-.706v-3.653a.6.6,0,0,0-.706-.706H319a.728.728,0,0,0-.539.162.769.769,0,0,0-.156.544v3.653a.769.769,0,0,0,.156.544A.728.728,0,0,0,319,244.992Z" fill="#0e1319"/>
      </g>
    </g>
    <g id="Grupo_29" data-name="Grupo 29">
      <g id="Grupo_28" data-name="Grupo 28">
        <circle id="Elipse_1" data-name="Elipse 1" cx="1.048" cy="1.048" r="1.048" transform="translate(203.04 241.8)" fill="#0e1319"/>
      </g>
    </g>
    <g id="Grupo_31" data-name="Grupo 31">
      <g id="Grupo_30" data-name="Grupo 30">
        <circle id="Elipse_2" data-name="Elipse 2" cx="1.048" cy="1.048" r="1.048" transform="translate(272.077 241.8)" fill="#0e1319"/>
      </g>
    </g>
    <g id="Grupo_50" data-name="Grupo 50">
      <g id="Grupo_32" data-name="Grupo 32">
        <path id="Trazado_88" data-name="Trazado 88" d="M344.793,246.306h-3.935a.222.222,0,0,1-.252-.251v-7.19a.222.222,0,0,1,.252-.251h1.017a.221.221,0,0,1,.25.251v5.981q0,.132.144.132h2.524c.16,0,.24.088.24.263v.814C345.033,246.222,344.953,246.306,344.793,246.306Z" fill="#0e1319"/>
      </g>
      <g id="Grupo_33" data-name="Grupo 33">
        <path id="Trazado_89" data-name="Trazado 89" d="M350.281,246.306h-1.34a2,2,0,0,1-1.46-.5,1.931,1.931,0,0,1-.514-1.447v-3.792a1.933,1.933,0,0,1,.514-1.448,2,2,0,0,1,1.46-.5h1.34a2,2,0,0,1,1.459.5,1.934,1.934,0,0,1,.515,1.448v3.792a1.931,1.931,0,0,1-.515,1.447A2,2,0,0,1,350.281,246.306Zm-1.1-1.316h.85a.6.6,0,0,0,.706-.706v-3.649a.6.6,0,0,0-.706-.705h-.85a.729.729,0,0,0-.538.161.775.775,0,0,0-.155.544v3.649a.772.772,0,0,0,.155.544A.728.728,0,0,0,349.18,244.99Z" fill="#0e1319"/>
      </g>
      <g id="Grupo_34" data-name="Grupo 34">
        <path id="Trazado_90" data-name="Trazado 90" d="M357.185,246.306h-1c-.177,0-.264-.084-.264-.251v-5.994a.116.116,0,0,0-.131-.131h-1.364a.222.222,0,0,1-.251-.252v-.813a.221.221,0,0,1,.251-.251h4.522a.222.222,0,0,1,.251.251v.813a.222.222,0,0,1-.251.252H357.58c-.1,0-.143.043-.143.131v5.994A.222.222,0,0,1,357.185,246.306Z" fill="#0e1319"/>
      </g>
      <g id="Grupo_35" data-name="Grupo 35">
        <path id="Trazado_91" data-name="Trazado 91" d="M365.358,246.306h-3.911a.222.222,0,0,1-.252-.251v-7.19a.222.222,0,0,1,.252-.251h3.911c.16,0,.24.083.24.251v.813q0,.252-.24.252h-2.5c-.1,0-.144.043-.144.131v1.555q0,.132.144.132H364.9a.222.222,0,0,1,.252.251v.814a.222.222,0,0,1-.252.251h-2.045c-.1,0-.144.043-.144.131v1.663q0,.132.144.132h2.5c.16,0,.24.083.24.251v.814C365.6,246.222,365.518,246.306,365.358,246.306Z" fill="#0e1319"/>
      </g>
      <g id="Grupo_36" data-name="Grupo 36">
        <path id="Trazado_92" data-name="Trazado 92" d="M367.688,244.344v-.24a.222.222,0,0,1,.251-.251h1.017a.221.221,0,0,1,.25.251v.1a.84.84,0,0,0,.181.622.977.977,0,0,0,.657.167h.563a.695.695,0,0,0,.837-.849V244a.6.6,0,0,0-.281-.533,1.493,1.493,0,0,0-.7-.221,7.783,7.783,0,0,1-.9-.137,5.954,5.954,0,0,1-.9-.263,1.416,1.416,0,0,1-.7-.635,2.341,2.341,0,0,1-.281-1.214v-.419a1.931,1.931,0,0,1,.526-1.447,2,2,0,0,1,1.459-.514h1.2a2.016,2.016,0,0,1,1.472.514,1.932,1.932,0,0,1,.527,1.447v.227a.222.222,0,0,1-.251.252h-1.018a.222.222,0,0,1-.251-.252v-.071a.864.864,0,0,0-.179-.634.978.978,0,0,0-.658-.167h-.467a.9.9,0,0,0-.663.185,1.091,1.091,0,0,0-.174.724v.227q0,.563.98.646a6.065,6.065,0,0,1,1.807.407,1.533,1.533,0,0,1,.7.64,2.224,2.224,0,0,1,.281,1.178v.407a1.936,1.936,0,0,1-.526,1.448,2,2,0,0,1-1.459.514h-1.3a2,2,0,0,1-1.46-.514A1.932,1.932,0,0,1,367.688,244.344Z" fill="#0e1319"/>
      </g>
      <g id="Grupo_37" data-name="Grupo 37">
        <path id="Trazado_93" data-name="Trazado 93" d="M379.172,246.306h-1.016a.222.222,0,0,1-.252-.251v-7.19a.222.222,0,0,1,.252-.251H381a2,2,0,0,1,1.459.514,1.935,1.935,0,0,1,.526,1.447v.933a1.747,1.747,0,0,1-1.064,1.795v.048l1.28,2.668q.106.287-.2.287h-.969a.741.741,0,0,1-.311-.048.366.366,0,0,1-.156-.2l-1.2-2.585h-.8c-.1,0-.144.045-.144.132v2.453A.222.222,0,0,1,379.172,246.306Zm.383-4.056h1.172a.825.825,0,0,0,.563-.161.672.672,0,0,0,.179-.521v-.933a.709.709,0,0,0-.179-.538.809.809,0,0,0-.563-.167h-1.172a.116.116,0,0,0-.132.131v2.058A.116.116,0,0,0,379.555,242.25Z" fill="#0e1319"/>
      </g>
      <g id="Grupo_38" data-name="Grupo 38">
        <path id="Trazado_94" data-name="Trazado 94" d="M389.552,246.306H385.64a.222.222,0,0,1-.251-.251v-7.19a.222.222,0,0,1,.251-.251h3.912c.16,0,.239.083.239.251v.813c0,.168-.079.252-.239.252h-2.5c-.1,0-.144.043-.144.131v1.555q0,.132.144.132H389.1a.222.222,0,0,1,.252.251v.814a.222.222,0,0,1-.252.251h-2.045c-.1,0-.144.043-.144.131v1.663q0,.132.144.132h2.5c.16,0,.239.083.239.251v.814C389.791,246.222,389.712,246.306,389.552,246.306Z" fill="#0e1319"/>
      </g>
      <g id="Grupo_39" data-name="Grupo 39">
        <path id="Trazado_95" data-name="Trazado 95" d="M391.882,244.344v-.24a.221.221,0,0,1,.25-.251h1.017a.222.222,0,0,1,.251.251v.1a.84.84,0,0,0,.18.622.977.977,0,0,0,.657.167h.563a.7.7,0,0,0,.838-.849V244a.6.6,0,0,0-.282-.533,1.485,1.485,0,0,0-.7-.221,7.737,7.737,0,0,1-.9-.137,5.921,5.921,0,0,1-.9-.263,1.412,1.412,0,0,1-.7-.635,2.341,2.341,0,0,1-.282-1.214v-.419a1.928,1.928,0,0,1,.527-1.447,2,2,0,0,1,1.459-.514h1.2a2.019,2.019,0,0,1,1.472.514,1.931,1.931,0,0,1,.526,1.447v.227a.222.222,0,0,1-.251.252h-1.017a.222.222,0,0,1-.251-.252v-.071a.859.859,0,0,0-.18-.634.976.976,0,0,0-.658-.167h-.466a.9.9,0,0,0-.664.185,1.092,1.092,0,0,0-.173.724v.227q0,.563.98.646a6.065,6.065,0,0,1,1.807.407,1.538,1.538,0,0,1,.7.64,2.233,2.233,0,0,1,.281,1.178v.407a1.933,1.933,0,0,1-.527,1.448,2,2,0,0,1-1.459.514h-1.3a2,2,0,0,1-1.46-.514A1.936,1.936,0,0,1,391.882,244.344Z" fill="#0e1319"/>
      </g>
      <g id="Grupo_40" data-name="Grupo 40">
        <path id="Trazado_96" data-name="Trazado 96" d="M400.933,238.865v7.19a.222.222,0,0,1-.252.251h-1.017a.222.222,0,0,1-.251-.251v-7.19a.222.222,0,0,1,.251-.251h1.017A.222.222,0,0,1,400.933,238.865Z" fill="#0e1319"/>
      </g>
      <g id="Grupo_41" data-name="Grupo 41">
        <path id="Trazado_97" data-name="Trazado 97" d="M403.339,246.055v-7.19a.222.222,0,0,1,.251-.251h2.955a1.993,1.993,0,0,1,1.454.508,1.927,1.927,0,0,1,.52,1.442v3.792A1.926,1.926,0,0,1,408,245.8a1.993,1.993,0,0,1-1.454.509H403.59A.222.222,0,0,1,403.339,246.055Zm1.651-1.065h1.3a.6.6,0,0,0,.7-.706v-3.649a.594.594,0,0,0-.7-.705h-1.3a.116.116,0,0,0-.132.131v4.8A.117.117,0,0,0,404.99,244.99Z" fill="#0e1319"/>
      </g>
      <g id="Grupo_42" data-name="Grupo 42">
        <path id="Trazado_98" data-name="Trazado 98" d="M414.97,246.306h-3.912a.222.222,0,0,1-.252-.251v-7.19a.222.222,0,0,1,.252-.251h3.912c.159,0,.239.083.239.251v.813c0,.168-.08.252-.239.252h-2.5c-.1,0-.144.043-.144.131v1.555c0,.088.047.132.144.132h2.045a.222.222,0,0,1,.251.251v.814a.222.222,0,0,1-.251.251H412.47c-.1,0-.144.043-.144.131v1.663c0,.088.047.132.144.132h2.5c.159,0,.239.083.239.251v.814C415.209,246.222,415.129,246.306,414.97,246.306Z" fill="#0e1319"/>
      </g>
      <g id="Grupo_43" data-name="Grupo 43">
        <path id="Trazado_99" data-name="Trazado 99" d="M418.668,246.306h-.993a.222.222,0,0,1-.252-.251v-7.19a.222.222,0,0,1,.252-.251h.9a.337.337,0,0,1,.335.167l2.416,4.534h.048v-4.45a.222.222,0,0,1,.252-.251h.993a.222.222,0,0,1,.251.251v7.19a.222.222,0,0,1-.251.251h-.874a.4.4,0,0,1-.382-.24l-2.393-4.45h-.048v4.439A.222.222,0,0,1,418.668,246.306Z" fill="#0e1319"/>
      </g>
      <g id="Grupo_44" data-name="Grupo 44">
        <path id="Trazado_100" data-name="Trazado 100" d="M428.441,246.306h-1.305a2,2,0,0,1-1.459-.5,1.931,1.931,0,0,1-.515-1.447v-3.792a1.934,1.934,0,0,1,.515-1.448,2,2,0,0,1,1.459-.5h1.305a1.988,1.988,0,0,1,1.452.508,1.923,1.923,0,0,1,.521,1.442v.562a.233.233,0,0,1-.263.263h-1.005c-.167,0-.251-.088-.251-.263v-.491a.6.6,0,0,0-.706-.705h-.814a.731.731,0,0,0-.532.161.751.751,0,0,0-.161.544v3.649a.748.748,0,0,0,.161.544.731.731,0,0,0,.532.162h.814a.6.6,0,0,0,.706-.706v-.491c0-.175.084-.263.251-.263h1.005a.233.233,0,0,1,.263.263v.563a1.923,1.923,0,0,1-.521,1.441A1.988,1.988,0,0,1,428.441,246.306Z" fill="#0e1319"/>
      </g>
      <g id="Grupo_45" data-name="Grupo 45">
        <path id="Trazado_101" data-name="Trazado 101" d="M434.166,238.865v7.19a.222.222,0,0,1-.252.251H432.9a.221.221,0,0,1-.25-.251v-7.19a.221.221,0,0,1,.25-.251h1.017A.222.222,0,0,1,434.166,238.865Z" fill="#0e1319"/>
      </g>
      <g id="Grupo_46" data-name="Grupo 46">
        <path id="Trazado_102" data-name="Trazado 102" d="M437.584,246.306h-1.149c-.144,0-.191-.084-.144-.251l1.891-7.19a.341.341,0,0,1,.358-.251h1.591a.321.321,0,0,1,.359.251l1.89,7.19c.048.167,0,.251-.143.251h-1.148a.236.236,0,0,1-.18-.054.42.42,0,0,1-.072-.2l-.335-1.316h-2.333l-.334,1.316a.377.377,0,0,1-.078.2A.237.237,0,0,1,437.584,246.306Zm1.734-6.245-.861,3.458h1.771l-.862-3.458Z" fill="#0e1319"/>
      </g>
      <g id="Grupo_47" data-name="Grupo 47">
        <path id="Trazado_103" data-name="Trazado 103" d="M448.657,246.306h-3.935a.222.222,0,0,1-.252-.251v-7.19a.222.222,0,0,1,.252-.251h1.016a.222.222,0,0,1,.251.251v5.981q0,.132.144.132h2.524c.159,0,.239.088.239.263v.814C448.9,246.222,448.816,246.306,448.657,246.306Z" fill="#0e1319"/>
      </g>
      <g id="Grupo_48" data-name="Grupo 48">
        <path id="Trazado_104" data-name="Trazado 104" d="M455.083,246.306h-3.911a.222.222,0,0,1-.252-.251v-7.19a.222.222,0,0,1,.252-.251h3.911c.16,0,.239.083.239.251v.813c0,.168-.079.252-.239.252h-2.5c-.1,0-.144.043-.144.131v1.555q0,.132.144.132h2.045a.222.222,0,0,1,.252.251v.814a.222.222,0,0,1-.252.251h-2.045c-.1,0-.144.043-.144.131v1.663q0,.132.144.132h2.5c.16,0,.239.083.239.251v.814C455.322,246.222,455.243,246.306,455.083,246.306Z" fill="#0e1319"/>
      </g>
      <g id="Grupo_49" data-name="Grupo 49">
        <path id="Trazado_105" data-name="Trazado 105" d="M457.413,244.344v-.24a.222.222,0,0,1,.251-.251h1.016a.222.222,0,0,1,.251.251v.1a.84.84,0,0,0,.18.622.98.98,0,0,0,.658.167h.562a.695.695,0,0,0,.838-.849V244a.6.6,0,0,0-.282-.533,1.485,1.485,0,0,0-.7-.221,7.736,7.736,0,0,1-.9-.137,5.956,5.956,0,0,1-.9-.263,1.412,1.412,0,0,1-.7-.635,2.34,2.34,0,0,1-.282-1.214v-.419a1.932,1.932,0,0,1,.527-1.447,2,2,0,0,1,1.459-.514h1.2a2.017,2.017,0,0,1,1.472.514,1.931,1.931,0,0,1,.526,1.447v.227a.222.222,0,0,1-.251.252h-1.017a.222.222,0,0,1-.251-.252v-.071a.863.863,0,0,0-.179-.634.98.98,0,0,0-.658-.167h-.467a.9.9,0,0,0-.664.185,1.092,1.092,0,0,0-.173.724v.227q0,.563.98.646a6.065,6.065,0,0,1,1.807.407,1.538,1.538,0,0,1,.7.64,2.233,2.233,0,0,1,.281,1.178v.407a1.936,1.936,0,0,1-.526,1.448,2,2,0,0,1-1.46.514h-1.3a2,2,0,0,1-1.46-.514A1.936,1.936,0,0,1,457.413,244.344Z" fill="#0e1319"/>
      </g>
    </g>
    <g id="Grupo_52" data-name="Grupo 52">
      <g id="Grupo_51" data-name="Grupo 51">
        <path id="Trazado_106" data-name="Trazado 106" d="M330.815,246.309h-.936q-.293,0-.2-.255.39-1,1.387-3.648t1.386-3.66a.352.352,0,0,1,.328-.255h.936c.195,0,.259.085.195.255l-2.773,7.308A.338.338,0,0,1,330.815,246.309Z" fill="#0e1319"/>
      </g>
    </g>
    <g id="Grupo_79" data-name="Grupo 79">
      <g id="Grupo_53" data-name="Grupo 53">
        <path id="Trazado_107" data-name="Trazado 107" d="M279.846,186.851c.372.449.752.891,1.148,1.319C280.6,187.742,280.219,187.3,279.846,186.851Z" fill="#0e1319"/>
      </g>
      <g id="Grupo_54" data-name="Grupo 54">
        <path id="Trazado_108" data-name="Trazado 108" d="M284.824,191.7c-.311-.243-.618-.494-.92-.746q-.513-.435-1.008-.888.5.453,1.008.888C284.206,191.205,284.513,191.456,284.824,191.7Z" fill="#0e1319"/>
      </g>
      <g id="Grupo_55" data-name="Grupo 55">
        <path id="Trazado_109" data-name="Trazado 109" d="M253.99,165.909h47.795c0-.123,0-.243,0-.364-.008-.551-.034-1.1-.074-1.639h34.516v-7.561c0-.206-.007-.41-.024-.611l0,0a7.514,7.514,0,0,0-1.7-4.2h0a7.544,7.544,0,0,0-5.834-2.751H325.55v3.259a3.343,3.343,0,0,1-3.339,3.337H295.493a22.585,22.585,0,0,1,2.279,6.819H252.858a22.513,22.513,0,0,1,4.588-10.375,22.967,22.967,0,0,1,7.8-6.325,22.852,22.852,0,0,1,17.457-1.121,22.275,22.275,0,0,1,2.929,1.242l2.94,1.789a22.952,22.952,0,0,1,3.815,3.45l.052.063.019.028.158.174.011.012.029.037.03.035c.169.2.334.4.492.6l.007.01.008.009q.512.646.97,1.327h28.051a1.112,1.112,0,0,0,1.112-1.11v-3.259H295.495c-.033-.041-.067-.082-.1-.121a.225.225,0,0,0-.024-.027c-.05-.056-.1-.11-.143-.167a26.657,26.657,0,0,0-4.612-4.16l-3.168-1.93a26.526,26.526,0,0,0-23.847-.208,26.494,26.494,0,0,0-14.748,23.4c0,.06,0,.119,0,.18v.162h5.14Z" fill="#0e1319"/>
      </g>
      <g id="Grupo_56" data-name="Grupo 56">
        <path id="Trazado_110" data-name="Trazado 110" d="M363.5,218.768h7.136l-32.983-20.091h-7.136Z" fill="#0e1319"/>
      </g>
      <g id="Grupo_57" data-name="Grupo 57">
        <path id="Trazado_111" data-name="Trazado 111" d="M372.675,218.768h7.142l-33.026-20.091h-7.142Z" fill="#0e1319"/>
      </g>
      <g id="Grupo_58" data-name="Grupo 58">
        <path id="Trazado_112" data-name="Trazado 112" d="M380.133,217.784V213.51l-15.109-9.25-8.13-4.978-.993-.6h-7.136Z" fill="#0e1319"/>
      </g>
      <g id="Grupo_59" data-name="Grupo 59">
        <path id="Trazado_113" data-name="Trazado 113" d="M354.423,218.768h7.135l-32.983-20.091H321.44Z" fill="#0e1319"/>
      </g>
      <g id="Grupo_60" data-name="Grupo 60">
        <path id="Trazado_114" data-name="Trazado 114" d="M345.109,218.768h7.136l-32.983-20.091h-7.135Z" fill="#0e1319"/>
      </g>
      <g id="Grupo_61" data-name="Grupo 61">
        <path id="Trazado_115" data-name="Trazado 115" d="M303.014,198.614l.1.063,23.262,14.116,9.846,5.975h6.9L310.14,198.677h-5.1Q304.019,198.677,303.014,198.614Z" fill="#0e1319"/>
      </g>
      <g id="Grupo_62" data-name="Grupo 62">
        <path id="Trazado_116" data-name="Trazado 116" d="M355.9,198.677h24.01l-27.635-16.826-15.156-9.228-.894-.545-10.134-6.169H272.273c0,.537.017,1.07.043,1.6.048,1,.136,1.983.271,2.955q.157,1.125.389,2.224a32.208,32.208,0,0,0,.89,3.333c.283.874.6,1.73.957,2.57a32.614,32.614,0,0,0,2.029,4.026c.036.061.07.124.107.184q.7,1.157,1.484,2.249c.326.452.67.89,1.018,1.325.127.159.255.318.385.474.373.449.752.891,1.148,1.319q.912.985,1.9,1.9.5.453,1.008.888c.3.252.609.5.92.746a32.827,32.827,0,0,0,4.02,2.7q1.056.6,2.161,1.126t2.251.967q1.146.442,2.333.8a33.141,33.141,0,0,0,7.425,1.32q1.006.064,2.027.063H355.9Zm-68.848-23.636-4.833-3h8.342Zm36.758-3-3.509,3-4.833-3Zm-8.186,5.353-3.509,3-4.833-3Zm-8.854-5.353-3.509,3-4.833-3Zm-10.863,8.352-4.834-3h8.343Zm8.549,5.91-4.834-3h8.343Zm8.605,5.909-4.834-3h8.343Zm7.6-5.909-4.833-3h8.342Zm12-8.909-3.509,3-4.834-3Zm-3.4,14.818-4.833-3h8.342ZM337.7,186.3l-4.834-3h8.343Zm8.605,5.909-4.834-3h8.342Z" fill="#0e1319"/>
      </g>
      <g id="Grupo_63" data-name="Grupo 63">
        <path id="Trazado_117" data-name="Trazado 117" d="M282.219,152.691l-3.908-3.909h-9.6v6.6h26.778a22.441,22.441,0,0,0-1.333-2.227H282.68Zm-7.8,1.443a1.942,1.942,0,1,1,1.942-1.942A1.942,1.942,0,0,1,274.419,154.134Z" fill="#0e1319"/>
      </g>
      <g id="Grupo_64" data-name="Grupo 64">
        <rect id="Rectángulo_12" data-name="Rectángulo 12" width="3.265" transform="translate(253.99 165.909)" fill="#0e1319"/>
      </g>
      <g id="Grupo_65" data-name="Grupo 65">
        <rect id="Rectángulo_13" data-name="Rectángulo 13" width="0.558" transform="translate(248.85 165.909)" fill="#0e1319"/>
      </g>
      <g id="Grupo_66" data-name="Grupo 66">
        <rect id="Rectángulo_14" data-name="Rectángulo 14" width="3.264" transform="translate(261.838 165.909)" fill="#0e1319"/>
      </g>
      <g id="Grupo_67" data-name="Grupo 67">
        <path id="Trazado_118" data-name="Trazado 118" d="M260.211,198.677a53.288,53.288,0,0,0,5.112,5.591l19.2,11.693a52.33,52.33,0,0,0,5.52,1.573c.809.183,1.627.344,2.451.49L259.772,198.1C259.919,198.29,260.061,198.487,260.211,198.677Z" fill="#0e1319"/>
      </g>
      <g id="Grupo_68" data-name="Grupo 68">
        <path id="Trazado_119" data-name="Trazado 119" d="M257.313,194.612l39.4,23.99q1.125.106,2.265.166h2.591L254.8,190.291Q255.954,192.516,257.313,194.612Z" fill="#0e1319"/>
      </g>
      <g id="Grupo_69" data-name="Grupo 69">
        <path id="Trazado_120" data-name="Trazado 120" d="M253.432,187.471l51.374,31.282q2.007-.114,3.972-.372L251.94,183.773Q252.617,185.657,253.432,187.471Z" fill="#0e1319"/>
      </g>
      <g id="Grupo_70" data-name="Grupo 70">
        <path id="Trazado_121" data-name="Trazado 121" d="M251.126,181.289l60.244,36.682q1.71-.312,3.381-.732l-64.516-39.283Q250.628,179.643,251.126,181.289Z" fill="#0e1319"/>
      </g>
      <g id="Grupo_71" data-name="Grupo 71">
        <path id="Trazado_122" data-name="Trazado 122" d="M249.756,175.677,317,216.619q1.5-.45,2.969-.983L249.276,172.6Q249.472,174.151,249.756,175.677Z" fill="#0e1319"/>
      </g>
      <g id="Grupo_72" data-name="Grupo 72">
        <path id="Trazado_123" data-name="Trazado 123" d="M293.256,196.494q-1.148-.442-2.251-.967t-2.161-1.126a32.827,32.827,0,0,1-4.02-2.7c-.311-.243-.618-.494-.92-.746q-.513-.435-1.008-.888-.988-.909-1.9-1.9c-.4-.428-.776-.87-1.148-1.319-.13-.156-.258-.315-.385-.474-.1-.121-.2-.237-.291-.359L248.889,167.58c.03.97.08,1.934.162,2.89l72.9,44.389q1.342-.553,2.648-1.178L299.06,198.129a32.5,32.5,0,0,1-3.471-.835Q294.4,196.937,293.256,196.494Z" fill="#0e1319"/>
      </g>
      <g id="Grupo_73" data-name="Grupo 73">
        <path id="Trazado_124" data-name="Trazado 124" d="M253.991,165.909h-4.583l27.444,16.71a32.614,32.614,0,0,1-2.029-4.026Z" fill="#0e1319"/>
      </g>
      <g id="Grupo_74" data-name="Grupo 74">
        <rect id="Rectángulo_15" data-name="Rectángulo 15" width="4.583" transform="translate(249.408 165.909)" fill="#0e1319"/>
      </g>
      <g id="Grupo_75" data-name="Grupo 75">
        <path id="Trazado_125" data-name="Trazado 125" d="M257.255,165.909l16.611,10.114a32.208,32.208,0,0,1-.89-3.333l-11.138-6.781Z" fill="#0e1319"/>
      </g>
      <g id="Grupo_76" data-name="Grupo 76">
        <rect id="Rectángulo_16" data-name="Rectángulo 16" width="4.583" transform="translate(258.991 168.132) rotate(-75.964)" fill="#0e1319"/>
      </g>
      <g id="Grupo_77" data-name="Grupo 77">
        <path id="Trazado_126" data-name="Trazado 126" d="M265.1,165.909l7.485,4.557c-.135-.972-.223-1.958-.271-2.955l-2.631-1.6Z" fill="#0e1319"/>
      </g>
      <g id="Grupo_78" data-name="Grupo 78">
        <rect id="Rectángulo_17" data-name="Rectángulo 17" width="4.583" transform="translate(265.102 165.909)" fill="#0e1319"/>
      </g>
    </g>
  </g>
</svg>
