<svg xmlns="http://www.w3.org/2000/svg" viewBox="0 0 1080 690.88"><defs><style>.cls-1{fill:#101820;}</style></defs><g id="Capa_2" data-name="Capa 2"><g id="Capa_1-2" data-name="Capa 1"><path class="cls-1" d="M128.43,606.41l.67,4,.09,1.07a1.59,1.59,0,0,1-.28,1,2.48,2.48,0,0,1-1.32.33l-5.32.06q-5.13.06-10,.43A119.77,119.77,0,0,0,95,616c-1.41.35-2.23.53-2.47.55a6.18,6.18,0,0,1-1.84-.12,3.32,3.32,0,0,1-1.35-.61l-3.3-2.24a4.1,4.1,0,0,1-.76-1,2.55,2.55,0,0,1-.29-1c-.09-1.12,1.44-2,4.57-2.64A35,35,0,0,0,98,606.22a24.07,24.07,0,0,0,11.22-12.47q3.75-8.65,2.83-20.31-.89-11-6.55-17.15a16.53,16.53,0,0,0-14.12-5.46q-13.95,1.09-18.81,28-.94,5-1.45,7.72Q68,602.51,61.44,610t-18,8.41Q28,619.63,16.13,607.72T2.75,577.25c-.2-2.61-.27-6.09-.19-10.46s.28-10,.63-16.86l-2.11-3-1-3.77-.06-.7a1.64,1.64,0,0,1,.15-.91c.13-.25.28-.38.46-.4a12.37,12.37,0,0,1,1.26.08,107.51,107.51,0,0,0,17.26-.11,71.89,71.89,0,0,0,8.49-1.21c3-.59,4.64-.9,4.94-.92a5.44,5.44,0,0,1,1.29,0,1.76,1.76,0,0,1,.88.33l3.95,3.54a.44.44,0,0,1,.15.25,1.73,1.73,0,0,1,.08.44q.12,1.42-3.66,2.31a29.82,29.82,0,0,0-6.36,2.15,20.29,20.29,0,0,0-9.84,10.76q-2.88,7.15-2,18.63.72,9.06,5.14,14a12.85,12.85,0,0,0,11.18,4.44,13.37,13.37,0,0,0,10.5-5.84q3.65-5.29,6.41-21.35,4.2-23.68,10.81-31.86t19.49-9.18q17.69-1.41,30.94,12.22t15,35.41a110.33,110.33,0,0,1,.18,11.84q-.22,6.95-1,15.6Z"/><path class="cls-1" d="M131.37,463.13q-4.17,21.36-22.85,32.29T65.59,501.6a66.35,66.35,0,0,1-23.41-9.21A64.17,64.17,0,0,1,24.28,475a73.18,73.18,0,0,1-11.23-23.92,54.18,54.18,0,0,1-.87-23.89Q16.31,406.09,35.1,395T78,388.71a65.93,65.93,0,0,1,23.4,9.26,66.17,66.17,0,0,1,18.06,17.57,70.09,70.09,0,0,1,11.23,23.6A54.23,54.23,0,0,1,131.37,463.13ZM63.14,476.05q22.15,4.33,37.22-2.13t18-21.33q2.75-14-7.42-24.08T79.85,414.34q-21.52-4.21-36.45,2.18T25.63,437.44Q22.78,452,32.5,462T63.14,476.05Z"/><path class="cls-1" d="M41.92,343l-2.32-2.74a2.65,2.65,0,0,1-.44-1.42,3,3,0,0,1,.31-1.53c.1-.22.47-.83,1.11-1.84a160.84,160.84,0,0,0,10-17.27q2.14-4.31,4.7-11.06t3.62-8.9a2.64,2.64,0,0,1,1-1.24A1.24,1.24,0,0,1,61,297a2.57,2.57,0,0,1,.46.38,2.84,2.84,0,0,1,.46.58l1.92,2.34c.4.54.45,1.9.15,4.11a8.22,8.22,0,0,0,.68,5.26q1.25,2.12,6.68,5.51t17.26,9.25l47.13,23.38q10.08,5,14.87,2.55t10.78-14.52q5.16-10.38,5.79-16.68A20,20,0,0,0,164.57,307a22.7,22.7,0,0,0-4.58-5.31c-2.18-2-3.16-3.77-3-5.4l.43-3.07c0-.32,0-.56.05-.71a1.37,1.37,0,0,1,.1-.41,1.07,1.07,0,0,1,.86-.62,3,3,0,0,1,1.54.42,19.66,19.66,0,0,1,1.67,1.23,192.07,192.07,0,0,0,24.66,16.31l.53,3.15a3.42,3.42,0,0,1,0,.88,3.51,3.51,0,0,1-.28,1c0,.1-.29.45-.71,1q-8.31,11.7-18.88,33L155.6,371.46q-4.32,8.71-8,18c-.5,1.14-.84,1.87-1,2.19a2.73,2.73,0,0,1-1,1.22,1.26,1.26,0,0,1-1.19-.09,2.22,2.22,0,0,1-.52-.36,1.77,1.77,0,0,1-.44-.52l-1.93-2.35c-.4-.53-.45-1.9-.15-4.1a8.27,8.27,0,0,0-.67-5.27c-.78-1.37-2.87-3.11-6.28-5.2s-9.33-5.22-17.74-9.4L70.6,342.74q-11.11-5.5-14.82-6.25a8.31,8.31,0,0,0-6.14.73,16.54,16.54,0,0,0-4.19,4c-1.34,1.76-2.39,2.48-3.17,2.16A1.15,1.15,0,0,1,41.92,343Z"/><path class="cls-1" d="M188.08,258.05c.09.16.23.45.42.86q4.31,8,7.73,11.1,5.25,4.83,10.64,1.73c3.6-2.06,5.5-3,5.72-2.8a2,2,0,0,1,.23.28,1.2,1.2,0,0,1,.17.34l1.4,3.22a2.57,2.57,0,0,1,.07,1.58,3.1,3.1,0,0,1-.7,1.35,13.67,13.67,0,0,1-1.09.93,109,109,0,0,0-10.08,9.64q-3.79,4.14-7.87,9.36t-4.8,6a2.71,2.71,0,0,1-1.32.91,1.29,1.29,0,0,1-1.12-.37,3.41,3.41,0,0,1-.33-.42,3.09,3.09,0,0,1-.34-.68l-1.2-2.92c-.23-.62,0-1.75.8-3.38a8.88,8.88,0,0,0,1.11-3.7q-.14-3.29-2.78-10.49t-7.41-17.05l-29.42-60a58.5,58.5,0,0,0-3.52-6.45,19.28,19.28,0,0,0-3-3.5,7.42,7.42,0,0,0-1.85-1.22c-.75-.37-1.14-.57-1.19-.61l-.72-.66-.26-.25-.85-2.24q-.36-1,2-4.25a29.61,29.61,0,0,0,3.93-7.1,34.06,34.06,0,0,0,2.09-10.45,4.39,4.39,0,0,1,.24-1.83,2.66,2.66,0,0,1,.76-.57,1.86,1.86,0,0,1,.72-.26l1.88-.2a1,1,0,0,1,.77.22,23.08,23.08,0,0,1,1.9,1.62,42.67,42.67,0,0,0,10,6.34,191.23,191.23,0,0,0,17.8,7.33l53.45,19.33a183.16,183.16,0,0,0,20.92,6.5,33,33,0,0,0,11.58.84,15.64,15.64,0,0,0,5.09-2c1.85-1.08,3-1.43,3.43-1l.23.21a.74.74,0,0,1,.17.28L275,207a2.57,2.57,0,0,1,0,1.42,3.12,3.12,0,0,1-.73,1.45c-.12.13-.59.55-1.4,1.26a202.71,202.71,0,0,0-16.55,16.16q-3.61,3.94-8.19,10t-6.09,7.68a2.71,2.71,0,0,1-1.35.94,1.28,1.28,0,0,1-1.08-.4,4.7,4.7,0,0,1-.56-.57,1.28,1.28,0,0,1-.24-.41l-1.08-3a5.52,5.52,0,0,1,.58-2.74q2.53-7.24-2.06-11.47a24,24,0,0,0-4.58-3.12,56.44,56.44,0,0,0-7.18-3.2l-18.81-7.6-13,14.12-13.46,14.64Zm-32.77-64.77q4.51,8.52,9.18,17.95T174,231.06l7.78-8.47,12.37-13.46Z"/><path class="cls-1" d="M324.45,174.45l.24,3.58a2.74,2.74,0,0,1-.52,1.49,3.86,3.86,0,0,1-1.25,1.31c-.26.15-.91.46-1.94.93a188.38,188.38,0,0,0-19.25,9.84c-2.25,1.33-5.24,3.35-8.94,6.08s-6.38,4.57-8,5.53a2.69,2.69,0,0,1-1.47.5,1.27,1.27,0,0,1-.95-.73,2.77,2.77,0,0,1-.24-.59,1.76,1.76,0,0,1-.08-.67l-.17-3.11c-.05-.66.63-1.82,2-3.47a8.19,8.19,0,0,0,2.24-4.73c.08-1.63-.63-4.09-2.15-7.37s-4.82-9.28-9.94-18l-26-44.38q-6.28-10.69-9-13.35a8.31,8.31,0,0,0-5.55-2.75,16.66,16.66,0,0,0-5.72,1.09c-2.08.74-3.36.76-3.83.07a1,1,0,0,1,0-.59l-.44-3.57a2.75,2.75,0,0,1,.4-1.43A3,3,0,0,1,225,99c.15-.09.69-.34,1.63-.75a199,199,0,0,0,20.32-10.48q6.69-3.93,16.65-10.91t13.74-9.2q12.62-7.4,23.59-5.78t16.85,11.62a26.42,26.42,0,0,1,2.56,21.72q-3.4,11.57-15.35,21.16Q318.36,111,335.3,123l.89.62,13.88,9.75q5.39,3.87,9.17,4.69a9.43,9.43,0,0,0,7-1.07,14.92,14.92,0,0,0,4.58-4.7,16.33,16.33,0,0,1,2.88-3.71,1.19,1.19,0,0,1,.85-.14.82.82,0,0,1,.61.32,4.08,4.08,0,0,1,.3.6,2.27,2.27,0,0,1,.08.41l.84,4.06c.34,1.18-.09,2.91-1.29,5.21-.78,1.49-1.39,2.74-1.83,3.76-.3.66-.73,1.63-1.28,2.92q-4.86,11.13-8.39,13.2a15.43,15.43,0,0,1-12.09,1.51q-6.63-1.69-16.64-9.06L315.13,136.9q-10.75-7.76-16.25-8.93a15.08,15.08,0,0,0-11,2.08,21.88,21.88,0,0,0-2.29,1.66,20.77,20.77,0,0,1-1.9,1.42l15.53,26.46q6,10.23,8.89,13a8.71,8.71,0,0,0,6,2.83,17.1,17.1,0,0,0,6.21-1.31q3.4-1.34,3.95-.41a2.07,2.07,0,0,1,.19.41A.64.64,0,0,1,324.45,174.45Zm-49.19-55.62c1.27,2.15,2.9,3.2,4.89,3.13s5.22-1.41,9.69-4q9.38-5.5,11.55-12.11t-2.6-14.75q-4.34-7.39-11.57-8.78T271.45,85.9c-1.28.75-2.77,1.74-4.47,2.94s-3.65,2.66-5.83,4.35q1.92,3.63,4.84,9.21t3.63,6.81Z"/><path class="cls-1" d="M432.33,9a1.6,1.6,0,0,1,.83-.71,4.18,4.18,0,0,1,1.39-.41c.53-.05,1.72-.08,3.58-.08a212.83,212.83,0,0,0,21.68-1q7.37-.72,18.9-2.77t15.8-2.46Q517-.66,531.14,13t16.8,40.23q2.76,27.87-12.79,47.65t-42.1,22.41a135.21,135.21,0,0,1-15,.5q-8.7-.12-11.19.13c-3.19.32-7.14,1-11.82,1.89s-7.8,1.49-9.34,1.64a2.74,2.74,0,0,1-1.54-.16,1.27,1.27,0,0,1-.55-1.06,2.41,2.41,0,0,1,0-.64,1.9,1.9,0,0,1,.2-.65l1-2.87c.24-.62,1.37-1.39,3.4-2.31a8.25,8.25,0,0,0,4.1-3.36c.76-1.45,1.13-4,1.13-7.6s-.49-10.45-1.49-20.51l-5-50.85q-1.11-11.17-2.46-15.26c-.89-2.72-2.17-4.59-3.83-5.63a16.43,16.43,0,0,0-6.12-1.68c-2.81-.34-4.26-.84-4.32-1.49a1.11,1.11,0,0,1,.14-.42c.1-.22.24-.52.45-.89Zm44.83,86.07q1.06,10.65,5.21,13.65t14.53,2q15.62-1.55,22-14.28t3.9-37.48q-2.49-25.12-11.58-35.38t-27.09-8.47a66.78,66.78,0,0,0-6.93,1.05q-3.39.69-6.86,1.75.23,6.88.79,14.39t1.45,16.4Z"/><path class="cls-1" d="M654.33,134.7a7.26,7.26,0,0,1-1.07.4,1.77,1.77,0,0,1-.83.08c-.11,0-.54-.16-1.28-.41Q637.4,130.06,614,125.9l-27.14-4.82q-9.57-1.71-19.54-2.66c-1.24-.16-2-.27-2.39-.34a2.71,2.71,0,0,1-1.44-.57,1.28,1.28,0,0,1-.24-1.18,2.33,2.33,0,0,1,.2-.6,1.88,1.88,0,0,1,.37-.56l1.71-2.51c.4-.53,1.7-1,3.9-1.3a8.27,8.27,0,0,0,4.86-2.12c1.11-1.13,2.19-3.62,3.24-7.49s2.39-10.41,4-19.66l9-50.67q2.16-12.1,1.82-15.84a8.32,8.32,0,0,0-2.44-5.64,16.69,16.69,0,0,0-5.06-2.89c-2.06-.79-3.05-1.6-3-2.43a1.15,1.15,0,0,1,.39-.66l2-2.82a2.16,2.16,0,0,1,1.25-.95,3.75,3.75,0,0,1,1.93-.12c.23,0,.92.2,2.09.47q10,2.6,20.4,4.44l48.74,8.66a35.7,35.7,0,0,0,6.13.68,12.19,12.19,0,0,0,3.91-.62l2.94-.2a2.35,2.35,0,0,0,.54,0,2.94,2.94,0,0,1,.54,0c1,.24,1.32,1.93,1,5.07-.19,1.78-.34,3.29-.44,4.54a130,130,0,0,0-.14,17.09,15.55,15.55,0,0,1,.09,2,3.59,3.59,0,0,1-.35,1,2.1,2.1,0,0,1-.49.69l-3.26,2.59a4.77,4.77,0,0,1-1,.55,1.22,1.22,0,0,1-.6.08q-1.41-.26-1.93-4.2a29.65,29.65,0,0,0-1.32-6.08,18.37,18.37,0,0,0-8.1-9.72q-5.78-3.43-22.9-6.47L618.37,18q-1.79,8-2.9,13.53t-1.62,8.32l-.43,2.46-.8,6.56q3.71,1,6.79,1.75t5.2,1.1q10.71,1.9,16.18,1.7A19,19,0,0,0,649.91,51l3.4-.31a3.44,3.44,0,0,1,.55,0,3.29,3.29,0,0,1,.54,0,1.14,1.14,0,0,1,.82.46,2.16,2.16,0,0,1,0,1.32c0,.12-.16.55-.41,1.29a133.76,133.76,0,0,0-3.4,14.52,53,53,0,0,0-.67,5.54c-.12,1.88-.2,2.91-.23,3.09a7.26,7.26,0,0,1-.79,2.17,6.9,6.9,0,0,1-1.26,1.72l-3,2.46a4.88,4.88,0,0,1-.68.24,1.54,1.54,0,0,1-.73,0c-1.06-.18-1.48-1.56-1.26-4.12a26.43,26.43,0,0,0,.17-4q-.37-5.51-4-8.1t-15.25-4.66c-1.11-.2-2.8-.45-5.07-.77s-5.09-.67-8.46-1.09L604,95.41q-2,11.15,1.73,14.94t19,6.5q11.5,2,17.74.89a20.52,20.52,0,0,0,11-5.93,26.09,26.09,0,0,0,3.75-5.81q2-3.87,4.38-4.25l2.92-.66a1.69,1.69,0,0,1,.38-.07,3.65,3.65,0,0,1,.71.08,1,1,0,0,1,.83.65,3,3,0,0,1,0,1.59c0,.18-.27.83-.71,2A178.15,178.15,0,0,0,657,133.55Z"/><path class="cls-1" d="M718,33.36,720.7,31a2.8,2.8,0,0,1,1.41-.49,3.13,3.13,0,0,1,1.54.27c.21.1.84.45,1.87,1.05a162.35,162.35,0,0,0,17.56,9.43c2.92,1.33,6.65,2.79,11.2,4.35s7.56,2.68,9,3.35a2.66,2.66,0,0,1,1.27,1,1.23,1.23,0,0,1,0,1.18,2.23,2.23,0,0,1-.36.47,3.34,3.34,0,0,1-.56.48l-2.29,2c-.52.42-1.89.51-4.1.28a8.25,8.25,0,0,0-5.24.83q-2.07,1.32-5.3,6.85T738,79.49l-21.93,47.83q-4.68,10.22-2.09,14.94t14.84,10.33q10.53,4.83,16.86,5.28a20,20,0,0,0,12-3,23,23,0,0,0,5.17-4.75c1.9-2.23,3.67-3.27,5.29-3.11l3.09.34.72,0a1.12,1.12,0,0,1,.4.09,1,1,0,0,1,.65.83,3,3,0,0,1-.37,1.55,19.56,19.56,0,0,1-1.18,1.72,191.81,191.81,0,0,0-15.55,25.15l-3.13.62a3.25,3.25,0,0,1-.88,0,3.36,3.36,0,0,1-1-.24c-.1,0-.46-.28-1.06-.69q-12-7.94-33.6-17.86L693,147.86q-8.84-4.05-18.25-7.49c-1.16-.46-1.9-.77-2.23-.92a2.79,2.79,0,0,1-1.24-.91,1.26,1.26,0,0,1,.05-1.2,2.41,2.41,0,0,1,.35-.53,1.79,1.79,0,0,1,.5-.46l2.28-2c.52-.42,1.89-.51,4.11-.28a8.26,8.26,0,0,0,5.24-.84c1.35-.81,3-3,5-6.43s4.93-9.48,8.84-18L719.12,62q5.16-11.26,5.8-15a8.35,8.35,0,0,0-.93-6.12,16.85,16.85,0,0,0-4.17-4.06q-2.7-1.94-2.25-3.1A1,1,0,0,1,718,33.36Z"/><path class="cls-1" d="M852.82,215.6a8.37,8.37,0,0,1-.91.33q-8.35,3.47-11.82,6.55-5.36,4.74-2.81,10.41t2.2,6a1.21,1.21,0,0,1-.3.2,1.42,1.42,0,0,1-.36.14l-3.34,1.06a2.53,2.53,0,0,1-1.58-.09,3.18,3.18,0,0,1-1.28-.84c-.11-.13-.38-.53-.81-1.19a108.69,108.69,0,0,0-8.56-11q-3.72-4.2-8.5-8.79c-3.19-3.05-5-4.85-5.49-5.38a2.63,2.63,0,0,1-.77-1.41,1.21,1.21,0,0,1,.48-1.07,1.94,1.94,0,0,1,.46-.29,3.5,3.5,0,0,1,.71-.28l3-.89c.64-.17,1.74.21,3.28,1.15a9,9,0,0,0,3.57,1.48q3.29.2,10.72-1.69t17.72-5.63l62.67-23.14a59.4,59.4,0,0,0,6.78-2.84,19.76,19.76,0,0,0,3.78-2.59,7.55,7.55,0,0,0,1.4-1.71c.45-.71.69-1.09.73-1.13l.74-.65.26-.23,2.32-.62q1.08-.25,4,2.45a30.16,30.16,0,0,0,6.67,4.64A34.13,34.13,0,0,0,948,181.67a4.74,4.74,0,0,1,1.81.42,3.07,3.07,0,0,1,.49.82,2,2,0,0,1,.17.74v1.89a1,1,0,0,1-.3.74,18.54,18.54,0,0,1-1.81,1.72,43.73,43.73,0,0,0-7.32,9.29q-3.91,6.28-9.1,17l-24.7,51.21a182.57,182.57,0,0,0-8.6,20.14,32.92,32.92,0,0,0-2,11.44,15.65,15.65,0,0,0,1.52,5.27c.89,1.95,1.11,3.12.67,3.51l-.23.21a.7.7,0,0,1-.3.14l-3.54,1.12a2.58,2.58,0,0,1-1.42-.12,3.19,3.19,0,0,1-1.36-.87c-.12-.14-.49-.65-1.11-1.52a204.46,204.46,0,0,0-14.39-18.12q-3.54-4-9.08-9.17t-7-6.84a2.65,2.65,0,0,1-.8-1.43,1.3,1.3,0,0,1,.5-1,6.19,6.19,0,0,1,.64-.5,1.53,1.53,0,0,1,.42-.19l3.14-.76a5.62,5.62,0,0,1,2.67.85q6.93,3.27,11.61-.87a23.92,23.92,0,0,0,3.57-4.24,57,57,0,0,0,3.92-6.81l9.48-17.94-12.71-14.35-13.2-14.89Zm67.78-26q-8.94,3.63-18.8,7.3t-20.7,7.44l7.64,8.61,12.12,13.68Z"/><path class="cls-1" d="M1000,266.06l3.59-.12a2.74,2.74,0,0,1,1.39.52,3.07,3.07,0,0,1,1,1.2c.1.22.35.88.76,2a160.73,160.73,0,0,0,7.38,18.51q2.07,4.35,5.79,10.53t4.75,8.36a2.69,2.69,0,0,1,.34,1.56,1.23,1.23,0,0,1-.75.91,2.18,2.18,0,0,1-.59.12,2.57,2.57,0,0,1-.73,0l-3,.05c-.67,0-1.78-.82-3.33-2.42a8.27,8.27,0,0,0-4.55-2.73q-2.42-.33-8.45,1.84t-18,7.82l-47.55,22.53q-10.15,4.82-11.2,10.1t4.72,17.45q5,10.47,9.52,14.88a19.89,19.89,0,0,0,11.15,5.42,22.59,22.59,0,0,0,7-.31q4.35-.72,6.06,1l2.15,2.24.53.49a1,1,0,0,1,.25.32,1.06,1.06,0,0,1,0,1.06,3,3,0,0,1-1.28.95c-.16.07-.83.26-2,.55a192.27,192.27,0,0,0-28.08,9.27l-2.81-1.54a3.62,3.62,0,0,1-.66-.57,2.92,2.92,0,0,1-.58-.81c-.05-.11-.18-.51-.38-1.21q-4.05-13.77-14.25-35.28l-11-23.13q-4.17-8.79-9.17-17.47c-.59-1.1-1-1.82-1.11-2.14a2.7,2.7,0,0,1-.37-1.5,1.26,1.26,0,0,1,.82-.88,2.5,2.5,0,0,1,.6-.19,2,2,0,0,1,.68,0l3-.06c.66,0,1.77.82,3.32,2.42a8.29,8.29,0,0,0,4.55,2.74q2.34.36,8-1.71T936,310.75l46.5-22q11.19-5.31,14.09-7.77a8.33,8.33,0,0,0,3.22-5.27,16.83,16.83,0,0,0-.58-5.8c-.55-2.14-.47-3.41.26-3.82A1.09,1.09,0,0,1,1000,266.06Z"/><path class="cls-1" d="M1074.31,470.14l1.12,3,.07.35a1.28,1.28,0,0,1-.31,1.24,3.11,3.11,0,0,1-1.6.68,7.59,7.59,0,0,0-1.34.07,123.08,123.08,0,0,0-12.2,1.74,141.47,141.47,0,0,0-16.81,4.17l-.78.24a8,8,0,0,1-1,0,1.68,1.68,0,0,1-.78-.26l-3.34-2.25a2.1,2.1,0,0,1-.57-.58,1.58,1.58,0,0,1-.3-.62c-.07-.65.91-1.39,2.93-2.2,1.46-.59,2.66-1.12,3.59-1.61q8.76-4.52,12.25-12.05t1.5-17.78q-2.81-14.44-15.11-19.28t-35.23-.38q-22,4.26-32.8,15.18t-7.92,25.88a35.16,35.16,0,0,0,5,12.39,41.29,41.29,0,0,0,9.6,10.4q2,1.61,5.38,3.86,4.19,2.82,4.41,4a1.53,1.53,0,0,1-.32,1.15,1.64,1.64,0,0,1-1,.75l-1.05.2-6.69.21q-2.9,0-9.26-6.1l-.11-.07Q959.32,481,953.8,473.19a40.44,40.44,0,0,1-7-15.44Q943,438,956.14,422.32t37.69-20.41q27.4-5.31,49.68,7.16t26.56,34.55a66.6,66.6,0,0,1,.87,7.32q.36,4.6.8,15.79Z"/><path class="cls-1" d="M988.22,535.93l-.86-.42c-5.56-2.37-9.88-3.65-13-3.88-4.75-.33-7.88,1.42-9.41,5.28s-2.44,5.77-2.73,5.75a1.36,1.36,0,0,1-.35-.07,1.58,1.58,0,0,1-.35-.16l-3.1-1.65a2.58,2.58,0,0,1-1-1.19,3.17,3.17,0,0,1-.29-1.49,11.56,11.56,0,0,1,.28-1.41,107.07,107.07,0,0,0,1.87-13.82q.4-5.61.34-12.22c0-4.42,0-7,0-7.69a2.66,2.66,0,0,1,.47-1.53,1.22,1.22,0,0,1,1.09-.42,2.2,2.2,0,0,1,.53.13,3.63,3.63,0,0,1,.7.32l2.75,1.54c.57.33,1.06,1.38,1.48,3.14a8.75,8.75,0,0,0,1.44,3.59q2.14,2.47,8.7,6.47t16.41,8.72l60.38,28.62a58.33,58.33,0,0,0,6.77,2.84,19.33,19.33,0,0,0,4.5.91,7.66,7.66,0,0,0,2.2-.21c.82-.18,1.26-.26,1.32-.26l1,.07.35,0,2.06,1.22c.62.4,1,1.93,1.06,4.59a30.41,30.41,0,0,0,1.35,8,34,34,0,0,0,4.87,9.47,4.69,4.69,0,0,1,1,1.59,2.79,2.79,0,0,1-.24.92,1.8,1.8,0,0,1-.41.64l-1.34,1.34a1,1,0,0,1-.74.3,20,20,0,0,1-2.5-.09,43.17,43.17,0,0,0-11.76,1.27,189.68,189.68,0,0,0-18.48,5.35l-53.86,18.16a183.59,183.59,0,0,0-20.42,7.94,32.67,32.67,0,0,0-9.58,6.56A15.7,15.7,0,0,0,958,629q-1.15,3-2,2.94l-.31,0a.89.89,0,0,1-.31-.11L952,630a2.42,2.42,0,0,1-.91-1.09,3,3,0,0,1-.33-1.59c0-.18.11-.8.31-1.85a202.43,202.43,0,0,0,2.88-23q.38-5.34.2-12.91t0-9.79a2.7,2.7,0,0,1,.48-1.58,1.28,1.28,0,0,1,1.09-.37,6.54,6.54,0,0,1,.8.1,1.84,1.84,0,0,1,.44.17l2.74,1.71a5.71,5.71,0,0,1,1.25,2.51q2.52,7.25,8.75,7.68a23.38,23.38,0,0,0,5.53-.41,55.6,55.6,0,0,0,7.6-2l19.46-5.77,1.36-19.13,1.41-19.84Zm66,30.26q-8.85-3.86-18.36-8.33t-19.8-9.59l-.81,11.48-1.3,18.24Z"/><path class="cls-1" d="M415.9,486.94c1.31,1.58,2.66,3.14,4.05,4.65C418.56,490.08,417.22,488.52,415.9,486.94Z"/><path class="cls-1" d="M433.48,504.06c-1.1-.86-2.18-1.75-3.25-2.64s-2.39-2.07-3.56-3.14c1.17,1.07,2.35,2.12,3.56,3.14S432.38,503.2,433.48,504.06Z"/><path class="cls-1" d="M324.58,413h168.8v-1.29q0-2.91-.27-5.78H615V379.19c0-.73,0-1.45-.08-2.15a0,0,0,0,0,0,0,26.51,26.51,0,0,0-6-14.82h0a27,27,0,0,0-9-7.09,26.56,26.56,0,0,0-11.55-2.62h-11V364a11.8,11.8,0,0,1-11.79,11.79H471.16a79.61,79.61,0,0,1,8,24.08H320.58a79.47,79.47,0,0,1,16.21-36.64,81,81,0,0,1,27.53-22.34,80.31,80.31,0,0,1,72,.42l10.39,6.32a81.14,81.14,0,0,1,13.47,12.19l.19.22.06.1.56.62,0,0,.1.13.11.12c.59.69,1.18,1.4,1.73,2.12l0,0,0,0c1.2,1.52,2.34,3.09,3.43,4.69h99.07a3.93,3.93,0,0,0,3.92-3.92V352.48H471.17l-.36-.43-.09-.09c-.17-.2-.34-.39-.5-.59a93.57,93.57,0,0,0-16.29-14.69l-11.19-6.82a93.5,93.5,0,0,0-136.31,81.9c0,.21,0,.42,0,.64V413h18.16Z"/><polygon class="cls-1" points="711.34 599.66 736.54 599.66 620.05 528.7 594.85 528.7 711.34 599.66"/><polygon class="cls-1" points="743.76 599.66 768.98 599.66 652.34 528.7 627.11 528.7 743.76 599.66"/><polygon class="cls-1" points="770.1 596.18 770.1 581.09 716.73 548.42 688.02 530.84 684.51 528.7 659.31 528.7 770.1 596.18"/><polygon class="cls-1" points="679.29 599.66 704.49 599.66 588 528.7 562.8 528.7 679.29 599.66"/><polygon class="cls-1" points="646.4 599.66 671.6 599.66 555.11 528.7 529.91 528.7 646.4 599.66"/><path class="cls-1" d="M497.73,528.48l.36.22,82.16,49.86L615,599.66h24.36l-116.49-71h-18C502.48,528.7,500.09,528.63,497.73,528.48Z"/><path class="cls-1" d="M684.51,528.7h84.8l-97.6-59.42-53.53-32.6L615,434.76,579.23,413H389.15c0,1.9.06,3.78.15,5.66.17,3.52.48,7,1,10.44q.56,4,1.37,7.85a115.07,115.07,0,0,0,3.15,11.77q1.5,4.63,3.38,9.08A116,116,0,0,0,405.32,472c.13.21.25.43.38.65q2.46,4.08,5.24,7.94c1.16,1.6,2.37,3.14,3.6,4.68l1.36,1.68c1.32,1.58,2.66,3.14,4.05,4.65,2.15,2.32,4.39,4.56,6.72,6.69,1.17,1.07,2.35,2.12,3.56,3.14s2.15,1.78,3.25,2.64a115.84,115.84,0,0,0,14.2,9.54c2.49,1.42,5,2.74,7.63,4s5.25,2.37,7.95,3.41,5.45,2,8.24,2.83a116.76,116.76,0,0,0,26.23,4.66c2.36.15,4.75.22,7.15.22H684.51ZM441.35,445.22l-17.07-10.59h29.46Zm129.82-10.59-12.39,10.59-17.07-10.59Zm-28.91,18.91-12.39,10.59L512.8,453.54ZM511,434.63,498.6,445.22l-17.07-10.59Zm-38.37,29.5-17.07-10.59H485ZM502.82,485l-17.07-10.59h29.46Zm30.39,20.87-17.07-10.59H545.6ZM560.06,485,543,474.41h29.47Zm42.39-31.46-12.4,10.59L573,453.54Zm-12,52.33-17.07-10.59h29.47ZM620.25,485l-17.07-10.59h29.46Zm30.39,20.87-17.07-10.59H663Z"/><rect class="cls-1" x="389.15" y="412.97" width="104.23"/><path class="cls-1" d="M424.28,366.29l-13.8-13.81H376.59v23.3h94.57a79.34,79.34,0,0,0-4.7-7.87H425.91Zm-27.55,5.09a6.86,6.86,0,1,1,6.86-6.86A6.86,6.86,0,0,1,396.73,371.38Z"/><rect class="cls-1" x="324.58" y="412.97" width="11.53"/><rect class="cls-1" x="306.42" y="412.97" width="1.97"/><rect class="cls-1" x="352.3" y="412.97" width="11.53"/><path class="cls-1" d="M346.55,528.7a188.72,188.72,0,0,0,18.05,19.75l67.83,41.3a187,187,0,0,0,19.5,5.55c2.86.65,5.75,1.22,8.65,1.73L345,526.65C345.52,527.33,346,528,346.55,528.7Z"/><path class="cls-1" d="M336.31,514.35l139.15,84.72q4,.38,8,.59h9.15L327.43,499.08Q331.53,506.94,336.31,514.35Z"/><path class="cls-1" d="M322.61,489.12,504.05,599.61q7.09-.4,14-1.32L317.34,476.06C318.93,480.5,320.7,484.85,322.61,489.12Z"/><path class="cls-1" d="M314.46,467.29,527.24,596.85c4-.74,8-1.6,11.94-2.59L311.32,455.52Q312.7,461.48,314.46,467.29Z"/><path class="cls-1" d="M309.63,447.47l237.48,144.6q5.31-1.59,10.49-3.47l-249.67-152Q308.62,442.09,309.63,447.47Z"/><path class="cls-1" d="M463.26,521q-4-1.56-7.95-3.41c-2.6-1.24-5.14-2.56-7.63-4a115.84,115.84,0,0,1-14.2-9.54c-1.1-.86-2.18-1.75-3.25-2.64s-2.39-2.07-3.56-3.14c-2.33-2.13-4.57-4.37-6.72-6.69-1.39-1.51-2.74-3.07-4.05-4.65l-1.36-1.68c-.34-.43-.69-.84-1-1.27L306.56,418.87c.11,3.43.29,6.83.57,10.21L564.62,585.85q4.74-2,9.35-4.16l-90.21-54.92a115.85,115.85,0,0,1-12.26-2.95C468.71,523,466,522,463.26,521Z"/><path class="cls-1" d="M324.58,413H308.4l96.92,59a116,116,0,0,1-7.16-14.22Z"/><rect class="cls-1" x="308.4" y="412.97" width="16.19"/><path class="cls-1" d="M336.11,413l58.67,35.72a115.07,115.07,0,0,1-3.15-11.77L352.3,413Z"/><rect class="cls-1" x="336.11" y="412.97" width="16.19" transform="translate(-139.92 646.74) rotate(-75.96)"/><path class="cls-1" d="M363.83,413l26.43,16.1c-.48-3.44-.79-6.92-1-10.44L380,413Z"/><rect class="cls-1" x="363.83" y="412.97" width="16.19"/><path class="cls-1" d="M471.52,690.88h-3.13c-.65,0-.86-.28-.65-.85q1.31-3.33,4.63-12.18T477,665.62a1.17,1.17,0,0,1,1.1-.85h3.12c.65,0,.87.28.65.85L472.62,690A1.14,1.14,0,0,1,471.52,690.88Z"/><path class="cls-1" d="M506.32,690.88h-3.9c-.49,0-.65-.28-.49-.85l6.42-24.41a1.16,1.16,0,0,1,1.22-.85H515a1.1,1.1,0,0,1,1.22.85L522.6,690c.17.57,0,.85-.48.85h-3.9a.81.81,0,0,1-.61-.18,1.44,1.44,0,0,1-.25-.67l-1.13-4.47h-7.92L507.17,690a1.24,1.24,0,0,1-.26.67A.82.82,0,0,1,506.32,690.88Zm5.89-21.2-2.93,11.74h6l-2.92-11.74Z"/><path class="cls-1" d="M540.43,690.88H527.07a.75.75,0,0,1-.85-.85V665.62a.75.75,0,0,1,.85-.85h3.45a.75.75,0,0,1,.85.85v20.31c0,.3.17.44.49.44h8.57q.81,0,.81.9V690C541.24,690.6,541,690.88,540.43,690.88Z"/><path class="cls-1" d="M555.17,690.88h-4.43a6.8,6.8,0,0,1-5-1.7,6.6,6.6,0,0,1-1.75-4.92V671.39a6.56,6.56,0,0,1,1.75-4.91,6.77,6.77,0,0,1,5-1.71h4.43a6.75,6.75,0,0,1,4.93,1.73,6.52,6.52,0,0,1,1.77,4.89v1.91a.79.79,0,0,1-.89.89h-3.41a.78.78,0,0,1-.86-.89v-1.67a2,2,0,0,0-2.39-2.39h-2.76a2.47,2.47,0,0,0-1.81.55,2.51,2.51,0,0,0-.55,1.84V684a2.54,2.54,0,0,0,.55,1.85,2.51,2.51,0,0,0,1.81.54h2.76a2,2,0,0,0,2.39-2.39v-1.67a.78.78,0,0,1,.86-.89H561a.79.79,0,0,1,.89.89v1.91a6.56,6.56,0,0,1-1.77,4.9A6.74,6.74,0,0,1,555.17,690.88Z"/><path class="cls-1" d="M569,690.88h-3.9c-.49,0-.65-.28-.49-.85l6.42-24.41a1.16,1.16,0,0,1,1.22-.85h5.4a1.1,1.1,0,0,1,1.22.85L585.3,690c.16.57,0,.85-.49.85h-3.89a.81.81,0,0,1-.61-.18,1.44,1.44,0,0,1-.25-.67l-1.13-4.47H571L569.87,690a1.24,1.24,0,0,1-.26.67A.83.83,0,0,1,569,690.88Zm5.89-21.2L572,681.42h6l-2.92-11.74Z"/><path class="cls-1" d="M593.14,690.88h-3.37a.75.75,0,0,1-.85-.85V665.62a.75.75,0,0,1,.85-.85h3a1.15,1.15,0,0,1,1.14.57l8.2,15.39h.17V665.62a.75.75,0,0,1,.85-.85h3.37a.75.75,0,0,1,.85.85V690a.75.75,0,0,1-.85.85h-3a1.35,1.35,0,0,1-1.3-.81L594.16,675H594V690A.75.75,0,0,1,593.14,690.88Z"/><path class="cls-1" d="M612,690v-2.44a3.15,3.15,0,0,1,.53-2l10.76-15.88v-.16h-9.71a.75.75,0,0,1-.85-.85v-3.09a.75.75,0,0,1,.85-.85H628c.54,0,.81.28.81.85v3.5a3.64,3.64,0,0,1-.61,2.11l-10.11,14.7v.16h10.32c.54,0,.81.26.81.77V690q0,.93-.81.93H612.83A.75.75,0,0,1,612,690Z"/><path class="cls-1" d="M636.55,690.88h-3.9c-.49,0-.65-.28-.49-.85l6.42-24.41a1.17,1.17,0,0,1,1.22-.85h5.4a1.09,1.09,0,0,1,1.22.85L652.83,690c.17.57,0,.85-.48.85h-3.9a.81.81,0,0,1-.61-.18,1.34,1.34,0,0,1-.24-.67l-1.14-4.47h-7.92L637.4,690a1.24,1.24,0,0,1-.26.67A.82.82,0,0,1,636.55,690.88Zm5.89-21.2-2.93,11.74h6l-2.92-11.74Z"/><path class="cls-1" d="M673.46,690.88h-3.41c-.6,0-.89-.28-.89-.85V669.68a.39.39,0,0,0-.45-.44h-4.63a.76.76,0,0,1-.85-.86v-2.76a.75.75,0,0,1,.85-.85h15.35a.75.75,0,0,1,.85.85v2.76a.76.76,0,0,1-.85.86H674.8c-.32,0-.49.15-.49.44V690A.75.75,0,0,1,673.46,690.88Z"/><path class="cls-1" d="M696.73,664.77h3.41q.9,0,.9.81v18.68a6.56,6.56,0,0,1-1.77,4.9,6.77,6.77,0,0,1-4.94,1.72h-4.46a6.85,6.85,0,0,1-5-1.7,6.59,6.59,0,0,1-1.74-4.92V665.62a.75.75,0,0,1,.85-.85h3.45a.75.75,0,0,1,.85.85V684a2.59,2.59,0,0,0,.55,1.85,2.53,2.53,0,0,0,1.81.54h2.8a2,2,0,0,0,2.4-2.39v-18.4A.75.75,0,0,1,696.73,664.77Z"/><path class="cls-1" d="M705.46,684.22v-.81a.75.75,0,0,1,.85-.85h3.46a.75.75,0,0,1,.85.85v.32a2.86,2.86,0,0,0,.61,2.12,3.29,3.29,0,0,0,2.23.56h1.91a2.35,2.35,0,0,0,2.84-2.88v-.48a2,2,0,0,0-1-1.81,5,5,0,0,0-2.38-.75,27.26,27.26,0,0,1-3.06-.47,20.46,20.46,0,0,1-3.07-.89,4.8,4.8,0,0,1-2.37-2.16,7.93,7.93,0,0,1-1-4.12v-1.42a6.55,6.55,0,0,1,1.79-4.91,6.75,6.75,0,0,1,4.95-1.75h4.06a6.83,6.83,0,0,1,5,1.75,6.55,6.55,0,0,1,1.78,4.91v.77a.76.76,0,0,1-.85.86H718.7a.76.76,0,0,1-.85-.86V672a3,3,0,0,0-.61-2.16,3.38,3.38,0,0,0-2.24-.56h-1.58a3.05,3.05,0,0,0-2.25.63,3.66,3.66,0,0,0-.59,2.45v.78q0,1.9,3.33,2.19a20.68,20.68,0,0,1,6.13,1.38,5.24,5.24,0,0,1,2.38,2.17,7.64,7.64,0,0,1,1,4v1.38a6.59,6.59,0,0,1-1.79,4.92,6.79,6.79,0,0,1-5,1.74H712.2a6.79,6.79,0,0,1-5-1.74A6.59,6.59,0,0,1,705.46,684.22Z"/><path class="cls-1" d="M736.28,684.22v-.81a.75.75,0,0,1,.85-.85h3.46a.75.75,0,0,1,.85.85v.32a2.86,2.86,0,0,0,.61,2.12,3.29,3.29,0,0,0,2.23.56h1.91a2.35,2.35,0,0,0,2.84-2.88v-.48a2,2,0,0,0-.95-1.81,5,5,0,0,0-2.38-.75,27.26,27.26,0,0,1-3.06-.47,20.46,20.46,0,0,1-3.07-.89A4.8,4.8,0,0,1,737.2,677a7.93,7.93,0,0,1-1-4.12v-1.42a6.55,6.55,0,0,1,1.79-4.91,6.75,6.75,0,0,1,5-1.75H747a6.83,6.83,0,0,1,5,1.75,6.55,6.55,0,0,1,1.78,4.91v.77a.76.76,0,0,1-.85.86h-3.45a.76.76,0,0,1-.85-.86V672a3,3,0,0,0-.61-2.16,3.37,3.37,0,0,0-2.23-.56h-1.59a3.05,3.05,0,0,0-2.25.63,3.66,3.66,0,0,0-.59,2.45v.78q0,1.9,3.33,2.19a20.68,20.68,0,0,1,6.13,1.38,5.24,5.24,0,0,1,2.38,2.17,7.64,7.64,0,0,1,1,4v1.38a6.59,6.59,0,0,1-1.79,4.92,6.79,6.79,0,0,1-4.95,1.74H743a6.79,6.79,0,0,1-4.95-1.74A6.59,6.59,0,0,1,736.28,684.22Z"/><path class="cls-1" d="M772.18,664.77h3.41q.9,0,.9.81v18.68a6.56,6.56,0,0,1-1.77,4.9,6.77,6.77,0,0,1-4.94,1.72h-4.46a6.85,6.85,0,0,1-5-1.7,6.59,6.59,0,0,1-1.74-4.92V665.62a.75.75,0,0,1,.85-.85h3.45a.75.75,0,0,1,.85.85V684a2.59,2.59,0,0,0,.55,1.85,2.53,2.53,0,0,0,1.81.54h2.8a2,2,0,0,0,2.4-2.39v-18.4A.75.75,0,0,1,772.18,664.77Z"/><path class="cls-1" d="M795.69,690.88H782.41a.75.75,0,0,1-.85-.85V665.62a.75.75,0,0,1,.85-.85h13.28c.54,0,.81.28.81.85v2.76c0,.57-.27.86-.81.86H787.2c-.32,0-.48.15-.48.44V675q0,.45.48.45h6.95a.75.75,0,0,1,.85.85V679a.76.76,0,0,1-.85.86H787.2c-.32,0-.48.14-.48.44V686c0,.3.16.44.48.44h8.49c.54,0,.81.29.81.86V690C796.5,690.6,796.23,690.88,795.69,690.88Z"/><path class="cls-1" d="M805.23,690.88h-3.37A.75.75,0,0,1,801,690V665.62a.75.75,0,0,1,.85-.85h3a1.15,1.15,0,0,1,1.14.57l8.2,15.39h.16V665.62a.75.75,0,0,1,.85-.85h3.38a.75.75,0,0,1,.85.85V690a.75.75,0,0,1-.85.85h-3a1.36,1.36,0,0,1-1.3-.81L806.25,675h-.16V690A.76.76,0,0,1,805.23,690.88Zm3.09-28.51c-1.92,0-2.88-1-2.88-3.08V657.7c0-.29.13-.44.4-.44h1.59a.55.55,0,0,1,.36.08c.06,0,.08.18.08.36v.49a3.56,3.56,0,0,0,.13,1.18.44.44,0,0,0,.44.28c.22,0,.68-.43,1.38-1.3a3,3,0,0,1,2.44-1.3c2,0,2.92,1.05,2.92,3.13v1.5c0,.36-.15.53-.44.53h-1.59c-.3,0-.44-.17-.44-.53v-.4a3.3,3.3,0,0,0-.13-1.18.45.45,0,0,0-.46-.28c-.23,0-.65.36-1.24,1.09A3,3,0,0,1,808.32,662.37Z"/><path class="cls-1" d="M835.61,690.88h-4.55a6.8,6.8,0,0,1-4.95-1.7,6.56,6.56,0,0,1-1.75-4.92V671.39a6.52,6.52,0,0,1,1.75-4.91,6.77,6.77,0,0,1,4.95-1.71h4.55a6.81,6.81,0,0,1,5,1.71,6.55,6.55,0,0,1,1.74,4.91v12.87a6.59,6.59,0,0,1-1.74,4.92A6.85,6.85,0,0,1,835.61,690.88Zm-3.74-4.47h2.89a2,2,0,0,0,2.39-2.39V671.63a2,2,0,0,0-2.39-2.39h-2.89a2.45,2.45,0,0,0-1.82.55,2.56,2.56,0,0,0-.53,1.84V684a2.59,2.59,0,0,0,.53,1.85A2.49,2.49,0,0,0,831.87,686.41Z"/><path class="cls-1" d="M846.53,684.22v-.81a.76.76,0,0,1,.86-.85h3.45a.75.75,0,0,1,.85.85v.32a2.86,2.86,0,0,0,.61,2.12,3.31,3.31,0,0,0,2.23.56h1.91a2.35,2.35,0,0,0,2.85-2.88v-.48a2,2,0,0,0-1-1.81,5,5,0,0,0-2.37-.75,27.77,27.77,0,0,1-3.07-.47,20.46,20.46,0,0,1-3.07-.89,4.84,4.84,0,0,1-2.37-2.16,7.93,7.93,0,0,1-1-4.12v-1.42a6.55,6.55,0,0,1,1.79-4.91,6.75,6.75,0,0,1,5-1.75h4.07a6.82,6.82,0,0,1,5,1.75,6.55,6.55,0,0,1,1.79,4.91v.77a.76.76,0,0,1-.86.86h-3.45a.76.76,0,0,1-.85-.86V672a2.92,2.92,0,0,0-.61-2.16,3.37,3.37,0,0,0-2.23-.56h-1.59a3.05,3.05,0,0,0-2.25.63,3.71,3.71,0,0,0-.59,2.45v.78q0,1.9,3.33,2.19a20.61,20.61,0,0,1,6.13,1.38,5.24,5.24,0,0,1,2.38,2.17,7.64,7.64,0,0,1,1,4v1.38a6.58,6.58,0,0,1-1.78,4.92,6.83,6.83,0,0,1-5,1.74h-4.43a6.79,6.79,0,0,1-4.95-1.74A6.59,6.59,0,0,1,846.53,684.22Z"/><path class="cls-1" d="M892.14,690.88H878.86A.76.76,0,0,1,878,690V665.62a.76.76,0,0,1,.86-.85h13.28c.54,0,.81.28.81.85v2.76c0,.57-.27.86-.81.86h-8.49c-.33,0-.49.15-.49.44V675c0,.3.16.45.49.45h6.94a.76.76,0,0,1,.86.85V679a.76.76,0,0,1-.86.86h-6.94c-.33,0-.49.14-.49.44V686c0,.3.16.44.49.44h8.49c.54,0,.81.29.81.86V690C893,690.6,892.68,690.88,892.14,690.88Z"/><path class="cls-1" d="M901.68,690.88h-3.37a.75.75,0,0,1-.85-.85V665.62a.75.75,0,0,1,.85-.85h3a1.15,1.15,0,0,1,1.14.57l8.2,15.39h.17V665.62a.75.75,0,0,1,.85-.85h3.37a.75.75,0,0,1,.85.85V690a.75.75,0,0,1-.85.85h-3a1.35,1.35,0,0,1-1.29-.81L902.69,675h-.16V690A.75.75,0,0,1,901.68,690.88Z"/><path class="cls-1" d="M944.28,690.88H931a.76.76,0,0,1-.86-.85V665.62a.76.76,0,0,1,.86-.85h13.28c.54,0,.81.28.81.85v2.76c0,.57-.27.86-.81.86h-8.49c-.33,0-.49.15-.49.44V675c0,.3.16.45.49.45h6.94a.76.76,0,0,1,.86.85V679a.76.76,0,0,1-.86.86h-6.94c-.33,0-.49.14-.49.44V686c0,.3.16.44.49.44h8.49c.54,0,.81.29.81.86V690C945.09,690.6,944.82,690.88,944.28,690.88Z"/><path class="cls-1" d="M963.81,690.88H950.45a.75.75,0,0,1-.85-.85V665.62a.75.75,0,0,1,.85-.85h3.45a.75.75,0,0,1,.85.85v20.31c0,.3.17.44.49.44h8.57q.81,0,.81.9V690C964.62,690.6,964.35,690.88,963.81,690.88Z"/><path class="cls-1" d="M976.11,684.22v-.81a.75.75,0,0,1,.85-.85h3.46a.75.75,0,0,1,.85.85v.32a2.86,2.86,0,0,0,.61,2.12,3.29,3.29,0,0,0,2.23.56H986a2.35,2.35,0,0,0,2.84-2.88v-.48a2,2,0,0,0-1-1.81,5,5,0,0,0-2.38-.75,27.61,27.61,0,0,1-3.06-.47,20.46,20.46,0,0,1-3.07-.89A4.8,4.8,0,0,1,977,677a7.93,7.93,0,0,1-1-4.12v-1.42a6.55,6.55,0,0,1,1.79-4.91,6.75,6.75,0,0,1,4.95-1.75h4.06a6.83,6.83,0,0,1,5,1.75,6.55,6.55,0,0,1,1.79,4.91v.77a.76.76,0,0,1-.86.86h-3.45a.76.76,0,0,1-.85-.86V672a3,3,0,0,0-.61-2.16,3.37,3.37,0,0,0-2.23-.56h-1.59a3.05,3.05,0,0,0-2.25.63,3.71,3.71,0,0,0-.59,2.45v.78q0,1.9,3.33,2.19a20.68,20.68,0,0,1,6.13,1.38,5.24,5.24,0,0,1,2.38,2.17,7.64,7.64,0,0,1,.95,4v1.38a6.59,6.59,0,0,1-1.79,4.92,6.79,6.79,0,0,1-5,1.74h-4.43a6.79,6.79,0,0,1-5-1.74A6.59,6.59,0,0,1,976.11,684.22Z"/><path class="cls-1" d="M1009.49,690.88h-4.55a6.8,6.8,0,0,1-5-1.7,6.6,6.6,0,0,1-1.75-4.92V671.39a6.56,6.56,0,0,1,1.75-4.91,6.77,6.77,0,0,1,5-1.71h4.55a6.81,6.81,0,0,1,5,1.71,6.55,6.55,0,0,1,1.74,4.91v12.87a6.59,6.59,0,0,1-1.74,4.92A6.85,6.85,0,0,1,1009.49,690.88Zm-3.73-4.47h2.88A2,2,0,0,0,1011,684V671.63a2,2,0,0,0-2.4-2.39h-2.88a2.46,2.46,0,0,0-1.83.55,2.61,2.61,0,0,0-.53,1.84V684a2.64,2.64,0,0,0,.53,1.85A2.5,2.5,0,0,0,1005.76,686.41Z"/><path class="cls-1" d="M1035.28,690.88h-13.36a.75.75,0,0,1-.85-.85V665.62a.75.75,0,0,1,.85-.85h3.45a.75.75,0,0,1,.85.85v20.31c0,.3.17.44.49.44h8.57q.81,0,.81.9V690C1036.09,690.6,1035.82,690.88,1035.28,690.88Z"/><path class="cls-1" d="M1042,690.88h-3.9c-.49,0-.65-.28-.49-.85l6.42-24.41a1.16,1.16,0,0,1,1.22-.85h5.4a1.1,1.1,0,0,1,1.22.85L1058.3,690c.17.57,0,.85-.48.85h-3.9a.81.81,0,0,1-.61-.18,1.44,1.44,0,0,1-.25-.67l-1.13-4.47H1044l-1.14,4.47a1.24,1.24,0,0,1-.26.67A.82.82,0,0,1,1042,690.88Zm5.89-21.2L1045,681.42h6l-2.92-11.74Z"/><path class="cls-1" d="M1066.22,690.88h-3.45a.75.75,0,0,1-.85-.85V665.62a.75.75,0,0,1,.85-.85h9.66a6.76,6.76,0,0,1,5,1.75,6.55,6.55,0,0,1,1.79,4.91v3.17q0,4.59-3.62,6.09v.16l4.35,9.06c.24.65,0,1-.69,1h-3.29a2.52,2.52,0,0,1-1.06-.16,1.23,1.23,0,0,1-.53-.69l-4.06-8.77h-2.72c-.32,0-.49.15-.49.45V690A.75.75,0,0,1,1066.22,690.88Zm1.3-13.77h4a2.83,2.83,0,0,0,1.91-.54,2.27,2.27,0,0,0,.61-1.77v-3.17a2.41,2.41,0,0,0-.61-1.83,2.78,2.78,0,0,0-1.91-.56h-4a.39.39,0,0,0-.45.44v7C1067.07,677,1067.22,677.11,1067.52,677.11Z"/><circle class="cls-1" cx="115.14" cy="678.84" r="3.57"/><circle class="cls-1" cx="264.87" cy="678.84" r="3.57"/><path class="cls-1" d="M148.26,690.88H134.92a.76.76,0,0,1-.85-.86V665.67a.76.76,0,0,1,.85-.86h3.45a.76.76,0,0,1,.85.86v20.26c0,.3.16.45.49.45h8.55c.54,0,.81.29.81.89V690C149.07,690.59,148.8,690.88,148.26,690.88Z"/><path class="cls-1" d="M155,690.88H151.1c-.49,0-.65-.29-.49-.86l6.4-24.35a1.17,1.17,0,0,1,1.22-.86h5.39a1.1,1.1,0,0,1,1.22.86l6.4,24.35c.16.57,0,.86-.49.86h-3.89a.81.81,0,0,1-.61-.19A1.52,1.52,0,0,1,166,690l-1.13-4.45H157L155.84,690a1.29,1.29,0,0,1-.26.67A.83.83,0,0,1,155,690.88Zm5.87-21.16L158,681.43h6L161,669.72Z"/><path class="cls-1" d="M188.06,690.88h-3.45a.76.76,0,0,1-.85-.86V665.67a.76.76,0,0,1,.85-.86h9.89a6.68,6.68,0,0,1,4.91,1.73,6.56,6.56,0,0,1,1.74,4.88v3.89a6.58,6.58,0,0,1-1.74,4.89,6.68,6.68,0,0,1-4.91,1.72h-5.1c-.33,0-.49.15-.49.44V690A.76.76,0,0,1,188.06,690.88Zm1.3-13.46h4.29a2.47,2.47,0,0,0,1.83-.55,2.53,2.53,0,0,0,.52-1.8v-3.41a2.61,2.61,0,0,0-.52-1.84,2.52,2.52,0,0,0-1.83-.55h-4.29a.4.4,0,0,0-.45.45V677A.4.4,0,0,0,189.36,677.42Z"/><path class="cls-1" d="M208,690.88h-3.89c-.49,0-.65-.29-.49-.86L210,665.67a1.16,1.16,0,0,1,1.21-.86h5.39a1.1,1.1,0,0,1,1.22.86l6.4,24.35c.16.57,0,.86-.48.86h-3.89a.79.79,0,0,1-.61-.19A1.39,1.39,0,0,1,219,690l-1.13-4.45h-7.91L208.81,690a1.21,1.21,0,0,1-.26.67A.82.82,0,0,1,208,690.88Zm5.88-21.16-2.92,11.71h6L214,669.72Z"/><path class="cls-1" d="M227.13,690v-2.43a3.1,3.1,0,0,1,.53-2l10.74-15.85v-.16h-9.69a.75.75,0,0,1-.85-.85v-3.08a.76.76,0,0,1,.85-.86H243.1c.54,0,.81.29.81.86v3.48a3.62,3.62,0,0,1-.61,2.11l-10.09,14.67v.16h10.3c.53,0,.81.26.81.77v3.08c0,.63-.28.94-.81.94H228A.76.76,0,0,1,227.13,690Z"/><path class="cls-1" d="M284.6,690V665.67a.76.76,0,0,1,.85-.86h9.73a6.76,6.76,0,0,1,4.94,1.71,6.48,6.48,0,0,1,1.75,4.86V673a4.25,4.25,0,0,1-3.21,4.46,4.21,4.21,0,0,1,2.6,1.32,4.41,4.41,0,0,1,1,3.06v2.43a6.52,6.52,0,0,1-1.74,4.87,6.75,6.75,0,0,1-4.91,1.7H285.45A.76.76,0,0,1,284.6,690Zm5.59-14.63h4.14a2.8,2.8,0,0,0,1.9-.54,2.33,2.33,0,0,0,.61-1.81v-1.58a2.36,2.36,0,0,0-.59-1.8,2.67,2.67,0,0,0-1.88-.55h-4.18c-.3,0-.44.15-.44.45V675A.39.39,0,0,0,290.19,675.39Zm0,11.19h4.54a2.77,2.77,0,0,0,1.93-.55,2.36,2.36,0,0,0,.59-1.8v-2.35a2.26,2.26,0,0,0-.61-1.78,3,3,0,0,0-2-.53h-4.46a.39.39,0,0,0-.44.44v6.12C289.75,686.43,289.89,686.58,290.19,686.58Z"/><path class="cls-1" d="M309.81,690.88h-3.89c-.49,0-.65-.29-.49-.86l6.41-24.35a1.16,1.16,0,0,1,1.21-.86h5.39a1.1,1.1,0,0,1,1.22.86l6.4,24.35c.16.57,0,.86-.48.86h-3.9a.78.78,0,0,1-.6-.19,1.39,1.39,0,0,1-.25-.67l-1.13-4.45h-7.91L310.66,690a1.21,1.21,0,0,1-.26.67A.82.82,0,0,1,309.81,690.88Zm5.88-21.16-2.92,11.71h6l-2.92-11.71Z"/><path class="cls-1" d="M341.46,664.81h3.41a.74.74,0,0,1,.85.82v18.64a6.54,6.54,0,0,1-1.74,4.88,6.7,6.7,0,0,1-4.91,1.73H335a6.82,6.82,0,0,1-4.95-1.7,6.57,6.57,0,0,1-1.74-4.91v-3.81a.75.75,0,0,1,.85-.85h3.45a.75.75,0,0,1,.85.85V684a2.51,2.51,0,0,0,.55,1.84,2.48,2.48,0,0,0,1.8.55h2.39a2.47,2.47,0,0,0,1.82-.55,2.56,2.56,0,0,0,.53-1.84V665.67A.78.78,0,0,1,341.46,664.81Z"/><path class="cls-1" d="M353.5,690.88h-3.89c-.49,0-.65-.29-.49-.86l6.41-24.35a1.16,1.16,0,0,1,1.21-.86h5.39a1.1,1.1,0,0,1,1.22.86l6.4,24.35c.17.57,0,.86-.48.86h-3.89a.81.81,0,0,1-.61-.19,1.31,1.31,0,0,1-.24-.67l-1.14-4.45h-7.9L354.35,690a1.21,1.21,0,0,1-.26.67A.82.82,0,0,1,353.5,690.88Zm5.88-21.16-2.92,11.71h6l-2.92-11.71Z"/><path class="cls-1" d="M381.63,684.23v-.81a.75.75,0,0,1,.85-.85h3.45a.75.75,0,0,1,.85.85v.32a2.87,2.87,0,0,0,.6,2.11,3.31,3.31,0,0,0,2.23.57h1.91a3.14,3.14,0,0,0,2.21-.61,3.17,3.17,0,0,0,.63-2.27v-.49a2,2,0,0,0-1-1.8,5,5,0,0,0-2.37-.75A25.44,25.44,0,0,1,388,680a19.53,19.53,0,0,1-3.06-.89,4.8,4.8,0,0,1-2.37-2.14,8,8,0,0,1-1-4.12v-1.42a6.54,6.54,0,0,1,1.78-4.9,6.8,6.8,0,0,1,4.95-1.75h4.05a6.84,6.84,0,0,1,5,1.75,6.54,6.54,0,0,1,1.79,4.9v.77a.75.75,0,0,1-.85.85h-3.45a.75.75,0,0,1-.85-.85V672a2.91,2.91,0,0,0-.61-2.15,3.29,3.29,0,0,0-2.23-.57h-1.58a3.05,3.05,0,0,0-2.25.63,3.72,3.72,0,0,0-.58,2.45v.78c0,1.26,1.1,2,3.32,2.18a20.54,20.54,0,0,1,6.12,1.38,5.27,5.27,0,0,1,2.37,2.17,7.6,7.6,0,0,1,.95,4v1.38a6.52,6.52,0,0,1-1.78,4.9,6.75,6.75,0,0,1-5,1.75h-4.41a6.75,6.75,0,0,1-4.95-1.75A6.52,6.52,0,0,1,381.63,684.23Z"/><path class="cls-1" d="M417.46,664.81h3.4c.59,0,.89.28.89.82v18.64a6.51,6.51,0,0,1-1.76,4.88,6.75,6.75,0,0,1-4.92,1.73h-4.46a6.8,6.8,0,0,1-4.95-1.7,6.57,6.57,0,0,1-1.74-4.91v-18.6a.76.76,0,0,1,.85-.86h3.45a.76.76,0,0,1,.85.86V684a2.56,2.56,0,0,0,.54,1.84,2.53,2.53,0,0,0,1.81.55h2.79a2.59,2.59,0,0,0,1.85-.55,2.56,2.56,0,0,0,.55-1.84V665.67A.76.76,0,0,1,417.46,664.81Z"/><path class="cls-1" d="M431.12,690.88h-3.45a.76.76,0,0,1-.85-.86V665.67a.76.76,0,0,1,.85-.86h9.65a6.79,6.79,0,0,1,4.94,1.75,6.54,6.54,0,0,1,1.79,4.9v3.16c0,3.06-1.21,5.08-3.61,6.08v.16l4.33,9c.25.65,0,1-.68,1H440.8a2.44,2.44,0,0,1-1.05-.17,1.16,1.16,0,0,1-.53-.69l-4.05-8.75h-2.72q-.48,0-.48.45V690A.76.76,0,0,1,431.12,690.88Zm1.29-13.74h4a2.83,2.83,0,0,0,1.91-.55,2.27,2.27,0,0,0,.61-1.76v-3.17a2.42,2.42,0,0,0-.61-1.82,2.73,2.73,0,0,0-1.91-.57h-4c-.3,0-.44.15-.44.45v7C432,677,432.11,677.14,432.41,677.14Z"/><path class="cls-1" d="M14.19,690.88H.85A.75.75,0,0,1,0,690V665.66a.75.75,0,0,1,.85-.85H4.3a.75.75,0,0,1,.85.85v20.27c0,.3.16.45.49.45h8.55c.54,0,.81.3.81.89V690C15,690.6,14.73,690.88,14.19,690.88Z"/><path class="cls-1" d="M29,690.88H24.49a6.84,6.84,0,0,1-4.95-1.7,6.57,6.57,0,0,1-1.74-4.91V671.42a6.57,6.57,0,0,1,1.74-4.91,6.84,6.84,0,0,1,4.95-1.7H29a6.8,6.8,0,0,1,4.95,1.7,6.57,6.57,0,0,1,1.74,4.91v12.85A6.57,6.57,0,0,1,34,689.18,6.8,6.8,0,0,1,29,690.88Zm-3.73-4.46h2.88a2.54,2.54,0,0,0,1.85-.55,2.56,2.56,0,0,0,.54-1.84V671.66a2.56,2.56,0,0,0-.54-1.84,2.54,2.54,0,0,0-1.85-.55H25.3a2.45,2.45,0,0,0-1.82.55,2.61,2.61,0,0,0-.53,1.84V684a2.61,2.61,0,0,0,.53,1.84A2.45,2.45,0,0,0,25.3,686.42Z"/><path class="cls-1" d="M48.66,690.88H45.25c-.59,0-.89-.28-.89-.85V669.72a.4.4,0,0,0-.45-.45H39.29a.75.75,0,0,1-.85-.85v-2.76a.75.75,0,0,1,.85-.85H54.62a.75.75,0,0,1,.85.85v2.76a.75.75,0,0,1-.85.85H50c-.33,0-.49.15-.49.45V690A.75.75,0,0,1,48.66,690.88Z"/><path class="cls-1" d="M72.66,690.88H59.4a.75.75,0,0,1-.85-.85V665.66a.75.75,0,0,1,.85-.85H72.66c.54,0,.81.28.81.85v2.76c0,.57-.27.85-.81.85H64.19c-.33,0-.49.15-.49.45V675c0,.29.16.44.49.44h6.93a.75.75,0,0,1,.85.85V679a.75.75,0,0,1-.85.85H64.19c-.33,0-.49.15-.49.45V686c0,.29.16.44.49.44h8.47c.54,0,.81.29.81.85V690C73.47,690.6,73.2,690.88,72.66,690.88Z"/><path class="cls-1" d="M77.33,684.23v-.81a.75.75,0,0,1,.85-.85h3.44a.75.75,0,0,1,.85.85v.33a2.84,2.84,0,0,0,.61,2.1,3.31,3.31,0,0,0,2.23.57h1.91a2.36,2.36,0,0,0,2.84-2.88v-.48a2,2,0,0,0-1-1.81,5,5,0,0,0-2.37-.75,25.74,25.74,0,0,1-3.06-.47,18.51,18.51,0,0,1-3.06-.89A4.73,4.73,0,0,1,78.24,677a7.89,7.89,0,0,1-1-4.11v-1.42a6.57,6.57,0,0,1,1.79-4.91,6.79,6.79,0,0,1,5-1.74h4a6.84,6.84,0,0,1,5,1.74,6.56,6.56,0,0,1,1.78,4.91v.77a.75.75,0,0,1-.85.85H90.54a.75.75,0,0,1-.85-.85V672a2.89,2.89,0,0,0-.61-2.15,3.27,3.27,0,0,0-2.23-.57H85.27a3.05,3.05,0,0,0-2.25.63,3.7,3.7,0,0,0-.59,2.45v.77q0,1.9,3.33,2.19a20.54,20.54,0,0,1,6.12,1.38,5.17,5.17,0,0,1,2.37,2.17,7.51,7.51,0,0,1,1,4v1.38a6.55,6.55,0,0,1-1.79,4.91,6.78,6.78,0,0,1-4.94,1.74H84.06a6.79,6.79,0,0,1-5-1.74A6.55,6.55,0,0,1,77.33,684.23Z"/></g></g></svg>