<svg xmlns="http://www.w3.org/2000/svg" viewBox="0 0 1080 328.86"><defs><style>.cls-1{fill:#101820;}</style></defs><g id="Capa_2" data-name="Capa 2"><g id="Capa_1-2" data-name="Capa 1"><path class="cls-1" d="M365,108.51l-1.75,2.17c-.22.27-.45.23-.69-.11l-10.72-14.5a.85.85,0,0,1,.07-1.06l2.42-3a.78.78,0,0,1,1-.3l16.46,7.35c.39.17.48.38.26.66l-1.75,2.17a.55.55,0,0,1-.37.25,1,1,0,0,1-.48-.16l-3-1.37L362.91,105l2,2.63a1,1,0,0,1,.26.45A.6.6,0,0,1,365,108.51Zm-9.17-12.77,5.23,6.88,2.69-3.34-7.85-3.63Z"/><path class="cls-1" d="M380.69,90.28l-6.45,7a.53.53,0,0,1-.86,0L360.54,85.56a.54.54,0,0,1,0-.86l1.67-1.82a.54.54,0,0,1,.86,0l10.68,9.8a.29.29,0,0,0,.47,0l4.14-4.51a.55.55,0,0,1,.87,0l1.45,1.33A.52.52,0,0,1,380.69,90.28Z"/><path class="cls-1" d="M388,83.14l-2.28,2.18a4.83,4.83,0,0,1-3.4,1.57A4.66,4.66,0,0,1,379,85.22l-6.36-6.63a4.69,4.69,0,0,1-1.53-3.4,4.88,4.88,0,0,1,1.71-3.33l2.28-2.19a4.85,4.85,0,0,1,3.4-1.55,4.7,4.7,0,0,1,3.33,1.65l.94,1a.56.56,0,0,1,0,.9L381,73.35a.56.56,0,0,1-.88,0l-.82-.86a1.78,1.78,0,0,0-1.2-.68,1.8,1.8,0,0,0-1.22.63l-1.42,1.36a1.79,1.79,0,0,0-.67,1.18,1.85,1.85,0,0,0,.64,1.22l6.12,6.39a1.83,1.83,0,0,0,1.2.68,1.79,1.79,0,0,0,1.2-.61l1.42-1.37a1.75,1.75,0,0,0,.68-1.19,1.78,1.78,0,0,0-.63-1.22l-.82-.86a.55.55,0,0,1,0-.89l1.76-1.68a.56.56,0,0,1,.9,0l.94,1a4.64,4.64,0,0,1,1.51,3.4A4.85,4.85,0,0,1,388,83.14Z"/><path class="cls-1" d="M395.09,76.69,393,78.47c-.27.23-.49.14-.66-.24l-7.61-16.34a.83.83,0,0,1,.28-1l3-2.46a.78.78,0,0,1,1.06-.09l14.67,10.48q.53.36.12.69l-2.14,1.78a.54.54,0,0,1-.42.18,1,1,0,0,1-.44-.26l-2.66-1.93-4.35,3.61,1.41,3a.86.86,0,0,1,.16.48A.54.54,0,0,1,395.09,76.69Zm-6.44-14.33,3.75,7.78,3.3-2.74-7-5.11Z"/><path class="cls-1" d="M408.27,66.18l-2,1.39a.54.54,0,0,1-.85-.14l-10.12-14.2a.54.54,0,0,1,.15-.85l1.77-1.26a.84.84,0,0,1,.9-.14l11.15,5.55.09-.07-6.26-8.78a.54.54,0,0,1,.14-.85l2-1.4a.54.54,0,0,1,.85.14l10.12,14.2a.54.54,0,0,1-.14.85l-1.73,1.23a1,1,0,0,1-1.09.06l-11-5.41-.09.06,6.25,8.77A.54.54,0,0,1,408.27,66.18Z"/><path class="cls-1" d="M418.68,58.16l-.91-1.49a2.25,2.25,0,0,1-.42-1.41L418,41.58l-.06-.1L412,45.09a.53.53,0,0,1-.83-.21L410.05,43a.54.54,0,0,1,.2-.84L419,36.8a.53.53,0,0,1,.82.22l1.29,2.13a2.62,2.62,0,0,1,.42,1.52l-.7,12.72.06.1,6.29-3.83a.49.49,0,0,1,.78.16l1.15,1.89q.35.57-.15.87l-9.49,5.78A.53.53,0,0,1,418.68,58.16Z"/><path class="cls-1" d="M433.82,49.92l-2.47,1.28c-.31.16-.51,0-.59-.38l-3.94-17.59a.83.83,0,0,1,.49-.94l3.43-1.77a.76.76,0,0,1,1.05.14L443.87,44c.29.31.28.54,0,.7L441.37,46a.57.57,0,0,1-.45.08.92.92,0,0,1-.37-.34l-2.19-2.46-5,2.59.74,3.21a.88.88,0,0,1,.05.51A.55.55,0,0,1,433.82,49.92ZM430.6,34.54l2,8.41,3.81-2-5.71-6.48Z"/><path class="cls-1" d="M457.3,39,455,39.9a.55.55,0,0,1-.82-.32L448.79,26.1a.28.28,0,0,0-.41-.18l-3.07,1.24a.54.54,0,0,1-.79-.34L443.78,25a.54.54,0,0,1,.34-.79l10.17-4.1a.54.54,0,0,1,.79.34l.74,1.83a.54.54,0,0,1-.34.79l-3.07,1.24a.29.29,0,0,0-.2.42l5.43,13.48A.54.54,0,0,1,457.3,39Z"/><path class="cls-1" d="M466.86,15.82l2.32-.76c.4-.13.67,0,.79.35l4.16,12.68A4.67,4.67,0,0,1,474,31.8a4.82,4.82,0,0,1-3,2.27l-3,1a4.8,4.8,0,0,1-3.74-.06A4.66,4.66,0,0,1,462,32.07l-4.15-12.65a.53.53,0,0,1,.39-.77l2.34-.77a.54.54,0,0,1,.77.39l4.09,12.48a1.88,1.88,0,0,0,.79,1.14,1.85,1.85,0,0,0,1.35,0l1.9-.63a1.81,1.81,0,0,0,1.13-.78,1.83,1.83,0,0,0,0-1.38l-4.09-12.48A.53.53,0,0,1,466.86,15.82Z"/><path class="cls-1" d="M477.18,27.18l-.15-.56a.54.54,0,0,1,.45-.74l2.39-.6a.54.54,0,0,1,.74.44l.06.23a2.06,2.06,0,0,0,.78,1.36,2.39,2.39,0,0,0,1.65,0l1.32-.33a2.27,2.27,0,0,0,1.43-.8,2.23,2.23,0,0,0,0-1.69l-.08-.34a1.45,1.45,0,0,0-1-1.08,3.55,3.55,0,0,0-1.77-.11,20,20,0,0,1-2.21.21,14.12,14.12,0,0,1-2.28-.09,3.46,3.46,0,0,1-2-1.08,5.75,5.75,0,0,1-1.37-2.69l-.25-1a4.71,4.71,0,0,1,.39-3.71,4.8,4.8,0,0,1,3.13-2.07l2.82-.71a4.88,4.88,0,0,1,3.76.35,4.68,4.68,0,0,1,2.09,3.1l.13.53a.54.54,0,0,1-.44.74l-2.39.6a.54.54,0,0,1-.74-.45l0-.17a2.09,2.09,0,0,0-.8-1.38,2.34,2.34,0,0,0-1.64,0l-1.1.28a2.2,2.2,0,0,0-1.46.82,2.73,2.73,0,0,0,0,1.81l.14.53c.22.88,1.11,1.2,2.68.94a14.87,14.87,0,0,1,4.49-.1,3.72,3.72,0,0,1,2,1.09,5.41,5.41,0,0,1,1.36,2.61l.24,1a4.71,4.71,0,0,1-.39,3.71,4.84,4.84,0,0,1-3.13,2.07l-3.07.77a4.84,4.84,0,0,1-3.74-.36A4.67,4.67,0,0,1,477.18,27.18Z"/><path class="cls-1" d="M498.58,22.3l-.08-.57A.54.54,0,0,1,499,21l2.44-.35a.54.54,0,0,1,.69.51l0,.23a2,2,0,0,0,.65,1.43,2.33,2.33,0,0,0,1.63.17l1.35-.2a2.24,2.24,0,0,0,1.5-.66,2.2,2.2,0,0,0,.21-1.67l0-.34a1.45,1.45,0,0,0-.86-1.18,3.61,3.61,0,0,0-1.76-.29,18.19,18.19,0,0,1-2.21,0,14.32,14.32,0,0,1-2.26-.31,3.43,3.43,0,0,1-1.9-1.28,5.77,5.77,0,0,1-1.11-2.81l-.14-1A4.69,4.69,0,0,1,498,9.6a4.87,4.87,0,0,1,3.32-1.74l2.87-.42a4.85,4.85,0,0,1,3.71.71,4.67,4.67,0,0,1,1.77,3.29l.08.54a.54.54,0,0,1-.51.7l-2.44.35a.54.54,0,0,1-.69-.51l0-.17a2.08,2.08,0,0,0-.65-1.46,2.36,2.36,0,0,0-1.64-.17l-1.12.16a2.23,2.23,0,0,0-1.52.68,2.65,2.65,0,0,0-.17,1.8l.08.54c.14.9,1,1.31,2.59,1.21a14.57,14.57,0,0,1,4.47.34A3.76,3.76,0,0,1,510,16.74a5.49,5.49,0,0,1,1.09,2.73l.14,1a4.69,4.69,0,0,1-.75,3.66,4.84,4.84,0,0,1-3.32,1.75l-3.13.46a4.82,4.82,0,0,1-3.68-.72A4.68,4.68,0,0,1,498.58,22.3Z"/><path class="cls-1" d="M523,5.52l2.43-.18c.42,0,.65.14.68.53l1,13.31a4.67,4.67,0,0,1-1,3.58,4.83,4.83,0,0,1-3.42,1.49l-3.19.24a4.87,4.87,0,0,1-3.62-1,4.64,4.64,0,0,1-1.5-3.4l-1-13.28a.54.54,0,0,1,.56-.66L516.41,6a.54.54,0,0,1,.65.56l1,13.11a1.86,1.86,0,0,0,.49,1.29,1.81,1.81,0,0,0,1.32.29l2-.15a1.8,1.8,0,0,0,1.29-.49,1.81,1.81,0,0,0,.29-1.34l-1-13.11A.54.54,0,0,1,523,5.52Z"/><path class="cls-1" d="M541,23.68l-9.49.16a.54.54,0,0,1-.61-.6L530.57,5.8a.54.54,0,0,1,.6-.61L540.66,5a.54.54,0,0,1,.59.6l0,2c0,.41-.18.62-.57.62l-6.06.1c-.24,0-.35.11-.35.33l.07,3.77c0,.21.12.31.35.31l5-.08a.54.54,0,0,1,.62.6l0,2a.54.54,0,0,1-.6.62l-5,.08c-.23,0-.35.11-.34.33l.06,4c0,.21.12.31.36.31l6.06-.1c.38,0,.58.2.59.6l0,2C541.54,23.47,541.35,23.68,541,23.68Z"/><path class="cls-1" d="M547.41,24,545,23.8a.54.54,0,0,1-.57-.64l1.06-17.4a.54.54,0,0,1,.65-.57l2.17.13a.81.81,0,0,1,.79.45l5.18,11.33h.11l.66-10.77a.53.53,0,0,1,.65-.57l2.4.14a.55.55,0,0,1,.57.65L557.61,24a.54.54,0,0,1-.65.57l-2.11-.13a1,1,0,0,1-.89-.63l-5.14-11.13h-.11l-.66,10.74A.54.54,0,0,1,547.41,24Zm3.44-20.19c-1.37-.09-2-.86-1.92-2.33L549,.3q0-.31.3-.3l1.13.07a.42.42,0,0,1,.26.07.39.39,0,0,1,0,.27l0,.35a2.68,2.68,0,0,0,0,.84.31.31,0,0,0,.3.22c.16,0,.5-.28,1-.86a2.09,2.09,0,0,1,1.8-.82c1.39.08,2,.87,2,2.35l-.07,1.07c0,.25-.13.37-.34.36l-1.13-.07c-.21,0-.31-.14-.29-.39V3.17a2.52,2.52,0,0,0,0-.85.33.33,0,0,0-.32-.22c-.17,0-.48.23-.93.73A2.2,2.2,0,0,1,550.85,3.76Z"/><path class="cls-1" d="M568.61,26l-3.22-.43a4.91,4.91,0,0,1-3.34-1.68,4.69,4.69,0,0,1-.76-3.65l1.23-9.11a4.67,4.67,0,0,1,1.7-3.31A4.87,4.87,0,0,1,567.9,7l3.22.44a4.91,4.91,0,0,1,3.34,1.68,4.7,4.7,0,0,1,.76,3.65L574,21.91a4.62,4.62,0,0,1-1.71,3.31A4.79,4.79,0,0,1,568.61,26Zm-2.21-3.52,2,.28a1.87,1.87,0,0,0,1.36-.21,1.81,1.81,0,0,0,.56-1.25l1.19-8.77a1.85,1.85,0,0,0-.21-1.36,1.78,1.78,0,0,0-1.26-.57l-2-.28a1.74,1.74,0,0,0-1.34.22,1.81,1.81,0,0,0-.55,1.26L565,20.51a1.85,1.85,0,0,0,.2,1.36A1.74,1.74,0,0,0,566.4,22.43Z"/><path class="cls-1" d="M577,22.39l.12-.57a.54.54,0,0,1,.72-.47l2.41.51a.54.54,0,0,1,.48.72l-.05.22a2,2,0,0,0,.12,1.57,2.36,2.36,0,0,0,1.47.72l1.34.28a2.26,2.26,0,0,0,1.64-.1,2.24,2.24,0,0,0,.77-1.5l.07-.34a1.46,1.46,0,0,0-.4-1.4,3.63,3.63,0,0,0-1.56-.88,17.29,17.29,0,0,1-2.07-.77,14.08,14.08,0,0,1-2-1.07,3.46,3.46,0,0,1-1.35-1.85,5.76,5.76,0,0,1-.07-3l.21-1a4.65,4.65,0,0,1,2-3.17,4.84,4.84,0,0,1,3.72-.5l2.84.59a4.86,4.86,0,0,1,3.23,2,4.7,4.7,0,0,1,.54,3.7l-.12.54a.54.54,0,0,1-.72.47l-2.41-.5a.54.54,0,0,1-.47-.73l0-.17A2,2,0,0,0,587.3,14a2.35,2.35,0,0,0-1.48-.72l-1.11-.23a2.12,2.12,0,0,0-1.66.11,2.57,2.57,0,0,0-.77,1.63l-.12.54c-.18.89.49,1.56,2,2a14.84,14.84,0,0,1,4.09,1.86,3.69,3.69,0,0,1,1.34,1.86,5.52,5.52,0,0,1,.09,2.94l-.21,1a4.66,4.66,0,0,1-2,3.17,4.85,4.85,0,0,1-3.72.5L580.7,28a4.88,4.88,0,0,1-3.21-1.94A4.7,4.7,0,0,1,577,22.39Z"/><path class="cls-1" d="M607.1,35.05l-9.05-2.82a.53.53,0,0,1-.4-.76l5.17-16.65a.55.55,0,0,1,.77-.4l9,2.82A.52.52,0,0,1,613,18l-.59,1.88c-.12.39-.36.53-.73.41l-5.79-1.8a.3.3,0,0,0-.43.2l-1.12,3.61c-.06.2,0,.33.24.4l4.73,1.48a.54.54,0,0,1,.41.76l-.59,1.88a.53.53,0,0,1-.76.4l-4.74-1.47a.3.3,0,0,0-.43.2L602,29.79c-.07.21,0,.34.23.41l5.79,1.8a.53.53,0,0,1,.38.75l-.59,1.89A.53.53,0,0,1,607.1,35.05Z"/><path class="cls-1" d="M613.21,37.24,611,36.36a.54.54,0,0,1-.34-.79L617,19.33a.53.53,0,0,1,.78-.35l2,.79a.82.82,0,0,1,.61.67l1.47,12.38.11,0,3.92-10.06a.54.54,0,0,1,.78-.35l2.25.88a.54.54,0,0,1,.35.79l-6.33,16.24a.54.54,0,0,1-.79.35l-2-.77a1,1,0,0,1-.66-.88L618,26.9l-.11,0-3.9,10A.54.54,0,0,1,613.21,37.24Z"/><path class="cls-1" d="M640.45,49.5,632,45.2a.54.54,0,0,1-.27-.82l7.89-15.54a.54.54,0,0,1,.82-.27l8.46,4.29a.54.54,0,0,1,.24.81l-.89,1.76a.53.53,0,0,1-.79.28L642,33a.3.3,0,0,0-.46.13l-1.7,3.36a.3.3,0,0,0,.16.45l4.43,2.24a.53.53,0,0,1,.26.82l-.89,1.76A.54.54,0,0,1,643,42l-4.42-2.25a.3.3,0,0,0-.46.13l-1.82,3.59c-.1.19,0,.34.17.45l5.4,2.74a.52.52,0,0,1,.24.81l-.89,1.75A.53.53,0,0,1,640.45,49.5Z"/><path class="cls-1" d="M652.29,56.32l-8.23-4.82a.53.53,0,0,1-.22-.83l8.81-15.05a.54.54,0,0,1,.84-.21l2.12,1.24a.54.54,0,0,1,.22.84L648.5,50c-.11.18-.06.33.14.45l5.28,3.1q.5.29.18.84l-1,1.7A.53.53,0,0,1,652.29,56.32Z"/><path class="cls-1" d="M662.08,57l.34-.48a.54.54,0,0,1,.85-.13l2,1.43a.55.55,0,0,1,.14.86l-.13.18a2,2,0,0,0-.53,1.48,2.36,2.36,0,0,0,1.06,1.26l1.1.8a2.28,2.28,0,0,0,1.54.57,2.2,2.2,0,0,0,1.31-1.06l.21-.28a1.47,1.47,0,0,0,.2-1.45,3.58,3.58,0,0,0-1.07-1.42,20.67,20.67,0,0,1-1.58-1.55,14.24,14.24,0,0,1-1.41-1.8,3.4,3.4,0,0,1-.48-2.24,5.79,5.79,0,0,1,1.17-2.79l.59-.82a4.68,4.68,0,0,1,3.08-2.11,4.83,4.83,0,0,1,3.61,1.06l2.35,1.69a4.9,4.9,0,0,1,2.17,3.09,4.68,4.68,0,0,1-1,3.6l-.32.45a.54.54,0,0,1-.85.14l-2-1.44a.53.53,0,0,1-.14-.85l.1-.15a2.06,2.06,0,0,0,.54-1.5,2.36,2.36,0,0,0-1.06-1.26l-.92-.66a2.18,2.18,0,0,0-1.57-.57A2.64,2.64,0,0,0,670,52.21l-.32.44c-.53.74-.19,1.63,1,2.66a14.88,14.88,0,0,1,3,3.36,3.75,3.75,0,0,1,.47,2.25A5.44,5.44,0,0,1,673,63.64l-.57.8a4.68,4.68,0,0,1-3.09,2.11,4.82,4.82,0,0,1-3.6-1.06l-2.57-1.84a4.84,4.84,0,0,1-2.14-3.08A4.65,4.65,0,0,1,662.08,57Z"/><path class="cls-1" d="M678,75.09,675.51,73a4.85,4.85,0,0,1-1.94-3.2,4.68,4.68,0,0,1,1.28-3.5l5.88-7.07a4.71,4.71,0,0,1,3.21-1.9,4.86,4.86,0,0,1,3.5,1.33l2.49,2.08a4.82,4.82,0,0,1,2,3.2,4.67,4.67,0,0,1-1.29,3.49l-5.88,7.07a4.67,4.67,0,0,1-3.2,1.9A4.85,4.85,0,0,1,678,75.09Zm0-4.16,1.59,1.32a1.83,1.83,0,0,0,1.26.55A1.86,1.86,0,0,0,682,72l5.66-6.8a1.88,1.88,0,0,0,.54-1.27,1.82,1.82,0,0,0-.76-1.14l-1.59-1.32a1.77,1.77,0,0,0-1.25-.53,1.91,1.91,0,0,0-1.14.77l-5.65,6.8a1.86,1.86,0,0,0-.56,1.26A1.78,1.78,0,0,0,678,70.93Z"/><path class="cls-1" d="M691.37,87.27l-6.93-6.57a.54.54,0,0,1,0-.86l12-12.65a.53.53,0,0,1,.86,0l1.79,1.69a.54.54,0,0,1,0,.86l-10,10.53a.3.3,0,0,0,0,.47l4.44,4.21a.54.54,0,0,1,0,.86l-1.36,1.44A.52.52,0,0,1,691.37,87.27Z"/><path class="cls-1" d="M694.51,90.51l-1.89-2c-.24-.25-.17-.48.21-.67l15.91-8.48a.82.82,0,0,1,1,.22l2.63,2.83a.79.79,0,0,1,.14,1.06l-9.68,15.2c-.22.37-.44.42-.68.16l-1.89-2a.56.56,0,0,1-.2-.41,1,1,0,0,1,.23-.45l1.79-2.77L698.27,89l-2.9,1.58a.8.8,0,0,1-.48.18A.53.53,0,0,1,694.51,90.51Zm14-7.2-7.57,4.17,2.92,3.15,4.73-7.23Z"/><path class="cls-1" d="M705.78,103.2l-1.54-1.93a.54.54,0,0,1,.1-.86l13.6-10.9a.54.54,0,0,1,.86.1L723.11,95a4.79,4.79,0,0,1,1.24,3.54,4.65,4.65,0,0,1-1.94,3.19l-1.76,1.41q-2.56,2.06-5,.71l-.1.07-3.1,6.47c-.26.43-.54.44-.86,0l-1.46-1.83a1.8,1.8,0,0,1-.38-.66.88.88,0,0,1,.14-.61l3.08-6.18-1.21-1.52a.3.3,0,0,0-.47-.07l-4.64,3.72A.55.55,0,0,1,705.78,103.2ZM714,97.77l1.77,2.22a2,2,0,0,0,1.16.82,1.64,1.64,0,0,0,1.26-.45L720,98.94a1.68,1.68,0,0,0,.75-1.15,2,2,0,0,0-.53-1.32l-1.78-2.22a.29.29,0,0,0-.45,0l-3.89,3.12A.28.28,0,0,0,714,97.77Z"/><path class="cls-1" d="M5.47,259.68l-3,.27h-.8a1.2,1.2,0,0,1-.77-.27,1.82,1.82,0,0,1-.17-1c0-.09.09-1.41.27-4s.27-5.06.27-7.51a90.41,90.41,0,0,0-1-13c-.18-1.07-.27-1.7-.27-1.87A4.63,4.63,0,0,1,.2,231a2.34,2.34,0,0,1,.53-1l1.87-2.34a3.74,3.74,0,0,1,.8-.5,2,2,0,0,1,.74-.16c.84,0,1.41,1.19,1.7,3.57A25.86,25.86,0,0,0,7.41,237a18,18,0,0,0,8.64,9.11,31.69,31.69,0,0,0,15,3.3q8.26,0,13.18-3.87a12.37,12.37,0,0,0,4.91-10.21q0-10.48-19.76-15.69l-5.68-1.53q-11.75-3.27-17-8.61t-5.2-14q0-11.55,9.57-19.72t23.53-8.18q2.94,0,7.81.47T55,169.58l2.34-1.41,2.86-.53h.54a1.26,1.26,0,0,1,.67.17.46.46,0,0,1,.26.36,6.71,6.71,0,0,1-.13.94A81.74,81.74,0,0,0,60.61,182a54.41,54.41,0,0,0,.4,6.41c.26,2.27.4,3.51.4,3.74a4.72,4.72,0,0,1-.1,1,1.41,1.41,0,0,1-.3.64l-2.87,2.73a.42.42,0,0,1-.2.1,1.09,1.09,0,0,1-.34,0c-.71,0-1.21-1-1.5-2.87a22.49,22.49,0,0,0-1.23-4.88,15.2,15.2,0,0,0-7.45-8q-5.18-2.56-13.78-2.57-6.81,0-10.78,3a9.6,9.6,0,0,0-4,8.08,10,10,0,0,0,3.74,8.18q3.74,3,15.55,6,17.42,4.53,23.13,9.94T67,228.65Q67,241.93,56.07,251t-27.3,9.07a85,85,0,0,1-8.85-.56q-5.18-.57-11.58-1.64Z"/><path class="cls-1" d="M115.1,260.22a34.46,34.46,0,0,1-27-12.15q-10.71-12.15-10.71-30.64a49.74,49.74,0,0,1,3.4-18.52A48,48,0,0,1,91,183.26a54.72,54.72,0,0,1,16-11.68,40.28,40.28,0,0,1,17.42-4.07,34.45,34.45,0,0,1,26.89,12.21q10.81,12.21,10.82,30.57a48.05,48.05,0,0,1-13.75,34.31,52.52,52.52,0,0,1-15.72,11.65A40.82,40.82,0,0,1,115.1,260.22ZM95.81,212q0,16.89,6.91,27T121,249.14a18.88,18.88,0,0,0,16.62-8.91q5.94-8.91,5.94-24.87,0-16.41-6.84-26.46t-17.92-10.05q-11.08,0-17,8.58T95.81,212Z"/><path class="cls-1" d="M166.45,172.45l1.07-2.47a2,2,0,0,1,.8-.77,2.31,2.31,0,0,1,1.14-.3c.17,0,.71,0,1.6.13a121.59,121.59,0,0,0,14.88.94q3.62,0,9-.54c3.58-.35,6-.53,7.18-.53a2,2,0,0,1,1.16.26.93.93,0,0,1,.37.81,1.44,1.44,0,0,1-.1.43,2.13,2.13,0,0,1-.23.5l-.94,2.07q-.33.66-2.7,1.47a6.15,6.15,0,0,0-3.3,2.2c-.67,1-1.16,3.13-1.47,6.31s-.47,8.06-.47,14.65V237q0,8.41,3.24,10.81T211,250.2q8.68,0,13.12-1.66a15,15,0,0,0,7.24-5.81,17,17,0,0,0,2-4.84q.9-3.16,2.63-3.77l2.21-.74.5-.2a.89.89,0,0,1,.3-.06.78.78,0,0,1,.7.36,2.34,2.34,0,0,1,.23,1.17,14.74,14.74,0,0,1-.27,1.54,143.47,143.47,0,0,0-2.73,22l-1.94,1.4a2.47,2.47,0,0,1-.6.27,2.62,2.62,0,0,1-.73.13c-.09,0-.4-.05-.94-.13q-10.6-1.68-28.43-1.67H185.14q-7.27,0-14.75.6l-1.8.06a2,2,0,0,1-1.13-.23.93.93,0,0,1-.34-.83,1.73,1.73,0,0,1,.07-.47,1.42,1.42,0,0,1,.2-.47l.93-2.07c.22-.44,1.13-.93,2.71-1.47a6.14,6.14,0,0,0,3.3-2.2c.67-1,1.13-3,1.4-5.94s.4-8,.4-15V191.6q0-9.27-.73-12a6.21,6.21,0,0,0-2.54-3.87,12.42,12.42,0,0,0-4.1-1.47c-1.63-.31-2.46-.78-2.51-1.4A.81.81,0,0,1,166.45,172.45Z"/><path class="cls-1" d="M264.28,235.72c0,.13-.13.36-.26.67q-2.2,6.41-2.2,9.88c0,3.56,1.47,5.8,4.43,6.74s4.44,1.51,4.44,1.73a1.24,1.24,0,0,1,0,.27,1.48,1.48,0,0,1-.1.27l-1.07,2.4a1.9,1.9,0,0,1-.83.83,2.37,2.37,0,0,1-1.1.3,9.65,9.65,0,0,1-1.07-.13,81.77,81.77,0,0,0-10.42-.67c-2.8,0-5.85.14-9.14.4s-5.21.4-5.74.4a2.11,2.11,0,0,1-1.17-.26.94.94,0,0,1-.36-.8,1.93,1.93,0,0,1,.06-.4,3,3,0,0,1,.2-.54l1-2.13c.23-.45,1-.87,2.27-1.27a6.65,6.65,0,0,0,2.61-1.27,30.55,30.55,0,0,0,4.37-6.84q2.64-5.12,5.64-12.72L274,186a43.28,43.28,0,0,0,1.77-5.2,14.57,14.57,0,0,0,.44-3.41,5.76,5.76,0,0,0-.27-1.63c-.18-.6-.27-.92-.27-1v-1l.8-1.6c.27-.49,1.39-.84,3.37-1a22.55,22.55,0,0,0,5.91-1.43,25.38,25.38,0,0,0,6.81-4.14,3.69,3.69,0,0,1,1.13-.8,2,2,0,0,1,.7.13,1.38,1.38,0,0,1,.5.27l1.07.93a.77.77,0,0,1,.27.54,16.15,16.15,0,0,1,.07,1.87,32.3,32.3,0,0,0,1.56,8.71,143,143,0,0,0,5,13.51L319.22,230a137.62,137.62,0,0,0,7,14.82,24.92,24.92,0,0,0,5.41,6.81,11.65,11.65,0,0,0,3.71,1.76c1.53.47,2.3.93,2.3,1.37V255a.49.49,0,0,1-.07.23l-1.13,2.54a2,2,0,0,1-.77.73,2.31,2.31,0,0,1-1.17.33c-.13,0-.6,0-1.4-.13a152.56,152.56,0,0,0-17.29-.93q-4,0-9.64.53c-3.76.36-6.2.53-7.31.53a2,2,0,0,1-1.2-.26,1,1,0,0,1-.34-.8,3,3,0,0,1,0-.6,1,1,0,0,1,.1-.34l1.13-2.13a4.14,4.14,0,0,1,1.8-1.07q5.28-2.27,5.28-6.94a17.8,17.8,0,0,0-.6-4.11A42.82,42.82,0,0,0,303.2,237l-5.34-14.22H268.62Zm19.09-50.86q-2.4,6.81-5.24,14.15T272,214.3h22.29Z"/><path class="cls-1" d="M379.47,255.28l-1.2,2.4a2.09,2.09,0,0,1-.9.77,2.88,2.88,0,0,1-1.3.36c-.23,0-.76,0-1.61-.13a141,141,0,0,0-16.15-.93q-2.94,0-8.08.53c-3.42.36-5.85.53-7.27.53a2.07,2.07,0,0,1-1.14-.23,1,1,0,0,1-.33-.83,1.73,1.73,0,0,1,.07-.47,1.42,1.42,0,0,1,.2-.47l1.07-2.07c.22-.44,1.1-.93,2.63-1.47a6.07,6.07,0,0,0,3.24-2.2c.67-1,1.13-2.88,1.4-5.57s.4-7.82.4-15.39V191.6q0-9.27-.73-12a6.21,6.21,0,0,0-2.54-3.87,12.42,12.42,0,0,0-4.1-1.47c-1.63-.31-2.46-.78-2.51-1.4a.81.81,0,0,1,.2-.4l1.07-2.47a2,2,0,0,1,.8-.77,2.31,2.31,0,0,1,1.14-.3c.13,0,.57,0,1.33.13a149.54,149.54,0,0,0,17.09.94q5.81,0,14.88-.74t12.35-.73q10.95,0,17.42,5.2a16.91,16.91,0,0,1,6.48,13.89,19.8,19.8,0,0,1-6.58,15q-6.57,6.18-17.92,7.84Q399.56,212,406,226.18l.33.73,5.27,11.55a19.89,19.89,0,0,0,4.14,6.5,7,7,0,0,0,4.94,2,11,11,0,0,0,4.74-1.3,12.28,12.28,0,0,1,3.27-1.3.92.92,0,0,1,.6.23.63.63,0,0,1,.27.44,3.07,3.07,0,0,1,0,.5,2.11,2.11,0,0,1-.1.3l-1,2.94c-.22.89-1.15,1.84-2.8,2.87-1.07.66-1.93,1.24-2.6,1.73-.45.31-1.09.78-1.94,1.4q-7.33,5.34-10.41,5.34a11.58,11.58,0,0,1-8.38-3.6q-3.63-3.6-7.31-12.15l-7.27-16.82q-4-9.07-7.11-11.91a11.27,11.27,0,0,0-7.91-2.84,16.19,16.19,0,0,0-2.1.2,17.08,17.08,0,0,1-1.77.2v23q0,8.88.8,11.78a6.58,6.58,0,0,0,2.8,4.11,12.93,12.93,0,0,0,4.51,1.5q2.7.44,2.7,1.23a1.58,1.58,0,0,1,0,.34A.47.47,0,0,1,379.47,255.28Zm-10.68-54.53a4,4,0,0,0,2,3.87q2,1.06,7.78,1.07,8.13,0,12-3.44t3.91-10.52q0-6.4-4.14-10t-11.55-3.64c-1.11,0-2.45.07-4,.2s-3.36.34-5.41.6q-.13,3.08-.37,7.78c-.15,3.14-.23,5.06-.23,5.77Z"/><path class="cls-1" d="M464.71,169.58a1.14,1.14,0,0,1,.67-.47,2.89,2.89,0,0,1,1.07-.2c.4,0,1.29.06,2.67.2a160.28,160.28,0,0,0,16.22.87q5.54,0,14.28-.67t11.95-.67q16.89,0,26.43,11.25t9.55,31.2q0,21-13,34.54t-33,13.59a101.27,101.27,0,0,1-11.21-.74q-6.48-.74-8.35-.73-3.6,0-8.94.53c-3.56.36-5.92.53-7.07.53a2,2,0,0,1-1.14-.23,1,1,0,0,1-.33-.83,2.16,2.16,0,0,1,.06-.47,1.67,1.67,0,0,1,.2-.47l.94-2.07q.33-.66,2.7-1.47a6.17,6.17,0,0,0,3.31-2.2,13.6,13.6,0,0,0,1.4-5.57q.39-4,.4-15.39V191.87a63.15,63.15,0,0,0-.7-11.55,7.47,7.47,0,0,0-2.44-4.47,12,12,0,0,0-4.44-1.7c-2.07-.47-3.1-1-3.1-1.44a.92.92,0,0,1,.13-.3c.09-.15.22-.36.4-.63Zm27,67.41q0,8,2.87,10.54t10.68,2.54q11.74,0,17.42-9t5.67-27.63q0-18.88-6-27.2t-19.55-8.31a50.08,50.08,0,0,0-5.24.27,52.42,52.42,0,0,0-5.24.8c-.23,3.42-.38,7-.47,10.78s-.13,7.86-.13,12.31Z"/><path class="cls-1" d="M622.07,259.35a6.82,6.82,0,0,1-.73.43,1.45,1.45,0,0,1-.6.17c-.09,0-.43-.05-1-.13q-10.74-1.68-28.56-1.67H570.54q-7.27,0-14.75.6l-1.8.06a2,2,0,0,1-1.13-.23.93.93,0,0,1-.34-.83,1.73,1.73,0,0,1,.07-.47,1.42,1.42,0,0,1,.2-.47l.93-2.07c.23-.44,1.13-.93,2.71-1.47a6.1,6.1,0,0,0,3.3-2.2c.67-1,1.13-3,1.4-5.94s.4-8,.4-15V191.6q0-9.21-.73-11.91a6.24,6.24,0,0,0-2.54-3.84,12.42,12.42,0,0,0-4.1-1.47c-1.63-.31-2.46-.78-2.51-1.4a.88.88,0,0,1,.2-.53l1.07-2.34a1.68,1.68,0,0,1,.8-.87,2.87,2.87,0,0,1,1.4-.33l1.61.06q7.74.61,15.62.61h37a26.81,26.81,0,0,0,4.61-.3,9.72,9.72,0,0,0,2.8-1l2.13-.54a1.93,1.93,0,0,0,.4-.06,1.66,1.66,0,0,1,.4-.07c.76,0,1.23,1.25,1.41,3.6.09,1.34.17,2.47.26,3.41a100.29,100.29,0,0,0,2.14,12.61,11.44,11.44,0,0,1,.33,1.47,2.63,2.63,0,0,1-.13.77,1.49,1.49,0,0,1-.27.57l-2.07,2.33a3.42,3.42,0,0,1-.63.54.88.88,0,0,1-.43.13c-.72,0-1.37-.94-2-2.84a21.63,21.63,0,0,0-1.77-4.3,13.8,13.8,0,0,0-7.24-6.11q-4.71-1.77-17.73-1.77H580.29c-.18,4.1-.3,7.54-.37,10.35s-.1,4.91-.1,6.34v1.87l.27,4.94c1.91.18,3.66.31,5.24.4s2.9.13,4,.13a62.14,62.14,0,0,0,12.15-.87,14.13,14.13,0,0,0,6.4-2.93l2.47-.67a2.13,2.13,0,0,1,.4-.1l.4,0a.81.81,0,0,1,.67.23,1.57,1.57,0,0,1,.2,1c0,.09,0,.42-.13,1a99.75,99.75,0,0,0-.6,11.14,39.46,39.46,0,0,0,.23,4.18c.16,1.4.24,2.17.24,2.3a5.4,5.4,0,0,1-.3,1.7,5.08,5.08,0,0,1-.71,1.44l-1.86,2.2a4.91,4.91,0,0,1-.47.27,1.19,1.19,0,0,1-.54.13c-.8,0-1.29-1-1.46-2.87a20.73,20.73,0,0,0-.4-3,7.63,7.63,0,0,0-4-5.44q-3-1.44-11.85-1.44c-.85,0-2.13,0-3.84.1s-3.84.17-6.37.3l-.07,26.3q0,8.47,3.24,10.78t14.85,2.3q8.75,0,13.18-1.67a15.28,15.28,0,0,0,7.31-5.8,19.69,19.69,0,0,0,2-4.78c.63-2.07,1.51-3.3,2.67-3.7l2.07-.87a1.48,1.48,0,0,1,.27-.1,3,3,0,0,1,.53,0,.77.77,0,0,1,.7.36,2.22,2.22,0,0,1,.24,1.17,14.74,14.74,0,0,1-.27,1.54,134.08,134.08,0,0,0-2.74,22Z"/><path class="cls-1" d="M634.54,172.45l1.07-2.47a2,2,0,0,1,.8-.77,2.31,2.31,0,0,1,1.14-.3c.17,0,.71,0,1.6.13A121.59,121.59,0,0,0,654,170q3.62,0,9-.54t7.18-.53a2,2,0,0,1,1.16.26.93.93,0,0,1,.37.81,1.44,1.44,0,0,1-.1.43,2.13,2.13,0,0,1-.23.5l-.94,2.07q-.33.66-2.7,1.47a6.15,6.15,0,0,0-3.3,2.2c-.67,1-1.16,3.13-1.47,6.31s-.47,8.06-.47,14.65V237q0,8.41,3.24,10.81t13.31,2.4q8.69,0,13.12-1.66a15,15,0,0,0,7.24-5.81,17,17,0,0,0,2-4.84c.6-2.11,1.47-3.37,2.63-3.77l2.2-.74c.23-.08.39-.15.51-.2a.89.89,0,0,1,.3-.06.78.78,0,0,1,.7.36,2.34,2.34,0,0,1,.23,1.17,14.74,14.74,0,0,1-.27,1.54,143.47,143.47,0,0,0-2.73,22l-1.94,1.4a2.47,2.47,0,0,1-.6.27,2.62,2.62,0,0,1-.73.13c-.09,0-.4-.05-.94-.13q-10.61-1.68-28.43-1.67H653.23q-7.28,0-14.75.6l-1.8.06a2,2,0,0,1-1.14-.23,1,1,0,0,1-.33-.83,1.73,1.73,0,0,1,.07-.47,1.42,1.42,0,0,1,.2-.47l.93-2.07c.22-.44,1.13-.93,2.7-1.47a6.13,6.13,0,0,0,3.31-2.2c.67-1,1.13-3,1.4-5.94s.4-8,.4-15V191.6q0-9.27-.73-12a6.21,6.21,0,0,0-2.54-3.87,12.42,12.42,0,0,0-4.1-1.47c-1.63-.31-2.46-.78-2.51-1.4A.81.81,0,0,1,634.54,172.45Z"/><path class="cls-1" d="M762,235.72a6.53,6.53,0,0,1-.27.67q-2.19,6.41-2.2,9.88c0,3.56,1.48,5.8,4.44,6.74s4.44,1.51,4.44,1.73a1.24,1.24,0,0,1,0,.27c0,.09-.06.18-.1.27l-1.07,2.4a1.87,1.87,0,0,1-.84.83,2.31,2.31,0,0,1-1.1.3,9.93,9.93,0,0,1-1.07-.13,81.5,81.5,0,0,0-10.41-.67c-2.8,0-5.85.14-9.14.4s-5.21.4-5.74.4a2.06,2.06,0,0,1-1.17-.26,1,1,0,0,1-.37-.8,2.1,2.1,0,0,1,.07-.4,2.37,2.37,0,0,1,.2-.54l1-2.13c.22-.45,1-.87,2.27-1.27a6.51,6.51,0,0,0,2.6-1.27,29.84,29.84,0,0,0,4.37-6.84q2.64-5.12,5.65-12.72L771.71,186a43.28,43.28,0,0,0,1.77-5.2,14.54,14.54,0,0,0,.43-3.41,6.1,6.1,0,0,0-.26-1.63c-.18-.6-.27-.92-.27-1v-1l.8-1.6c.27-.49,1.39-.84,3.37-1a22.55,22.55,0,0,0,5.91-1.43,25.38,25.38,0,0,0,6.81-4.14,3.69,3.69,0,0,1,1.13-.8,2,2,0,0,1,.7.13,1.38,1.38,0,0,1,.5.27l1.07.93a.81.81,0,0,1,.27.54,17.11,17.11,0,0,1,.06,1.87,32.38,32.38,0,0,0,1.57,8.71q1.57,5.31,5,13.51L817,230a139.22,139.22,0,0,0,7,14.82,24.92,24.92,0,0,0,5.41,6.81,11.59,11.59,0,0,0,3.7,1.76c1.54.47,2.31.93,2.31,1.37V255a.65.65,0,0,1-.07.23l-1.14,2.54a1.91,1.91,0,0,1-.76.73,2.31,2.31,0,0,1-1.17.33c-.13,0-.6,0-1.4-.13a152.56,152.56,0,0,0-17.29-.93c-2.67,0-5.89.18-9.64.53s-6.2.53-7.31.53a2.1,2.1,0,0,1-1.21-.26,1,1,0,0,1-.33-.8,4.33,4.33,0,0,1,0-.6,1.75,1.75,0,0,1,.1-.34l1.14-2.13c.13-.27.73-.63,1.8-1.07q5.28-2.27,5.27-6.94a17.8,17.8,0,0,0-.6-4.11,41.36,41.36,0,0,0-1.87-5.57l-5.33-14.22H766.37Zm19.09-50.86q-2.4,6.81-5.24,14.15t-6.11,15.29h22.3Z"/><path class="cls-1" d="M838.11,172.45l1.07-2.47a2,2,0,0,1,.8-.77,2.31,2.31,0,0,1,1.14-.3c.17,0,.71,0,1.6.13a121.59,121.59,0,0,0,14.88.94q3.61,0,9-.54t7.18-.53a2,2,0,0,1,1.16.26.93.93,0,0,1,.37.81,1.44,1.44,0,0,1-.1.43,2.13,2.13,0,0,1-.23.5L874,173q-.33.66-2.7,1.47a6.15,6.15,0,0,0-3.3,2.2c-.67,1-1.16,3.13-1.47,6.31s-.47,8.06-.47,14.65V237q0,8.41,3.24,10.81t13.31,2.4q8.68,0,13.12-1.66a15,15,0,0,0,7.24-5.81,17,17,0,0,0,2-4.84c.6-2.11,1.47-3.37,2.63-3.77l2.21-.74.5-.2a.89.89,0,0,1,.3-.06.78.78,0,0,1,.7.36,2.34,2.34,0,0,1,.23,1.17,14.74,14.74,0,0,1-.27,1.54,143.47,143.47,0,0,0-2.73,22l-1.94,1.4a2.47,2.47,0,0,1-.6.27,2.62,2.62,0,0,1-.73.13c-.09,0-.4-.05-.94-.13q-10.6-1.68-28.43-1.67H856.8q-7.27,0-14.75.6l-1.8.06a2.07,2.07,0,0,1-1.14-.23,1,1,0,0,1-.33-.83,1.73,1.73,0,0,1,.07-.47,1.42,1.42,0,0,1,.2-.47l.93-2.07c.22-.44,1.13-.93,2.71-1.47a6.14,6.14,0,0,0,3.3-2.2c.67-1,1.13-3,1.4-5.94s.4-8,.4-15V191.6q0-9.27-.73-12a6.21,6.21,0,0,0-2.54-3.87,12.42,12.42,0,0,0-4.1-1.47c-1.63-.31-2.46-.78-2.51-1.4A.81.81,0,0,1,838.11,172.45Z"/><path class="cls-1" d="M977.45,168.17l2.34-.4h.26a1,1,0,0,1,.87.4,2.33,2.33,0,0,1,.27,1.27,5.78,5.78,0,0,0-.14,1,90.44,90.44,0,0,0-.46,9.21,107.74,107.74,0,0,0,.66,12.95c0,.36.07.56.07.6a4.75,4.75,0,0,1-.17.74,1.1,1.1,0,0,1-.3.53l-2.13,2.14a1.81,1.81,0,0,1-.5.33,1.27,1.27,0,0,1-.5.13q-.74-.06-1.2-2.46c-.23-1.16-.45-2.12-.67-2.88A19.43,19.43,0,0,0,968.74,181q-5-3.63-12.85-3.64-11,0-16.32,8.35t-5.3,25.83q0,16.75,6.47,26.26a20.48,20.48,0,0,0,17.89,9.51,26.41,26.41,0,0,0,9.81-1.9,31,31,0,0,0,9-5.57q1.47-1.28,3.6-3.4,2.67-2.67,3.54-2.67a1.12,1.12,0,0,1,.8.4,1.17,1.17,0,0,1,.4.86v.8l-.8,4.94q-.4,2.15-5.8,5.94l-.07.07Q969,254.21,962.5,257.15a30.34,30.34,0,0,1-12.35,2.93q-15.09,0-24.7-11.91t-9.61-30.6q0-20.9,12.35-35.48t29.17-14.58a49.42,49.42,0,0,1,5.51.4q3.43.39,11.71,1.67Z"/><path class="cls-1" d="M1006.65,235.72c0,.13-.14.36-.27.67q-2.21,6.41-2.2,9.88c0,3.56,1.48,5.8,4.44,6.74s4.43,1.51,4.43,1.73a1.24,1.24,0,0,1,0,.27,1.48,1.48,0,0,1-.1.27l-1.07,2.4a1.85,1.85,0,0,1-.83.83,2.37,2.37,0,0,1-1.1.3,9.65,9.65,0,0,1-1.07-.13,81.73,81.73,0,0,0-10.41-.67c-2.81,0-5.86.14-9.15.4s-5.2.4-5.74.4a2.11,2.11,0,0,1-1.17-.26.94.94,0,0,1-.36-.8,1.93,1.93,0,0,1,.06-.4,3.93,3.93,0,0,1,.2-.54l1-2.13c.23-.45,1-.87,2.27-1.27a6.65,6.65,0,0,0,2.61-1.27,30.55,30.55,0,0,0,4.37-6.84q2.64-5.12,5.64-12.72L1016.32,186a43.28,43.28,0,0,0,1.77-5.2,14.57,14.57,0,0,0,.44-3.41,5.76,5.76,0,0,0-.27-1.63c-.18-.6-.27-.92-.27-1v-1l.8-1.6c.27-.49,1.39-.84,3.37-1a22.55,22.55,0,0,0,5.91-1.43,25.38,25.38,0,0,0,6.81-4.14,3.69,3.69,0,0,1,1.13-.8,2.06,2.06,0,0,1,.71.13,1.48,1.48,0,0,1,.5.27l1.06.93a.73.73,0,0,1,.27.54,16.15,16.15,0,0,1,.07,1.87,32,32,0,0,0,1.57,8.71,139.71,139.71,0,0,0,5,13.51L1061.58,230a137.25,137.25,0,0,0,7,14.82,24.73,24.73,0,0,0,5.4,6.81,11.65,11.65,0,0,0,3.71,1.76c1.53.47,2.3.93,2.3,1.37V255a.49.49,0,0,1-.07.23l-1.13,2.54a1.88,1.88,0,0,1-.77.73,2.31,2.31,0,0,1-1.17.33c-.13,0-.6,0-1.4-.13a152.56,152.56,0,0,0-17.29-.93q-4,0-9.64.53c-3.76.36-6.2.53-7.31.53a2,2,0,0,1-1.2-.26,1,1,0,0,1-.33-.8,4.33,4.33,0,0,1,0-.6,1,1,0,0,1,.1-.34l1.13-2.13a4.13,4.13,0,0,1,1.81-1.07q5.27-2.27,5.27-6.94a17.8,17.8,0,0,0-.6-4.11,42.82,42.82,0,0,0-1.87-5.57l-5.34-14.22H1011Zm19.09-50.86q-2.41,6.81-5.24,14.15t-6.11,15.29h22.29Z"/><path class="cls-1" d="M502.51,107.46c.43.53.88,1,1.34,1.54C503.39,108.5,502.94,108,502.51,107.46Z"/><path class="cls-1" d="M508.31,113.11c-.37-.28-.72-.58-1.08-.87l-1.17-1,1.17,1C507.59,112.53,507.94,112.83,508.31,113.11Z"/><path class="cls-1" d="M472.41,83.08h55.64v-.42c0-.65,0-1.28-.08-1.91h40.19V71.94c0-.24,0-.47,0-.71h0a8.75,8.75,0,0,0-2-4.89h0a8.74,8.74,0,0,0-6.79-3.2h-3.62v3.79a3.89,3.89,0,0,1-3.89,3.89H520.73a26.08,26.08,0,0,1,2.65,7.94H471.09a26.15,26.15,0,0,1,5.34-12.08,26.81,26.81,0,0,1,9.08-7.37A26.54,26.54,0,0,1,505.83,58a25.62,25.62,0,0,1,3.41,1.44l3.43,2.09a26.79,26.79,0,0,1,4.44,4l.06.08,0,0,.18.2,0,0,0,0,0,0c.19.23.39.46.57.7h0c.39.5.77,1,1.13,1.55h32.66a1.3,1.3,0,0,0,1.29-1.3V63.14h-32.4l-.12-.14,0,0-.16-.2a31.65,31.65,0,0,0-5.37-4.84l-3.69-2.25a31.3,31.3,0,0,0-4.12-1.76,30.82,30.82,0,0,0-40.82,28.76v.4h6Z"/><polygon class="cls-1" points="599.91 144.63 608.22 144.63 569.81 121.23 561.5 121.23 599.91 144.63"/><polygon class="cls-1" points="610.6 144.63 618.91 144.63 580.46 121.23 572.14 121.23 610.6 144.63"/><polygon class="cls-1" points="619.28 143.48 619.28 138.5 601.69 127.73 592.22 121.94 591.06 121.23 582.75 121.23 619.28 143.48"/><polygon class="cls-1" points="589.34 144.63 597.65 144.63 559.25 121.23 550.94 121.23 589.34 144.63"/><polygon class="cls-1" points="578.5 144.63 586.81 144.63 548.4 121.23 540.1 121.23 578.5 144.63"/><path class="cls-1" d="M529.49,121.16l.12.07,27.08,16.44,11.46,7h8l-38.41-23.4h-5.93C531.05,121.23,530.27,121.21,529.49,121.16Z"/><path class="cls-1" d="M591.06,121.23h28l-32.18-19.59L569.2,90.9l-1.05-.64-11.79-7.18H493.69c0,.63,0,1.25.05,1.87.06,1.16.16,2.31.32,3.44.12.87.27,1.73.45,2.59a38.86,38.86,0,0,0,1,3.88c.33,1,.7,2,1.11,3a38.09,38.09,0,0,0,2.36,4.69,2.39,2.39,0,0,1,.13.21c.54.9,1.12,1.77,1.73,2.62.38.53.78,1,1.18,1.54l.45.55c.43.53.88,1,1.34,1.54.7.77,1.44,1.5,2.21,2.21l1.17,1c.36.29.71.59,1.08.87a38.29,38.29,0,0,0,4.68,3.15c.82.46,1.66.9,2.51,1.31s1.73.78,2.62,1.12,1.8.66,2.72.93a37.6,37.6,0,0,0,8.65,1.54c.78,0,1.56.07,2.36.07h59.21ZM510.9,93.71l-5.63-3.49H515Zm42.8-3.49-4.09,3.49L544,90.22Zm-9.53,6.23-4.09,3.5-5.62-3.5Zm-10.31-6.23-4.09,3.49-5.62-3.49ZM521.21,100l-5.63-3.5h9.72Zm9.95,6.88-5.62-3.49h9.71Zm10,6.88-5.62-3.49h9.71Zm8.86-6.88-5.63-3.49h9.71Zm14-10.38-4.09,3.5-5.62-3.5Zm-4,17.26-5.63-3.49h9.71Zm9.82-6.88-5.63-3.49H574Zm10,6.88-5.63-3.49H584Z"/><rect class="cls-1" x="493.69" y="83.08" width="34.36"/><path class="cls-1" d="M505.27,67.69l-4.55-4.55H489.55v7.68h31.18a26.06,26.06,0,0,0-1.55-2.59H505.81Zm-9.08,1.68a2.26,2.26,0,1,1,2.26-2.26A2.26,2.26,0,0,1,496.19,69.37Z"/><rect class="cls-1" x="472.41" y="83.08" width="3.8"/><rect class="cls-1" x="466.42" y="83.08" width="0.65"/><rect class="cls-1" x="481.54" y="83.08" width="3.8"/><path class="cls-1" d="M479.65,121.23a60.21,60.21,0,0,0,6,6.51L508,141.36a60,60,0,0,0,6.43,1.83q1.41.31,2.85.57l-38.1-23.2C479.31,120.78,479.47,121,479.65,121.23Z"/><path class="cls-1" d="M476.27,116.5l45.88,27.93c.87.09,1.75.15,2.63.2h3l-54.45-33.16C474.24,113.2,475.22,114.88,476.27,116.5Z"/><path class="cls-1" d="M471.75,108.19l59.82,36.42c1.56-.09,3.1-.23,4.63-.43L470,103.88Q470.8,106.07,471.75,108.19Z"/><path class="cls-1" d="M469.07,101l70.14,42.71c1.33-.24,2.65-.53,3.94-.85L468,97.11C468.34,98.42,468.68,99.71,469.07,101Z"/><path class="cls-1" d="M467.47,94.45l78.3,47.68c1.16-.35,2.32-.73,3.45-1.15l-82.3-50.12C467.07,92.07,467.25,93.27,467.47,94.45Z"/><path class="cls-1" d="M518.12,118.69c-.89-.34-1.76-.72-2.62-1.12s-1.69-.85-2.51-1.31a38.29,38.29,0,0,1-4.68-3.15c-.37-.28-.72-.58-1.08-.87l-1.17-1c-.77-.71-1.51-1.44-2.21-2.21-.46-.5-.91-1-1.34-1.54l-.45-.55c-.11-.14-.23-.27-.34-.42L466.46,85c0,1.13.1,2.25.19,3.36l84.89,51.69c1-.43,2.07-.89,3.08-1.38l-29.74-18.1a39,39,0,0,1-4-1C519.92,119.35,519,119,518.12,118.69Z"/><path class="cls-1" d="M472.41,83.08h-5.34L499,102.54a38.09,38.09,0,0,1-2.36-4.69Z"/><rect class="cls-1" x="467.07" y="83.08" width="5.34"/><path class="cls-1" d="M476.21,83.08l19.34,11.78a38.86,38.86,0,0,1-1-3.88l-13-7.9Z"/><rect class="cls-1" x="476.21" y="83.08" width="5.34" transform="translate(282.13 527.51) rotate(-75.96)"/><path class="cls-1" d="M485.34,83.08l8.72,5.31c-.16-1.13-.26-2.28-.32-3.44l-3.06-1.87Z"/><rect class="cls-1" x="485.34" y="83.08" width="5.34"/><circle class="cls-1" cx="449.63" cy="318.72" r="3.01"/><circle class="cls-1" cx="575.74" cy="318.72" r="3.01"/><path class="cls-1" d="M477.53,328.85H466.3a.63.63,0,0,1-.72-.71V307.62a.64.64,0,0,1,.72-.72h2.9a.64.64,0,0,1,.72.72v17.07c0,.25.13.37.41.37h7.2c.45,0,.68.25.68.76v2.32C478.21,328.62,478,328.85,477.53,328.85Z"/><path class="cls-1" d="M483.19,328.85h-3.27c-.41,0-.55-.23-.41-.71l5.39-20.52a1,1,0,0,1,1-.72h4.54a.92.92,0,0,1,1,.72l5.39,20.52c.14.48,0,.71-.41.71H493.2a.72.72,0,0,1-.52-.15,1.22,1.22,0,0,1-.2-.56l-1-3.76h-6.65l-1,3.76a1,1,0,0,1-.22.56A.7.7,0,0,1,483.19,328.85Zm5-17.82-2.46,9.87h5.05L488.28,311Z"/><path class="cls-1" d="M511.05,328.85h-2.9a.63.63,0,0,1-.72-.71V307.62a.64.64,0,0,1,.72-.72h8.32a5.63,5.63,0,0,1,4.14,1.46,5.53,5.53,0,0,1,1.46,4.11v3.27a5.57,5.57,0,0,1-1.46,4.12,5.63,5.63,0,0,1-4.14,1.45h-4.3c-.27,0-.4.12-.4.37v6.46A.63.63,0,0,1,511.05,328.85Zm1.09-11.33h3.62a2.09,2.09,0,0,0,1.54-.46,2.17,2.17,0,0,0,.44-1.52v-2.87a2.24,2.24,0,0,0-.44-1.55,2.09,2.09,0,0,0-1.54-.46h-3.62a.32.32,0,0,0-.37.37v6.11A.33.33,0,0,0,512.14,317.52Z"/><path class="cls-1" d="M527.81,328.85h-3.28c-.41,0-.54-.23-.41-.71l5.4-20.52a1,1,0,0,1,1-.72h4.54a.91.91,0,0,1,1,.72l5.4,20.52c.13.48,0,.71-.41.71h-3.28a.67.67,0,0,1-.51-.15,1.21,1.21,0,0,1-.21-.56l-1-3.76h-6.66l-1,3.76a1,1,0,0,1-.23.56A.67.67,0,0,1,527.81,328.85Zm5-17.82-2.46,9.87h5.05L532.89,311Z"/><path class="cls-1" d="M544,328.14v-2.05a2.58,2.58,0,0,1,.45-1.67l9.05-13.35v-.14h-8.16a.63.63,0,0,1-.72-.71v-2.6a.64.64,0,0,1,.72-.72H557.4q.69,0,.69.72v2.94a3.07,3.07,0,0,1-.51,1.77l-8.5,12.36v.14h8.67c.45,0,.68.21.68.64v2.6c0,.52-.23.78-.68.78H544.67A.63.63,0,0,1,544,328.14Z"/><path class="cls-1" d="M592.36,328.14V307.62a.63.63,0,0,1,.71-.72h8.2a5.7,5.7,0,0,1,4.16,1.44,5.45,5.45,0,0,1,1.47,4.09v1.4a3.58,3.58,0,0,1-2.7,3.76,3.61,3.61,0,0,1,2.19,1.11,3.73,3.73,0,0,1,.82,2.58v2a5.47,5.47,0,0,1-1.47,4.1,5.65,5.65,0,0,1-4.13,1.43h-8.54A.63.63,0,0,1,592.36,328.14Zm4.71-12.33h3.48a2.32,2.32,0,0,0,1.6-.46,1.91,1.91,0,0,0,.52-1.52V312.5a2,2,0,0,0-.5-1.52,2.32,2.32,0,0,0-1.59-.46h-3.51a.34.34,0,0,0-.38.38v4.54A.33.33,0,0,0,597.07,315.81Zm0,9.42h3.82a2.32,2.32,0,0,0,1.62-.46,2,2,0,0,0,.5-1.51v-2a1.92,1.92,0,0,0-.51-1.51,2.6,2.6,0,0,0-1.68-.44h-3.75a.34.34,0,0,0-.38.38v5.15A.33.33,0,0,0,597.07,325.23Z"/><path class="cls-1" d="M613.59,328.85h-3.28c-.41,0-.55-.23-.41-.71l5.39-20.52a1,1,0,0,1,1-.72h4.54a.91.91,0,0,1,1,.72l5.4,20.52c.13.48,0,.71-.41.71h-3.28a.67.67,0,0,1-.51-.15,1.21,1.21,0,0,1-.21-.56l-1-3.76h-6.66l-1,3.76a1,1,0,0,1-.23.56A.67.67,0,0,1,613.59,328.85ZM618.54,311l-2.46,9.87h5L618.67,311Z"/><path class="cls-1" d="M640.25,306.9h2.87a.62.62,0,0,1,.71.69v15.7a5.51,5.51,0,0,1-1.47,4.11,5.59,5.59,0,0,1-4.13,1.45h-3.41a5.67,5.67,0,0,1-4.16-1.43,5.51,5.51,0,0,1-1.47-4.13v-3.21a.64.64,0,0,1,.72-.72h2.9a.63.63,0,0,1,.71.72v3a2.2,2.2,0,0,0,.46,1.56,2.14,2.14,0,0,0,1.52.46h2a2.09,2.09,0,0,0,1.53-.46,2.2,2.2,0,0,0,.45-1.56V307.62Q639.5,306.9,640.25,306.9Z"/><path class="cls-1" d="M650.39,328.85h-3.28c-.41,0-.55-.23-.41-.71l5.39-20.52a1,1,0,0,1,1-.72h4.54a.91.91,0,0,1,1,.72l5.39,20.52c.14.48,0,.71-.4.71h-3.28a.67.67,0,0,1-.51-.15,1.21,1.21,0,0,1-.21-.56l-.95-3.76h-6.66l-1,3.76a1,1,0,0,1-.22.56A.68.68,0,0,1,650.39,328.85Zm5-17.82-2.46,9.87h5L655.47,311Z"/><path class="cls-1" d="M674.08,323.26v-.69a.62.62,0,0,1,.71-.71h2.9a.63.63,0,0,1,.72.71v.28a2.4,2.4,0,0,0,.51,1.77,2.78,2.78,0,0,0,1.88.48h1.6a2.7,2.7,0,0,0,1.87-.51,2.66,2.66,0,0,0,.52-1.91v-.42a1.69,1.69,0,0,0-.8-1.51,4.15,4.15,0,0,0-2-.64,18.93,18.93,0,0,1-2.57-.39,16.2,16.2,0,0,1-2.58-.75,4.07,4.07,0,0,1-2-1.81,6.74,6.74,0,0,1-.8-3.46v-1.2a5.52,5.52,0,0,1,1.5-4.13,5.72,5.72,0,0,1,4.17-1.47h3.41a5.75,5.75,0,0,1,4.2,1.47,5.52,5.52,0,0,1,1.5,4.13v.65a.63.63,0,0,1-.71.72H685.2a.63.63,0,0,1-.71-.72V313a2.46,2.46,0,0,0-.51-1.81,2.8,2.8,0,0,0-1.88-.48h-1.33a2.6,2.6,0,0,0-1.9.53,3.11,3.11,0,0,0-.49,2.06v.65c0,1.07.93,1.69,2.8,1.84a17.16,17.16,0,0,1,5.15,1.17,4.4,4.4,0,0,1,2,1.82,6.43,6.43,0,0,1,.8,3.36v1.17a5.52,5.52,0,0,1-1.5,4.13,5.74,5.74,0,0,1-4.17,1.46h-3.72a5.73,5.73,0,0,1-4.16-1.46A5.52,5.52,0,0,1,674.08,323.26Z"/><path class="cls-1" d="M704.25,306.9h2.87q.75,0,.75.69v15.7a5.48,5.48,0,0,1-1.49,4.11,5.66,5.66,0,0,1-4.14,1.45h-3.76a5.68,5.68,0,0,1-4.16-1.43,5.51,5.51,0,0,1-1.47-4.13V307.62a.64.64,0,0,1,.72-.72h2.9a.63.63,0,0,1,.71.72v15.46a2.15,2.15,0,0,0,.47,1.56,2.1,2.1,0,0,0,1.51.46h2.36a1.7,1.7,0,0,0,2-2V307.62A.64.64,0,0,1,704.25,306.9Z"/><path class="cls-1" d="M715.75,328.85h-2.9a.63.63,0,0,1-.71-.71V307.62a.63.63,0,0,1,.71-.72H721a5.69,5.69,0,0,1,4.16,1.47,5.52,5.52,0,0,1,1.5,4.13v2.67c0,2.57-1,4.27-3,5.12v.13l3.65,7.61c.2.55,0,.82-.58.82h-2.77a2.1,2.1,0,0,1-.88-.13,1,1,0,0,1-.45-.58l-3.41-7.38h-2.29c-.27,0-.41.13-.41.38v7A.63.63,0,0,1,715.75,328.85Zm1.1-11.57h3.34a2.35,2.35,0,0,0,1.61-.46,1.91,1.91,0,0,0,.51-1.48v-2.67a2,2,0,0,0-.51-1.53,2.3,2.3,0,0,0-1.61-.48h-3.34a.33.33,0,0,0-.38.37v5.88A.33.33,0,0,0,716.85,317.28Z"/><path class="cls-1" d="M364.62,328.86H353.38a.64.64,0,0,1-.72-.72V307.62a.64.64,0,0,1,.72-.72h2.9a.64.64,0,0,1,.72.72v17.07c0,.25.14.38.41.38h7.21c.45,0,.68.25.68.75v2.32C365.3,328.62,365.07,328.86,364.62,328.86Z"/><path class="cls-1" d="M377.11,328.86h-3.82a5.71,5.71,0,0,1-4.17-1.44,5.5,5.5,0,0,1-1.47-4.13V312.47a5.54,5.54,0,0,1,1.47-4.14,5.75,5.75,0,0,1,4.17-1.43h3.82a5.75,5.75,0,0,1,4.17,1.43,5.54,5.54,0,0,1,1.47,4.14v10.82a5.5,5.5,0,0,1-1.47,4.13A5.71,5.71,0,0,1,377.11,328.86ZM374,325.1h2.43a1.7,1.7,0,0,0,2-2V312.67a1.7,1.7,0,0,0-2-2H374a2,2,0,0,0-1.53.46,2.16,2.16,0,0,0-.45,1.55v10.42a2.17,2.17,0,0,0,.45,1.55A2,2,0,0,0,374,325.1Z"/><path class="cls-1" d="M393.64,328.86h-2.87q-.75,0-.75-.72V311a.32.32,0,0,0-.37-.37h-3.9a.63.63,0,0,1-.71-.72v-2.32a.63.63,0,0,1,.71-.72h12.91a.64.64,0,0,1,.72.72v2.32a.64.64,0,0,1-.72.72h-3.89c-.27,0-.41.12-.41.37v17.11A.64.64,0,0,1,393.64,328.86Z"/><path class="cls-1" d="M413.86,328.86H402.69a.63.63,0,0,1-.71-.72V307.62a.63.63,0,0,1,.71-.72h11.17c.46,0,.68.24.68.72v2.32c0,.48-.22.72-.68.72h-7.14c-.27,0-.41.12-.41.37v4.44c0,.25.14.38.41.38h5.84a.63.63,0,0,1,.72.71v2.33a.63.63,0,0,1-.72.71h-5.84c-.27,0-.41.13-.41.38v4.75c0,.25.14.37.41.37h7.14c.46,0,.68.24.68.72v2.32C414.54,328.62,414.32,328.86,413.86,328.86Z"/><path class="cls-1" d="M417.79,323.26v-.69a.63.63,0,0,1,.71-.71h2.91a.63.63,0,0,1,.71.71v.28a2.35,2.35,0,0,0,.52,1.77,2.75,2.75,0,0,0,1.87.48h1.61a2,2,0,0,0,2.39-2.42v-.41a1.72,1.72,0,0,0-.8-1.52,4.08,4.08,0,0,0-2-.63,20.63,20.63,0,0,1-2.58-.4,16.2,16.2,0,0,1-2.58-.75,4,4,0,0,1-2-1.81,6.65,6.65,0,0,1-.81-3.47V312.5a5.48,5.48,0,0,1,1.51-4.13,5.69,5.69,0,0,1,4.16-1.47h3.42a5.75,5.75,0,0,1,4.2,1.47,5.51,5.51,0,0,1,1.5,4.13v.65a.64.64,0,0,1-.72.72h-2.9a.64.64,0,0,1-.72-.72v-.21a2.48,2.48,0,0,0-.51-1.81,2.84,2.84,0,0,0-1.88-.47h-1.33a2.57,2.57,0,0,0-1.89.52,3.09,3.09,0,0,0-.5,2.07v.65c0,1.07.93,1.69,2.8,1.84a17.23,17.23,0,0,1,5.16,1.17,4.38,4.38,0,0,1,2,1.82,6.35,6.35,0,0,1,.81,3.37v1.16a5.49,5.49,0,0,1-1.51,4.13,5.69,5.69,0,0,1-4.16,1.47h-3.72a5.7,5.7,0,0,1-4.17-1.47A5.52,5.52,0,0,1,417.79,323.26Z"/></g></g></svg>