<svg id="mouse-2" xmlns="http://www.w3.org/2000/svg" width="14.229" height="21.342" viewBox="0 0 14.229 21.342">
  <g id="Grupo_236" data-name="Grupo 236" transform="translate(0)">
    <g id="Grupo_235" data-name="Grupo 235">
      <path id="Trazado_622" data-name="Trazado 622" d="M42.183,0a7.12,7.12,0,0,0-7.114,7.11v7.121a7.114,7.114,0,0,0,14.228,0V7.11A7.12,7.12,0,0,0,42.183,0Zm6.323,14.232a6.323,6.323,0,0,1-12.647,0V7.11a6.323,6.323,0,0,1,12.647,0Z" transform="translate(-35.069)" fill="#101820"/>
      <path id="Trazado_623" data-name="Trazado 623" d="M101.705,23.379a.4.4,0,0,0-.4.4v3.579a.4.4,0,1,0,.791,0V23.774A.4.4,0,0,0,101.705,23.379Z" transform="translate(-94.591 -21.008)" fill="#101820"/>
    </g>
  </g>
</svg>
