<svg id="instagram" xmlns="http://www.w3.org/2000/svg" width="30.185" height="30.185" viewBox="0 0 30.185 30.185">
  <path id="Trazado_557" data-name="Trazado 557" d="M212.777,209.889A2.889,2.889,0,1,1,209.889,207,2.889,2.889,0,0,1,212.777,209.889Zm0,0" transform="translate(-194.796 -194.796)" fill="#f8efe1"/>
  <path id="Trazado_558" data-name="Trazado 558" d="M149.345,137.482a2.87,2.87,0,0,0-1.645-1.645,4.8,4.8,0,0,0-1.609-.3c-.914-.042-1.188-.051-3.5-.051s-2.588.009-3.5.05a4.8,4.8,0,0,0-1.609.3,2.871,2.871,0,0,0-1.645,1.645,4.8,4.8,0,0,0-.3,1.609c-.042.914-.051,1.188-.051,3.5s.009,2.588.051,3.5a4.8,4.8,0,0,0,.3,1.609,2.87,2.87,0,0,0,1.645,1.645,4.79,4.79,0,0,0,1.609.3c.914.042,1.188.05,3.5.05s2.588-.009,3.5-.05a4.79,4.79,0,0,0,1.609-.3,2.87,2.87,0,0,0,1.645-1.645,4.8,4.8,0,0,0,.3-1.609c.042-.914.05-1.188.05-3.5s-.009-2.588-.05-3.5A4.789,4.789,0,0,0,149.345,137.482Zm-6.756,9.561a4.45,4.45,0,1,1,4.45-4.45A4.45,4.45,0,0,1,142.589,147.043Zm4.626-8.036a1.04,1.04,0,1,1,1.04-1.04A1.04,1.04,0,0,1,147.215,139.007Zm0,0" transform="translate(-127.497 -127.501)" fill="#f8efe1"/>
  <path id="Trazado_559" data-name="Trazado 559" d="M15.092,0A15.092,15.092,0,1,0,30.185,15.092,15.094,15.094,0,0,0,15.092,0Zm8.614,18.665a6.358,6.358,0,0,1-.4,2.1A4.431,4.431,0,0,1,20.769,23.3a6.363,6.363,0,0,1-2.1.4c-.924.042-1.219.052-3.573.052s-2.649-.01-3.573-.052a6.363,6.363,0,0,1-2.1-.4,4.431,4.431,0,0,1-2.535-2.535,6.357,6.357,0,0,1-.4-2.1c-.043-.924-.053-1.22-.053-3.573s.01-2.649.052-3.573a6.359,6.359,0,0,1,.4-2.1A4.434,4.434,0,0,1,9.416,6.881a6.364,6.364,0,0,1,2.1-.4c.924-.042,1.219-.052,3.573-.052s2.649.01,3.573.053a6.365,6.365,0,0,1,2.1.4A4.433,4.433,0,0,1,23.3,9.416a6.358,6.358,0,0,1,.4,2.1c.042.924.052,1.219.052,3.573S23.749,17.741,23.706,18.665Zm0,0" fill="#f8efe1"/>
</svg>
