<svg xmlns="http://www.w3.org/2000/svg" width="269.877" height="80.565" viewBox="0 0 269.877 80.565">
  <g id="Grupo_126" data-name="Grupo 126" transform="translate(-126.76 -579.874)">
    <g id="Grupo_101" data-name="Grupo 101" transform="translate(126.76 579.874)">
      <g id="Grupo_93" data-name="Grupo 93" transform="translate(0 39.613)">
        <g id="Grupo_81" data-name="Grupo 81" transform="translate(0 0.718)">
          <path id="Trazado_127" data-name="Trazado 127" d="M128.128,669.639l-.75.066h-.2a.3.3,0,0,1-.191-.066.46.46,0,0,1-.042-.25q0-.034.066-.993t.067-1.876a22.3,22.3,0,0,0-.251-3.252q-.066-.4-.066-.467a1.139,1.139,0,0,1,.05-.342.584.584,0,0,1,.133-.242l.467-.584a.791.791,0,0,1,.2-.125.481.481,0,0,1,.184-.042q.316,0,.425.892a6.477,6.477,0,0,0,.392,1.609,4.505,4.505,0,0,0,2.16,2.277,7.907,7.907,0,0,0,3.745.826,5.172,5.172,0,0,0,3.294-.968,3.091,3.091,0,0,0,1.226-2.552q0-2.619-4.937-3.92-.918-.25-1.418-.384a9.391,9.391,0,0,1-4.236-2.151,4.782,4.782,0,0,1-1.3-3.486,6.267,6.267,0,0,1,2.393-4.929,8.743,8.743,0,0,1,5.879-2.043q.734,0,1.951.117t3.136.367l.584-.35.717-.133h.133a.309.309,0,0,1,.167.042c.044.028.066.058.066.091a1.755,1.755,0,0,1-.033.234,20.331,20.331,0,0,0-.233,3.219,13.8,13.8,0,0,0,.1,1.6q.1.85.1.934a1.1,1.1,0,0,1-.025.242.32.32,0,0,1-.076.158l-.717.684a.1.1,0,0,1-.05.025.355.355,0,0,1-.083.008c-.178,0-.3-.239-.375-.718a5.542,5.542,0,0,0-.309-1.217,3.792,3.792,0,0,0-1.86-1.993,7.8,7.8,0,0,0-3.444-.642,4.361,4.361,0,0,0-2.694.751,2.4,2.4,0,0,0-.992,2.018,2.5,2.5,0,0,0,.934,2.043,11.275,11.275,0,0,0,3.886,1.51q4.354,1.134,5.78,2.485a4.944,4.944,0,0,1,1.426,3.769,6.993,6.993,0,0,1-2.735,5.588,10.33,10.33,0,0,1-6.822,2.268,20.808,20.808,0,0,1-2.21-.142q-1.293-.142-2.894-.408Z" transform="translate(-126.76 -646.639)" fill="#101820"/>
        </g>
        <g id="Grupo_82" data-name="Grupo 82" transform="translate(19.338 0.684)">
          <path id="Trazado_128" data-name="Trazado 128" d="M168.2,669.75a8.612,8.612,0,0,1-6.747-3.035,11.151,11.151,0,0,1-2.677-7.656,12.433,12.433,0,0,1,.851-4.628,12,12,0,0,1,2.552-3.911,13.658,13.658,0,0,1,3.986-2.919,10.094,10.094,0,0,1,4.354-1.018,8.614,8.614,0,0,1,6.722,3.052,11.1,11.1,0,0,1,2.7,7.639,12,12,0,0,1-3.436,8.573,13.128,13.128,0,0,1-3.928,2.91A10.177,10.177,0,0,1,168.2,669.75Zm-4.82-12.059a11.812,11.812,0,0,0,1.726,6.755,5.285,5.285,0,0,0,4.562,2.535,4.719,4.719,0,0,0,4.153-2.227,11.122,11.122,0,0,0,1.484-6.213,11.54,11.54,0,0,0-1.71-6.613,5.2,5.2,0,0,0-4.479-2.51,4.861,4.861,0,0,0-4.253,2.143A10.7,10.7,0,0,0,163.376,657.691Z" transform="translate(-158.773 -646.583)" fill="#101820"/>
        </g>
        <g id="Grupo_83" data-name="Grupo 83" transform="translate(41.544 1.034)">
          <path id="Trazado_129" data-name="Trazado 129" d="M195.584,648.047l.267-.617a.511.511,0,0,1,.2-.192.574.574,0,0,1,.283-.075c.045,0,.178.012.4.033a30.2,30.2,0,0,0,3.719.234q.9,0,2.244-.133t1.793-.133a.5.5,0,0,1,.292.067.231.231,0,0,1,.092.2.4.4,0,0,1-.025.108.542.542,0,0,1-.059.126l-.233.516c-.056.112-.281.234-.676.367a1.541,1.541,0,0,0-.825.55,4,4,0,0,0-.367,1.576q-.117,1.193-.117,3.661v9.84q0,2.1.809,2.7a6.166,6.166,0,0,0,3.327.6,9.822,9.822,0,0,0,3.278-.417,3.741,3.741,0,0,0,1.81-1.451,4.286,4.286,0,0,0,.509-1.209q.225-.792.659-.942l.55-.184.125-.05a.2.2,0,0,1,.075-.016.194.194,0,0,1,.175.092.561.561,0,0,1,.059.292,3.789,3.789,0,0,1-.067.384,36,36,0,0,0-.684,5.487l-.484.35a.654.654,0,0,1-.15.066.584.584,0,0,1-.184.033c-.022,0-.1-.011-.233-.033a47.879,47.879,0,0,0-7.106-.417h-4.787q-1.819,0-3.686.15-.351.017-.45.017a.511.511,0,0,1-.284-.059.236.236,0,0,1-.083-.208.476.476,0,0,1,.017-.117.352.352,0,0,1,.05-.117l.233-.517q.083-.167.675-.367a1.542,1.542,0,0,0,.826-.55,3.512,3.512,0,0,0,.35-1.484q.1-1.117.1-3.753v-9.623a14.9,14.9,0,0,0-.184-3,1.56,1.56,0,0,0-.634-.968,3.142,3.142,0,0,0-1.026-.367q-.61-.117-.626-.35A.2.2,0,0,1,195.584,648.047Z" transform="translate(-195.534 -647.163)" fill="#101820"/>
        </g>
        <g id="Grupo_84" data-name="Grupo 84" transform="translate(59.886)">
          <path id="Trazado_130" data-name="Trazado 130" d="M232.053,663.181q-.017.05-.067.167a8.3,8.3,0,0,0-.55,2.468,1.567,1.567,0,0,0,1.109,1.685,3.554,3.554,0,0,1,1.109.434.274.274,0,0,1-.008.066.382.382,0,0,1-.025.067l-.267.6a.473.473,0,0,1-.208.208.584.584,0,0,1-.275.075,2.536,2.536,0,0,1-.267-.033,20.212,20.212,0,0,0-2.6-.167q-1.051,0-2.285.1t-1.435.1a.505.505,0,0,1-.292-.066.232.232,0,0,1-.092-.2.474.474,0,0,1,.017-.1.634.634,0,0,1,.05-.133l.25-.534q.083-.167.567-.317a1.673,1.673,0,0,0,.651-.317,7.513,7.513,0,0,0,1.092-1.709q.659-1.276,1.409-3.177l4.537-11.642a10.976,10.976,0,0,0,.442-1.3,3.664,3.664,0,0,0,.108-.851,1.469,1.469,0,0,0-.066-.409c-.045-.15-.066-.231-.066-.242v-.25l.2-.4q.1-.183.842-.259a5.646,5.646,0,0,0,1.476-.359,6.342,6.342,0,0,0,1.7-1.034.909.909,0,0,1,.283-.2.509.509,0,0,1,.175.034.358.358,0,0,1,.125.066l.267.234a.189.189,0,0,1,.067.133,3.938,3.938,0,0,1,.016.468,8.026,8.026,0,0,0,.392,2.176,35.4,35.4,0,0,0,1.243,3.377l4.1,9.807a34.227,34.227,0,0,0,1.752,3.7,6.154,6.154,0,0,0,1.351,1.7,2.934,2.934,0,0,0,.925.442q.576.175.576.342v.058a.131.131,0,0,1-.017.059l-.283.634a.47.47,0,0,1-.191.184.57.57,0,0,1-.292.083c-.033,0-.15-.011-.35-.033a37.911,37.911,0,0,0-4.32-.234q-1,0-2.41.133t-1.826.133a.5.5,0,0,1-.3-.066.242.242,0,0,1-.083-.2.926.926,0,0,1,.008-.15.3.3,0,0,1,.025-.083l.284-.534q.05-.1.45-.267a1.848,1.848,0,0,0,1.317-1.734,4.406,4.406,0,0,0-.15-1.026,10.6,10.6,0,0,0-.467-1.393l-1.334-3.552h-7.306Zm4.77-12.71q-.6,1.7-1.309,3.536t-1.526,3.82h5.571Z" transform="translate(-225.898 -645.451)" fill="#101820"/>
        </g>
        <g id="Grupo_85" data-name="Grupo 85" transform="translate(85.117 0.934)">
          <path id="Trazado_131" data-name="Trazado 131" d="M277.373,668.681l-.3.6a.5.5,0,0,1-.225.192.711.711,0,0,1-.326.092q-.083,0-.4-.033a35.047,35.047,0,0,0-4.036-.234q-.735,0-2.018.133t-1.818.134a.51.51,0,0,1-.283-.059.235.235,0,0,1-.083-.208.5.5,0,0,1,.016-.117.365.365,0,0,1,.05-.117l.267-.517q.083-.167.659-.367a1.533,1.533,0,0,0,.809-.55,3.364,3.364,0,0,0,.35-1.392q.1-1.009.1-3.845v-9.623a14.852,14.852,0,0,0-.184-3,1.558,1.558,0,0,0-.634-.968,3.131,3.131,0,0,0-1.026-.367q-.609-.117-.625-.35a.2.2,0,0,1,.05-.1l.266-.617a.514.514,0,0,1,.2-.192.573.573,0,0,1,.283-.075c.033,0,.144.011.333.033a37.154,37.154,0,0,0,4.27.234q1.451,0,3.719-.184t3.086-.183a6.746,6.746,0,0,1,4.353,1.3,4.226,4.226,0,0,1,1.618,3.469,4.946,4.946,0,0,1-1.643,3.745,8.071,8.071,0,0,1-4.479,1.96q2.668.4,4.27,3.936l.083.184,1.317,2.886a4.933,4.933,0,0,0,1.034,1.626,1.766,1.766,0,0,0,1.234.492,2.765,2.765,0,0,0,1.185-.325,3.1,3.1,0,0,1,.817-.326.224.224,0,0,1,.15.059.158.158,0,0,1,.066.109.715.715,0,0,1-.008.125.332.332,0,0,1-.025.075l-.25.734q-.083.334-.7.717-.4.25-.65.434-.168.117-.484.35a5.779,5.779,0,0,1-2.6,1.334,2.889,2.889,0,0,1-2.094-.9,9.827,9.827,0,0,1-1.826-3.036l-1.818-4.2a9.575,9.575,0,0,0-1.776-2.977,2.818,2.818,0,0,0-1.977-.709,3.935,3.935,0,0,0-.526.05,3.948,3.948,0,0,1-.442.05v5.738a13.606,13.606,0,0,0,.2,2.944,1.636,1.636,0,0,0,.7,1.026,3.188,3.188,0,0,0,1.125.375q.676.109.676.309a.357.357,0,0,1-.008.083A.112.112,0,0,1,277.373,668.681ZM274.7,655.053a1,1,0,0,0,.492.968,4.656,4.656,0,0,0,1.943.267,4.466,4.466,0,0,0,3.011-.859,3.321,3.321,0,0,0,.976-2.627,3.168,3.168,0,0,0-1.034-2.51,4.228,4.228,0,0,0-2.886-.909q-.417,0-1,.05t-1.351.15q-.034.767-.092,1.943t-.058,1.443Z" transform="translate(-267.666 -646.998)" fill="#101820"/>
        </g>
        <g id="Grupo_86" data-name="Grupo 86" transform="translate(115.642 0.968)">
          <path id="Trazado_132" data-name="Trazado 132" d="M318.681,647.286a.294.294,0,0,1,.167-.117.759.759,0,0,1,.267-.05q.15,0,.667.05a40.239,40.239,0,0,0,4.053.217q1.385,0,3.569-.167t2.985-.167a8.2,8.2,0,0,1,6.6,2.81q2.385,2.811,2.385,7.8a11.954,11.954,0,0,1-3.261,8.632,10.952,10.952,0,0,1-8.248,3.394,25.425,25.425,0,0,1-2.8-.184q-1.617-.183-2.085-.184-.9,0-2.235.133t-1.768.133a.509.509,0,0,1-.283-.059.237.237,0,0,1-.083-.208.5.5,0,0,1,.016-.117.377.377,0,0,1,.05-.117l.234-.517q.083-.167.675-.367a1.542,1.542,0,0,0,.826-.55,3.365,3.365,0,0,0,.35-1.392q.1-1.009.1-3.845v-9.557a15.561,15.561,0,0,0-.175-2.885,1.867,1.867,0,0,0-.608-1.118,3.044,3.044,0,0,0-1.11-.425q-.775-.176-.775-.359a.227.227,0,0,1,.033-.075c.022-.039.056-.092.1-.159Zm6.755,16.846a3.538,3.538,0,0,0,.717,2.636,4.136,4.136,0,0,0,2.669.634,4.787,4.787,0,0,0,4.353-2.252q1.417-2.251,1.418-6.9,0-4.72-1.5-6.8t-4.887-2.076a12.771,12.771,0,0,0-1.309.066q-.642.067-1.31.2-.083,1.285-.117,2.694t-.033,3.077Z" transform="translate(-318.198 -647.053)" fill="#101820"/>
        </g>
        <g id="Grupo_87" data-name="Grupo 87" transform="translate(137.851 0.718)">
          <path id="Trazado_133" data-name="Trazado 133" d="M372.559,669.556a1.833,1.833,0,0,1-.183.108.346.346,0,0,1-.15.042c-.022,0-.106-.011-.25-.033a48.6,48.6,0,0,0-7.139-.417h-5.153q-1.819,0-3.686.15c-.234.011-.384.017-.451.017a.509.509,0,0,1-.283-.059.237.237,0,0,1-.083-.208.5.5,0,0,1,.016-.117.378.378,0,0,1,.05-.117l.234-.517q.083-.167.675-.367a1.541,1.541,0,0,0,.826-.55,3.512,3.512,0,0,0,.35-1.484q.1-1.117.1-3.753v-9.623a14.65,14.65,0,0,0-.183-2.978,1.555,1.555,0,0,0-.634-.959,3.133,3.133,0,0,0-1.026-.367q-.609-.116-.625-.35a.218.218,0,0,1,.05-.133l.267-.584a.418.418,0,0,1,.2-.217.709.709,0,0,1,.35-.083c.044,0,.178.006.4.017q1.935.15,3.9.15h9.257a6.663,6.663,0,0,0,1.151-.075,2.314,2.314,0,0,0,.7-.242l.534-.133a.436.436,0,0,0,.1-.017.466.466,0,0,1,.1-.016q.284.016.35.9.033.5.066.851a24.854,24.854,0,0,0,.534,3.152,2.751,2.751,0,0,1,.083.367.675.675,0,0,1-.033.191.37.37,0,0,1-.067.142l-.517.584a.856.856,0,0,1-.158.133.22.22,0,0,1-.109.033q-.266,0-.492-.709a5.478,5.478,0,0,0-.442-1.076,3.441,3.441,0,0,0-1.81-1.526,14.615,14.615,0,0,0-4.428-.442h-2.836q-.067,1.535-.092,2.585T362,653.411v.467l.066,1.234q.717.067,1.309.1t.992.033a15.587,15.587,0,0,0,3.036-.217,3.561,3.561,0,0,0,1.6-.734l.617-.167a.73.73,0,0,1,.1-.025.623.623,0,0,1,.1-.008.21.21,0,0,1,.167.058.4.4,0,0,1,.05.242c0,.022-.011.106-.033.25a24.868,24.868,0,0,0-.15,2.785,9.357,9.357,0,0,0,.059,1.043c.039.35.059.542.059.575a1.358,1.358,0,0,1-.075.425,1.272,1.272,0,0,1-.175.359l-.468.55a1.018,1.018,0,0,1-.117.066.287.287,0,0,1-.133.034q-.3,0-.367-.718a5,5,0,0,0-.1-.75,1.9,1.9,0,0,0-1.009-1.359,8.014,8.014,0,0,0-2.961-.359q-.317,0-.959.025t-1.593.076L362,663.968q0,2.118.809,2.694t3.711.576a9.887,9.887,0,0,0,3.294-.417,3.834,3.834,0,0,0,1.827-1.451,4.9,4.9,0,0,0,.5-1.193q.234-.776.667-.925l.518-.217a.317.317,0,0,1,.066-.025.68.68,0,0,1,.133-.008.2.2,0,0,1,.175.092.562.562,0,0,1,.058.292q0,.05-.066.384a33.449,33.449,0,0,0-.684,5.487Z" transform="translate(-354.963 -646.639)" fill="#101820"/>
        </g>
        <g id="Grupo_88" data-name="Grupo 88" transform="translate(158.514 1.034)">
          <path id="Trazado_134" data-name="Trazado 134" d="M389.219,648.047l.266-.617a.513.513,0,0,1,.2-.192.572.572,0,0,1,.283-.075c.044,0,.178.012.4.033a30.2,30.2,0,0,0,3.719.234q.9,0,2.244-.133t1.793-.133a.5.5,0,0,1,.292.067.231.231,0,0,1,.092.2.385.385,0,0,1-.025.108.543.543,0,0,1-.058.126l-.234.516q-.083.168-.675.367a1.543,1.543,0,0,0-.826.55,3.986,3.986,0,0,0-.367,1.576q-.117,1.193-.117,3.661v9.84q0,2.1.809,2.7a6.163,6.163,0,0,0,3.327.6,9.825,9.825,0,0,0,3.278-.417,3.743,3.743,0,0,0,1.809-1.451,4.267,4.267,0,0,0,.509-1.209q.226-.792.659-.942l.55-.184.125-.05a.21.21,0,0,1,.075-.016.194.194,0,0,1,.175.092.555.555,0,0,1,.059.292,3.877,3.877,0,0,1-.066.384,35.925,35.925,0,0,0-.684,5.487l-.484.35a.649.649,0,0,1-.15.066.577.577,0,0,1-.183.033c-.022,0-.1-.011-.234-.033a47.871,47.871,0,0,0-7.105-.417h-4.787q-1.819,0-3.687.15-.35.017-.45.017a.509.509,0,0,1-.283-.059.235.235,0,0,1-.083-.208.5.5,0,0,1,.016-.117.365.365,0,0,1,.05-.117l.234-.517q.083-.167.675-.367a1.542,1.542,0,0,0,.826-.55,3.5,3.5,0,0,0,.35-1.484q.1-1.117.1-3.753v-9.623a14.85,14.85,0,0,0-.184-3,1.557,1.557,0,0,0-.634-.968,3.132,3.132,0,0,0-1.026-.367q-.609-.117-.625-.35A.2.2,0,0,1,389.219,648.047Z" transform="translate(-389.169 -647.163)" fill="#101820"/>
        </g>
        <g id="Grupo_89" data-name="Grupo 89" transform="translate(184.267)">
          <path id="Trazado_135" data-name="Trazado 135" d="M437.956,663.181c-.011.033-.033.089-.066.167a8.284,8.284,0,0,0-.551,2.468,1.567,1.567,0,0,0,1.11,1.685,3.554,3.554,0,0,1,1.109.434.276.276,0,0,1-.008.066.387.387,0,0,1-.025.067l-.266.6a.474.474,0,0,1-.209.208.584.584,0,0,1-.275.075,2.558,2.558,0,0,1-.267-.033,20.2,20.2,0,0,0-2.6-.167q-1.051,0-2.285.1t-1.434.1a.509.509,0,0,1-.292-.066.232.232,0,0,1-.091-.2.462.462,0,0,1,.016-.1.67.67,0,0,1,.05-.133l.25-.534c.056-.111.245-.217.567-.317a1.664,1.664,0,0,0,.651-.317,7.514,7.514,0,0,0,1.092-1.709q.659-1.276,1.409-3.177l4.537-11.642a10.942,10.942,0,0,0,.442-1.3,3.633,3.633,0,0,0,.109-.851,1.451,1.451,0,0,0-.067-.409c-.045-.15-.066-.231-.066-.242v-.25l.2-.4q.1-.183.842-.259a5.647,5.647,0,0,0,1.476-.359,6.333,6.333,0,0,0,1.7-1.034.9.9,0,0,1,.284-.2.512.512,0,0,1,.175.034.357.357,0,0,1,.125.066l.267.234a.192.192,0,0,1,.066.133,3.879,3.879,0,0,1,.017.468,8.044,8.044,0,0,0,.391,2.176,35.728,35.728,0,0,0,1.243,3.377l4.1,9.807a34.136,34.136,0,0,0,1.751,3.7,6.154,6.154,0,0,0,1.351,1.7,2.938,2.938,0,0,0,.926.442q.575.175.575.342v.058a.137.137,0,0,1-.016.059l-.284.634a.47.47,0,0,1-.192.184.57.57,0,0,1-.292.083c-.034,0-.15-.011-.35-.033a37.908,37.908,0,0,0-4.32-.234q-1,0-2.41.133t-1.827.133a.5.5,0,0,1-.3-.066.241.241,0,0,1-.083-.2,1,1,0,0,1,.008-.15.282.282,0,0,1,.025-.083l.283-.534q.05-.1.45-.267a1.848,1.848,0,0,0,1.318-1.734,4.412,4.412,0,0,0-.15-1.026,10.431,10.431,0,0,0-.467-1.393l-1.334-3.552h-7.305Zm4.77-12.71q-.6,1.7-1.31,3.536t-1.526,3.82h5.571Z" transform="translate(-431.802 -645.451)" fill="#101820"/>
        </g>
        <g id="Grupo_90" data-name="Grupo 90" transform="translate(209.383 1.034)">
          <path id="Trazado_136" data-name="Trazado 136" d="M473.43,648.047l.266-.617a.513.513,0,0,1,.2-.192.573.573,0,0,1,.283-.075c.044,0,.178.012.4.033a30.2,30.2,0,0,0,3.719.234q.9,0,2.244-.133t1.793-.133a.5.5,0,0,1,.292.067.231.231,0,0,1,.092.2.384.384,0,0,1-.025.108.541.541,0,0,1-.058.126l-.234.516q-.083.168-.675.367a1.543,1.543,0,0,0-.826.55,3.987,3.987,0,0,0-.367,1.576q-.117,1.193-.117,3.661v9.84q0,2.1.809,2.7a6.163,6.163,0,0,0,3.327.6,9.825,9.825,0,0,0,3.278-.417,3.743,3.743,0,0,0,1.809-1.451,4.269,4.269,0,0,0,.509-1.209q.226-.792.659-.942l.55-.184.125-.05a.21.21,0,0,1,.076-.016.2.2,0,0,1,.175.092.562.562,0,0,1,.058.292,3.877,3.877,0,0,1-.066.384,35.917,35.917,0,0,0-.684,5.487l-.484.35a.649.649,0,0,1-.15.066.578.578,0,0,1-.183.033c-.022,0-.1-.011-.234-.033a47.871,47.871,0,0,0-7.105-.417H478.1q-1.819,0-3.686.15c-.234.011-.384.017-.451.017a.509.509,0,0,1-.283-.059.235.235,0,0,1-.083-.208.5.5,0,0,1,.016-.117.364.364,0,0,1,.05-.117l.234-.517q.083-.167.675-.367a1.542,1.542,0,0,0,.826-.55,3.5,3.5,0,0,0,.35-1.484q.1-1.117.1-3.753v-9.623a14.853,14.853,0,0,0-.184-3,1.558,1.558,0,0,0-.634-.968,3.131,3.131,0,0,0-1.026-.367q-.609-.117-.625-.35A.2.2,0,0,1,473.43,648.047Z" transform="translate(-473.38 -647.163)" fill="#101820"/>
        </g>
        <g id="Grupo_91" data-name="Grupo 91" transform="translate(228.857 0.684)">
          <path id="Trazado_137" data-name="Trazado 137" d="M521.012,646.75l.584-.1h.067a.243.243,0,0,1,.217.1.591.591,0,0,1,.066.317,1.465,1.465,0,0,0-.033.25,22.444,22.444,0,0,0-.117,2.3,26.643,26.643,0,0,0,.167,3.235c.011.089.016.139.016.15a1.417,1.417,0,0,1-.042.183.3.3,0,0,1-.075.133l-.533.534a.426.426,0,0,1-.125.083.32.32,0,0,1-.126.033q-.183-.016-.3-.617-.084-.433-.167-.717a4.85,4.85,0,0,0-1.776-2.677,5.356,5.356,0,0,0-3.211-.908,4.494,4.494,0,0,0-4.078,2.085q-1.327,2.085-1.326,6.455a11.535,11.535,0,0,0,1.618,6.563,5.119,5.119,0,0,0,4.47,2.377,6.6,6.6,0,0,0,2.451-.476,7.75,7.75,0,0,0,2.252-1.392q.367-.317.9-.851.667-.667.884-.667a.288.288,0,0,1,.2.1.3.3,0,0,1,.1.217v.2l-.2,1.234q-.1.534-1.451,1.485l-.017.016a24.444,24.444,0,0,1-4.153,2.585,7.545,7.545,0,0,1-9.257-2.244,11.8,11.8,0,0,1-2.4-7.647,13.258,13.258,0,0,1,3.086-8.865,9.291,9.291,0,0,1,7.289-3.644,12.566,12.566,0,0,1,1.376.1q.859.1,2.927.417Z" transform="translate(-505.617 -646.583)" fill="#101820"/>
        </g>
        <g id="Grupo_92" data-name="Grupo 92" transform="translate(245.393)">
          <path id="Trazado_138" data-name="Trazado 138" d="M539.146,663.181c-.011.033-.033.089-.067.167a8.3,8.3,0,0,0-.55,2.468,1.567,1.567,0,0,0,1.109,1.685,3.554,3.554,0,0,1,1.109.434.248.248,0,0,1-.008.066.332.332,0,0,1-.025.067l-.267.6a.472.472,0,0,1-.208.208.584.584,0,0,1-.275.075,2.534,2.534,0,0,1-.267-.033,20.215,20.215,0,0,0-2.6-.167q-1.05,0-2.285.1t-1.435.1a.506.506,0,0,1-.292-.066.232.232,0,0,1-.092-.2.474.474,0,0,1,.017-.1.634.634,0,0,1,.05-.133l.25-.534q.083-.167.567-.317a1.664,1.664,0,0,0,.65-.317,7.488,7.488,0,0,0,1.093-1.709q.659-1.276,1.409-3.177l4.537-11.642a10.96,10.96,0,0,0,.442-1.3,3.665,3.665,0,0,0,.109-.851,1.473,1.473,0,0,0-.067-.409c-.045-.15-.066-.231-.066-.242v-.25l.2-.4q.1-.183.842-.259a5.647,5.647,0,0,0,1.476-.359,6.343,6.343,0,0,0,1.7-1.034.909.909,0,0,1,.283-.2.509.509,0,0,1,.175.034.357.357,0,0,1,.125.066l.267.234a.189.189,0,0,1,.067.133,3.938,3.938,0,0,1,.016.468,8.026,8.026,0,0,0,.392,2.176,35.564,35.564,0,0,0,1.243,3.377l4.1,9.807a34.125,34.125,0,0,0,1.751,3.7,6.155,6.155,0,0,0,1.351,1.7,2.942,2.942,0,0,0,.925.442q.575.175.576.342v.058a.131.131,0,0,1-.017.059l-.283.634a.47.47,0,0,1-.192.184.57.57,0,0,1-.292.083c-.033,0-.15-.011-.35-.033a37.919,37.919,0,0,0-4.32-.234q-1,0-2.41.133t-1.827.133a.5.5,0,0,1-.3-.066.242.242,0,0,1-.083-.2.925.925,0,0,1,.008-.15.3.3,0,0,1,.025-.083l.284-.534q.05-.1.45-.267a1.848,1.848,0,0,0,1.318-1.734,4.406,4.406,0,0,0-.15-1.026,10.592,10.592,0,0,0-.467-1.393l-1.334-3.552H540.23Zm4.77-12.71q-.6,1.7-1.309,3.536t-1.526,3.82h5.571Z" transform="translate(-532.991 -645.451)" fill="#101820"/>
        </g>
      </g>
      <g id="Grupo_94" data-name="Grupo 94" transform="translate(92.14)">
        <path id="Trazado_139" data-name="Trazado 139" d="M285.172,609.355l-2.086,1.907a.159.159,0,0,1-.254-.011l-3.483-3.809a.158.158,0,0,1,.012-.254l.539-.493a.159.159,0,0,1,.254.011l2.9,3.168a.087.087,0,0,0,.139,0l1.337-1.223a.159.159,0,0,1,.254.024l.394.431A.156.156,0,0,1,285.172,609.355Z" transform="translate(-279.291 -590.47)" fill="#101820"/>
        <path id="Trazado_140" data-name="Trazado 140" d="M290.661,604.256l-.763.585a1.44,1.44,0,0,1-1.052.35,1.385,1.385,0,0,1-.924-.6l-1.655-2.163a1.388,1.388,0,0,1-.338-1.049,1.437,1.437,0,0,1,.613-.923l.764-.585a1.442,1.442,0,0,1,1.052-.35,1.388,1.388,0,0,1,.925.6l1.654,2.162a1.387,1.387,0,0,1,.338,1.049A1.431,1.431,0,0,1,290.661,604.256Zm-1.2-.27.484-.371a.427.427,0,0,0,.094-.71l-1.592-2.08a.427.427,0,0,0-.71-.094l-.484.371a.517.517,0,0,0-.236.327.548.548,0,0,0,.148.378l1.591,2.08a.558.558,0,0,0,.327.243A.528.528,0,0,0,289.461,603.986Z" transform="translate(-281.915 -587.649)" fill="#101820"/>
        <path id="Trazado_141" data-name="Trazado 141" d="M297.064,599.455l-.609.387a.163.163,0,0,1-.256-.051l-2.307-3.632a.083.083,0,0,0-.13-.029l-.826.525a.159.159,0,0,1-.249-.056l-.313-.492a.16.16,0,0,1,.055-.25l2.741-1.74a.16.16,0,0,1,.249.056l.313.493a.16.16,0,0,1-.056.249l-.826.524a.088.088,0,0,0-.037.135l2.307,3.632A.159.159,0,0,1,297.064,599.455Z" transform="translate(-284.456 -585.498)" fill="#101820"/>
        <path id="Trazado_142" data-name="Trazado 142" d="M304.883,595.209l-2.486,1.308a.16.16,0,0,1-.243-.076l-2.4-4.567a.159.159,0,0,1,.075-.244l2.485-1.307a.156.156,0,0,1,.237.08l.271.516a.155.155,0,0,1-.068.24l-1.588.835a.087.087,0,0,0-.048.131l.519.988a.088.088,0,0,0,.135.036l1.3-.684a.159.159,0,0,1,.243.075l.271.517a.159.159,0,0,1-.075.243l-1.3.684c-.061.032-.077.076-.048.131l.556,1.057a.087.087,0,0,0,.135.036l1.589-.835a.155.155,0,0,1,.236.079l.272.517A.155.155,0,0,1,304.883,595.209Z" transform="translate(-287.381 -584)" fill="#101820"/>
        <path id="Trazado_143" data-name="Trazado 143" d="M308.835,592.026l-.066-.159a.159.159,0,0,1,.1-.236l.674-.281a.159.159,0,0,1,.236.1l.026.063a.607.607,0,0,0,.291.363.705.705,0,0,0,.483-.072l.372-.155a.5.5,0,0,0,.319-.795l-.039-.095a.432.432,0,0,0-.333-.275,1.073,1.073,0,0,0-.525.047,5.306,5.306,0,0,1-.637.159,4.18,4.18,0,0,1-.671.076,1.016,1.016,0,0,1-.639-.227,1.68,1.68,0,0,1-.522-.726l-.115-.277a1.385,1.385,0,0,1-.053-1.1,1.438,1.438,0,0,1,.825-.745l.792-.331a1.45,1.45,0,0,1,1.117-.066,1.385,1.385,0,0,1,.749.814l.063.15a.16.16,0,0,1-.1.236l-.673.281a.16.16,0,0,1-.236-.1l-.02-.048a.616.616,0,0,0-.294-.37.7.7,0,0,0-.482.071l-.309.129a.647.647,0,0,0-.388.307.78.78,0,0,0,.085.527l.063.151q.155.372.828.156a4.393,4.393,0,0,1,1.31-.23,1.105,1.105,0,0,1,.641.23,1.607,1.607,0,0,1,.512.7l.113.269a1.385,1.385,0,0,1,.053,1.1,1.437,1.437,0,0,1-.825.744l-.864.361a1.441,1.441,0,0,1-1.109.063A1.387,1.387,0,0,1,308.835,592.026Z" transform="translate(-290.516 -582.776)" fill="#101820"/>
        <path id="Trazado_144" data-name="Trazado 144" d="M322.506,588.676l-.706.186a.159.159,0,0,1-.22-.129l-1.317-4.99a.159.159,0,0,1,.129-.22l1.976-.521a1.434,1.434,0,0,1,1.107.089,1.386,1.386,0,0,1,.63.909l.172.648a1.254,1.254,0,0,1-.41,1.44l.008.034,1.377,1.616q.127.18-.089.237l-.672.178a.53.53,0,0,1-.225.023.253.253,0,0,1-.146-.112l-1.3-1.574-.556.146c-.066.017-.091.057-.076.117l.449,1.7A.16.16,0,0,1,322.506,588.676Zm-.477-2.886.814-.214a.59.59,0,0,0,.361-.215.477.477,0,0,0,.028-.394l-.17-.648a.508.508,0,0,0-.223-.34.576.576,0,0,0-.422-.014l-.813.215a.083.083,0,0,0-.067.115l.376,1.428A.084.084,0,0,0,322.029,585.791Z" transform="translate(-295.509 -581.086)" fill="#101820"/>
        <path id="Trazado_145" data-name="Trazado 145" d="M333.274,586.35l-2.768.473a.159.159,0,0,1-.208-.147l-.87-5.087a.16.16,0,0,1,.147-.208l2.768-.473a.155.155,0,0,1,.2.148l.1.576a.156.156,0,0,1-.14.207l-1.768.3c-.068.011-.1.048-.086.111l.188,1.1c.011.062.05.088.118.076l1.447-.248a.16.16,0,0,1,.208.148l.1.575a.16.16,0,0,1-.147.209l-1.447.248c-.068.011-.1.048-.085.11l.2,1.177c.011.062.05.088.117.076l1.77-.3a.155.155,0,0,1,.2.148l.1.576A.156.156,0,0,1,333.274,586.35Z" transform="translate(-299.14 -580.282)" fill="#101820"/>
        <path id="Trazado_146" data-name="Trazado 146" d="M337.907,584.443l-.014-.171a.16.16,0,0,1,.165-.2l.728-.059a.159.159,0,0,1,.194.165l.005.069a.6.6,0,0,0,.165.434.7.7,0,0,0,.481.082l.4-.034a.5.5,0,0,0,.55-.657l-.008-.1a.434.434,0,0,0-.233-.364,1.07,1.07,0,0,0-.514-.118,5.275,5.275,0,0,1-.654-.045,4.162,4.162,0,0,1-.661-.135,1.011,1.011,0,0,1-.537-.413,1.684,1.684,0,0,1-.274-.852l-.024-.3a1.385,1.385,0,0,1,.292-1.066,1.435,1.435,0,0,1,1.014-.454l.856-.07a1.446,1.446,0,0,1,1.083.282,1.389,1.389,0,0,1,.461,1l.013.163a.16.16,0,0,1-.165.194l-.727.06a.16.16,0,0,1-.2-.165l0-.051a.618.618,0,0,0-.165-.443.7.7,0,0,0-.481-.082l-.334.028a.647.647,0,0,0-.464.171.784.784,0,0,0-.082.528l.013.163q.033.4.74.4a4.379,4.379,0,0,1,1.317.184,1.1,1.1,0,0,1,.537.417,1.589,1.589,0,0,1,.271.826l.024.291a1.385,1.385,0,0,1-.291,1.066,1.431,1.431,0,0,1-1.014.454l-.933.077a1.435,1.435,0,0,1-1.074-.283A1.384,1.384,0,0,1,337.907,584.443Z" transform="translate(-302.405 -579.983)" fill="#101820"/>
        <path id="Trazado_147" data-name="Trazado 147" d="M348.113,580.052l.05,5.161a.159.159,0,0,1-.178.182l-.731.007a.159.159,0,0,1-.181-.179l-.05-5.16a.159.159,0,0,1,.178-.182l.73-.007A.159.159,0,0,1,348.113,580.052Z" transform="translate(-306.108 -579.874)" fill="#101820"/>
        <path id="Trazado_148" data-name="Trazado 148" d="M351.751,585.224l.327-5.15a.16.16,0,0,1,.192-.168l2.117.134a1.429,1.429,0,0,1,1.018.43,1.381,1.381,0,0,1,.307,1.057l-.173,2.717a1.38,1.38,0,0,1-.439,1.009,1.429,1.429,0,0,1-1.064.3l-2.117-.135A.159.159,0,0,1,351.751,585.224Zm1.231-.687.934.06a.428.428,0,0,0,.538-.474l.166-2.613a.428.428,0,0,0-.474-.538l-.933-.06a.084.084,0,0,0-.1.089l-.219,3.436A.084.084,0,0,0,352.982,584.536Z" transform="translate(-307.98 -579.886)" fill="#101820"/>
        <path id="Trazado_149" data-name="Trazado 149" d="M363.4,586.6l-2.776-.428a.159.159,0,0,1-.15-.206l.787-5.1a.16.16,0,0,1,.206-.151l2.774.429a.156.156,0,0,1,.143.2l-.089.577a.156.156,0,0,1-.2.152l-1.774-.274c-.067-.011-.106.015-.116.077l-.17,1.1c-.009.062.02.1.088.109l1.45.223a.159.159,0,0,1,.151.206l-.089.577a.16.16,0,0,1-.206.15l-1.451-.224c-.068-.01-.106.016-.117.078l-.182,1.18c-.01.062.019.1.088.109l1.774.274a.156.156,0,0,1,.143.2l-.089.577C363.583,586.569,363.518,586.62,363.4,586.6Z" transform="translate(-311.434 -580.206)" fill="#101820"/>
        <path id="Trazado_150" data-name="Trazado 150" d="M368.865,587.69l-.692-.174a.159.159,0,0,1-.131-.218l1.253-5.007a.159.159,0,0,1,.218-.131l.625.156a.243.243,0,0,1,.2.175l.892,3.579.033.008.776-3.1a.16.16,0,0,1,.219-.132l.691.173a.159.159,0,0,1,.131.218l-1.253,5.007a.16.16,0,0,1-.219.131l-.608-.152a.287.287,0,0,1-.224-.234l-.891-3.516-.034-.008-.773,3.09A.159.159,0,0,1,368.865,587.69Z" transform="translate(-314.427 -580.775)" fill="#101820"/>
        <path id="Trazado_151" data-name="Trazado 151" d="M379.152,590.9l-.881-.314a1.439,1.439,0,0,1-.866-.692,1.389,1.389,0,0,1,0-1.1l.915-2.564a1.38,1.38,0,0,1,.7-.855,1.435,1.435,0,0,1,1.108.012l.881.313a1.43,1.43,0,0,1,.86.694,1.381,1.381,0,0,1,0,1.1l-.135.38a.168.168,0,0,1-.242.115l-.679-.242a.164.164,0,0,1-.106-.239l.118-.332a.427.427,0,0,0-.307-.647l-.55-.2a.525.525,0,0,0-.4-.019.54.54,0,0,0-.241.329l-.879,2.468a.542.542,0,0,0-.022.407.528.528,0,0,0,.321.238l.55.2a.428.428,0,0,0,.648-.307l.118-.332a.163.163,0,0,1,.233-.117l.68.242a.167.167,0,0,1,.114.242l-.135.38a1.38,1.38,0,0,1-.7.849A1.432,1.432,0,0,1,379.152,590.9Z" transform="translate(-318.092 -582.009)" fill="#101820"/>
        <path id="Trazado_152" data-name="Trazado 152" d="M388.077,588.66,386,593.383a.159.159,0,0,1-.237.092l-.668-.294a.159.159,0,0,1-.092-.237l2.081-4.723a.159.159,0,0,1,.238-.092l.667.294A.16.16,0,0,1,388.077,588.66Z" transform="translate(-321.134 -583.133)" fill="#101820"/>
        <path id="Trazado_153" data-name="Trazado 153" d="M389.424,595.71l-.728-.387q-.137-.073-.006-.208l3.621-3.919a.245.245,0,0,1,.312-.038l1.008.536a.23.23,0,0,1,.143.28l-1.226,5.193c-.026.122-.085.159-.176.11l-.728-.387a.175.175,0,0,1-.1-.094.3.3,0,0,1,.022-.15l.231-.947-1.479-.787-.655.721a.261.261,0,0,1-.116.1A.171.171,0,0,1,389.424,595.71Zm3.2-3.372-1.712,1.9,1.122.6.62-2.482Z" transform="translate(-322.58 -584.326)" fill="#101820"/>
        <path id="Trazado_154" data-name="Trazado 154" d="M399.357,601.175l-2.369-1.538a.159.159,0,0,1-.054-.25l2.811-4.329a.16.16,0,0,1,.25-.053l.611.4a.159.159,0,0,1,.053.25l-2.338,3.6a.087.087,0,0,0,.034.135l1.52.988a.16.16,0,0,1,.042.252l-.318.489A.155.155,0,0,1,399.357,601.175Z" transform="translate(-325.854 -585.85)" fill="#101820"/>
        <path id="Trazado_155" data-name="Trazado 155" d="M405.241,605.57l-2.225-1.713a.159.159,0,0,1-.033-.253l3.148-4.09a.159.159,0,0,1,.253-.032l2.225,1.713a.157.157,0,0,1,.027.248l-.357.463a.156.156,0,0,1-.246.038l-1.423-1.095a.086.086,0,0,0-.138.011l-.681.885a.087.087,0,0,0,.024.138l1.164.9a.159.159,0,0,1,.033.252l-.356.463a.16.16,0,0,1-.253.033l-1.163-.9a.088.088,0,0,0-.14.013l-.728.946a.088.088,0,0,0,.024.138l1.423,1.094a.156.156,0,0,1,.026.248l-.356.463A.157.157,0,0,1,405.241,605.57Z" transform="translate(-328.245 -587.618)" fill="#101820"/>
        <path id="Trazado_156" data-name="Trazado 156" d="M409.977,607.816l.117-.126a.159.159,0,0,1,.254-.011l.537.494a.159.159,0,0,1,.011.255l-.047.05a.6.6,0,0,0-.207.416.7.7,0,0,0,.266.408l.3.273a.5.5,0,0,0,.855-.042l.069-.076a.429.429,0,0,0,.111-.418,1.065,1.065,0,0,0-.262-.457,5.3,5.3,0,0,1-.41-.512,4.22,4.22,0,0,1-.35-.578,1.019,1.019,0,0,1-.062-.675,1.692,1.692,0,0,1,.441-.779l.2-.221a1.384,1.384,0,0,1,.982-.509,1.435,1.435,0,0,1,1.021.437l.632.582a1.445,1.445,0,0,1,.527.986,1.385,1.385,0,0,1-.425,1.021l-.111.12a.16.16,0,0,1-.255.01l-.537-.494a.16.16,0,0,1-.01-.255l.034-.038a.618.618,0,0,0,.213-.422.7.7,0,0,0-.265-.408l-.247-.227a.648.648,0,0,0-.441-.225.792.792,0,0,0-.444.3l-.11.12q-.274.3.2.818a4.366,4.366,0,0,1,.757,1.093,1.1,1.1,0,0,1,.059.678,1.6,1.6,0,0,1-.424.759l-.2.214a1.384,1.384,0,0,1-.981.509,1.431,1.431,0,0,1-1.021-.437l-.689-.634a1.438,1.438,0,0,1-.521-.98A1.388,1.388,0,0,1,409.977,607.816Z" transform="translate(-330.864 -589.945)" fill="#101820"/>
      </g>
      <g id="Grupo_100" data-name="Grupo 100" transform="translate(75.293 73.386)">
        <g id="Grupo_95" data-name="Grupo 95" transform="translate(0 1.657)">
          <path id="Trazado_157" data-name="Trazado 157" d="M254.408,709.625h-2.825a.159.159,0,0,1-.18-.181v-5.161a.159.159,0,0,1,.18-.181h.73a.159.159,0,0,1,.18.181v4.294c0,.062.034.094.1.094h1.812q.172,0,.172.188v.584C254.58,709.564,254.523,709.625,254.408,709.625Z" transform="translate(-251.403 -704.103)" fill="#101820"/>
          <path id="Trazado_158" data-name="Trazado 158" d="M259.188,709.625h-.825q-.155,0-.1-.181l1.357-5.161a.246.246,0,0,1,.258-.181h1.142a.231.231,0,0,1,.258.181l1.357,5.161q.052.18-.1.181H261.7a.17.17,0,0,1-.129-.039.3.3,0,0,1-.051-.142l-.24-.945h-1.674l-.24.945a.264.264,0,0,1-.056.142A.171.171,0,0,1,259.188,709.625Zm1.245-4.483-.619,2.482h1.271l-.618-2.482Z" transform="translate(-254.113 -704.103)" fill="#101820"/>
          <path id="Trazado_159" data-name="Trazado 159" d="M272.94,709.625h-.73a.159.159,0,0,1-.18-.181v-5.161a.159.159,0,0,1,.18-.181h2.1a1.417,1.417,0,0,1,1.039.365,1.392,1.392,0,0,1,.369,1.035v.825a1.392,1.392,0,0,1-.369,1.035,1.415,1.415,0,0,1-1.039.365h-1.082q-.1,0-.1.094v1.623A.16.16,0,0,1,272.94,709.625Zm.275-2.851h.91a.524.524,0,0,0,.387-.116.54.54,0,0,0,.112-.382v-.721a.553.553,0,0,0-.112-.39.524.524,0,0,0-.387-.117h-.91a.084.084,0,0,0-.094.095v1.537A.083.083,0,0,0,273.215,706.774Z" transform="translate(-259.57 -704.103)" fill="#101820"/>
          <path id="Trazado_160" data-name="Trazado 160" d="M280.966,709.625h-.825q-.154,0-.1-.181l1.357-5.161a.246.246,0,0,1,.257-.181h1.142a.23.23,0,0,1,.257.181l1.357,5.161c.034.12,0,.181-.1.181h-.825a.169.169,0,0,1-.129-.039.289.289,0,0,1-.051-.142l-.24-.945h-1.675l-.24.945a.265.265,0,0,1-.056.142A.172.172,0,0,1,280.966,709.625Zm1.245-4.483-.619,2.482h1.272l-.619-2.482Z" transform="translate(-262.736 -704.103)" fill="#101820"/>
          <path id="Trazado_161" data-name="Trazado 161" d="M289.372,709.444v-.515a.661.661,0,0,1,.112-.421l2.276-3.357v-.034h-2.052a.159.159,0,0,1-.181-.18v-.652a.16.16,0,0,1,.181-.181h3.048c.114,0,.172.06.172.181v.738a.774.774,0,0,1-.129.446l-2.138,3.109v.034h2.181c.114,0,.172.054.172.163v.652q0,.2-.172.2h-3.289A.16.16,0,0,1,289.372,709.444Z" transform="translate(-266.436 -704.103)" fill="#101820"/>
        </g>
        <g id="Grupo_96" data-name="Grupo 96" transform="translate(38.749 1.657)">
          <path id="Trazado_162" data-name="Trazado 162" d="M315.549,709.444v-5.161a.16.16,0,0,1,.181-.181h2.06a1.438,1.438,0,0,1,1.048.361,1.376,1.376,0,0,1,.369,1.031v.352a.623.623,0,1,0-.129,1.224.934.934,0,0,1,.206.648v.515a1.375,1.375,0,0,1-.369,1.031,1.425,1.425,0,0,1-1.039.361H315.73A.16.16,0,0,1,315.549,709.444Zm1.185-3.1h.876a.591.591,0,0,0,.4-.116.491.491,0,0,0,.129-.382v-.335a.5.5,0,0,0-.124-.382.573.573,0,0,0-.4-.116h-.884a.083.083,0,0,0-.094.094v1.142A.083.083,0,0,0,316.734,706.344Zm0,2.37h.962a.587.587,0,0,0,.408-.116.5.5,0,0,0,.125-.382v-.5a.479.479,0,0,0-.129-.378.638.638,0,0,0-.42-.112h-.945a.083.083,0,0,0-.094.095v1.3A.083.083,0,0,0,316.734,708.714Z" transform="translate(-315.549 -704.103)" fill="#101820"/>
          <path id="Trazado_163" data-name="Trazado 163" d="M324.841,709.625h-.825c-.1,0-.137-.06-.1-.181l1.357-5.161a.246.246,0,0,1,.258-.181h1.142a.231.231,0,0,1,.258.181l1.357,5.161q.052.18-.1.181h-.825a.17.17,0,0,1-.129-.039.3.3,0,0,1-.051-.142l-.24-.945h-1.674l-.24.945a.264.264,0,0,1-.056.142A.171.171,0,0,1,324.841,709.625Zm1.245-4.483-.619,2.482h1.271l-.618-2.482Z" transform="translate(-318.856 -704.103)" fill="#101820"/>
          <path id="Trazado_164" data-name="Trazado 164" d="M335.8,704.1h.721c.12,0,.181.057.181.172v3.951a1.389,1.389,0,0,1-.369,1.034,1.412,1.412,0,0,1-1.039.365h-.859a1.436,1.436,0,0,1-1.047-.361,1.386,1.386,0,0,1-.37-1.039v-.808a.159.159,0,0,1,.181-.18h.73a.159.159,0,0,1,.181.18v.756a.542.542,0,0,0,.115.391.527.527,0,0,0,.382.116h.507a.525.525,0,0,0,.387-.116.554.554,0,0,0,.111-.391v-3.89C335.613,704.163,335.677,704.1,335.8,704.1Z" transform="translate(-322.466 -704.103)" fill="#101820"/>
          <path id="Trazado_165" data-name="Trazado 165" d="M342.3,709.625h-.825c-.1,0-.137-.06-.1-.181l1.357-5.161a.246.246,0,0,1,.257-.181h1.142a.23.23,0,0,1,.257.181l1.357,5.161q.052.18-.1.181h-.825a.17.17,0,0,1-.129-.039.289.289,0,0,1-.051-.142l-.24-.945h-1.674l-.24.945a.269.269,0,0,1-.056.142A.171.171,0,0,1,342.3,709.625Zm1.246-4.483-.619,2.482H344.2l-.619-2.482Z" transform="translate(-325.767 -704.103)" fill="#101820"/>
          <path id="Trazado_166" data-name="Trazado 166" d="M354.906,708.216v-.172a.159.159,0,0,1,.18-.18h.73a.159.159,0,0,1,.18.18v.068a.6.6,0,0,0,.129.447.7.7,0,0,0,.472.12h.4a.5.5,0,0,0,.6-.609v-.1a.43.43,0,0,0-.2-.382,1.07,1.07,0,0,0-.5-.159,5.323,5.323,0,0,1-.648-.1,4.126,4.126,0,0,1-.648-.189,1.015,1.015,0,0,1-.5-.455,1.685,1.685,0,0,1-.2-.872v-.3a1.385,1.385,0,0,1,.378-1.039,1.436,1.436,0,0,1,1.048-.37h.858a1.446,1.446,0,0,1,1.056.37,1.383,1.383,0,0,1,.378,1.039v.162a.159.159,0,0,1-.18.181h-.73a.16.16,0,0,1-.181-.181v-.051a.62.62,0,0,0-.128-.455.705.705,0,0,0-.473-.12h-.335a.652.652,0,0,0-.477.133.786.786,0,0,0-.124.519v.163c0,.269.235.423.7.464a4.379,4.379,0,0,1,1.3.292,1.1,1.1,0,0,1,.5.46,1.605,1.605,0,0,1,.2.846v.292a1.387,1.387,0,0,1-.378,1.039,1.434,1.434,0,0,1-1.048.37h-.936a1.435,1.435,0,0,1-1.047-.37A1.385,1.385,0,0,1,354.906,708.216Z" transform="translate(-331.128 -704.103)" fill="#101820"/>
          <path id="Trazado_167" data-name="Trazado 167" d="M366.665,704.1h.721q.188,0,.188.172v3.951a1.379,1.379,0,0,1-.373,1.034,1.427,1.427,0,0,1-1.043.365h-.945a1.436,1.436,0,0,1-1.047-.361,1.386,1.386,0,0,1-.37-1.039v-3.942a.16.16,0,0,1,.181-.181h.73a.16.16,0,0,1,.181.181v3.89a.54.54,0,0,0,.116.391.525.525,0,0,0,.382.116h.593a.428.428,0,0,0,.507-.507v-3.89A.16.16,0,0,1,366.665,704.1Z" transform="translate(-334.651 -704.103)" fill="#101820"/>
          <path id="Trazado_168" data-name="Trazado 168" d="M373.8,709.625h-.73a.16.16,0,0,1-.181-.181v-5.161a.16.16,0,0,1,.181-.181h2.044a1.435,1.435,0,0,1,1.048.37,1.387,1.387,0,0,1,.378,1.039v.669a1.253,1.253,0,0,1-.764,1.288v.035l.919,1.915q.077.206-.146.206h-.7a.541.541,0,0,1-.224-.034.257.257,0,0,1-.112-.146l-.858-1.854h-.576c-.068,0-.1.031-.1.094v1.76A.16.16,0,0,1,373.8,709.625Zm.275-2.912h.841a.594.594,0,0,0,.4-.115.482.482,0,0,0,.129-.374v-.67a.509.509,0,0,0-.129-.387.578.578,0,0,0-.4-.12h-.841a.083.083,0,0,0-.094.095v1.477A.083.083,0,0,0,374.079,706.713Z" transform="translate(-338.254 -704.103)" fill="#101820"/>
        </g>
        <g id="Grupo_97" data-name="Grupo 97" transform="translate(88.801)">
          <path id="Trazado_169" data-name="Trazado 169" d="M402.074,704.1h1.272a.159.159,0,0,1,.18.181v5.161a.16.16,0,0,1-.18.181h-.7a.159.159,0,0,1-.18-.181v-4.07h-.034l-.876,2.877a.21.21,0,0,1-.214.172h-.722a.211.211,0,0,1-.214-.172l-.893-2.885h-.034v4.079a.218.218,0,0,1-.034.142.2.2,0,0,1-.146.039h-.7a.16.16,0,0,1-.181-.181v-5.161a.16.16,0,0,1,.181-.181h1.279a.162.162,0,0,1,.163.12l.91,3.031h.051l.919-3.031A.146.146,0,0,1,402.074,704.1Z" transform="translate(-398.407 -702.446)" fill="#101820"/>
          <path id="Trazado_170" data-name="Trazado 170" d="M412.782,708.539h-2.808a.159.159,0,0,1-.18-.181V703.2a.159.159,0,0,1,.18-.181h2.808c.115,0,.172.06.172.181v.584c0,.12-.057.18-.172.18h-1.795c-.068,0-.1.032-.1.095v1.116c0,.063.034.095.1.095h1.468a.159.159,0,0,1,.181.18v.584a.159.159,0,0,1-.181.18h-1.468c-.068,0-.1.031-.1.095V707.5c0,.063.034.094.1.094h1.795c.115,0,.172.06.172.18v.584C412.954,708.478,412.9,708.539,412.782,708.539Zm-1.245-7.179h.85c.063,0,.1.017.12.051s.006.074-.034.12l-.7.824a.292.292,0,0,1-.232.112h-.558c-.114,0-.143-.06-.086-.18l.378-.765A.289.289,0,0,1,411.537,701.36Z" transform="translate(-402.915 -701.36)" fill="#101820"/>
          <path id="Trazado_171" data-name="Trazado 171" d="M418.06,709.625h-.85a.129.129,0,0,1-.12-.056.136.136,0,0,1,0-.133l1.331-2.636-1.288-2.508a.13.13,0,0,1,0-.129.126.126,0,0,1,.12-.06h.825a.273.273,0,0,1,.283.181l.816,1.846h.034l.807-1.846a.287.287,0,0,1,.275-.181h.841a.136.136,0,0,1,.125.064.132.132,0,0,1,0,.133l-1.305,2.5,1.331,2.627a.142.142,0,0,1,.009.142.14.14,0,0,1-.129.056h-.858a.25.25,0,0,1-.249-.172l-.85-1.854h-.034l-.858,1.854A.265.265,0,0,1,418.06,709.625Z" transform="translate(-405.797 -702.446)" fill="#101820"/>
          <path id="Trazado_172" data-name="Trazado 172" d="M427.573,704.284v5.161a.159.159,0,0,1-.18.181h-.73a.16.16,0,0,1-.181-.181v-5.161a.16.16,0,0,1,.181-.181h.73A.159.159,0,0,1,427.573,704.284Z" transform="translate(-409.523 -702.446)" fill="#101820"/>
          <path id="Trazado_173" data-name="Trazado 173" d="M433.485,709.625h-.936a1.438,1.438,0,0,1-1.048-.361,1.388,1.388,0,0,1-.368-1.039V705.5a1.389,1.389,0,0,1,.368-1.039,1.438,1.438,0,0,1,1.048-.361h.936a1.432,1.432,0,0,1,1.043.365,1.382,1.382,0,0,1,.373,1.035v.4a.167.167,0,0,1-.189.189h-.721q-.18,0-.18-.189v-.352a.428.428,0,0,0-.507-.507h-.584a.525.525,0,0,0-.382.117.535.535,0,0,0-.116.39v2.619a.537.537,0,0,0,.116.391.525.525,0,0,0,.382.116h.584a.428.428,0,0,0,.507-.507v-.352q0-.189.18-.188h.721a.167.167,0,0,1,.189.188v.4a1.379,1.379,0,0,1-.373,1.034A1.427,1.427,0,0,1,433.485,709.625Z" transform="translate(-411.364 -702.446)" fill="#101820"/>
          <path id="Trazado_174" data-name="Trazado 174" d="M442.224,709.625h-.962a1.436,1.436,0,0,1-1.047-.361,1.386,1.386,0,0,1-.369-1.039V705.5a1.386,1.386,0,0,1,.369-1.039,1.436,1.436,0,0,1,1.047-.361h.962a1.438,1.438,0,0,1,1.048.361,1.389,1.389,0,0,1,.369,1.039v2.723a1.388,1.388,0,0,1-.369,1.039A1.438,1.438,0,0,1,442.224,709.625Zm-.79-.945h.61a.427.427,0,0,0,.506-.507v-2.619a.428.428,0,0,0-.506-.507h-.61a.523.523,0,0,0-.387.117.553.553,0,0,0-.112.39v2.619a.554.554,0,0,0,.112.391A.523.523,0,0,0,441.435,708.68Z" transform="translate(-414.814 -702.446)" fill="#101820"/>
        </g>
        <g id="Grupo_98" data-name="Grupo 98" transform="translate(32.265 3.945)">
          <circle id="Elipse_3" data-name="Elipse 3" cx="0.752" cy="0.752" r="0.752" fill="#101820"/>
        </g>
        <g id="Grupo_99" data-name="Grupo 99" transform="translate(81.773 3.945)">
          <circle id="Elipse_4" data-name="Elipse 4" cx="0.752" cy="0.752" r="0.752" fill="#101820"/>
        </g>
      </g>
    </g>
    <g id="Grupo_102" data-name="Grupo 102" transform="translate(245.141 592.114)">
      <path id="Trazado_175" data-name="Trazado 175" d="M336.7,621.507c.1.122.2.242.312.359C336.909,621.749,336.806,621.629,336.7,621.507Z" transform="translate(-328.263 -608.597)" fill="#101820"/>
      <path id="Trazado_176" data-name="Trazado 176" d="M338.6,623.4c-.085-.067-.169-.135-.251-.2s-.185-.159-.274-.242c.089.083.181.163.274.242S338.519,623.334,338.6,623.4Z" transform="translate(-328.808 -609.171)" fill="#101820"/>
      <path id="Trazado_177" data-name="Trazado 177" d="M324.131,607.343h13.014c0-.033,0-.066,0-.1,0-.15-.009-.3-.02-.446h9.4v-2.059c0-.056,0-.111-.007-.166h0a2.048,2.048,0,0,0-.463-1.143h0a2.057,2.057,0,0,0-1.588-.749h-.848v.887a.911.911,0,0,1-.91.909h-7.275a6.133,6.133,0,0,1,.62,1.856h-12.23a6.125,6.125,0,0,1,1.25-2.825,6.242,6.242,0,0,1,2.123-1.722,6.128,6.128,0,0,1,2.743-.639,6.2,6.2,0,0,1,2.01.333,6.057,6.057,0,0,1,.8.338l.8.487a6.237,6.237,0,0,1,1.04.94l.014.017,0,.008.043.047,0,0,.008.01.008.01c.046.053.091.108.134.163l0,0,0,0c.093.117.181.238.264.361h7.638a.3.3,0,0,0,.3-.3v-.887h-7.577l-.028-.033-.007-.008c-.014-.015-.027-.03-.039-.045a7.221,7.221,0,0,0-1.256-1.133l-.863-.526a7.209,7.209,0,0,0-10.509,6.315c0,.016,0,.032,0,.049v.043h1.4Z" transform="translate(-322.731 -600.136)" fill="#101820"/>
      <path id="Trazado_178" data-name="Trazado 178" d="M368.523,632.308h1.943l-8.981-5.471h-1.943Z" transform="translate(-337.306 -610.708)" fill="#101820"/>
      <path id="Trazado_179" data-name="Trazado 179" d="M372.654,632.308H374.6l-8.993-5.471h-1.945Z" transform="translate(-338.936 -610.708)" fill="#101820"/>
      <path id="Trazado_180" data-name="Trazado 180" d="M376.311,632.04v-1.164l-4.114-2.519L369.983,627l-.27-.165H367.77Z" transform="translate(-340.563 -610.708)" fill="#101820"/>
      <path id="Trazado_181" data-name="Trazado 181" d="M364.434,632.308h1.943l-8.981-5.471h-1.943Z" transform="translate(-335.686 -610.708)" fill="#101820"/>
      <path id="Trazado_182" data-name="Trazado 182" d="M360.236,632.308h1.943l-8.981-5.471h-1.943Z" transform="translate(-334.024 -610.708)" fill="#101820"/>
      <path id="Trazado_183" data-name="Trazado 183" d="M347.147,626.809l.028.017,6.334,3.844,2.681,1.627h1.879l-8.981-5.471H347.7Q347.421,626.826,347.147,626.809Z" transform="translate(-332.398 -610.697)" fill="#101820"/>
      <path id="Trazado_184" data-name="Trazado 184" d="M356.061,620.989H362.6l-7.525-4.581-4.126-2.513-.244-.149-2.759-1.68H333.29c0,.147,0,.292.011.437.013.271.037.54.074.8q.043.306.106.605a8.766,8.766,0,0,0,.242.908q.116.357.26.7a8.876,8.876,0,0,0,.553,1.1l.029.05c.127.21.262.414.4.613.089.123.182.242.277.361l.105.129c.1.122.2.242.312.359q.248.268.518.516c.089.083.181.163.274.242s.166.136.251.2a8.907,8.907,0,0,0,1.095.736q.287.164.588.307c.2.095.4.183.613.263s.42.153.635.218a9.06,9.06,0,0,0,2.022.359q.274.017.552.017h13.848Zm-18.747-6.436L336,613.736h2.272Zm10.009-.817-.955.817-1.316-.817Zm-2.229,1.458-.955.817-1.316-.817Zm-2.411-1.458-.956.817-1.316-.817Zm-2.958,2.274-1.316-.817h2.271Zm2.328,1.609-1.316-.817h2.272Zm2.343,1.609-1.316-.817h2.271Zm2.07-1.609-1.316-.817h2.272Zm3.268-2.426-.956.817-1.316-.817Zm-.925,4.035-1.316-.817h2.272Zm2.3-1.609-1.316-.817h2.271Zm2.343,1.609-1.316-.817h2.272Z" transform="translate(-326.912 -604.859)" fill="#101820"/>
      <path id="Trazado_185" data-name="Trazado 185" d="M335.363,605.41l-1.064-1.064h-2.613v1.8h7.292a6.118,6.118,0,0,0-.363-.607h-3.126Zm-2.124.393a.529.529,0,1,1,.529-.529A.529.529,0,0,1,333.239,605.8Z" transform="translate(-326.277 -601.803)" fill="#101820"/>
      <rect id="Rectángulo_18" data-name="Rectángulo 18" width="0.889" transform="translate(1.4 7.207)" fill="#101820"/>
      <rect id="Rectángulo_19" data-name="Rectángulo 19" width="0.152" transform="translate(0 7.207)" fill="#101820"/>
      <rect id="Rectángulo_20" data-name="Rectángulo 20" width="0.889" transform="translate(3.537 7.207)" fill="#101820"/>
      <path id="Trazado_186" data-name="Trazado 186" d="M327.775,626.734a14.454,14.454,0,0,0,1.392,1.523l5.229,3.183a14.03,14.03,0,0,0,1.5.428c.22.05.443.094.667.133l-8.911-5.426C327.695,626.629,327.734,626.682,327.775,626.734Z" transform="translate(-324.681 -610.604)" fill="#101820"/>
      <path id="Trazado_187" data-name="Trazado 187" d="M326.1,624.234l10.728,6.532c.2.019.41.034.617.045h.706l-12.735-7.754Q325.727,623.663,326.1,624.234Z" transform="translate(-323.793 -609.211)" fill="#101820"/>
      <path id="Trazado_188" data-name="Trazado 188" d="M324.531,621.126l13.989,8.518q.546-.031,1.081-.1l-15.476-9.423Q324.309,620.632,324.531,621.126Z" transform="translate(-323.283 -608.048)" fill="#101820"/>
      <path id="Trazado_189" data-name="Trazado 189" d="M323.6,618.4l16.4,9.989q.466-.085.921-.2l-17.568-10.7Q323.463,617.956,323.6,618.4Z" transform="translate(-322.978 -607.01)" fill="#101820"/>
      <path id="Trazado_190" data-name="Trazado 190" d="M323.055,615.92l18.309,11.148q.41-.122.808-.268l-19.248-11.72Q322.977,615.5,323.055,615.92Z" transform="translate(-322.807 -606.053)" fill="#101820"/>
      <path id="Trazado_191" data-name="Trazado 191" d="M334.83,620.693c-.208-.08-.413-.168-.613-.263s-.4-.2-.588-.307a8.9,8.9,0,0,1-1.095-.736c-.085-.066-.169-.135-.251-.2s-.185-.159-.274-.242q-.27-.247-.518-.516c-.108-.117-.211-.237-.312-.359l-.105-.129c-.026-.033-.053-.065-.079-.1l-8.246-5.02c.008.264.022.527.044.786l19.851,12.088q.366-.151.721-.321l-6.955-4.235a8.961,8.961,0,0,1-.945-.227Q335.143,620.814,334.83,620.693Z" transform="translate(-322.738 -605.158)" fill="#101820"/>
      <path id="Trazado_192" data-name="Trazado 192" d="M324.231,612.066h-1.248l7.473,4.55a8.876,8.876,0,0,1-.553-1.1Z" transform="translate(-322.831 -604.859)" fill="#101820"/>
      <rect id="Rectángulo_21" data-name="Rectángulo 21" width="1.248" transform="translate(0.152 7.207)" fill="#101820"/>
      <path id="Trazado_193" data-name="Trazado 193" d="M326.52,612.066l4.523,2.755a8.75,8.75,0,0,1-.242-.908l-3.033-1.847Z" transform="translate(-324.231 -604.859)" fill="#101820"/>
      <rect id="Rectángulo_22" data-name="Rectángulo 22" width="1.248" transform="translate(2.762 7.812) rotate(-75.964)" fill="#101820"/>
      <path id="Trazado_194" data-name="Trazado 194" d="M330.058,612.066l2.038,1.241c-.037-.265-.061-.533-.074-.8l-.716-.437Z" transform="translate(-325.632 -604.859)" fill="#101820"/>
      <rect id="Rectángulo_23" data-name="Rectángulo 23" width="1.248" transform="translate(4.426 7.207)" fill="#101820"/>
    </g>
  </g>
</svg>
